<?xml version="1.0" encoding="UTF-8" standalone="no"?>
<!-- Created with Inkscape (http://www.inkscape.org/) -->

<svg
   xmlns:dc="http://purl.org/dc/elements/1.1/"
   xmlns:cc="http://creativecommons.org/ns#"
   xmlns:rdf="http://www.w3.org/1999/02/22-rdf-syntax-ns#"
   xmlns:svg="http://www.w3.org/2000/svg"
   xmlns="http://www.w3.org/2000/svg"
   xmlns:xlink="http://www.w3.org/1999/xlink"
   xmlns:sodipodi="http://sodipodi.sourceforge.net/DTD/sodipodi-0.dtd"
   xmlns:inkscape="http://www.inkscape.org/namespaces/inkscape"
   width="1052.3622"
   height="744.09448"
   id="svg2"
   version="1.1"
   inkscape:version="0.48.3.1 r9886"
   sodipodi:docname="FileLifecycle.svg">
  <defs
     id="defs4">
    <linearGradient
       id="linearGradient3885">
      <stop
         id="stop3887"
         offset="0"
         style="stop-color:#ff8b8b;stop-opacity:1;" />
      <stop
         id="stop3889"
         offset="1"
         style="stop-color:#cf6767;stop-opacity:0.55384618;" />
    </linearGradient>
    <linearGradient
       id="linearGradient3857">
      <stop
         style="stop-color:#cccccc;stop-opacity:1;"
         offset="0"
         id="stop3859" />
      <stop
         style="stop-color:#cccccc;stop-opacity:0;"
         offset="1"
         id="stop3861" />
    </linearGradient>
    <linearGradient
       inkscape:collect="always"
       xlink:href="#linearGradient3857"
       id="linearGradient3875"
       gradientUnits="userSpaceOnUse"
       gradientTransform="matrix(3.3950678,0,0,1.0486547,-26.341755,282.81562)"
       x1="44.004678"
       y1="235.70692"
       x2="281.66599"
       y2="235.70692" />
    <linearGradient
       inkscape:collect="always"
       xlink:href="#linearGradient3857"
       id="linearGradient3879"
       gradientUnits="userSpaceOnUse"
       gradientTransform="matrix(-1.0486547,0,0,1.0486547,424.44422,475.60843)"
       x1="44.004678"
       y1="235.70692"
       x2="281.66599"
       y2="235.70692" />
    <linearGradient
       inkscape:collect="always"
       xlink:href="#linearGradient3885"
       id="linearGradient3883"
       gradientUnits="userSpaceOnUse"
       gradientTransform="matrix(1.0486547,0,0,1.0486547,357.28683,376.03412)"
       x1="44.004677"
       y1="235.70692"
       x2="281.66599"
       y2="235.70692" />
    <linearGradient
       inkscape:collect="always"
       xlink:href="#linearGradient3885"
       id="linearGradient3905"
       gradientUnits="userSpaceOnUse"
       gradientTransform="matrix(1.0486547,0,0,1.0486547,631.64585,467.13402)"
       x1="44.004677"
       y1="235.70692"
       x2="281.66599"
       y2="235.70692" />
    <linearGradient
       inkscape:collect="always"
       xlink:href="#linearGradient3885"
       id="linearGradient3909"
       gradientUnits="userSpaceOnUse"
       gradientTransform="matrix(-2.2562764,0,0,1.0486547,1034.0889,626.0292)"
       x1="44.004677"
       y1="235.70692"
       x2="281.66599"
       y2="235.70692" />
  </defs>
  <sodipodi:namedview
     id="base"
     pagecolor="#ffffff"
     bordercolor="#666666"
     borderopacity="1.0"
     inkscape:pageopacity="0.0"
     inkscape:pageshadow="2"
     inkscape:zoom="0.98994949"
     inkscape:cx="566.08764"
     inkscape:cy="492.04674"
     inkscape:document-units="px"
     inkscape:current-layer="layer1"
     showgrid="false"
     inkscape:window-width="1855"
     inkscape:window-height="1176"
     inkscape:window-x="65"
     inkscape:window-y="24"
     inkscape:window-maximized="1"
     showguides="true"
     inkscape:guide-bbox="true" />
  <metadata
     id="metadata7">
    <rdf:RDF>
      <cc:Work
         rdf:about="">
        <dc:format>image/svg+xml</dc:format>
        <dc:type
           rdf:resource="http://purl.org/dc/dcmitype/StillImage" />
        <dc:title></dc:title>
      </cc:Work>
    </rdf:RDF>
  </metadata>
  <g
     inkscape:label="Layer 1"
     inkscape:groupmode="layer"
     id="layer1"
     transform="translate(0,-308.2677)">
    <g
       id="g2993"
       transform="matrix(1.0486547,0,0,1.0486547,-88.118599,-26.072691)">
      <rect
         ry="17.892136"
         transform="translate(0,308.2677)"
         y="51.129837"
         x="87.88327"
         height="81.822357"
         width="213.14218"
         id="rect2987"
         style="fill:#cccccc;fill-opacity:1;stroke:#000000;stroke-width:1;stroke-miterlimit:4;stroke-dasharray:none" />
      <text
         sodipodi:linespacing="125%"
         id="text2989"
         y="412.30127"
         x="113.59303"
         style="font-size:32.16860962px;font-style:normal;font-weight:normal;line-height:125%;letter-spacing:0px;word-spacing:0px;fill:#000000;fill-opacity:1;stroke:none;font-family:Sans"
         xml:space="preserve"><tspan
           y="412.30127"
           x="113.59303"
           id="tspan2991"
           sodipodi:role="line">untracked</tspan></text>
    </g>
    <rect
       ry="18.762672"
       y="350.81122"
       x="277.69345"
       height="85.803406"
       width="223.51256"
       id="rect3000"
       style="fill:#93ff83;fill-opacity:1;stroke:#000000;stroke-width:1.04865479;stroke-miterlimit:4;stroke-dasharray:none" />
    <text
       sodipodi:linespacing="125%"
       id="text3002"
       y="406.28894"
       x="294.27704"
       style="font-size:33.73376465px;font-style:normal;font-weight:normal;line-height:125%;letter-spacing:0px;word-spacing:0px;fill:#000000;fill-opacity:1;stroke:none;font-family:Sans"
       xml:space="preserve"><tspan
         y="406.28894"
         x="294.27704"
         id="tspan3004"
         sodipodi:role="line">unmodified</tspan></text>
    <rect
       style="fill:#e29090;fill-opacity:1;stroke:#000000;stroke-width:1.04865479;stroke-miterlimit:4;stroke-dasharray:none"
       id="rect3008"
       width="223.51256"
       height="85.803406"
       x="551.34631"
       y="350.81122"
       ry="18.762672" />
    <text
       xml:space="preserve"
       style="font-size:33.73376465px;font-style:normal;font-weight:normal;line-height:125%;letter-spacing:0px;word-spacing:0px;fill:#000000;fill-opacity:1;stroke:none;font-family:Sans"
       x="589.24408"
       y="406.28894"
       id="text3010"
       sodipodi:linespacing="125%"><tspan
         sodipodi:role="line"
         id="tspan3012"
         x="589.24408"
         y="406.28894">modified</tspan></text>
    <rect
       ry="18.762672"
       y="350.81122"
       x="824.99915"
       height="85.803406"
       width="223.51256"
       id="rect3016"
       style="fill:#56c7e8;fill-opacity:1;stroke:#000000;stroke-width:1.04865479;stroke-miterlimit:4;stroke-dasharray:none" />
    <text
       sodipodi:linespacing="125%"
       id="text3018"
       y="385.38739"
       x="936.76196"
       style="font-size:26.7672081px;font-style:normal;font-weight:normal;text-align:center;line-height:125%;letter-spacing:0px;word-spacing:0px;text-anchor:middle;fill:#000000;fill-opacity:1;stroke:none;font-family:Sans"
       xml:space="preserve"><tspan
         y="385.38739"
         x="936.76196"
         id="tspan3020"
         sodipodi:role="line">staged</tspan><tspan
         id="tspan3022"
         y="418.84641"
         x="936.76196"
         sodipodi:role="line">(index)</tspan></text>
    <rect
       style="fill:#666666;fill-opacity:1;stroke:#666666;stroke-width:0.7854712;stroke-miterlimit:4;stroke-dasharray:none"
       id="rect3865"
       width="7.9846087"
       height="530.3197"
       x="108.8415"
       y="452.57391"
       ry="3.8978984" />
    <rect
       ry="3.8978984"
       y="452.57391"
       x="385.67224"
       height="530.3197"
       width="7.9846087"
       id="rect3867"
       style="fill:#666666;fill-opacity:1;stroke:#666666;stroke-width:0.7854712;stroke-miterlimit:4;stroke-dasharray:none" />
    <rect
       style="fill:#666666;fill-opacity:1;stroke:#666666;stroke-width:0.7854712;stroke-miterlimit:4;stroke-dasharray:none"
       id="rect3869"
       width="7.9846087"
       height="530.3197"
       x="662.50293"
       y="452.57391"
       ry="3.8978984" />
    <rect
       ry="3.8978984"
       y="452.57391"
       x="939.33368"
       height="530.3197"
       width="7.9846087"
       id="rect3871"
       style="fill:#666666;fill-opacity:1;stroke:#666666;stroke-width:0.7854712;stroke-miterlimit:4;stroke-dasharray:none" />
    <path
       sodipodi:nodetypes="csssccsssccccc"
       inkscape:connector-curvature="0"
       d="m 807.2535,483.01037 c -3.60023,0.0928 2.3168,26.08529 -4.45602,26.08529 l -666.06989,0 c -6.99129,0 -12.62541,1.74025 -12.62541,3.89968 l 0,17.23727 -0.003,0.0662 0.42865,16.6795 c 0.0557,2.15937 5.63415,3.89969 12.62542,3.89969 l 666.06992,0 c 6.99129,0 0.50949,27.70511 4.88041,26.01974 L 928.89314,529.8089 c -0.48829,-0.14078 -121.21517,-46.73299 -121.21517,-46.73299 -0.13648,-0.0526 -0.30827,-0.0685 -0.42438,-0.0655 z"
       style="fill:url(#linearGradient3875);fill-opacity:1;stroke:#000000;stroke-width:1.15673161;stroke-miterlimit:4"
       id="path3873" />
    <path
       sodipodi:nodetypes="csssccsssccccc"
       inkscape:connector-curvature="0"
       d="m 166.96673,675.8032 c 1.11203,0.0928 -0.7156,26.08528 1.37636,26.08528 l 205.73295,0 c 2.15945,0 3.89969,1.74026 3.89969,3.89969 l 0,17.23726 10e-4,0.0662 -0.13241,16.67951 c -0.0172,2.15936 -1.74025,3.89968 -3.89968,3.89968 l -205.73296,0 c -2.15945,0 -0.15738,27.70511 -1.50745,26.01975 l -37.30898,-47.08885 c 0.15082,-0.14077 37.44044,-46.73298 37.44044,-46.73298 0.0422,-0.0526 0.0952,-0.0685 0.13109,-0.0655 z"
       style="fill:url(#linearGradient3879);fill-opacity:1;stroke:#000000;stroke-width:0.64287215;stroke-miterlimit:4"
       id="path3877" />
    <path
       sodipodi:nodetypes="csssccsssccccc"
       inkscape:connector-curvature="0"
       d="m 614.76436,576.22888 c -1.11203,0.0928 0.7156,26.08529 -1.37636,26.08529 l -205.73295,0 c -2.15944,0 -3.89969,1.74025 -3.89969,3.89968 l 0,17.23726 -10e-4,0.0662 0.13241,16.67951 c 0.0172,2.15937 1.74025,3.89968 3.89968,3.89968 l 205.73297,0 c 2.15944,0 0.15737,27.70511 1.50744,26.01975 l 37.30898,-47.08885 c -0.15082,-0.14077 -37.44044,-46.73298 -37.44044,-46.73298 -0.0422,-0.0526 -0.0952,-0.0685 -0.13109,-0.0655 z"
       style="fill:url(#linearGradient3883);fill-opacity:1;stroke:#000000;stroke-width:0.64287215;stroke-miterlimit:4"
       id="path3881" />
    <text
       xml:space="preserve"
       style="font-size:29.62755203px;font-style:normal;font-weight:normal;line-height:125%;letter-spacing:0px;word-spacing:0px;fill:#000000;fill-opacity:1;stroke:none;font-family:Sans"
       x="440.15323"
       y="541.13019"
       id="text3891"
       sodipodi:linespacing="125%"><tspan
         sodipodi:role="line"
         id="tspan3893"
         x="440.15323"
         y="541.13019">add the file</tspan></text>
    <text
       sodipodi:linespacing="125%"
       id="text3895"
       y="631.8905"
       x="410.81998"
       style="font-size:29.99462509px;font-style:normal;font-weight:normal;line-height:125%;letter-spacing:0px;word-spacing:0px;fill:#000000;fill-opacity:1;stroke:none;font-family:Sans"
       xml:space="preserve"><tspan
         y="631.8905"
         x="410.81998"
         id="tspan3897"
         sodipodi:role="line">modify the file</tspan></text>
    <text
       xml:space="preserve"
       style="font-size:26.89007759px;font-style:normal;font-weight:normal;line-height:125%;letter-spacing:0px;word-spacing:0px;fill:#000000;fill-opacity:1;stroke:none;font-family:Sans"
       x="161.93193"
       y="731.84326"
       id="text3899"
       sodipodi:linespacing="125%"><tspan
         sodipodi:role="line"
         id="tspan3901"
         x="161.93193"
         y="731.84326">remove the file</tspan></text>
    <path
       id="path3903"
       style="fill:url(#linearGradient3905);fill-opacity:1;stroke:#000000;stroke-width:0.64287215;stroke-miterlimit:4"
       d="m 889.12339,667.32879 c -1.11203,0.0928 0.7156,26.08529 -1.37636,26.08529 l -205.73296,0 c -2.15944,0 -3.89968,1.74025 -3.89968,3.89968 l 0,17.23726 -10e-4,0.0662 0.1324,16.67951 c 0.0172,2.15937 1.74026,3.89968 3.89969,3.89968 l 205.73296,0 c 2.15944,0 0.15737,27.70511 1.50744,26.01975 l 37.30899,-47.08885 c -0.15082,-0.14077 -37.44045,-46.73298 -37.44045,-46.73298 -0.0421,-0.0526 -0.0952,-0.0685 -0.13108,-0.0655 z"
       inkscape:connector-curvature="0"
       sodipodi:nodetypes="csssccsssccccc" />
    <path
       sodipodi:nodetypes="csssccsssccccc"
       inkscape:connector-curvature="0"
       d="m 480.10254,826.22398 c 2.39262,0.0928 -1.53969,26.08528 2.96135,26.08528 l 442.65326,0 c 4.64623,0 8.39052,1.74025 8.39052,3.89969 l 0,17.23726 0.002,0.0662 -0.28488,16.6795 c -0.037,2.15937 -3.74431,3.89969 -8.39052,3.89969 l -442.65328,0 c -4.64623,0 -0.3386,27.70511 -3.24339,26.01974 L 399.26391,873.0225 c 0.32449,-0.14077 80.55653,-46.73299 80.55653,-46.73299 0.0907,-0.0526 0.20488,-0.0685 0.28204,-0.0655 z"
       style="fill:url(#linearGradient3909);fill-opacity:1;stroke:#000000;stroke-width:0.94298434;stroke-miterlimit:4"
       id="path3907" />
    <text
       sodipodi:linespacing="125%"
       id="text3915"
       y="723.33002"
       x="694.47076"
       style="font-size:29.62755203px;font-style:normal;font-weight:normal;line-height:125%;letter-spacing:0px;word-spacing:0px;fill:#000000;fill-opacity:1;stroke:none;font-family:Sans"
       xml:space="preserve"><tspan
         y="723.33002"
         x="694.47076"
         id="tspan3917"
         sodipodi:role="line">stage the file</tspan></text>
    <text
       xml:space="preserve"
       style="font-size:30.99629021px;font-style:normal;font-weight:normal;line-height:125%;letter-spacing:0px;word-spacing:0px;fill:#000000;fill-opacity:1;stroke:none;font-family:Sans"
       x="631.7511"
       y="882.20593"
       id="text3919"
       sodipodi:linespacing="125%"><tspan
         sodipodi:role="line"
         id="tspan3921"
         x="631.7511"
         y="882.20593">commit</tspan></text>
  </g>
</svg>
