<?xml version="1.0" encoding="UTF-8" standalone="no"?>
<!-- Created with Inkscape (http://www.inkscape.org/) -->

<svg
   xmlns:dc="http://purl.org/dc/elements/1.1/"
   xmlns:cc="http://creativecommons.org/ns#"
   xmlns:rdf="http://www.w3.org/1999/02/22-rdf-syntax-ns#"
   xmlns:svg="http://www.w3.org/2000/svg"
   xmlns="http://www.w3.org/2000/svg"
   xmlns:sodipodi="http://sodipodi.sourceforge.net/DTD/sodipodi-0.dtd"
   xmlns:inkscape="http://www.inkscape.org/namespaces/inkscape"
   version="1.1"
   width="1439.2546"
   height="609.93988"
   id="svg3702"
   inkscape:version="0.91 r13725"
   sodipodi:docname="AST.svg">
  <sodipodi:namedview
     pagecolor="#ffffff"
     bordercolor="#666666"
     borderopacity="1"
     objecttolerance="10"
     gridtolerance="10"
     guidetolerance="10"
     inkscape:pageopacity="0"
     inkscape:pageshadow="2"
     inkscape:window-width="1881"
     inkscape:window-height="1163"
     id="namedview285"
     showgrid="false"
     inkscape:zoom="0.6791917"
     inkscape:cx="487.68051"
     inkscape:cy="242.57099"
     inkscape:window-x="39"
     inkscape:window-y="12"
     inkscape:window-maximized="1"
     inkscape:current-layer="svg3702"
     fit-margin-top="0"
     fit-margin-left="0"
     fit-margin-right="0"
     fit-margin-bottom="0" />
  <defs
     id="defs3704">
    <marker
       refX="0"
       refY="0"
       orient="auto"
       id="Arrow1Lend"
       style="overflow:visible">
      <path
         d="M 0,0 5,-5 -12.5,0 5,5 0,0 z"
         transform="matrix(-0.8,0,0,-0.8,-10,0)"
         id="path5462"
         style="fill-rule:evenodd;stroke:#000000;stroke-width:1pt"
         inkscape:connector-curvature="0" />
    </marker>
    <marker
       refX="0"
       refY="0"
       orient="auto"
       id="Arrow1Lend-5"
       style="overflow:visible">
      <path
         d="M 0,0 5,-5 -12.5,0 5,5 0,0 z"
         transform="matrix(-0.8,0,0,-0.8,-10,0)"
         id="path5462-4"
         style="fill-rule:evenodd;stroke:#000000;stroke-width:1pt"
         inkscape:connector-curvature="0" />
    </marker>
    <marker
       refX="0"
       refY="0"
       orient="auto"
       id="Arrow1Lend-7"
       style="overflow:visible">
      <path
         d="M 0,0 5,-5 -12.5,0 5,5 0,0 z"
         transform="matrix(-0.8,0,0,-0.8,-10,0)"
         id="path5462-3"
         style="fill-rule:evenodd;stroke:#000000;stroke-width:1pt"
         inkscape:connector-curvature="0" />
    </marker>
    <marker
       refX="0"
       refY="0"
       orient="auto"
       id="Arrow1Lend-8"
       style="overflow:visible">
      <path
         d="M 0,0 5,-5 -12.5,0 5,5 0,0 z"
         transform="matrix(-0.8,0,0,-0.8,-10,0)"
         id="path5462-0"
         style="fill-rule:evenodd;stroke:#000000;stroke-width:1pt"
         inkscape:connector-curvature="0" />
    </marker>
    <marker
       refX="0"
       refY="0"
       orient="auto"
       id="Arrow1Lend-9"
       style="overflow:visible">
      <path
         d="M 0,0 5,-5 -12.5,0 5,5 0,0 z"
         transform="matrix(-0.8,0,0,-0.8,-10,0)"
         id="path5462-33"
         style="fill-rule:evenodd;stroke:#000000;stroke-width:1pt"
         inkscape:connector-curvature="0" />
    </marker>
    <marker
       refX="0"
       refY="0"
       orient="auto"
       id="Arrow1Lend-4"
       style="overflow:visible">
      <path
         d="M 0,0 5,-5 -12.5,0 5,5 0,0 z"
         transform="matrix(-0.8,0,0,-0.8,-10,0)"
         id="path5462-339"
         style="fill-rule:evenodd;stroke:#000000;stroke-width:1pt"
         inkscape:connector-curvature="0" />
    </marker>
    <marker
       refX="0"
       refY="0"
       orient="auto"
       id="Arrow1Lend-87"
       style="overflow:visible">
      <path
         d="M 0,0 5,-5 -12.5,0 5,5 0,0 z"
         transform="matrix(-0.8,0,0,-0.8,-10,0)"
         id="path5462-6"
         style="fill-rule:evenodd;stroke:#000000;stroke-width:1pt"
         inkscape:connector-curvature="0" />
    </marker>
    <marker
       refX="0"
       refY="0"
       orient="auto"
       id="Arrow1Lend-1"
       style="overflow:visible">
      <path
         d="M 0,0 5,-5 -12.5,0 5,5 0,0 z"
         transform="matrix(-0.8,0,0,-0.8,-10,0)"
         id="path5462-9"
         style="fill-rule:evenodd;stroke:#000000;stroke-width:1pt"
         inkscape:connector-curvature="0" />
    </marker>
    <marker
       refX="0"
       refY="0"
       orient="auto"
       id="Arrow1Lend-6"
       style="overflow:visible">
      <path
         d="M 0,0 5,-5 -12.5,0 5,5 0,0 z"
         transform="matrix(-0.8,0,0,-0.8,-10,0)"
         id="path5462-7"
         style="fill-rule:evenodd;stroke:#000000;stroke-width:1pt"
         inkscape:connector-curvature="0" />
    </marker>
    <marker
       refX="0"
       refY="0"
       orient="auto"
       id="Arrow1Lend-41"
       style="overflow:visible">
      <path
         d="M 0,0 5,-5 -12.5,0 5,5 0,0 z"
         transform="matrix(-0.8,0,0,-0.8,-10,0)"
         id="path5462-61"
         style="fill-rule:evenodd;stroke:#000000;stroke-width:1pt"
         inkscape:connector-curvature="0" />
    </marker>
    <marker
       refX="0"
       refY="0"
       orient="auto"
       id="Arrow1Lend-60"
       style="overflow:visible">
      <path
         d="M 0,0 5,-5 -12.5,0 5,5 0,0 z"
         transform="matrix(-0.8,0,0,-0.8,-10,0)"
         id="path5462-46"
         style="fill-rule:evenodd;stroke:#000000;stroke-width:1pt"
         inkscape:connector-curvature="0" />
    </marker>
    <clipPath
       id="clipPath20">
      <path
         d="M 0,0 612,0 612,792 0,792 0,0 z"
         id="path22"
         inkscape:connector-curvature="0" />
    </clipPath>
  </defs>
  <metadata
     id="metadata3707">
    <rdf:RDF>
      <cc:Work
         rdf:about="">
        <dc:format>image/svg+xml</dc:format>
        <dc:type
           rdf:resource="http://purl.org/dc/dcmitype/StillImage" />
        <dc:title />
      </cc:Work>
    </rdf:RDF>
  </metadata>
  <g
     id="g4461"
     transform="matrix(0.95867393,0,0,0.95863931,29.72415,15.090982)">
    <g
       transform="matrix(0.92157602,0,0,0.92157602,10.240542,604.76828)"
       id="node1">
      <title
         id="title10">3073038412</title>
      <ellipse
         style="fill:none;stroke:#000000;stroke-width:1.41486752"
         id="ellipse12"
         ry="18"
         rx="38.021198"
         cy="-378"
         cx="405" />
      <text
         style="font-size:14px;text-anchor:middle"
         id="text14"
         y="-374.29999"
         x="405">calc [0]</text>
    </g>
    <g
       transform="matrix(0.92157602,0,0,0.92157602,10.240542,604.76828)"
       id="node3">
      <title
         id="title17">3073038668</title>
      <ellipse
         style="fill:none;stroke:#000000;stroke-width:1.41486752"
         id="ellipse19"
         ry="18"
         rx="62.092201"
         cy="-306"
         cx="339" />
      <text
         style="font-size:14px;text-anchor:middle"
         id="text21"
         y="-302.29999"
         x="339">expression [0]</text>
    </g>
    <g
       transform="matrix(0.92157602,0,0,0.92157602,10.240542,604.76828)"
       id="edge2">
      <title
         id="title24">3073038412-&gt;3073038668</title>
      <path
         inkscape:connector-curvature="0"
         style="fill:none;stroke:#000000;stroke-width:1.41486752"
         id="path26"
         d="m 390.024,-361.116 c -8.365,8.872 -18.959,20.107 -28.323,30.039" />
      <polygon
         style="fill:#000000;stroke:#000000;stroke-width:1.41486752"
         id="polygon28"
         points="354.838,-323.797 359.151,-333.474 364.244,-328.672 364.244,-328.672 " />
    </g>
    <g
       transform="matrix(0.92157602,0,0,0.92157602,10.240542,604.76828)"
       id="node43">
      <title
         id="title31">3073038892</title>
      <ellipse
         style="fill:none;stroke:#000000;stroke-width:1.41486752"
         id="ellipse33"
         ry="18"
         rx="51.493099"
         cy="-306"
         cx="471" />
      <text
         style="font-size:14px;text-anchor:middle"
         id="text35"
         y="-302.29999"
         x="471">'EOF' [17]</text>
    </g>
    <g
       transform="matrix(0.92157602,0,0,0.92157602,10.240542,604.76828)"
       id="edge42">
      <title
         id="title38">3073038412-&gt;3073038892</title>
      <path
         inkscape:connector-curvature="0"
         style="fill:none;stroke:#000000;stroke-width:1.41486752"
         id="path40"
         d="m 419.976,-361.116 c 8.486,9 19.266,20.434 28.729,30.47" />
      <polygon
         style="fill:#000000;stroke:#000000;stroke-width:1.41486752"
         id="polygon42"
         points="455.625,-323.307 446.218,-328.182 451.311,-332.984 451.311,-332.984 " />
    </g>
    <g
       transform="matrix(0.92157602,0,0,0.92157602,10.240542,604.76828)"
       id="node5">
      <title
         id="title45">3073038796</title>
      <ellipse
         style="fill:none;stroke:#000000;stroke-width:1.41486752"
         id="ellipse47"
         ry="18"
         rx="32.245701"
         cy="-234"
         cx="294" />
      <text
         style="font-size:14px;text-anchor:middle"
         id="text49"
         y="-230.3"
         x="294">'-' [0]</text>
    </g>
    <g
       transform="matrix(0.92157602,0,0,0.92157602,10.240542,604.76828)"
       id="edge4">
      <title
         id="title52">3073038668-&gt;3073038796</title>
      <path
         inkscape:connector-curvature="0"
         style="fill:none;stroke:#000000;stroke-width:1.41486752"
         id="path54"
         d="m 328.107,-288.055 c -5.441,8.463 -12.128,18.865 -18.135,28.21" />
      <polygon
         style="fill:#000000;stroke:#000000;stroke-width:1.41486752"
         id="polygon56"
         points="304.483,-251.307 306.947,-261.611 312.835,-257.826 312.835,-257.826 " />
    </g>
    <g
       transform="matrix(0.92157602,0,0,0.92157602,10.240542,604.76828)"
       id="node7">
      <title
         id="title59">3073038732</title>
      <ellipse
         style="fill:none;stroke:#000000;stroke-width:1.41486752"
         id="ellipse61"
         ry="18"
         rx="39.469101"
         cy="-234"
         cx="384" />
      <text
         style="font-size:14px;text-anchor:middle"
         id="text63"
         y="-230.3"
         x="384">term [1]</text>
    </g>
    <g
       transform="matrix(0.92157602,0,0,0.92157602,10.240542,604.76828)"
       id="edge6">
      <title
         id="title66">3073038668-&gt;3073038732</title>
      <path
         inkscape:connector-curvature="0"
         style="fill:none;stroke:#000000;stroke-width:1.41486752"
         id="path68"
         d="m 349.893,-288.055 c 5.362,8.34 11.934,18.564 17.874,27.803" />
      <polygon
         style="fill:#000000;stroke:#000000;stroke-width:1.41486752"
         id="polygon70"
         points="373.207,-251.789 364.855,-258.308 370.744,-262.093 370.744,-262.093 " />
    </g>
    <g
       transform="matrix(0.92157602,0,0,0.92157602,10.240542,604.76828)"
       id="node9">
      <title
         id="title73">3073038828</title>
      <ellipse
         style="fill:none;stroke:#000000;stroke-width:1.41486752"
         id="ellipse75"
         ry="18"
         rx="44.271"
         cy="-162"
         cx="173" />
      <text
         style="font-size:14px;text-anchor:middle"
         id="text77"
         y="-158.3"
         x="173">factor [1]</text>
    </g>
    <g
       transform="matrix(0.92157602,0,0,0.92157602,10.240542,604.76828)"
       id="edge8">
      <title
         id="title80">3073038732-&gt;3073038828</title>
      <path
         inkscape:connector-curvature="0"
         style="fill:none;stroke:#000000;stroke-width:1.41486752"
         id="path82"
         d="m 353.708,-222.396 c -6.183,2.137 -12.65,4.354 -18.708,6.396 -40.026,13.49 -85.779,28.413 -118.43,38.977" />
      <polygon
         style="fill:#000000;stroke:#000000;stroke-width:1.41486752"
         id="polygon84"
         points="206.878,-173.89 215.317,-180.296 217.47,-173.635 217.47,-173.635 " />
    </g>
    <g
       transform="matrix(0.92157602,0,0,0.92157602,10.240542,604.76828)"
       id="node23">
      <title
         id="title87">3073039372</title>
      <ellipse
         style="fill:none;stroke:#000000;stroke-width:1.41486752"
         id="ellipse89"
         ry="18"
         rx="34.170799"
         cy="-162"
         cx="270" />
      <text
         style="font-size:14px;text-anchor:middle"
         id="text91"
         y="-158.3"
         x="270">'*' [6]</text>
    </g>
    <g
       transform="matrix(0.92157602,0,0,0.92157602,10.240542,604.76828)"
       id="edge22">
      <title
         id="title94">3073038732-&gt;3073039372</title>
      <path
         inkscape:connector-curvature="0"
         style="fill:none;stroke:#000000;stroke-width:1.41486752"
         id="path96"
         d="m 361.477,-219.17 c -17.589,10.8 -42.195,25.909 -61.457,37.737" />
      <polygon
         style="fill:#000000;stroke:#000000;stroke-width:1.41486752"
         id="polygon98"
         points="291.319,-176.091 298.01,-184.306 301.672,-178.341 301.672,-178.341 " />
    </g>
    <g
       transform="matrix(0.92157602,0,0,0.92157602,10.240542,604.76828)"
       id="node25">
      <title
         id="title101">3073039500</title>
      <ellipse
         style="fill:none;stroke:#000000;stroke-width:1.41486752"
         id="ellipse103"
         ry="18"
         rx="61.616299"
         cy="-162"
         cx="384" />
      <text
         style="font-size:14px;text-anchor:middle"
         id="text105"
         y="-158.3"
         x="384">number '5' [7]</text>
    </g>
    <g
       transform="matrix(0.92157602,0,0,0.92157602,10.240542,604.76828)"
       id="edge24">
      <title
         id="title108">3073038732-&gt;3073039500</title>
      <path
         inkscape:connector-curvature="0"
         style="fill:none;stroke:#000000;stroke-width:1.41486752"
         id="path110"
         d="m 384,-215.697 c 0,7.714 0,16.985 0,25.585" />
      <polygon
         style="fill:#000000;stroke:#000000;stroke-width:1.41486752"
         id="polygon112"
         points="384,-180.104 380.5,-190.104 387.5,-190.104 387.5,-190.104 " />
    </g>
    <g
       transform="matrix(0.92157602,0,0,0.92157602,10.240542,604.76828)"
       id="node27">
      <title
         id="title115">3073039532</title>
      <ellipse
         style="fill:none;stroke:#000000;stroke-width:1.41486752"
         id="ellipse117"
         ry="18"
         rx="32.245701"
         cy="-162"
         cx="496" />
      <text
         style="font-size:14px;text-anchor:middle"
         id="text119"
         y="-158.3"
         x="496">'/' [8]</text>
    </g>
    <g
       transform="matrix(0.92157602,0,0,0.92157602,10.240542,604.76828)"
       id="edge26">
      <title
         id="title122">3073038732-&gt;3073039532</title>
      <path
         inkscape:connector-curvature="0"
         style="fill:none;stroke:#000000;stroke-width:1.41486752"
         id="path124"
         d="m 406.396,-219.003 c 17.304,10.815 41.401,25.876 60.249,37.656" />
      <polygon
         style="fill:#000000;stroke:#000000;stroke-width:1.41486752"
         id="polygon126"
         points="475.156,-176.027 464.821,-178.359 468.531,-184.295 468.531,-184.295 " />
    </g>
    <g
       transform="matrix(0.92157602,0,0,0.92157602,10.240542,604.76828)"
       id="node29">
      <title
         id="title129">3073039180</title>
      <ellipse
         style="fill:none;stroke:#000000;stroke-width:1.41486752"
         id="ellipse131"
         ry="18"
         rx="44.271"
         cy="-162"
         cx="591" />
      <text
         style="font-size:14px;text-anchor:middle"
         id="text133"
         y="-158.3"
         x="591">factor [9]</text>
    </g>
    <g
       transform="matrix(0.92157602,0,0,0.92157602,10.240542,604.76828)"
       id="edge28">
      <title
         id="title136">3073038732-&gt;3073039180</title>
      <path
         inkscape:connector-curvature="0"
         style="fill:none;stroke:#000000;stroke-width:1.41486752"
         id="path138"
         d="m 414.99,-222.52 c 35.455,11.989 93.724,31.694 133.426,45.12" />
      <polygon
         style="fill:#000000;stroke:#000000;stroke-width:1.41486752"
         id="polygon140"
         points="558.085,-174.131 547.491,-174.019 549.733,-180.65 549.733,-180.65 " />
    </g>
    <g
       transform="matrix(0.92157602,0,0,0.92157602,10.240542,604.76828)"
       id="node11">
      <title
         id="title143">3073038956</title>
      <ellipse
         style="fill:none;stroke:#000000;stroke-width:1.41486752"
         id="ellipse145"
         ry="18"
         rx="32.245701"
         cy="-90"
         cx="60" />
      <text
         style="font-size:14px;text-anchor:middle"
         id="text147"
         y="-86.300003"
         x="60">'(' [1]</text>
    </g>
    <g
       transform="matrix(0.92157602,0,0,0.92157602,10.240542,604.76828)"
       id="edge10">
      <title
         id="title150">3073038828-&gt;3073038956</title>
      <path
         inkscape:connector-curvature="0"
         style="fill:none;stroke:#000000;stroke-width:1.41486752"
         id="path152"
         d="m 149.586,-146.496 c -17.444,10.806 -41.385,25.637 -60.1291,37.248" />
      <polygon
         style="fill:#000000;stroke:#000000;stroke-width:1.41486752"
         id="polygon154"
         points="80.7239,-103.838 87.3818,-112.079 91.0681,-106.129 91.0681,-106.129 " />
    </g>
    <g
       transform="matrix(0.92157602,0,0,0.92157602,10.240542,604.76828)"
       id="node13">
      <title
         id="title157">3073038988</title>
      <ellipse
         style="fill:none;stroke:#000000;stroke-width:1.41486752"
         id="ellipse159"
         ry="18"
         rx="62.092201"
         cy="-90"
         cx="173" />
      <text
         style="font-size:14px;text-anchor:middle"
         id="text161"
         y="-86.300003"
         x="173">expression [2]</text>
    </g>
    <g
       transform="matrix(0.92157602,0,0,0.92157602,10.240542,604.76828)"
       id="edge12">
      <title
         id="title164">3073038828-&gt;3073038988</title>
      <path
         inkscape:connector-curvature="0"
         style="fill:none;stroke:#000000;stroke-width:1.41486752"
         id="path166"
         d="m 173,-143.697 c 0,7.714 0,16.985 0,25.585" />
      <polygon
         style="fill:#000000;stroke:#000000;stroke-width:1.41486752"
         id="polygon168"
         points="173,-108.104 169.5,-118.104 176.5,-118.104 176.5,-118.104 " />
    </g>
    <g
       transform="matrix(0.92157602,0,0,0.92157602,10.240542,604.76828)"
       id="node21">
      <title
         id="title171">3073039052</title>
      <ellipse
         style="fill:none;stroke:#000000;stroke-width:1.41486752"
         id="ellipse173"
         ry="18"
         rx="32.245701"
         cy="-90"
         cx="286" />
      <text
         style="font-size:14px;text-anchor:middle"
         id="text175"
         y="-86.300003"
         x="286">')' [5]</text>
    </g>
    <g
       transform="matrix(0.92157602,0,0,0.92157602,10.240542,604.76828)"
       id="edge20">
      <title
         id="title178">3073038828-&gt;3073039052</title>
      <path
         inkscape:connector-curvature="0"
         style="fill:none;stroke:#000000;stroke-width:1.41486752"
         id="path180"
         d="m 196.414,-146.496 c 17.444,10.806 41.385,25.637 60.129,37.248" />
      <polygon
         style="fill:#000000;stroke:#000000;stroke-width:1.41486752"
         id="polygon182"
         points="265.276,-103.838 254.932,-106.129 258.618,-112.079 258.618,-112.079 " />
    </g>
    <g
       transform="matrix(0.92157602,0,0,0.92157602,10.240542,604.76828)"
       id="node15">
      <title
         id="title185">3073039148</title>
      <ellipse
         style="fill:none;stroke:#000000;stroke-width:1.41486752"
         id="ellipse187"
         ry="18"
         rx="61.616299"
         cy="-18"
         cx="61" />
      <text
         style="font-size:14px;text-anchor:middle"
         id="text189"
         y="-14.3"
         x="61">number '4' [2]</text>
    </g>
    <g
       transform="matrix(0.92157602,0,0,0.92157602,10.240542,604.76828)"
       id="edge14">
      <title
         id="title192">3073038988-&gt;3073039148</title>
      <path
         inkscape:connector-curvature="0"
         style="fill:none;stroke:#000000;stroke-width:1.41486752"
         id="path194"
         d="m 148.144,-73.4647 c -15.806,9.8783 -36.464,22.7897 -53.6997,33.562" />
      <polygon
         style="fill:#000000;stroke:#000000;stroke-width:1.41486752"
         id="polygon196"
         points="85.7869,-34.4918 92.4119,-42.7599 96.122,-36.8239 96.122,-36.8239 " />
    </g>
    <g
       transform="matrix(0.92157602,0,0,0.92157602,10.240542,604.76828)"
       id="node17">
      <title
         id="title199">3073039244</title>
      <ellipse
         style="fill:none;stroke:#000000;stroke-width:1.41486752"
         id="ellipse201"
         ry="18"
         rx="32.245701"
         cy="-18"
         cx="173" />
      <text
         style="font-size:14px;text-anchor:middle"
         id="text203"
         y="-14.3"
         x="173">'-' [3]</text>
    </g>
    <g
       transform="matrix(0.92157602,0,0,0.92157602,10.240542,604.76828)"
       id="edge16">
      <title
         id="title206">3073038988-&gt;3073039244</title>
      <path
         inkscape:connector-curvature="0"
         style="fill:none;stroke:#000000;stroke-width:1.41486752"
         id="path208"
         d="m 173,-71.6966 c 0,7.7139 0,16.9841 0,25.5842" />
      <polygon
         style="fill:#000000;stroke:#000000;stroke-width:1.41486752"
         id="polygon210"
         points="173,-36.1043 169.5,-46.1044 176.5,-46.1043 176.5,-46.1043 " />
    </g>
    <g
       transform="matrix(0.92157602,0,0,0.92157602,10.240542,604.76828)"
       id="node19">
      <title
         id="title213">3073039340</title>
      <ellipse
         style="fill:none;stroke:#000000;stroke-width:1.41486752"
         id="ellipse215"
         ry="18"
         rx="61.616299"
         cy="-18"
         cx="285" />
      <text
         style="font-size:14px;text-anchor:middle"
         id="text217"
         y="-14.3"
         x="285">number '1' [4]</text>
    </g>
    <g
       transform="matrix(0.92157602,0,0,0.92157602,10.240542,604.76828)"
       id="edge18">
      <title
         id="title220">3073038988-&gt;3073039340</title>
      <path
         inkscape:connector-curvature="0"
         style="fill:none;stroke:#000000;stroke-width:1.41486752"
         id="path222"
         d="m 197.856,-73.4647 c 15.806,9.8783 36.464,22.7897 53.7,33.562" />
      <polygon
         style="fill:#000000;stroke:#000000;stroke-width:1.41486752"
         id="polygon224"
         points="260.213,-34.4918 249.878,-36.8239 253.588,-42.7599 253.588,-42.7599 " />
    </g>
    <g
       transform="matrix(0.92157602,0,0,0.92157602,10.240542,604.76828)"
       id="node31">
      <title
         id="title227">3073039628</title>
      <ellipse
         style="fill:none;stroke:#000000;stroke-width:1.41486752"
         id="ellipse229"
         ry="18"
         rx="32.245701"
         cy="-90"
         cx="474" />
      <text
         style="font-size:14px;text-anchor:middle"
         id="text231"
         y="-86.300003"
         x="474">'(' [9]</text>
    </g>
    <g
       transform="matrix(0.92157602,0,0,0.92157602,10.240542,604.76828)"
       id="edge30">
      <title
         id="title234">3073039180-&gt;3073039628</title>
      <path
         inkscape:connector-curvature="0"
         style="fill:none;stroke:#000000;stroke-width:1.41486752"
         id="path236"
         d="m 567.041,-146.666 c -18.238,10.912 -43.454,25.999 -63.035,37.714" />
      <polygon
         style="fill:#000000;stroke:#000000;stroke-width:1.41486752"
         id="polygon238"
         points="495.177,-103.67 501.962,-111.808 505.556,-105.801 505.556,-105.801 " />
    </g>
    <g
       transform="matrix(0.92157602,0,0,0.92157602,10.240542,604.76828)"
       id="node33">
      <title
         id="title241">3073039660</title>
      <ellipse
         style="fill:none;stroke:#000000;stroke-width:1.41486752"
         id="ellipse243"
         ry="18"
         rx="66.416496"
         cy="-90"
         cx="591" />
      <text
         style="font-size:14px;text-anchor:middle"
         id="text245"
         y="-86.300003"
         x="591">expression [10]</text>
    </g>
    <g
       transform="matrix(0.92157602,0,0,0.92157602,10.240542,604.76828)"
       id="edge32">
      <title
         id="title248">3073039180-&gt;3073039660</title>
      <path
         inkscape:connector-curvature="0"
         style="fill:none;stroke:#000000;stroke-width:1.41486752"
         id="path250"
         d="m 591,-143.697 c 0,7.714 0,16.985 0,25.585" />
      <polygon
         style="fill:#000000;stroke:#000000;stroke-width:1.41486752"
         id="polygon252"
         points="591,-108.104 587.5,-118.104 594.5,-118.104 594.5,-118.104 " />
    </g>
    <g
       transform="matrix(0.92157602,0,0,0.92157602,10.240542,604.76828)"
       id="node41">
      <title
         id="title255">3073039724</title>
      <ellipse
         style="fill:none;stroke:#000000;stroke-width:1.41486752"
         id="ellipse257"
         ry="18"
         rx="37.070099"
         cy="-90"
         cx="713" />
      <text
         style="font-size:14px;text-anchor:middle"
         id="text259"
         y="-86.300003"
         x="713">')' [16]</text>
    </g>
    <g
       transform="matrix(0.92157602,0,0,0.92157602,10.240542,604.76828)"
       id="edge40">
      <title
         id="title262">3073039180-&gt;3073039724</title>
      <path
         inkscape:connector-curvature="0"
         style="fill:none;stroke:#000000;stroke-width:1.41486752"
         id="path264"
         d="m 615.689,-146.834 c 18.838,10.808 44.941,25.785 65.369,37.507" />
      <polygon
         style="fill:#000000;stroke:#000000;stroke-width:1.41486752"
         id="polygon266"
         points="689.999,-104.197 679.583,-106.138 683.067,-112.21 683.067,-112.21 " />
    </g>
    <g
       transform="matrix(0.92157602,0,0,0.92157602,10.240542,604.76828)"
       id="node35">
      <title
         id="title269">3073039852</title>
      <ellipse
         style="fill:none;stroke:#000000;stroke-width:1.41486752"
         id="ellipse271"
         ry="18"
         rx="65.465897"
         cy="-18"
         cx="468" />
      <text
         style="font-size:14px;text-anchor:middle"
         id="text273"
         y="-14.3"
         x="468">number '2' [10]</text>
    </g>
    <g
       transform="matrix(0.92157602,0,0,0.92157602,10.240542,604.76828)"
       id="edge34">
      <title
         id="title276">3073039660-&gt;3073039852</title>
      <path
         inkscape:connector-curvature="0"
         style="fill:none;stroke:#000000;stroke-width:1.41486752"
         id="path278"
         d="m 563.702,-73.4647 c -17.596,10.0142 -40.67,23.1457 -59.752,34.0055" />
      <polygon
         style="fill:#000000;stroke:#000000;stroke-width:1.41486752"
         id="polygon280"
         points="495.221,-34.4918 502.181,-42.4799 505.644,-36.3962 505.644,-36.3962 " />
    </g>
    <g
       transform="matrix(0.92157602,0,0,0.92157602,10.240542,604.76828)"
       id="node37">
      <title
         id="title283">3073039916</title>
      <ellipse
         style="fill:none;stroke:#000000;stroke-width:1.41486752"
         id="ellipse285"
         ry="18"
         rx="38.4949"
         cy="-18"
         cx="591" />
      <text
         style="font-size:14px;text-anchor:middle"
         id="text287"
         y="-14.3"
         x="591">'+' [11]</text>
    </g>
    <g
       transform="matrix(0.92157602,0,0,0.92157602,10.240542,604.76828)"
       id="edge36">
      <title
         id="title290">3073039660-&gt;3073039916</title>
      <path
         inkscape:connector-curvature="0"
         style="fill:none;stroke:#000000;stroke-width:1.41486752"
         id="path292"
         d="m 591,-71.6966 c 0,7.7139 0,16.9841 0,25.5842" />
      <polygon
         style="fill:#000000;stroke:#000000;stroke-width:1.41486752"
         id="polygon294"
         points="591,-36.1043 587.5,-46.1044 594.5,-46.1043 594.5,-46.1043 " />
    </g>
    <g
       transform="matrix(0.92157602,0,0,0.92157602,10.240542,604.76828)"
       id="node39">
      <title
         id="title297">3073040076</title>
      <ellipse
         style="fill:none;stroke:#000000;stroke-width:1.41486752"
         id="ellipse299"
         ry="18"
         rx="77.015404"
         cy="-18"
         cx="725" />
      <text
         style="font-size:14px;text-anchor:middle"
         id="text301"
         y="-14.3"
         x="725">number '4.67' [12]</text>
    </g>
    <g
       transform="matrix(0.92157602,0,0,0.92157602,10.240542,604.76828)"
       id="edge38">
      <title
         id="title304">3073039660-&gt;3073040076</title>
      <path
         inkscape:connector-curvature="0"
         style="fill:none;stroke:#000000;stroke-width:1.41486752"
         id="path306"
         d="m 620.076,-73.811 c 19.311,10.0877 44.889,23.4492 65.956,34.4544" />
      <polygon
         style="fill:#000000;stroke:#000000;stroke-width:1.41486752"
         id="polygon308"
         points="695.053,-34.644 684.569,-36.172 687.81,-42.3765 687.81,-42.3765 " />
    </g>
    <g
       id="node1-7"
       transform="matrix(1.068263,0,0,1.068263,709.02092,593.43114)">
      <title
         id="title10-2">3073038412</title>
    </g>
    <g
       transform="translate(5.9292425,-0.64854121)"
       id="g3436">
      <g
         transform="matrix(1.2082994,0,0,1.2082994,683.33486,592.91831)"
         id="node3-8">
        <title
           id="title17-5">3073038668</title>
        <ellipse
           cx="339"
           cy="-306"
           rx="62.092201"
           ry="18"
           id="ellipse19-7"
           style="fill:none;stroke:#000000;stroke-width:1.07912672" />
        <text
           x="339"
           y="-302.29999"
           id="text21-0"
           style="font-size:14px;text-anchor:middle">negation</text>
      </g>
      <g
         id="g3309"
         transform="matrix(1.1310879,0,0,1.1310879,-116.142,-59.74883)">
        <ellipse
           cx="384"
           cy="-234"
           rx="39.469101"
           ry="18"
           transform="matrix(1.3088602,0,0,1.31245,482.27155,693.46621)"
           id="ellipse61-6"
           style="fill:none;stroke:#000000;stroke-width:0.87955409" />
        <text
           x="983.15265"
           y="388.75851"
           id="text63-0"
           style="font-size:12.76369858px;text-anchor:middle">multiplication</text>
      </g>
      <g
         id="g3315"
         transform="matrix(1.1310879,0,0,1.1310879,-116.142,-59.74883)">
        <ellipse
           transform="matrix(1.068263,0,0,1.068263,716.23992,625.31541)"
           cx="173"
           cy="-162"
           rx="44.271"
           ry="18"
           id="ellipse75-4"
           style="fill:none;stroke:#000000;stroke-width:1.07912672" />
        <text
           x="901.01672"
           y="455.44046"
           id="text77-8"
           style="font-size:12.89311981px;text-anchor:middle">substraction</text>
      </g>
      <g
         transform="matrix(1.2082994,0,0,1.2082994,602.56553,651.28248)"
         id="node25-7">
        <title
           id="title101-6">3073039500</title>
        <ellipse
           cx="384"
           cy="-162"
           rx="61.616299"
           ry="18"
           id="ellipse103-6"
           style="fill:none;stroke:#000000;stroke-width:1.07912672" />
        <text
           x="384"
           y="-158.3"
           id="text105-0"
           style="font-size:14px;text-anchor:middle">number '5'</text>
      </g>
      <g
         transform="matrix(1.2082994,0,0,1.2082994,493.82161,499.10938)"
         id="node27-9">
        <title
           id="title115-9">3073039532</title>
        <ellipse
           cx="496"
           cy="-162"
           rx="32.245701"
           ry="18"
           id="ellipse117-7"
           style="fill:none;stroke:#000000;stroke-width:1.07912672" />
        <text
           x="496"
           y="-158.3"
           id="text119-3"
           style="font-size:14px;text-anchor:middle">division</text>
      </g>
      <g
         transform="matrix(1.2082994,0,0,1.2082994,747.69324,569.42161)"
         id="node15-0">
        <title
           id="title185-9">3073039148</title>
        <ellipse
           cx="61"
           cy="-18"
           rx="61.616299"
           ry="18"
           id="ellipse187-5"
           style="fill:none;stroke:#000000;stroke-width:1.07912672" />
        <text
           x="61"
           y="-14.3"
           id="text189-0"
           style="font-size:14px;text-anchor:middle">number '4'</text>
      </g>
      <g
         transform="matrix(1.2082994,0,0,1.2082994,639.30693,569.42161)"
         id="node19-6">
        <title
           id="title213-4">3073039340</title>
        <ellipse
           cx="285"
           cy="-18"
           rx="61.616299"
           ry="18"
           id="ellipse215-9"
           style="fill:none;stroke:#000000;stroke-width:1.07912672" />
        <text
           x="285"
           y="-14.3"
           id="text217-0"
           style="font-size:14px;text-anchor:middle">number '1'</text>
      </g>
      <g
         transform="matrix(1.2082994,0,0,1.2082994,505.37009,491.92242)"
         id="node33-2">
        <title
           id="title241-4">3073039660</title>
        <ellipse
           cx="591"
           cy="-90"
           rx="66.416496"
           ry="18"
           id="ellipse243-4"
           style="fill:none;stroke:#000000;stroke-width:1.07912672" />
        <text
           x="591"
           y="-86.300003"
           id="text245-9"
           style="font-size:14px;text-anchor:middle">addition</text>
      </g>
      <g
         transform="matrix(1.2082994,0,0,1.2082994,579.17657,536.16915)"
         id="node35-3">
        <title
           id="title269-7">3073039852</title>
        <ellipse
           cx="468"
           cy="-18"
           rx="65.465897"
           ry="18"
           id="ellipse271-9"
           style="fill:none;stroke:#000000;stroke-width:1.07912672" />
        <text
           x="468"
           y="-14.3"
           id="text273-9"
           style="font-size:14px;text-anchor:middle">number '2'</text>
      </g>
      <g
         transform="matrix(1.2082994,0,0,1.2082994,454.60984,535.68858)"
         id="node39-0">
        <title
           id="title297-2">3073040076</title>
        <ellipse
           cx="725"
           cy="-18"
           rx="77.015404"
           ry="18"
           id="ellipse299-3"
           style="fill:none;stroke:#000000;stroke-width:1.07912672" />
        <text
           x="725"
           y="-14.3"
           id="text301-4"
           style="font-size:14px;text-anchor:middle">number '4.67'</text>
      </g>
      <path
         d="m 1093.7706,245.01655 0,28.30873"
         id="path4685-0"
         style="color:#000000;display:inline;overflow:visible;visibility:visible;fill:none;stroke:#000000;stroke-width:1.04312634px;stroke-linecap:butt;stroke-linejoin:miter;stroke-miterlimit:4;stroke-dasharray:none;stroke-dashoffset:0;stroke-opacity:1;marker:none;marker-end:url(#Arrow1Lend);enable-background:accumulate"
         inkscape:connector-curvature="0" />
      <path
         d="m 1060.9029,321.33248 -32.7038,30.28868"
         id="path4685-08"
         style="color:#000000;display:inline;overflow:visible;visibility:visible;fill:none;stroke:#000000;stroke-width:1.04312634px;stroke-linecap:butt;stroke-linejoin:miter;stroke-miterlimit:4;stroke-dasharray:none;stroke-dashoffset:0;stroke-opacity:1;marker:none;marker-end:url(#Arrow1Lend);enable-background:accumulate"
         inkscape:connector-curvature="0"
         sodipodi:nodetypes="cc" />
      <path
         d="m 1135.1979,312.6813 46.3207,47.9158"
         id="path4685-7"
         style="color:#000000;display:inline;overflow:visible;visibility:visible;fill:none;stroke:#000000;stroke-width:1.04312634px;stroke-linecap:butt;stroke-linejoin:miter;stroke-miterlimit:4;stroke-dasharray:none;stroke-dashoffset:0;stroke-opacity:1;marker:none;marker-end:url(#Arrow1Lend);enable-background:accumulate"
         inkscape:connector-curvature="0"
         sodipodi:nodetypes="cc" />
      <path
         d="M 951.6943,397.69079 927.22548,429.374"
         id="path4685-75"
         style="color:#000000;display:inline;overflow:visible;visibility:visible;fill:none;stroke:#000000;stroke-width:1.04312634px;stroke-linecap:butt;stroke-linejoin:miter;stroke-miterlimit:4;stroke-dasharray:none;stroke-dashoffset:0;stroke-opacity:1;marker:none;marker-end:url(#Arrow1Lend);enable-background:accumulate"
         inkscape:connector-curvature="0" />
      <path
         d="m 1033.6577,401.02828 16.054,30.21852"
         id="path4685-75-1"
         style="color:#000000;display:inline;overflow:visible;visibility:visible;fill:none;stroke:#000000;stroke-width:1.04312634px;stroke-linecap:butt;stroke-linejoin:miter;stroke-miterlimit:4;stroke-dasharray:none;stroke-dashoffset:0;stroke-opacity:1;marker:none;marker-end:url(#Arrow1Lend);enable-background:accumulate"
         inkscape:connector-curvature="0" />
      <path
         d="m 1178.2381,410.82648 -22.0317,74.56387"
         id="path4685-75-8"
         style="color:#000000;display:inline;overflow:visible;visibility:visible;fill:none;stroke:#000000;stroke-width:1.04312634px;stroke-linecap:butt;stroke-linejoin:miter;stroke-miterlimit:4;stroke-dasharray:none;stroke-dashoffset:0;stroke-opacity:1;marker:none;marker-end:url(#Arrow1Lend);enable-background:accumulate"
         inkscape:connector-curvature="0"
         sodipodi:nodetypes="cc" />
      <path
         d="m 1253.4665,412.71501 35.8249,71.98489"
         id="path4685-75-5"
         style="color:#000000;display:inline;overflow:visible;visibility:visible;fill:none;stroke:#000000;stroke-width:1.04312634px;stroke-linecap:butt;stroke-linejoin:miter;stroke-miterlimit:4;stroke-dasharray:none;stroke-dashoffset:0;stroke-opacity:1;marker:none;marker-end:url(#Arrow1Lend);enable-background:accumulate"
         inkscape:connector-curvature="0"
         sodipodi:nodetypes="cc" />
      <path
         d="m 868.40875,474.07424 -23.08791,48.25417"
         id="path4685-75-53"
         style="color:#000000;display:inline;overflow:visible;visibility:visible;fill:none;stroke:#000000;stroke-width:1.04312634px;stroke-linecap:butt;stroke-linejoin:miter;stroke-miterlimit:4;stroke-dasharray:none;stroke-dashoffset:0;stroke-opacity:1;marker:none;marker-end:url(#Arrow1Lend);enable-background:accumulate"
         inkscape:connector-curvature="0" />
      <path
         d="m 938.4535,474.75051 20.44804,46.32999"
         id="path4685-75-4"
         style="color:#000000;display:inline;overflow:visible;visibility:visible;fill:none;stroke:#000000;stroke-width:1.04312634px;stroke-linecap:butt;stroke-linejoin:miter;stroke-miterlimit:4;stroke-dasharray:none;stroke-dashoffset:0;stroke-opacity:1;marker:none;marker-end:url(#Arrow1Lend);enable-background:accumulate"
         inkscape:connector-curvature="0" />
    </g>
    <g
       transform="matrix(5.3440062,0,0,-4.0893902,-1578.2586,1443.6392)"
       id="g10">
      <g
         transform="translate(424.6068,284.5781)"
         id="g208"
         style="fill:#214f8f;fill-opacity:1">
        <path
           d="M 0,0 15.203,-13.205 0,-26.344 l 0,6.296 -11.997,0 0,13.645 L 0,-6.403 0,0 Z"
           id="path210"
           style="fill:#214f8f;fill-opacity:1;stroke:#214f8f;stroke-width:0.44949242;stroke-linecap:butt;stroke-linejoin:miter;stroke-miterlimit:4;stroke-dasharray:none;stroke-opacity:1"
           inkscape:connector-curvature="0" />
      </g>
    </g>
    <text
       x="816.29639"
       y="149.02592"
       id="text6035-3"
       xml:space="preserve"
       style="font-style:normal;font-weight:normal;font-size:40.32358551px;line-height:125%;font-family:'Bitstream Vera Sans';letter-spacing:0px;word-spacing:0px;fill:#000000;fill-opacity:1;stroke:none"
       sodipodi:linespacing="125%"><tspan
         x="816.29639"
         y="149.02592"
         id="tspan6037-0">Stablo apstraktne sintakse</tspan></text>
    <text
       x="118.19572"
       y="223.63142"
       id="text6035-3-2"
       xml:space="preserve"
       style="font-style:normal;font-weight:normal;font-size:40.32358551px;line-height:125%;font-family:'Bitstream Vera Sans';letter-spacing:0px;word-spacing:0px;fill:#000000;fill-opacity:1;stroke:none"
       sodipodi:linespacing="125%"><tspan
         x="118.19572"
         y="223.63142"
         id="tspan6037-0-7">Stablo konkretne sintakse</tspan></text>
    <text
       x="174.23367"
       y="23.75082"
       id="text3346"
       xml:space="preserve"
       style="font-style:normal;font-weight:normal;font-size:32.11433029px;line-height:125%;font-family:'Bitstream Vera Sans';letter-spacing:0px;word-spacing:0px;fill:#000000;fill-opacity:1;stroke:none"
       sodipodi:linespacing="125%"><tspan
         x="174.23367"
         y="23.75082"
         id="tspan3348">Gramatika (arpeggio)</tspan></text>
    <text
       sodipodi:linespacing="125%"
       id="text3506"
       y="50.332069"
       x="143.80428"
       style="font-style:normal;font-weight:normal;font-size:16.73164749px;line-height:125%;font-family:'Bitstream Vera Sans';letter-spacing:0px;word-spacing:0px;fill:#000000;fill-opacity:1;stroke:none"
       xml:space="preserve"><tspan
         style="font-style:normal;font-variant:normal;font-weight:normal;font-stretch:normal;font-family:Monospace;-inkscape-font-specification:Monospace"
         y="50.332069"
         x="143.80428"
         id="tspan3508"
         sodipodi:role="line">number = r'\d*\.\d*|\d+'</tspan><tspan
         style="font-style:normal;font-variant:normal;font-weight:normal;font-stretch:normal;font-family:Monospace;-inkscape-font-specification:Monospace"
         id="tspan3510"
         y="71.246628"
         x="143.80428"
         sodipodi:role="line">factor = (&quot;+&quot; / &quot;-&quot;)?</tspan><tspan
         style="font-style:normal;font-variant:normal;font-weight:normal;font-stretch:normal;font-family:Monospace;-inkscape-font-specification:Monospace"
         id="tspan3512"
         y="92.161186"
         x="143.80428"
         sodipodi:role="line">         (number / &quot;(&quot; expression &quot;)&quot;);</tspan><tspan
         style="font-style:normal;font-variant:normal;font-weight:normal;font-stretch:normal;font-family:Monospace;-inkscape-font-specification:Monospace"
         id="tspan3514"
         y="113.07574"
         x="143.80428"
         sodipodi:role="line">term = factor (( &quot;*&quot; / &quot;/&quot;) factor)*</tspan><tspan
         style="font-style:normal;font-variant:normal;font-weight:normal;font-stretch:normal;font-family:Monospace;-inkscape-font-specification:Monospace"
         id="tspan3516"
         y="133.99031"
         x="143.80428"
         sodipodi:role="line">expression = term ((&quot;+&quot; / &quot;-&quot;) term)*</tspan><tspan
         style="font-style:normal;font-variant:normal;font-weight:normal;font-stretch:normal;font-family:Monospace;-inkscape-font-specification:Monospace"
         id="tspan3518"
         y="154.90486"
         x="143.80428"
         sodipodi:role="line">calc = expression+ EOF</tspan><tspan
         style="font-style:normal;font-variant:normal;font-weight:normal;font-stretch:normal;font-family:Monospace;-inkscape-font-specification:Monospace"
         id="tspan3520"
         y="175.81943"
         x="143.80428"
         sodipodi:role="line" /></text>
  </g>
</svg>
