<?xml version="1.0" encoding="UTF-8" standalone="no"?>
<!DOCTYPE svg PUBLIC "-//W3C//DTD SVG 1.1//EN"
 "http://www.w3.org/Graphics/SVG/1.1/DTD/svg11.dtd">
<!-- Generated by graphviz version 2.38.0 (20140413.2041)
 -->
<!-- Title: arpeggio_graph Pages: 1 -->
<svg width="754pt" height="1001pt"
 viewBox="0.00 0.00 753.84 1001.00" xmlns="http://www.w3.org/2000/svg" xmlns:xlink="http://www.w3.org/1999/xlink">
<g id="graph0" class="graph" transform="scale(1 1) rotate(0) translate(4 997)">
<title>arpeggio_graph</title>
<polygon fill="white" stroke="none" points="-4,4 -4,-997 749.84,-997 749.84,4 -4,4"/>
<!-- 140079955476664 -->
<g id="node1" class="node"><title>140079955476664</title>
<ellipse fill="none" stroke="black" cx="554.895" cy="-975" rx="65.7887" ry="18"/>
<text text-anchor="middle" x="554.895" y="-971.3" font-family="Times,serif" font-size="14.00">calc=Sequence</text>
</g>
<!-- 140079955438448 -->
<g id="node2" class="node"><title>140079955438448</title>
<ellipse fill="none" stroke="black" cx="478.895" cy="-888" rx="55.7903" ry="18"/>
<text text-anchor="middle" x="478.895" y="-884.3" font-family="Times,serif" font-size="14.00">OneOrMore</text>
</g>
<!-- 140079955476664&#45;&gt;140079955438448 -->
<g id="edge1" class="edge"><title>140079955476664&#45;&gt;140079955438448</title>
<path fill="none" stroke="black" d="M539.88,-957.207C528.67,-944.669 513.185,-927.35 500.624,-913.302"/>
<polygon fill="black" stroke="black" points="502.895,-910.591 493.62,-905.469 497.677,-915.257 502.895,-910.591"/>
<text text-anchor="middle" x="525.895" y="-927.8" font-family="Times,serif" font-size="14.00">1</text>
</g>
<!-- 140079955203520 -->
<g id="node25" class="node"><title>140079955203520</title>
<ellipse fill="none" stroke="black" cx="580.895" cy="-888" rx="28.6953" ry="18"/>
<text text-anchor="middle" x="580.895" y="-884.3" font-family="Times,serif" font-size="14.00">EOF</text>
</g>
<!-- 140079955476664&#45;&gt;140079955203520 -->
<g id="edge27" class="edge"><title>140079955476664&#45;&gt;140079955203520</title>
<path fill="none" stroke="black" d="M560.157,-956.799C563.775,-944.97 568.651,-929.03 572.765,-915.578"/>
<polygon fill="black" stroke="black" points="576.152,-916.472 575.73,-905.885 569.458,-914.424 576.152,-916.472"/>
<text text-anchor="middle" x="573.895" y="-927.8" font-family="Times,serif" font-size="14.00">2</text>
</g>
<!-- 140079955500896 -->
<g id="node3" class="node"><title>140079955500896</title>
<ellipse fill="none" stroke="black" cx="478.895" cy="-801" rx="90.9839" ry="18"/>
<text text-anchor="middle" x="478.895" y="-797.3" font-family="Times,serif" font-size="14.00">expression=Sequence</text>
</g>
<!-- 140079955438448&#45;&gt;140079955500896 -->
<g id="edge2" class="edge"><title>140079955438448&#45;&gt;140079955500896</title>
<path fill="none" stroke="black" d="M478.895,-869.799C478.895,-858.163 478.895,-842.548 478.895,-829.237"/>
<polygon fill="black" stroke="black" points="482.395,-829.175 478.895,-819.175 475.395,-829.175 482.395,-829.175"/>
<text text-anchor="middle" x="482.895" y="-840.8" font-family="Times,serif" font-size="14.00">1</text>
</g>
<!-- 140079955203464 -->
<g id="node4" class="node"><title>140079955203464</title>
<ellipse fill="none" stroke="black" cx="350.895" cy="-540" rx="68.4888" ry="18"/>
<text text-anchor="middle" x="350.895" y="-536.3" font-family="Times,serif" font-size="14.00">term=Sequence</text>
</g>
<!-- 140079955500896&#45;&gt;140079955203464 -->
<g id="edge3" class="edge"><title>140079955500896&#45;&gt;140079955203464</title>
<path fill="none" stroke="black" d="M457.798,-783.27C443.079,-770.597 423.981,-752 411.895,-732 379.723,-678.761 362.743,-606.78 355.422,-568.165"/>
<polygon fill="black" stroke="black" points="358.842,-567.413 353.608,-558.201 351.956,-568.667 358.842,-567.413"/>
<text text-anchor="middle" x="389.895" y="-666.8" font-family="Times,serif" font-size="14.00">1</text>
</g>
<!-- 140079955499384 -->
<g id="node20" class="node"><title>140079955499384</title>
<ellipse fill="none" stroke="black" cx="478.895" cy="-714" rx="57.6901" ry="18"/>
<text text-anchor="middle" x="478.895" y="-710.3" font-family="Times,serif" font-size="14.00">ZeroOrMore</text>
</g>
<!-- 140079955500896&#45;&gt;140079955499384 -->
<g id="edge21" class="edge"><title>140079955500896&#45;&gt;140079955499384</title>
<path fill="none" stroke="black" d="M478.895,-782.799C478.895,-771.163 478.895,-755.548 478.895,-742.237"/>
<polygon fill="black" stroke="black" points="482.395,-742.175 478.895,-732.175 475.395,-742.175 482.395,-742.175"/>
<text text-anchor="middle" x="482.895" y="-753.8" font-family="Times,serif" font-size="14.00">2</text>
</g>
<!-- 140079955203688 -->
<g id="node5" class="node"><title>140079955203688</title>
<ellipse fill="none" stroke="black" cx="286.895" cy="-279" rx="72.5877" ry="18"/>
<text text-anchor="middle" x="286.895" y="-275.3" font-family="Times,serif" font-size="14.00">factor=Sequence</text>
</g>
<!-- 140079955203464&#45;&gt;140079955203688 -->
<g id="edge4" class="edge"><title>140079955203464&#45;&gt;140079955203688</title>
<path fill="none" stroke="black" d="M327.513,-522.992C311.908,-510.793 292.695,-492.469 283.895,-471 261.476,-416.304 271.73,-345.181 280.028,-307.021"/>
<polygon fill="black" stroke="black" points="283.462,-307.703 282.288,-297.173 276.64,-306.137 283.462,-307.703"/>
<text text-anchor="middle" x="275.895" y="-405.8" font-family="Times,serif" font-size="14.00">1</text>
</g>
<!-- 140079955203408 -->
<g id="node15" class="node"><title>140079955203408</title>
<ellipse fill="none" stroke="black" cx="350.895" cy="-453" rx="57.6901" ry="18"/>
<text text-anchor="middle" x="350.895" y="-449.3" font-family="Times,serif" font-size="14.00">ZeroOrMore</text>
</g>
<!-- 140079955203464&#45;&gt;140079955203408 -->
<g id="edge15" class="edge"><title>140079955203464&#45;&gt;140079955203408</title>
<path fill="none" stroke="black" d="M350.895,-521.799C350.895,-510.163 350.895,-494.548 350.895,-481.237"/>
<polygon fill="black" stroke="black" points="354.395,-481.175 350.895,-471.175 347.395,-481.175 354.395,-481.175"/>
<text text-anchor="middle" x="354.895" y="-492.8" font-family="Times,serif" font-size="14.00">2</text>
</g>
<!-- 140079955203632 -->
<g id="node6" class="node"><title>140079955203632</title>
<ellipse fill="none" stroke="black" cx="156.895" cy="-192" rx="43.5923" ry="18"/>
<text text-anchor="middle" x="156.895" y="-188.3" font-family="Times,serif" font-size="14.00">Optional</text>
</g>
<!-- 140079955203688&#45;&gt;140079955203632 -->
<g id="edge5" class="edge"><title>140079955203688&#45;&gt;140079955203632</title>
<path fill="none" stroke="black" d="M262.443,-262.012C241.275,-248.172 210.556,-228.086 187.71,-213.149"/>
<polygon fill="black" stroke="black" points="189.355,-210.042 179.07,-207.499 185.524,-215.901 189.355,-210.042"/>
<text text-anchor="middle" x="233.895" y="-231.8" font-family="Times,serif" font-size="14.00">1</text>
</g>
<!-- 140079955203856 -->
<g id="node10" class="node"><title>140079955203856</title>
<ellipse fill="none" stroke="black" cx="335.895" cy="-192" rx="67.6881" ry="18"/>
<text text-anchor="middle" x="335.895" y="-188.3" font-family="Times,serif" font-size="14.00">OrderedChoice</text>
</g>
<!-- 140079955203688&#45;&gt;140079955203856 -->
<g id="edge9" class="edge"><title>140079955203688&#45;&gt;140079955203856</title>
<path fill="none" stroke="black" d="M296.811,-260.799C303.764,-248.738 313.18,-232.403 321.028,-218.79"/>
<polygon fill="black" stroke="black" points="324.199,-220.297 326.161,-209.885 318.135,-216.801 324.199,-220.297"/>
<text text-anchor="middle" x="318.895" y="-231.8" font-family="Times,serif" font-size="14.00">2</text>
</g>
<!-- 140079955203800 -->
<g id="node7" class="node"><title>140079955203800</title>
<ellipse fill="none" stroke="black" cx="119.895" cy="-105" rx="67.6881" ry="18"/>
<text text-anchor="middle" x="119.895" y="-101.3" font-family="Times,serif" font-size="14.00">OrderedChoice</text>
</g>
<!-- 140079955203632&#45;&gt;140079955203800 -->
<g id="edge6" class="edge"><title>140079955203632&#45;&gt;140079955203800</title>
<path fill="none" stroke="black" d="M149.585,-174.207C144.399,-162.293 137.334,-146.063 131.397,-132.424"/>
<polygon fill="black" stroke="black" points="134.517,-130.821 127.317,-123.049 128.099,-133.615 134.517,-130.821"/>
<text text-anchor="middle" x="144.895" y="-144.8" font-family="Times,serif" font-size="14.00">1</text>
</g>
<!-- 140079955203912 -->
<g id="node8" class="node"><title>140079955203912</title>
<ellipse fill="none" stroke="black" cx="55.895" cy="-18" rx="55.7903" ry="18"/>
<text text-anchor="middle" x="55.895" y="-14.3" font-family="Times,serif" font-size="14.00">StrMatch(+)</text>
</g>
<!-- 140079955203800&#45;&gt;140079955203912 -->
<g id="edge7" class="edge"><title>140079955203800&#45;&gt;140079955203912</title>
<path fill="none" stroke="black" d="M107.251,-87.2067C97.9591,-74.8663 85.18,-57.8941 74.6941,-43.9675"/>
<polygon fill="black" stroke="black" points="77.3242,-41.6418 68.5131,-35.7584 71.7321,-45.8524 77.3242,-41.6418"/>
<text text-anchor="middle" x="95.895" y="-57.8" font-family="Times,serif" font-size="14.00">1</text>
</g>
<!-- 140079955203968 -->
<g id="node9" class="node"><title>140079955203968</title>
<ellipse fill="none" stroke="black" cx="183.895" cy="-18" rx="53.8905" ry="18"/>
<text text-anchor="middle" x="183.895" y="-14.3" font-family="Times,serif" font-size="14.00">StrMatch(&#45;)</text>
</g>
<!-- 140079955203800&#45;&gt;140079955203968 -->
<g id="edge8" class="edge"><title>140079955203800&#45;&gt;140079955203968</title>
<path fill="none" stroke="black" d="M132.539,-87.2067C141.831,-74.8663 154.61,-57.8941 165.096,-43.9675"/>
<polygon fill="black" stroke="black" points="168.058,-45.8524 171.277,-35.7584 162.466,-41.6418 168.058,-45.8524"/>
<text text-anchor="middle" x="159.895" y="-57.8" font-family="Times,serif" font-size="14.00">2</text>
</g>
<!-- 140079955204136 -->
<g id="node11" class="node"><title>140079955204136</title>
<ellipse fill="none" stroke="black" cx="348.895" cy="-105" rx="143.775" ry="18"/>
<text text-anchor="middle" x="348.895" y="-101.3" font-family="Times,serif" font-size="14.00">number=RegExMatch(\d*\.\d*|\d+)</text>
</g>
<!-- 140079955203856&#45;&gt;140079955204136 -->
<g id="edge10" class="edge"><title>140079955203856&#45;&gt;140079955204136</title>
<path fill="none" stroke="black" d="M338.526,-173.799C340.305,-162.163 342.694,-146.548 344.729,-133.237"/>
<polygon fill="black" stroke="black" points="348.216,-133.59 346.268,-123.175 341.297,-132.531 348.216,-133.59"/>
<text text-anchor="middle" x="347.895" y="-144.8" font-family="Times,serif" font-size="14.00">1</text>
</g>
<!-- 140079955204080 -->
<g id="node12" class="node"><title>140079955204080</title>
<ellipse fill="none" stroke="black" cx="628.895" cy="-105" rx="46.2923" ry="18"/>
<text text-anchor="middle" x="628.895" y="-101.3" font-family="Times,serif" font-size="14.00">Sequence</text>
</g>
<!-- 140079955203856&#45;&gt;140079955204080 -->
<g id="edge11" class="edge"><title>140079955203856&#45;&gt;140079955204080</title>
<path fill="none" stroke="black" d="M379.76,-178.275C434.465,-162.405 527.541,-135.403 583.121,-119.279"/>
<polygon fill="black" stroke="black" points="584.417,-122.548 593.045,-116.4 582.466,-115.825 584.417,-122.548"/>
<text text-anchor="middle" x="504.895" y="-144.8" font-family="Times,serif" font-size="14.00">2</text>
</g>
<!-- 140079955204080&#45;&gt;140079955500896 -->
<g id="edge13" class="edge"><title>140079955204080&#45;&gt;140079955500896</title>
<path fill="none" stroke="black" d="M652.87,-120.681C673.815,-135.546 700.895,-160.637 700.895,-191 700.895,-715 700.895,-715 700.895,-715 700.895,-747.336 617.711,-771.934 553.181,-786.151"/>
<polygon fill="black" stroke="black" points="552.443,-782.73 543.405,-788.258 553.918,-789.573 552.443,-782.73"/>
<text text-anchor="middle" x="704.895" y="-449.3" font-family="Times,serif" font-size="14.00">2</text>
</g>
<!-- 140079955204304 -->
<g id="node13" class="node"><title>140079955204304</title>
<ellipse fill="none" stroke="black" cx="565.895" cy="-18" rx="53.8905" ry="18"/>
<text text-anchor="middle" x="565.895" y="-14.3" font-family="Times,serif" font-size="14.00">StrMatch(()</text>
</g>
<!-- 140079955204080&#45;&gt;140079955204304 -->
<g id="edge12" class="edge"><title>140079955204080&#45;&gt;140079955204304</title>
<path fill="none" stroke="black" d="M616.748,-87.6111C607.569,-75.2265 594.81,-58.012 584.369,-43.9247"/>
<polygon fill="black" stroke="black" points="586.986,-41.5784 578.22,-35.6286 581.362,-45.7466 586.986,-41.5784"/>
<text text-anchor="middle" x="605.895" y="-57.8" font-family="Times,serif" font-size="14.00">1</text>
</g>
<!-- 140079955204360 -->
<g id="node14" class="node"><title>140079955204360</title>
<ellipse fill="none" stroke="black" cx="691.895" cy="-18" rx="53.8905" ry="18"/>
<text text-anchor="middle" x="691.895" y="-14.3" font-family="Times,serif" font-size="14.00">StrMatch())</text>
</g>
<!-- 140079955204080&#45;&gt;140079955204360 -->
<g id="edge14" class="edge"><title>140079955204080&#45;&gt;140079955204360</title>
<path fill="none" stroke="black" d="M641.042,-87.6111C650.221,-75.2265 662.98,-58.012 673.421,-43.9247"/>
<polygon fill="black" stroke="black" points="676.428,-45.7466 679.57,-35.6286 670.804,-41.5784 676.428,-45.7466"/>
<text text-anchor="middle" x="668.895" y="-57.8" font-family="Times,serif" font-size="14.00">3</text>
</g>
<!-- 140079955203576 -->
<g id="node16" class="node"><title>140079955203576</title>
<ellipse fill="none" stroke="black" cx="350.895" cy="-366" rx="46.2923" ry="18"/>
<text text-anchor="middle" x="350.895" y="-362.3" font-family="Times,serif" font-size="14.00">Sequence</text>
</g>
<!-- 140079955203408&#45;&gt;140079955203576 -->
<g id="edge16" class="edge"><title>140079955203408&#45;&gt;140079955203576</title>
<path fill="none" stroke="black" d="M350.895,-434.799C350.895,-423.163 350.895,-407.548 350.895,-394.237"/>
<polygon fill="black" stroke="black" points="354.395,-394.175 350.895,-384.175 347.395,-394.175 354.395,-394.175"/>
<text text-anchor="middle" x="354.895" y="-405.8" font-family="Times,serif" font-size="14.00">1</text>
</g>
<!-- 140079955203576&#45;&gt;140079955203688 -->
<g id="edge20" class="edge"><title>140079955203576&#45;&gt;140079955203688</title>
<path fill="none" stroke="black" d="M338.555,-348.611C329.29,-336.306 316.436,-319.234 305.867,-305.198"/>
<polygon fill="black" stroke="black" points="308.446,-302.804 299.635,-296.92 302.854,-307.014 308.446,-302.804"/>
<text text-anchor="middle" x="326.895" y="-318.8" font-family="Times,serif" font-size="14.00">2</text>
</g>
<!-- 140079955204024 -->
<g id="node17" class="node"><title>140079955204024</title>
<ellipse fill="none" stroke="black" cx="476.895" cy="-279" rx="67.6881" ry="18"/>
<text text-anchor="middle" x="476.895" y="-275.3" font-family="Times,serif" font-size="14.00">OrderedChoice</text>
</g>
<!-- 140079955203576&#45;&gt;140079955204024 -->
<g id="edge17" class="edge"><title>140079955203576&#45;&gt;140079955204024</title>
<path fill="none" stroke="black" d="M373.131,-349.999C392.965,-336.62 422.244,-316.868 444.648,-301.754"/>
<polygon fill="black" stroke="black" points="446.836,-304.5 453.169,-296.006 442.921,-298.697 446.836,-304.5"/>
<text text-anchor="middle" x="425.895" y="-318.8" font-family="Times,serif" font-size="14.00">1</text>
</g>
<!-- 140079955204416 -->
<g id="node18" class="node"><title>140079955204416</title>
<ellipse fill="none" stroke="black" cx="476.895" cy="-192" rx="55.7903" ry="18"/>
<text text-anchor="middle" x="476.895" y="-188.3" font-family="Times,serif" font-size="14.00">StrMatch(*)</text>
</g>
<!-- 140079955204024&#45;&gt;140079955204416 -->
<g id="edge18" class="edge"><title>140079955204024&#45;&gt;140079955204416</title>
<path fill="none" stroke="black" d="M476.895,-260.799C476.895,-249.163 476.895,-233.548 476.895,-220.237"/>
<polygon fill="black" stroke="black" points="480.395,-220.175 476.895,-210.175 473.395,-220.175 480.395,-220.175"/>
<text text-anchor="middle" x="480.895" y="-231.8" font-family="Times,serif" font-size="14.00">1</text>
</g>
<!-- 140079955204472 -->
<g id="node19" class="node"><title>140079955204472</title>
<ellipse fill="none" stroke="black" cx="603.895" cy="-192" rx="53.0913" ry="18"/>
<text text-anchor="middle" x="603.895" y="-188.3" font-family="Times,serif" font-size="14.00">StrMatch(/)</text>
</g>
<!-- 140079955204024&#45;&gt;140079955204472 -->
<g id="edge19" class="edge"><title>140079955204024&#45;&gt;140079955204472</title>
<path fill="none" stroke="black" d="M500.783,-262.012C521.081,-248.427 550.371,-228.823 572.551,-213.978"/>
<polygon fill="black" stroke="black" points="574.606,-216.814 580.97,-208.344 570.713,-210.997 574.606,-216.814"/>
<text text-anchor="middle" x="552.895" y="-231.8" font-family="Times,serif" font-size="14.00">2</text>
</g>
<!-- 140079955203352 -->
<g id="node21" class="node"><title>140079955203352</title>
<ellipse fill="none" stroke="black" cx="478.895" cy="-627" rx="46.2923" ry="18"/>
<text text-anchor="middle" x="478.895" y="-623.3" font-family="Times,serif" font-size="14.00">Sequence</text>
</g>
<!-- 140079955499384&#45;&gt;140079955203352 -->
<g id="edge22" class="edge"><title>140079955499384&#45;&gt;140079955203352</title>
<path fill="none" stroke="black" d="M478.895,-695.799C478.895,-684.163 478.895,-668.548 478.895,-655.237"/>
<polygon fill="black" stroke="black" points="482.395,-655.175 478.895,-645.175 475.395,-655.175 482.395,-655.175"/>
<text text-anchor="middle" x="482.895" y="-666.8" font-family="Times,serif" font-size="14.00">1</text>
</g>
<!-- 140079955203352&#45;&gt;140079955203464 -->
<g id="edge26" class="edge"><title>140079955203352&#45;&gt;140079955203464</title>
<path fill="none" stroke="black" d="M456.599,-611.194C436.402,-597.782 406.39,-577.852 383.501,-562.652"/>
<polygon fill="black" stroke="black" points="385.379,-559.698 375.112,-557.082 381.506,-565.529 385.379,-559.698"/>
<text text-anchor="middle" x="426.895" y="-579.8" font-family="Times,serif" font-size="14.00">2</text>
</g>
<!-- 140079955203744 -->
<g id="node22" class="node"><title>140079955203744</title>
<ellipse fill="none" stroke="black" cx="504.895" cy="-540" rx="67.6881" ry="18"/>
<text text-anchor="middle" x="504.895" y="-536.3" font-family="Times,serif" font-size="14.00">OrderedChoice</text>
</g>
<!-- 140079955203352&#45;&gt;140079955203744 -->
<g id="edge23" class="edge"><title>140079955203352&#45;&gt;140079955203744</title>
<path fill="none" stroke="black" d="M484.157,-608.799C487.751,-597.047 492.587,-581.238 496.685,-567.842"/>
<polygon fill="black" stroke="black" points="500.063,-568.762 499.641,-558.175 493.369,-566.714 500.063,-568.762"/>
<text text-anchor="middle" x="497.895" y="-579.8" font-family="Times,serif" font-size="14.00">1</text>
</g>
<!-- 140079955204528 -->
<g id="node23" class="node"><title>140079955204528</title>
<ellipse fill="none" stroke="black" cx="482.895" cy="-453" rx="55.7903" ry="18"/>
<text text-anchor="middle" x="482.895" y="-449.3" font-family="Times,serif" font-size="14.00">StrMatch(+)</text>
</g>
<!-- 140079955203744&#45;&gt;140079955204528 -->
<g id="edge24" class="edge"><title>140079955203744&#45;&gt;140079955204528</title>
<path fill="none" stroke="black" d="M500.443,-521.799C497.431,-510.163 493.39,-494.548 489.945,-481.237"/>
<polygon fill="black" stroke="black" points="493.235,-479.979 487.34,-471.175 486.458,-481.733 493.235,-479.979"/>
<text text-anchor="middle" x="499.895" y="-492.8" font-family="Times,serif" font-size="14.00">1</text>
</g>
<!-- 140079955204248 -->
<g id="node24" class="node"><title>140079955204248</title>
<ellipse fill="none" stroke="black" cx="610.895" cy="-453" rx="53.8905" ry="18"/>
<text text-anchor="middle" x="610.895" y="-449.3" font-family="Times,serif" font-size="14.00">StrMatch(&#45;)</text>
</g>
<!-- 140079955203744&#45;&gt;140079955204248 -->
<g id="edge25" class="edge"><title>140079955203744&#45;&gt;140079955204248</title>
<path fill="none" stroke="black" d="M525.333,-522.611C541.819,-509.391 565.168,-490.668 583.31,-476.12"/>
<polygon fill="black" stroke="black" points="585.625,-478.75 591.237,-469.764 581.246,-473.289 585.625,-478.75"/>
<text text-anchor="middle" x="568.895" y="-492.8" font-family="Times,serif" font-size="14.00">2</text>
</g>
</g>
</svg>
