<?xml version="1.0" encoding="UTF-8" standalone="no"?>
<!DOCTYPE svg PUBLIC "-//W3C//DTD SVG 1.1//EN"
 "http://www.w3.org/Graphics/SVG/1.1/DTD/svg11.dtd">
<!-- Generated by graphviz version 2.38.0 (20140413.2041)
 -->
<!-- Title: arpeggio_graph Pages: 1 -->
<svg width="1306pt" height="479pt"
 viewBox="0.00 0.00 1306.09 479.00" xmlns="http://www.w3.org/2000/svg" xmlns:xlink="http://www.w3.org/1999/xlink">
<g id="graph0" class="graph" transform="scale(1 1) rotate(0) translate(4 475)">
<title>arpeggio_graph</title>
<polygon fill="white" stroke="none" points="-4,4 -4,-475 1302.09,-475 1302.09,4 -4,4"/>
<!-- 140079955272024 -->
<g id="node1" class="node"><title>140079955272024</title>
<ellipse fill="none" stroke="black" cx="705.497" cy="-453" rx="38.1938" ry="18"/>
<text text-anchor="middle" x="705.497" y="-449.3" font-family="Times,serif" font-size="14.00">calc [0]</text>
</g>
<!-- 140079955271752 -->
<g id="node2" class="node"><title>140079955271752</title>
<ellipse fill="none" stroke="black" cx="609.497" cy="-366" rx="63.8893" ry="18"/>
<text text-anchor="middle" x="609.497" y="-362.3" font-family="Times,serif" font-size="14.00">expression [0]</text>
</g>
<!-- 140079955272024&#45;&gt;140079955271752 -->
<g id="edge1" class="edge"><title>140079955272024&#45;&gt;140079955271752</title>
<path fill="none" stroke="black" d="M688.334,-436.804C673.781,-423.918 652.67,-405.226 635.955,-390.426"/>
<polygon fill="black" stroke="black" points="637.958,-387.525 628.151,-383.516 633.318,-392.766 637.958,-387.525"/>
<text text-anchor="middle" x="667.497" y="-405.8" font-family="Times,serif" font-size="14.00">1</text>
</g>
<!-- 140079955281512 -->
<g id="node33" class="node"><title>140079955281512</title>
<ellipse fill="none" stroke="black" cx="737.497" cy="-366" rx="46.5926" ry="18"/>
<text text-anchor="middle" x="737.497" y="-362.3" font-family="Times,serif" font-size="14.00">EOF [29]</text>
</g>
<!-- 140079955272024&#45;&gt;140079955281512 -->
<g id="edge32" class="edge"><title>140079955272024&#45;&gt;140079955281512</title>
<path fill="none" stroke="black" d="M711.819,-435.207C716.304,-423.293 722.414,-407.063 727.549,-393.424"/>
<polygon fill="black" stroke="black" points="730.831,-394.641 731.079,-384.049 724.28,-392.175 730.831,-394.641"/>
<text text-anchor="middle" x="727.497" y="-405.8" font-family="Times,serif" font-size="14.00">2</text>
</g>
<!-- 140079955222312 -->
<g id="node3" class="node"><title>140079955222312</title>
<ellipse fill="none" stroke="black" cx="319.497" cy="-279" rx="40.0939" ry="18"/>
<text text-anchor="middle" x="319.497" y="-275.3" font-family="Times,serif" font-size="14.00">term [0]</text>
</g>
<!-- 140079955271752&#45;&gt;140079955222312 -->
<g id="edge2" class="edge"><title>140079955271752&#45;&gt;140079955222312</title>
<path fill="none" stroke="black" d="M567.018,-352.549C512.071,-336.444 416.909,-308.552 361.966,-292.448"/>
<polygon fill="black" stroke="black" points="362.775,-289.038 352.194,-289.584 360.806,-295.755 362.775,-289.038"/>
<text text-anchor="middle" x="486.497" y="-318.8" font-family="Times,serif" font-size="14.00">1</text>
</g>
<!-- 140079955279944 -->
<g id="node14" class="node"><title>140079955279944</title>
<ellipse fill="none" stroke="black" cx="512.497" cy="-279" rx="34.394" ry="18"/>
<text text-anchor="middle" x="512.497" y="-275.3" font-family="Times,serif" font-size="14.00"> &#39;+&#39; [8]</text>
</g>
<!-- 140079955271752&#45;&gt;140079955279944 -->
<g id="edge13" class="edge"><title>140079955271752&#45;&gt;140079955279944</title>
<path fill="none" stroke="black" d="M590.795,-348.611C575.56,-335.262 553.922,-316.3 537.253,-301.693"/>
<polygon fill="black" stroke="black" points="539.346,-298.874 529.518,-294.915 534.732,-304.138 539.346,-298.874"/>
<text text-anchor="middle" x="571.497" y="-318.8" font-family="Times,serif" font-size="14.00">2</text>
</g>
<!-- 140079955238560 -->
<g id="node15" class="node"><title>140079955238560</title>
<ellipse fill="none" stroke="black" cx="609.497" cy="-279" rx="44.6926" ry="18"/>
<text text-anchor="middle" x="609.497" y="-275.3" font-family="Times,serif" font-size="14.00">factor [9]</text>
</g>
<!-- 140079955271752&#45;&gt;140079955238560 -->
<g id="edge14" class="edge"><title>140079955271752&#45;&gt;140079955238560</title>
<path fill="none" stroke="black" d="M609.497,-347.799C609.497,-336.163 609.497,-320.548 609.497,-307.237"/>
<polygon fill="black" stroke="black" points="612.997,-307.175 609.497,-297.175 605.997,-307.175 612.997,-307.175"/>
<text text-anchor="middle" x="613.497" y="-318.8" font-family="Times,serif" font-size="14.00">3</text>
</g>
<!-- 140079955280504 -->
<g id="node22" class="node"><title>140079955280504</title>
<ellipse fill="none" stroke="black" cx="711.497" cy="-279" rx="39.7935" ry="18"/>
<text text-anchor="middle" x="711.497" y="-275.3" font-family="Times,serif" font-size="14.00"> &#39;+&#39; [17]</text>
</g>
<!-- 140079955271752&#45;&gt;140079955280504 -->
<g id="edge21" class="edge"><title>140079955271752&#45;&gt;140079955280504</title>
<path fill="none" stroke="black" d="M629.164,-348.611C645.084,-335.345 667.654,-316.536 685.138,-301.966"/>
<polygon fill="black" stroke="black" points="687.82,-304.287 693.262,-295.196 683.339,-298.909 687.82,-304.287"/>
<text text-anchor="middle" x="671.497" y="-318.8" font-family="Times,serif" font-size="14.00">4</text>
</g>
<!-- 140079955271888 -->
<g id="node23" class="node"><title>140079955271888</title>
<ellipse fill="none" stroke="black" cx="936.497" cy="-279" rx="45.4919" ry="18"/>
<text text-anchor="middle" x="936.497" y="-275.3" font-family="Times,serif" font-size="14.00">term [18]</text>
</g>
<!-- 140079955271752&#45;&gt;140079955271888 -->
<g id="edge22" class="edge"><title>140079955271752&#45;&gt;140079955271888</title>
<path fill="none" stroke="black" d="M654.622,-353.27C716.361,-337.222 826.636,-308.557 889.393,-292.244"/>
<polygon fill="black" stroke="black" points="890.618,-295.542 899.416,-289.639 888.857,-288.767 890.618,-295.542"/>
<text text-anchor="middle" x="797.497" y="-318.8" font-family="Times,serif" font-size="14.00">5</text>
</g>
<!-- 140079955222040 -->
<g id="node4" class="node"><title>140079955222040</title>
<ellipse fill="none" stroke="black" cx="164.497" cy="-192" rx="44.6926" ry="18"/>
<text text-anchor="middle" x="164.497" y="-188.3" font-family="Times,serif" font-size="14.00">factor [0]</text>
</g>
<!-- 140079955222312&#45;&gt;140079955222040 -->
<g id="edge3" class="edge"><title>140079955222312&#45;&gt;140079955222040</title>
<path fill="none" stroke="black" d="M294.937,-264.531C269.056,-250.339 228.087,-227.872 198.974,-211.907"/>
<polygon fill="black" stroke="black" points="200.424,-208.71 189.973,-206.971 197.058,-214.848 200.424,-208.71"/>
<text text-anchor="middle" x="255.497" y="-231.8" font-family="Times,serif" font-size="14.00">1</text>
</g>
<!-- 140079955537704 -->
<g id="node12" class="node"><title>140079955537704</title>
<ellipse fill="none" stroke="black" cx="261.497" cy="-192" rx="34.394" ry="18"/>
<text text-anchor="middle" x="261.497" y="-188.3" font-family="Times,serif" font-size="14.00"> &#39;*&#39; [6]</text>
</g>
<!-- 140079955222312&#45;&gt;140079955537704 -->
<g id="edge11" class="edge"><title>140079955222312&#45;&gt;140079955537704</title>
<path fill="none" stroke="black" d="M308.314,-261.611C299.809,-249.147 287.965,-231.79 278.319,-217.652"/>
<polygon fill="black" stroke="black" points="281.173,-215.626 272.646,-209.339 275.391,-219.572 281.173,-215.626"/>
<text text-anchor="middle" x="298.497" y="-231.8" font-family="Times,serif" font-size="14.00">2</text>
</g>
<!-- 140079955537816 -->
<g id="node13" class="node"><title>140079955537816</title>
<ellipse fill="none" stroke="black" cx="376.497" cy="-192" rx="63.0888" ry="18"/>
<text text-anchor="middle" x="376.497" y="-188.3" font-family="Times,serif" font-size="14.00">number &#39;5&#39; [7]</text>
</g>
<!-- 140079955222312&#45;&gt;140079955537816 -->
<g id="edge12" class="edge"><title>140079955222312&#45;&gt;140079955537816</title>
<path fill="none" stroke="black" d="M330.487,-261.611C338.661,-249.422 349.972,-232.556 359.333,-218.596"/>
<polygon fill="black" stroke="black" points="362.488,-220.175 365.151,-209.92 356.674,-216.276 362.488,-220.175"/>
<text text-anchor="middle" x="355.497" y="-231.8" font-family="Times,serif" font-size="14.00">3</text>
</g>
<!-- 140079955534344 -->
<g id="node5" class="node"><title>140079955534344</title>
<ellipse fill="none" stroke="black" cx="32.4971" cy="-105" rx="32.4942" ry="18"/>
<text text-anchor="middle" x="32.4971" y="-101.3" font-family="Times,serif" font-size="14.00"> &#39;&#45;&#39; [0]</text>
</g>
<!-- 140079955222040&#45;&gt;140079955534344 -->
<g id="edge4" class="edge"><title>140079955222040&#45;&gt;140079955534344</title>
<path fill="none" stroke="black" d="M141.806,-176.388C119.616,-162.099 85.7325,-140.28 61.5769,-124.726"/>
<polygon fill="black" stroke="black" points="63.4598,-121.775 53.1572,-119.304 59.67,-127.661 63.4598,-121.775"/>
<text text-anchor="middle" x="110.497" y="-144.8" font-family="Times,serif" font-size="14.00">1</text>
</g>
<!-- 140079955537144 -->
<g id="node6" class="node"><title>140079955537144</title>
<ellipse fill="none" stroke="black" cx="115.497" cy="-105" rx="32.4942" ry="18"/>
<text text-anchor="middle" x="115.497" y="-101.3" font-family="Times,serif" font-size="14.00"> &#39;(&#39; [1]</text>
</g>
<!-- 140079955222040&#45;&gt;140079955537144 -->
<g id="edge5" class="edge"><title>140079955222040&#45;&gt;140079955537144</title>
<path fill="none" stroke="black" d="M154.816,-174.207C147.791,-162.021 138.163,-145.318 130.192,-131.491"/>
<polygon fill="black" stroke="black" points="133.018,-129.385 124.991,-122.469 126.953,-132.881 133.018,-129.385"/>
<text text-anchor="middle" x="147.497" y="-144.8" font-family="Times,serif" font-size="14.00">2</text>
</g>
<!-- 140079955222176 -->
<g id="node7" class="node"><title>140079955222176</title>
<ellipse fill="none" stroke="black" cx="229.497" cy="-105" rx="63.8893" ry="18"/>
<text text-anchor="middle" x="229.497" y="-101.3" font-family="Times,serif" font-size="14.00">expression [2]</text>
</g>
<!-- 140079955222040&#45;&gt;140079955222176 -->
<g id="edge6" class="edge"><title>140079955222040&#45;&gt;140079955222176</title>
<path fill="none" stroke="black" d="M177.03,-174.611C186.439,-162.306 199.495,-145.234 210.228,-131.198"/>
<polygon fill="black" stroke="black" points="213.264,-132.99 216.558,-122.92 207.703,-128.738 213.264,-132.99"/>
<text text-anchor="middle" x="205.497" y="-144.8" font-family="Times,serif" font-size="14.00">3</text>
</g>
<!-- 140079955537368 -->
<g id="node11" class="node"><title>140079955537368</title>
<ellipse fill="none" stroke="black" cx="343.497" cy="-105" rx="32.4942" ry="18"/>
<text text-anchor="middle" x="343.497" y="-101.3" font-family="Times,serif" font-size="14.00"> &#39;)&#39; [5]</text>
</g>
<!-- 140079955222040&#45;&gt;140079955537368 -->
<g id="edge10" class="edge"><title>140079955222040&#45;&gt;140079955537368</title>
<path fill="none" stroke="black" d="M192.466,-177.719C224.462,-162.525 276.794,-137.675 310.689,-121.579"/>
<polygon fill="black" stroke="black" points="312.195,-124.739 319.727,-117.287 309.193,-118.415 312.195,-124.739"/>
<text text-anchor="middle" x="269.497" y="-144.8" font-family="Times,serif" font-size="14.00">4</text>
</g>
<!-- 140079955537256 -->
<g id="node8" class="node"><title>140079955537256</title>
<ellipse fill="none" stroke="black" cx="115.497" cy="-18" rx="63.0888" ry="18"/>
<text text-anchor="middle" x="115.497" y="-14.3" font-family="Times,serif" font-size="14.00">number &#39;4&#39; [2]</text>
</g>
<!-- 140079955222176&#45;&gt;140079955537256 -->
<g id="edge7" class="edge"><title>140079955222176&#45;&gt;140079955537256</title>
<path fill="none" stroke="black" d="M208.055,-88.0122C190.334,-74.7992 164.979,-55.8941 145.286,-41.2107"/>
<polygon fill="black" stroke="black" points="147.34,-38.3768 137.231,-35.2052 143.156,-43.9886 147.34,-38.3768"/>
<text text-anchor="middle" x="183.497" y="-57.8" font-family="Times,serif" font-size="14.00">1</text>
</g>
<!-- 140079955537480 -->
<g id="node9" class="node"><title>140079955537480</title>
<ellipse fill="none" stroke="black" cx="229.497" cy="-18" rx="32.4942" ry="18"/>
<text text-anchor="middle" x="229.497" y="-14.3" font-family="Times,serif" font-size="14.00"> &#39;&#45;&#39; [3]</text>
</g>
<!-- 140079955222176&#45;&gt;140079955537480 -->
<g id="edge8" class="edge"><title>140079955222176&#45;&gt;140079955537480</title>
<path fill="none" stroke="black" d="M229.497,-86.799C229.497,-75.1626 229.497,-59.5479 229.497,-46.2368"/>
<polygon fill="black" stroke="black" points="232.997,-46.1754 229.497,-36.1754 225.997,-46.1755 232.997,-46.1754"/>
<text text-anchor="middle" x="233.497" y="-57.8" font-family="Times,serif" font-size="14.00">2</text>
</g>
<!-- 140079955537592 -->
<g id="node10" class="node"><title>140079955537592</title>
<ellipse fill="none" stroke="black" cx="343.497" cy="-18" rx="63.0888" ry="18"/>
<text text-anchor="middle" x="343.497" y="-14.3" font-family="Times,serif" font-size="14.00">number &#39;1&#39; [4]</text>
</g>
<!-- 140079955222176&#45;&gt;140079955537592 -->
<g id="edge9" class="edge"><title>140079955222176&#45;&gt;140079955537592</title>
<path fill="none" stroke="black" d="M250.94,-88.0122C268.66,-74.7992 294.016,-55.8941 313.709,-41.2107"/>
<polygon fill="black" stroke="black" points="315.838,-43.9886 321.763,-35.2052 311.654,-38.3768 315.838,-43.9886"/>
<text text-anchor="middle" x="297.497" y="-57.8" font-family="Times,serif" font-size="14.00">3</text>
</g>
<!-- 140079955280056 -->
<g id="node16" class="node"><title>140079955280056</title>
<ellipse fill="none" stroke="black" cx="490.497" cy="-192" rx="32.4942" ry="18"/>
<text text-anchor="middle" x="490.497" y="-188.3" font-family="Times,serif" font-size="14.00"> &#39;(&#39; [9]</text>
</g>
<!-- 140079955238560&#45;&gt;140079955280056 -->
<g id="edge15" class="edge"><title>140079955238560&#45;&gt;140079955280056</title>
<path fill="none" stroke="black" d="M588.496,-262.999C568.909,-249.009 539.567,-228.05 518.095,-212.713"/>
<polygon fill="black" stroke="black" points="519.886,-209.691 509.715,-206.727 515.818,-215.387 519.886,-209.691"/>
<text text-anchor="middle" x="561.497" y="-231.8" font-family="Times,serif" font-size="14.00">1</text>
</g>
<!-- 140079955238424 -->
<g id="node17" class="node"><title>140079955238424</title>
<ellipse fill="none" stroke="black" cx="609.497" cy="-192" rx="68.4888" ry="18"/>
<text text-anchor="middle" x="609.497" y="-188.3" font-family="Times,serif" font-size="14.00">expression [10]</text>
</g>
<!-- 140079955238560&#45;&gt;140079955238424 -->
<g id="edge16" class="edge"><title>140079955238560&#45;&gt;140079955238424</title>
<path fill="none" stroke="black" d="M609.497,-260.799C609.497,-249.163 609.497,-233.548 609.497,-220.237"/>
<polygon fill="black" stroke="black" points="612.997,-220.175 609.497,-210.175 605.997,-220.175 612.997,-220.175"/>
<text text-anchor="middle" x="613.497" y="-231.8" font-family="Times,serif" font-size="14.00">2</text>
</g>
<!-- 140079955280616 -->
<g id="node21" class="node"><title>140079955280616</title>
<ellipse fill="none" stroke="black" cx="732.497" cy="-192" rx="37.0935" ry="18"/>
<text text-anchor="middle" x="732.497" y="-188.3" font-family="Times,serif" font-size="14.00"> &#39;)&#39; [16]</text>
</g>
<!-- 140079955238560&#45;&gt;140079955280616 -->
<g id="edge20" class="edge"><title>140079955238560&#45;&gt;140079955280616</title>
<path fill="none" stroke="black" d="M631.204,-262.999C651.296,-249.115 681.318,-228.368 703.465,-213.063"/>
<polygon fill="black" stroke="black" points="705.589,-215.849 711.826,-207.285 701.61,-210.091 705.589,-215.849"/>
<text text-anchor="middle" x="682.497" y="-231.8" font-family="Times,serif" font-size="14.00">3</text>
</g>
<!-- 140079955280168 -->
<g id="node18" class="node"><title>140079955280168</title>
<ellipse fill="none" stroke="black" cx="484.497" cy="-105" rx="67.6881" ry="18"/>
<text text-anchor="middle" x="484.497" y="-101.3" font-family="Times,serif" font-size="14.00">number &#39;2&#39; [10]</text>
</g>
<!-- 140079955238424&#45;&gt;140079955280168 -->
<g id="edge17" class="edge"><title>140079955238424&#45;&gt;140079955280168</title>
<path fill="none" stroke="black" d="M585.986,-175.012C566.344,-161.656 538.148,-142.483 516.458,-127.734"/>
<polygon fill="black" stroke="black" points="518.141,-124.645 507.903,-121.916 514.204,-130.434 518.141,-124.645"/>
<text text-anchor="middle" x="558.497" y="-144.8" font-family="Times,serif" font-size="14.00">1</text>
</g>
<!-- 140079955280280 -->
<g id="node19" class="node"><title>140079955280280</title>
<ellipse fill="none" stroke="black" cx="609.497" cy="-105" rx="39.7935" ry="18"/>
<text text-anchor="middle" x="609.497" y="-101.3" font-family="Times,serif" font-size="14.00"> &#39;+&#39; [11]</text>
</g>
<!-- 140079955238424&#45;&gt;140079955280280 -->
<g id="edge18" class="edge"><title>140079955238424&#45;&gt;140079955280280</title>
<path fill="none" stroke="black" d="M609.497,-173.799C609.497,-162.163 609.497,-146.548 609.497,-133.237"/>
<polygon fill="black" stroke="black" points="612.997,-133.175 609.497,-123.175 605.997,-133.175 612.997,-133.175"/>
<text text-anchor="middle" x="613.497" y="-144.8" font-family="Times,serif" font-size="14.00">2</text>
</g>
<!-- 140079955280392 -->
<g id="node20" class="node"><title>140079955280392</title>
<ellipse fill="none" stroke="black" cx="747.497" cy="-105" rx="79.8859" ry="18"/>
<text text-anchor="middle" x="747.497" y="-101.3" font-family="Times,serif" font-size="14.00">number &#39;4.67&#39; [12]</text>
</g>
<!-- 140079955238424&#45;&gt;140079955280392 -->
<g id="edge19" class="edge"><title>140079955238424&#45;&gt;140079955280392</title>
<path fill="none" stroke="black" d="M635.13,-175.211C656.929,-161.785 688.438,-142.377 712.546,-127.528"/>
<polygon fill="black" stroke="black" points="714.383,-130.507 721.062,-122.283 710.711,-124.547 714.383,-130.507"/>
<text text-anchor="middle" x="691.497" y="-144.8" font-family="Times,serif" font-size="14.00">3</text>
</g>
<!-- 140079955280840 -->
<g id="node24" class="node"><title>140079955280840</title>
<ellipse fill="none" stroke="black" cx="867.497" cy="-192" rx="79.8859" ry="18"/>
<text text-anchor="middle" x="867.497" y="-188.3" font-family="Times,serif" font-size="14.00">number &#39;5.89&#39; [18]</text>
</g>
<!-- 140079955271888&#45;&gt;140079955280840 -->
<g id="edge23" class="edge"><title>140079955271888&#45;&gt;140079955280840</title>
<path fill="none" stroke="black" d="M923.193,-261.611C913.11,-249.19 899.084,-231.911 887.63,-217.801"/>
<polygon fill="black" stroke="black" points="890.252,-215.478 881.232,-209.92 884.818,-219.89 890.252,-215.478"/>
<text text-anchor="middle" x="910.497" y="-231.8" font-family="Times,serif" font-size="14.00">1</text>
</g>
<!-- 140079955280952 -->
<g id="node25" class="node"><title>140079955280952</title>
<ellipse fill="none" stroke="black" cx="1001.5" cy="-192" rx="36.2938" ry="18"/>
<text text-anchor="middle" x="1001.5" y="-188.3" font-family="Times,serif" font-size="14.00"> &#39;/&#39; [22]</text>
</g>
<!-- 140079955271888&#45;&gt;140079955280952 -->
<g id="edge24" class="edge"><title>140079955271888&#45;&gt;140079955280952</title>
<path fill="none" stroke="black" d="M949.03,-261.611C958.623,-249.067 972.005,-231.567 982.853,-217.381"/>
<polygon fill="black" stroke="black" points="985.929,-219.12 989.223,-209.05 980.369,-214.868 985.929,-219.12"/>
<text text-anchor="middle" x="977.497" y="-231.8" font-family="Times,serif" font-size="14.00">2</text>
</g>
<!-- 140079955235296 -->
<g id="node26" class="node"><title>140079955235296</title>
<ellipse fill="none" stroke="black" cx="1105.5" cy="-192" rx="50.0912" ry="18"/>
<text text-anchor="middle" x="1105.5" y="-188.3" font-family="Times,serif" font-size="14.00">factor [23]</text>
</g>
<!-- 140079955271888&#45;&gt;140079955235296 -->
<g id="edge25" class="edge"><title>140079955271888&#45;&gt;140079955235296</title>
<path fill="none" stroke="black" d="M963.65,-264.343C992.099,-250.035 1036.97,-227.467 1068.61,-211.552"/>
<polygon fill="black" stroke="black" points="1070.21,-214.667 1077.57,-207.047 1067.06,-208.414 1070.21,-214.667"/>
<text text-anchor="middle" x="1034.5" y="-231.8" font-family="Times,serif" font-size="14.00">3</text>
</g>
<!-- 140079955281064 -->
<g id="node27" class="node"><title>140079955281064</title>
<ellipse fill="none" stroke="black" cx="982.497" cy="-105" rx="37.0935" ry="18"/>
<text text-anchor="middle" x="982.497" y="-101.3" font-family="Times,serif" font-size="14.00"> &#39;(&#39; [23]</text>
</g>
<!-- 140079955235296&#45;&gt;140079955281064 -->
<g id="edge26" class="edge"><title>140079955235296&#45;&gt;140079955281064</title>
<path fill="none" stroke="black" d="M1083.51,-175.804C1063.38,-161.892 1033.45,-141.212 1011.4,-125.97"/>
<polygon fill="black" stroke="black" points="1013.29,-123.022 1003.07,-120.217 1009.31,-128.781 1013.29,-123.022"/>
<text text-anchor="middle" x="1054.5" y="-144.8" font-family="Times,serif" font-size="14.00">1</text>
</g>
<!-- 140079955238696 -->
<g id="node28" class="node"><title>140079955238696</title>
<ellipse fill="none" stroke="black" cx="1105.5" cy="-105" rx="68.4888" ry="18"/>
<text text-anchor="middle" x="1105.5" y="-101.3" font-family="Times,serif" font-size="14.00">expression [24]</text>
</g>
<!-- 140079955235296&#45;&gt;140079955238696 -->
<g id="edge27" class="edge"><title>140079955235296&#45;&gt;140079955238696</title>
<path fill="none" stroke="black" d="M1105.5,-173.799C1105.5,-162.163 1105.5,-146.548 1105.5,-133.237"/>
<polygon fill="black" stroke="black" points="1109,-133.175 1105.5,-123.175 1102,-133.175 1109,-133.175"/>
<text text-anchor="middle" x="1109.5" y="-144.8" font-family="Times,serif" font-size="14.00">2</text>
</g>
<!-- 140079955281400 -->
<g id="node32" class="node"><title>140079955281400</title>
<ellipse fill="none" stroke="black" cx="1228.5" cy="-105" rx="37.0935" ry="18"/>
<text text-anchor="middle" x="1228.5" y="-101.3" font-family="Times,serif" font-size="14.00"> &#39;)&#39; [28]</text>
</g>
<!-- 140079955235296&#45;&gt;140079955281400 -->
<g id="edge31" class="edge"><title>140079955235296&#45;&gt;140079955281400</title>
<path fill="none" stroke="black" d="M1127.49,-175.804C1147.62,-161.892 1177.54,-141.212 1199.6,-125.97"/>
<polygon fill="black" stroke="black" points="1201.69,-128.781 1207.92,-120.217 1197.71,-123.022 1201.69,-128.781"/>
<text text-anchor="middle" x="1177.5" y="-144.8" font-family="Times,serif" font-size="14.00">3</text>
</g>
<!-- 140079955280728 -->
<g id="node29" class="node"><title>140079955280728</title>
<ellipse fill="none" stroke="black" cx="977.497" cy="-18" rx="70.3881" ry="18"/>
<text text-anchor="middle" x="977.497" y="-14.3" font-family="Times,serif" font-size="14.00">number &#39;.2&#39; [24]</text>
</g>
<!-- 140079955238696&#45;&gt;140079955280728 -->
<g id="edge28" class="edge"><title>140079955238696&#45;&gt;140079955280728</title>
<path fill="none" stroke="black" d="M1081.42,-88.0122C1061.35,-74.6813 1032.55,-55.556 1010.35,-40.8184"/>
<polygon fill="black" stroke="black" points="1012.17,-37.8215 1001.9,-35.2052 1008.29,-43.6529 1012.17,-37.8215"/>
<text text-anchor="middle" x="1052.5" y="-57.8" font-family="Times,serif" font-size="14.00">1</text>
</g>
<!-- 140079955281176 -->
<g id="node30" class="node"><title>140079955281176</title>
<ellipse fill="none" stroke="black" cx="1105.5" cy="-18" rx="39.7935" ry="18"/>
<text text-anchor="middle" x="1105.5" y="-14.3" font-family="Times,serif" font-size="14.00"> &#39;+&#39; [26]</text>
</g>
<!-- 140079955238696&#45;&gt;140079955281176 -->
<g id="edge29" class="edge"><title>140079955238696&#45;&gt;140079955281176</title>
<path fill="none" stroke="black" d="M1105.5,-86.799C1105.5,-75.1626 1105.5,-59.5479 1105.5,-46.2368"/>
<polygon fill="black" stroke="black" points="1109,-46.1754 1105.5,-36.1754 1102,-46.1755 1109,-46.1754"/>
<text text-anchor="middle" x="1109.5" y="-57.8" font-family="Times,serif" font-size="14.00">2</text>
</g>
<!-- 140079955281288 -->
<g id="node31" class="node"><title>140079955281288</title>
<ellipse fill="none" stroke="black" cx="1230.5" cy="-18" rx="67.6881" ry="18"/>
<text text-anchor="middle" x="1230.5" y="-14.3" font-family="Times,serif" font-size="14.00">number &#39;7&#39; [27]</text>
</g>
<!-- 140079955238696&#45;&gt;140079955281288 -->
<g id="edge30" class="edge"><title>140079955238696&#45;&gt;140079955281288</title>
<path fill="none" stroke="black" d="M1129.01,-88.0122C1148.65,-74.6557 1176.85,-55.4827 1198.54,-40.7337"/>
<polygon fill="black" stroke="black" points="1200.79,-43.4336 1207.09,-34.9162 1196.85,-37.6451 1200.79,-43.4336"/>
<text text-anchor="middle" x="1178.5" y="-57.8" font-family="Times,serif" font-size="14.00">3</text>
</g>
</g>
</svg>
