<?xml version="1.0" encoding="UTF-8" standalone="no"?>
<!DOCTYPE svg PUBLIC "-//W3C//DTD SVG 1.1//EN"
 "http://www.w3.org/Graphics/SVG/1.1/DTD/svg11.dtd">
<!-- Generated by graphviz version 2.36.0 (20140111.2315)
 -->
<!-- Title: arpeggio_graph Pages: 1 -->
<svg width="1150pt" height="132pt"
 viewBox="0.00 0.00 1150.00 132.00" xmlns="http://www.w3.org/2000/svg" xmlns:xlink="http://www.w3.org/1999/xlink">
<g id="graph0" class="graph" transform="scale(1 1) rotate(0) translate(4 128)">
<title>arpeggio_graph</title>
<polygon fill="white" stroke="none" points="-4,4 -4,-128 1146,-128 1146,4 -4,4"/>
<!-- 140459663036808 -->
<g id="node1" class="node"><title>140459663036808</title>
<ellipse fill="none" stroke="black" cx="545" cy="-106" rx="53.4184" ry="18"/>
<text text-anchor="middle" x="545" y="-102.3" font-family="Times,serif" font-size="14.00">program [9]</text>
</g>
<!-- 140459663045240 -->
<g id="node2" class="node"><title>140459663045240</title>
<ellipse fill="none" stroke="black" cx="78" cy="-18" rx="78.4642" ry="18"/>
<text text-anchor="middle" x="78" y="-14.3" font-family="Times,serif" font-size="14.00">keyword &#39;begin&#39; [9]</text>
</g>
<!-- 140459663036808&#45;&gt;140459663045240 -->
<g id="edge1" class="edge"><title>140459663036808&#45;&gt;140459663045240</title>
<path fill="none" stroke="black" d="M498.494,-97.0437C457.94,-90.0619 397.541,-79.5591 345,-70 264.9,-55.427 244.952,-51.3623 165,-36 158.752,-34.7994 152.252,-33.5432 145.746,-32.2807"/>
<polygon fill="black" stroke="black" points="146.036,-28.7715 135.551,-30.2986 144.7,-35.6428 146.036,-28.7715"/>
<text text-anchor="middle" x="348.5" y="-58.3" font-family="Times,serif" font-size="14.00">1</text>
</g>
<!-- 140459663045912 -->
<g id="node3" class="node"><title>140459663045912</title>
<ellipse fill="none" stroke="black" cx="225" cy="-18" rx="50.5427" ry="18"/>
<text text-anchor="middle" x="225" y="-14.3" font-family="Times,serif" font-size="14.00">up &#39;up&#39; [27]</text>
</g>
<!-- 140459663036808&#45;&gt;140459663045912 -->
<g id="edge2" class="edge"><title>140459663036808&#45;&gt;140459663045912</title>
<path fill="none" stroke="black" d="M503.788,-94.4049C452.284,-81.0949 361.479,-57.401 284,-36 280.235,-34.9601 276.339,-33.8696 272.427,-32.7643"/>
<polygon fill="black" stroke="black" points="273.311,-29.3768 262.734,-30.0068 271.395,-36.1096 273.311,-29.3768"/>
<text text-anchor="middle" x="409.5" y="-58.3" font-family="Times,serif" font-size="14.00">2</text>
</g>
<!-- 140459663045968 -->
<g id="node4" class="node"><title>140459663045968</title>
<ellipse fill="none" stroke="black" cx="344" cy="-18" rx="50.5427" ry="18"/>
<text text-anchor="middle" x="344" y="-14.3" font-family="Times,serif" font-size="14.00">up &#39;up&#39; [42]</text>
</g>
<!-- 140459663036808&#45;&gt;140459663045968 -->
<g id="edge3" class="edge"><title>140459663036808&#45;&gt;140459663045968</title>
<path fill="none" stroke="black" d="M513.151,-91.373C478.25,-76.4405 422.192,-52.4553 384.267,-36.2286"/>
<polygon fill="black" stroke="black" points="385.61,-32.9965 375.04,-32.2806 382.857,-39.4322 385.61,-32.9965"/>
<text text-anchor="middle" x="466.5" y="-58.3" font-family="Times,serif" font-size="14.00">3</text>
</g>
<!-- 140459663046024 -->
<g id="node5" class="node"><title>140459663046024</title>
<ellipse fill="none" stroke="black" cx="471" cy="-18" rx="57.2688" ry="18"/>
<text text-anchor="middle" x="471" y="-14.3" font-family="Times,serif" font-size="14.00">left &#39;left&#39; [57]</text>
</g>
<!-- 140459663036808&#45;&gt;140459663046024 -->
<g id="edge4" class="edge"><title>140459663036808&#45;&gt;140459663046024</title>
<path fill="none" stroke="black" d="M530.732,-88.4183C519.676,-75.5692 504.198,-57.5816 491.768,-43.1363"/>
<polygon fill="black" stroke="black" points="494.4,-40.828 485.224,-35.5308 489.094,-45.3938 494.4,-40.828"/>
<text text-anchor="middle" x="518.5" y="-58.3" font-family="Times,serif" font-size="14.00">4</text>
</g>
<!-- 140459663046136 -->
<g id="node6" class="node"><title>140459663046136</title>
<ellipse fill="none" stroke="black" cx="619" cy="-18" rx="72.2155" ry="18"/>
<text text-anchor="middle" x="619" y="-14.3" font-family="Times,serif" font-size="14.00">down &#39;down&#39; [74]</text>
</g>
<!-- 140459663036808&#45;&gt;140459663046136 -->
<g id="edge5" class="edge"><title>140459663036808&#45;&gt;140459663046136</title>
<path fill="none" stroke="black" d="M559.268,-88.4183C570.253,-75.6515 585.604,-57.812 597.992,-43.4146"/>
<polygon fill="black" stroke="black" points="600.654,-45.6872 604.523,-35.8242 595.348,-41.1215 600.654,-45.6872"/>
<text text-anchor="middle" x="592.5" y="-58.3" font-family="Times,serif" font-size="14.00">5</text>
</g>
<!-- 140459663046080 -->
<g id="node7" class="node"><title>140459663046080</title>
<ellipse fill="none" stroke="black" cx="777" cy="-18" rx="68.3664" ry="18"/>
<text text-anchor="middle" x="777" y="-14.3" font-family="Times,serif" font-size="14.00">right &#39;right&#39; [91]</text>
</g>
<!-- 140459663036808&#45;&gt;140459663046080 -->
<g id="edge6" class="edge"><title>140459663036808&#45;&gt;140459663046080</title>
<path fill="none" stroke="black" d="M579.482,-92.2178C619.348,-77.44 685.187,-53.034 729.788,-36.5011"/>
<polygon fill="black" stroke="black" points="731.084,-39.7535 739.244,-32.9959 728.651,-33.1899 731.084,-39.7535"/>
<text text-anchor="middle" x="685.5" y="-58.3" font-family="Times,serif" font-size="14.00">6</text>
</g>
<!-- 140459663046584 -->
<g id="node8" class="node"><title>140459663046584</title>
<ellipse fill="none" stroke="black" cx="944" cy="-18" rx="81.3646" ry="18"/>
<text text-anchor="middle" x="944" y="-14.3" font-family="Times,serif" font-size="14.00">keyword &#39;end&#39; [105]</text>
</g>
<!-- 140459663036808&#45;&gt;140459663046584 -->
<g id="edge7" class="edge"><title>140459663036808&#45;&gt;140459663046584</title>
<path fill="none" stroke="black" d="M588.841,-95.5505C658.802,-80.4713 796.125,-50.8727 878.003,-33.225"/>
<polygon fill="black" stroke="black" points="878.911,-36.6096 887.949,-31.0811 877.436,-29.7667 878.911,-36.6096"/>
<text text-anchor="middle" x="784.5" y="-58.3" font-family="Times,serif" font-size="14.00">7</text>
</g>
<!-- 140459663046640 -->
<g id="node9" class="node"><title>140459663046640</title>
<ellipse fill="none" stroke="black" cx="1093" cy="-18" rx="49.0941" ry="18"/>
<text text-anchor="middle" x="1093" y="-14.3" font-family="Times,serif" font-size="14.00">EOF [113]</text>
</g>
<!-- 140459663036808&#45;&gt;140459663046640 -->
<g id="edge8" class="edge"><title>140459663036808&#45;&gt;140459663046640</title>
<path fill="none" stroke="black" d="M595.742,-100.213C685.022,-91.2633 875.739,-69.7913 1034,-36 1038.16,-35.111 1042.46,-34.0857 1046.76,-32.9882"/>
<polygon fill="black" stroke="black" points="1047.94,-36.2948 1056.69,-30.3265 1046.13,-29.5332 1047.94,-36.2948"/>
<text text-anchor="middle" x="931.5" y="-58.3" font-family="Times,serif" font-size="14.00">8</text>
</g>
</g>
</svg>
