<?xml version="1.0" encoding="UTF-8" standalone="no"?>
<!DOCTYPE svg PUBLIC "-//W3C//DTD SVG 1.1//EN"
 "http://www.w3.org/Graphics/SVG/1.1/DTD/svg11.dtd">
<!-- Generated by graphviz version 2.36.0 (20140111.2315)
 -->
<!-- Title: arpeggio_graph Pages: 1 -->
<svg width="750pt" height="308pt"
 viewBox="0.00 0.00 750.00 308.00" xmlns="http://www.w3.org/2000/svg" xmlns:xlink="http://www.w3.org/1999/xlink">
<g id="graph0" class="graph" transform="scale(1 1) rotate(0) translate(4 304)">
<title>arpeggio_graph</title>
<polygon fill="white" stroke="none" points="-4,4 -4,-304 746,-304 746,4 -4,4"/>
<!-- 140459663007024 -->
<g id="node1" class="node"><title>140459663007024</title>
<ellipse fill="none" stroke="black" cx="478" cy="-282" rx="82.3139" ry="18"/>
<text text-anchor="middle" x="478" y="-278.3" font-family="Times,serif" font-size="14.00">program(Sequence)</text>
</g>
<!-- 140459663006856 -->
<g id="node2" class="node"><title>140459663006856</title>
<ellipse fill="none" stroke="black" cx="195" cy="-194" rx="89.0632" ry="18"/>
<text text-anchor="middle" x="195" y="-190.3" font-family="Times,serif" font-size="14.00">keyword=Kwd(begin)</text>
</g>
<!-- 140459663007024&#45;&gt;140459663006856 -->
<g id="edge1" class="edge"><title>140459663007024&#45;&gt;140459663006856</title>
<path fill="none" stroke="black" d="M431.901,-266.991C382.654,-252.026 304.548,-228.29 251.603,-212.201"/>
<polygon fill="black" stroke="black" points="252.608,-208.848 242.022,-209.289 250.572,-215.546 252.608,-208.848"/>
<text text-anchor="middle" x="365.5" y="-234.3" font-family="Times,serif" font-size="14.00">1</text>
</g>
<!-- 140459663006912 -->
<g id="node3" class="node"><title>140459663006912</title>
<ellipse fill="none" stroke="black" cx="360" cy="-194" rx="57.2688" ry="18"/>
<text text-anchor="middle" x="360" y="-190.3" font-family="Times,serif" font-size="14.00">ZeroOrMore</text>
</g>
<!-- 140459663007024&#45;&gt;140459663006912 -->
<g id="edge2" class="edge"><title>140459663007024&#45;&gt;140459663006912</title>
<path fill="none" stroke="black" d="M455.527,-264.622C436.921,-251.061 410.325,-231.677 389.918,-216.805"/>
<polygon fill="black" stroke="black" points="391.736,-213.798 381.593,-210.737 387.613,-219.455 391.736,-213.798"/>
<text text-anchor="middle" x="433.5" y="-234.3" font-family="Times,serif" font-size="14.00">2</text>
</g>
<!-- 140459663006968 -->
<g id="node9" class="node"><title>140459663006968</title>
<ellipse fill="none" stroke="black" cx="518" cy="-194" rx="82.3139" ry="18"/>
<text text-anchor="middle" x="518" y="-190.3" font-family="Times,serif" font-size="14.00">keyword=Kwd(end)</text>
</g>
<!-- 140459663007024&#45;&gt;140459663006968 -->
<g id="edge8" class="edge"><title>140459663007024&#45;&gt;140459663006968</title>
<path fill="none" stroke="black" d="M485.903,-264.009C491.6,-251.759 499.396,-234.998 505.878,-221.062"/>
<polygon fill="black" stroke="black" points="509.07,-222.499 510.114,-211.956 502.723,-219.547 509.07,-222.499"/>
<text text-anchor="middle" x="505.5" y="-234.3" font-family="Times,serif" font-size="14.00">3</text>
</g>
<!-- 140459663007304 -->
<g id="node10" class="node"><title>140459663007304</title>
<ellipse fill="none" stroke="black" cx="647" cy="-194" rx="28.3955" ry="18"/>
<text text-anchor="middle" x="647" y="-190.3" font-family="Times,serif" font-size="14.00">EOF</text>
</g>
<!-- 140459663007024&#45;&gt;140459663007304 -->
<g id="edge9" class="edge"><title>140459663007024&#45;&gt;140459663007304</title>
<path fill="none" stroke="black" d="M508.997,-265.226C539.436,-249.737 585.609,-226.24 616.036,-210.757"/>
<polygon fill="black" stroke="black" points="617.997,-213.686 625.322,-206.031 614.822,-207.447 617.997,-213.686"/>
<text text-anchor="middle" x="581.5" y="-234.3" font-family="Times,serif" font-size="14.00">4</text>
</g>
<!-- 140459663007192 -->
<g id="node4" class="node"><title>140459663007192</title>
<ellipse fill="none" stroke="black" cx="360" cy="-106" rx="109.286" ry="18"/>
<text text-anchor="middle" x="360" y="-102.3" font-family="Times,serif" font-size="14.00">command(OrderedChoice)</text>
</g>
<!-- 140459663006912&#45;&gt;140459663007192 -->
<g id="edge3" class="edge"><title>140459663006912&#45;&gt;140459663007192</title>
<path fill="none" stroke="black" d="M360,-175.597C360,-163.746 360,-147.817 360,-134.292"/>
<polygon fill="black" stroke="black" points="363.5,-134.084 360,-124.084 356.5,-134.084 363.5,-134.084"/>
<text text-anchor="middle" x="363.5" y="-146.3" font-family="Times,serif" font-size="14.00">1</text>
</g>
<!-- 140459663007416 -->
<g id="node5" class="node"><title>140459663007416</title>
<ellipse fill="none" stroke="black" cx="74" cy="-18" rx="74.6146" ry="18"/>
<text text-anchor="middle" x="74" y="-14.3" font-family="Times,serif" font-size="14.00">up=StrMatch(up)</text>
</g>
<!-- 140459663007192&#45;&gt;140459663007416 -->
<g id="edge4" class="edge"><title>140459663007192&#45;&gt;140459663007416</title>
<path fill="none" stroke="black" d="M309.855,-89.9215C259.136,-74.6703 180.96,-51.1629 128.676,-35.4411"/>
<polygon fill="black" stroke="black" points="129.489,-32.0306 118.904,-32.5027 127.473,-38.7341 129.489,-32.0306"/>
<text text-anchor="middle" x="246.5" y="-58.3" font-family="Times,serif" font-size="14.00">1</text>
</g>
<!-- 140459663007584 -->
<g id="node6" class="node"><title>140459663007584</title>
<ellipse fill="none" stroke="black" cx="263" cy="-18" rx="96.2874" ry="18"/>
<text text-anchor="middle" x="263" y="-14.3" font-family="Times,serif" font-size="14.00">down=StrMatch(down)</text>
</g>
<!-- 140459663007192&#45;&gt;140459663007584 -->
<g id="edge5" class="edge"><title>140459663007192&#45;&gt;140459663007584</title>
<path fill="none" stroke="black" d="M340.836,-88.0092C326.127,-74.9683 305.652,-56.815 289.393,-42.4002"/>
<polygon fill="black" stroke="black" points="291.599,-39.6781 281.794,-35.6629 286.955,-44.9159 291.599,-39.6781"/>
<text text-anchor="middle" x="324.5" y="-58.3" font-family="Times,serif" font-size="14.00">2</text>
</g>
<!-- 140459663007640 -->
<g id="node7" class="node"><title>140459663007640</title>
<ellipse fill="none" stroke="black" cx="458" cy="-18" rx="81.3646" ry="18"/>
<text text-anchor="middle" x="458" y="-14.3" font-family="Times,serif" font-size="14.00">left=StrMatch(left)</text>
</g>
<!-- 140459663007192&#45;&gt;140459663007640 -->
<g id="edge6" class="edge"><title>140459663007192&#45;&gt;140459663007640</title>
<path fill="none" stroke="black" d="M379.362,-88.0092C394.222,-74.9683 414.909,-56.815 431.335,-42.4002"/>
<polygon fill="black" stroke="black" points="433.804,-44.8895 439.012,-35.6629 429.187,-39.6281 433.804,-44.8895"/>
<text text-anchor="middle" x="421.5" y="-58.3" font-family="Times,serif" font-size="14.00">3</text>
</g>
<!-- 140459663007696 -->
<g id="node8" class="node"><title>140459663007696</title>
<ellipse fill="none" stroke="black" cx="650" cy="-18" rx="91.9385" ry="18"/>
<text text-anchor="middle" x="650" y="-14.3" font-family="Times,serif" font-size="14.00">right=StrMatch(right)</text>
</g>
<!-- 140459663007192&#45;&gt;140459663007696 -->
<g id="edge7" class="edge"><title>140459663007192&#45;&gt;140459663007696</title>
<path fill="none" stroke="black" d="M410.514,-90.0199C461.081,-75.0242 538.803,-51.9757 591.897,-36.2307"/>
<polygon fill="black" stroke="black" points="592.919,-39.5781 601.512,-33.3793 590.929,-32.867 592.919,-39.5781"/>
<text text-anchor="middle" x="534.5" y="-58.3" font-family="Times,serif" font-size="14.00">4</text>
</g>
</g>
</svg>
