<?xml version="1.0" encoding="UTF-8" standalone="no"?><svg xmlns="http://www.w3.org/2000/svg" xmlns:xlink="http://www.w3.org/1999/xlink" contentStyleType="text/css" height="394px" preserveAspectRatio="none" style="width:386px;height:394px;background:#FFFFFF;" version="1.1" viewBox="0 0 386 394" width="386px" zoomAndPan="magnify"><defs/><g><!--MD5=[d4777cf738361fc0f0a9215c9f8e021c]
entity servisA--><g id="elem_servisA"><rect fill="#F1F1F1" height="49.0679" rx="2.5" ry="2.5" style="stroke:#181818;stroke-width:0.5;" width="101" x="279" y="339"/><rect fill="#F1F1F1" height="10" style="stroke:#181818;stroke-width:0.5;" width="15" x="360" y="344"/><rect fill="#F1F1F1" height="2" style="stroke:#181818;stroke-width:0.5;" width="4" x="358" y="346"/><rect fill="#F1F1F1" height="2" style="stroke:#181818;stroke-width:0.5;" width="4" x="358" y="350"/><text fill="#000000" font-family="sans-serif" font-size="14" lengthAdjust="spacing" textLength="61" x="294" y="373.9659">сервис A</text></g><!--MD5=[959cb16c1d7f8911f3211d6c15313679]
entity servisB--><g id="elem_servisB"><rect fill="#F1F1F1" height="49.0679" rx="2.5" ry="2.5" style="stroke:#181818;stroke-width:0.5;" width="101" x="143" y="339"/><rect fill="#F1F1F1" height="10" style="stroke:#181818;stroke-width:0.5;" width="15" x="224" y="344"/><rect fill="#F1F1F1" height="2" style="stroke:#181818;stroke-width:0.5;" width="4" x="222" y="346"/><rect fill="#F1F1F1" height="2" style="stroke:#181818;stroke-width:0.5;" width="4" x="222" y="350"/><text fill="#000000" font-family="sans-serif" font-size="14" lengthAdjust="spacing" textLength="61" x="158" y="373.9659">сервис B</text></g><!--MD5=[b616b2083df4771f39c5c675022b477a]
entity servisC--><g id="elem_servisC"><rect fill="#F1F1F1" height="49.0679" rx="2.5" ry="2.5" style="stroke:#181818;stroke-width:0.5;" width="101" x="7" y="339"/><rect fill="#F1F1F1" height="10" style="stroke:#181818;stroke-width:0.5;" width="15" x="88" y="344"/><rect fill="#F1F1F1" height="2" style="stroke:#181818;stroke-width:0.5;" width="4" x="86" y="346"/><rect fill="#F1F1F1" height="2" style="stroke:#181818;stroke-width:0.5;" width="4" x="86" y="350"/><text fill="#000000" font-family="sans-serif" font-size="14" lengthAdjust="spacing" textLength="61" x="22" y="373.9659">сервис C</text></g><!--MD5=[4dbf50178e55c2642c288b3b834c1240]
entity kompozitor--><g id="elem_kompozitor"><rect fill="#F1F1F1" height="49.0679" rx="2.5" ry="2.5" style="stroke:#181818;stroke-width:0.5;" width="148" x="119.5" y="106"/><rect fill="#F1F1F1" height="10" style="stroke:#181818;stroke-width:0.5;" width="15" x="247.5" y="111"/><rect fill="#F1F1F1" height="2" style="stroke:#181818;stroke-width:0.5;" width="4" x="245.5" y="113"/><rect fill="#F1F1F1" height="2" style="stroke:#181818;stroke-width:0.5;" width="4" x="245.5" y="117"/><text fill="#000000" font-family="sans-serif" font-size="14" lengthAdjust="spacing" textLength="108" x="134.5" y="140.9659">API композитор</text></g><!--MD5=[716bff8a20a4988f89bce2b02196b4d7]
entity upit--><g id="elem_upit"><ellipse cx="193.5" cy="14" fill="#F1F1F1" rx="8" ry="8" style="stroke:#181818;stroke-width:0.5;"/><text fill="#000000" font-family="sans-serif" font-size="14" lengthAdjust="spacing" textLength="40" x="173.5" y="45.9659">упит()</text></g><!--MD5=[08e7720ae117716b7ab8efdf25b66e11]
entity upitA--><g id="elem_upitA"><ellipse cx="310.5" cy="247" fill="#F1F1F1" rx="8" ry="8" style="stroke:#181818;stroke-width:0.5;"/><text fill="#000000" font-family="sans-serif" font-size="14" lengthAdjust="spacing" textLength="49" x="286" y="278.9659">упитА()</text></g><!--MD5=[ef2a78b6da8a2cb4884e9b1f1f1165d1]
entity upitB--><g id="elem_upitB"><ellipse cx="193.5" cy="247" fill="#F1F1F1" rx="8" ry="8" style="stroke:#181818;stroke-width:0.5;"/><text fill="#000000" font-family="sans-serif" font-size="14" lengthAdjust="spacing" textLength="49" x="169" y="278.9659">упитБ()</text></g><!--MD5=[d3daef22ddcd7b5e5150e374e1048e4c]
entity upitC--><g id="elem_upitC"><ellipse cx="75.5" cy="247" fill="#F1F1F1" rx="8" ry="8" style="stroke:#181818;stroke-width:0.5;"/><text fill="#000000" font-family="sans-serif" font-size="14" lengthAdjust="spacing" textLength="50" x="50.5" y="278.9659">упитЦ()</text></g><!--MD5=[9bfa9f54218c922c060db75edeb81849]
link upitA to servisA--><g id="link_upitA_servisA"><path d="M311.81,255.87 C314.61,272.75 321.28,312.98 325.59,338.92 " fill="none" id="upitA-servisA" style="stroke:#181818;stroke-width:1.0;"/></g><!--MD5=[cec947718779d64c562613af121ef0ae]
link upitB to servisB--><g id="link_upitB_servisB"><path d="M193.5,255.87 C193.5,272.75 193.5,312.98 193.5,338.92 " fill="none" id="upitB-servisB" style="stroke:#181818;stroke-width:1.0;"/></g><!--MD5=[f6fc77a12074a1dc00ad215138d798f4]
link upitC to servisC--><g id="link_upitC_servisC"><path d="M74.26,255.87 C71.61,272.75 65.28,312.98 61.21,338.92 " fill="none" id="upitC-servisC" style="stroke:#181818;stroke-width:1.0;"/></g><!--MD5=[f89de3ba4a8da2e82c360fe3d3bbcf18]
link upit to kompozitor--><g id="link_upit_kompozitor"><path d="M193.5,22.87 C193.5,39.75 193.5,79.98 193.5,105.92 " fill="none" id="upit-kompozitor" style="stroke:#181818;stroke-width:1.0;"/></g><!--MD5=[233158eae545fcded56759bc1fa060a3]
link kompozitor to upitA--><g id="link_kompozitor_upitA"><path d="M217.74,155.22 C242.18,179.14 278.92,215.1 298,233.77 " fill="none" id="kompozitor-to-upitA" style="stroke:#181818;stroke-width:1.0;"/><polygon fill="#181818" points="301.37,237.07,297.7231,227.9212,297.7918,233.5777,292.1354,233.6464,301.37,237.07" style="stroke:#181818;stroke-width:1.0;"/></g><!--MD5=[c32852f3150eb4fed882a8c536c46c65]
link kompozitor to upitB--><g id="link_kompozitor_upitB"><path d="M193.5,155.22 C193.5,178.33 193.5,212.67 193.5,231.81 " fill="none" id="kompozitor-to-upitB" style="stroke:#181818;stroke-width:1.0;"/><polygon fill="#181818" points="193.5,236.61,197.5,227.61,193.5,231.61,189.5,227.61,193.5,236.61" style="stroke:#181818;stroke-width:1.0;"/></g><!--MD5=[7dc7e53b8b6278e82aa8633f642b63f9]
link kompozitor to upitC--><g id="link_kompozitor_upitC"><path d="M169.05,155.22 C144.41,179.14 107.35,215.1 88.1,233.77 " fill="none" id="kompozitor-to-upitC" style="stroke:#181818;stroke-width:1.0;"/><polygon fill="#181818" points="84.7,237.07,93.9415,233.6648,88.2852,233.5848,88.3652,227.9285,84.7,237.07" style="stroke:#181818;stroke-width:1.0;"/></g><!--MD5=[171b9fff4374808db42d4b45974032fa]
@startuml
component "сервис A" as servisA
component "сервис B" as servisB
component "сервис C" as servisC
component "API композитор" as kompozitor

interface "упит()" as upit
interface "упитА()" as upitA
interface "упитБ()" as upitB
interface "упитЦ()" as upitC

servisA -up- upitA
servisB -up- upitB
servisC -up- upitC

kompozitor -up- upit

kompozitor -down-> upitA
kompozitor -down-> upitB
kompozitor -down-> upitC


@enduml

PlantUML version 1.2022.7(Mon Aug 22 19:01:30 CEST 2022)
(GPL source distribution)
Java Runtime: OpenJDK Runtime Environment
JVM: OpenJDK 64-Bit Server VM
Default Encoding: UTF-8
Language: en
Country: US
--></g></svg>