<?xml version="1.0" encoding="UTF-8" standalone="no"?><svg xmlns="http://www.w3.org/2000/svg" xmlns:xlink="http://www.w3.org/1999/xlink" contentStyleType="text/css" height="464px" preserveAspectRatio="none" style="width:872px;height:464px;background:#FFFFFF;" version="1.1" viewBox="0 0 872 464" width="872px" zoomAndPan="magnify"><defs/><g><g id="cluster_##4"><rect fill="none" height="211" rx="2.5" ry="2.5" style="stroke:#181818;stroke-width:1.0;" width="248" x="453" y="247"/></g><g id="cluster_##8"><rect fill="none" height="321" rx="2.5" ry="2.5" style="stroke:#181818;stroke-width:1.0;" width="236" x="7" y="7"/></g><!--MD5=[92782b9d714ae59d1bbb43563d08f1ee]
entity servis4--><g id="elem_servis4"><rect fill="#F1F1F1" height="49.0679" rx="2.5" ry="2.5" style="stroke:#181818;stroke-width:0.5;" width="216" x="469" y="263"/><rect fill="#F1F1F1" height="10" style="stroke:#181818;stroke-width:0.5;" width="15" x="665" y="268"/><rect fill="#F1F1F1" height="2" style="stroke:#181818;stroke-width:0.5;" width="4" x="663" y="270"/><rect fill="#F1F1F1" height="2" style="stroke:#181818;stroke-width:0.5;" width="4" x="663" y="274"/><text fill="#000000" font-family="sans-serif" font-size="14" lengthAdjust="spacing" textLength="176" x="484" y="297.9659">сервис историје наруџби</text></g><!--MD5=[f50ff5e4cd64f259303fc83dba1819fc]
entity database--><g id="elem_database"><path d="M529,385 C529,375 601,375 601,375 C601,375 673,375 673,385 L673,432.1358 C673,442.1358 601,442.1358 601,442.1358 C601,442.1358 529,442.1358 529,432.1358 L529,385 " fill="#F1F1F1" style="stroke:#181818;stroke-width:0.5;"/><path d="M529,385 C529,395 601,395 601,395 C601,395 673,395 673,385 " fill="none" style="stroke:#181818;stroke-width:0.5;"/><text fill="#000000" font-family="sans-serif" font-size="14" font-style="italic" lengthAdjust="spacing" textLength="28" x="539" y="413.9659">view</text><text fill="#000000" font-family="sans-serif" font-size="14" lengthAdjust="spacing" textLength="31" x="571" y="413.9659">база</text><text fill="#000000" font-family="sans-serif" font-size="14" lengthAdjust="spacing" textLength="124" x="539" y="433.0339">историје наруџби</text></g><!--MD5=[5d2253f181164870ec265a65bfc89374]
entity servis1--><g id="elem_servis1"><rect fill="#F1F1F1" height="49.0679" rx="2.5" ry="2.5" style="stroke:#181818;stroke-width:0.5;" width="198" x="29" y="23"/><rect fill="#F1F1F1" height="10" style="stroke:#181818;stroke-width:0.5;" width="15" x="207" y="28"/><rect fill="#F1F1F1" height="2" style="stroke:#181818;stroke-width:0.5;" width="4" x="205" y="30"/><rect fill="#F1F1F1" height="2" style="stroke:#181818;stroke-width:0.5;" width="4" x="205" y="34"/><text fill="#000000" font-family="sans-serif" font-size="14" lengthAdjust="spacing" textLength="158" x="44" y="57.9659">сервис за наручивање</text></g><!--MD5=[9a891da9d24efc7546d71a2e243505e8]
entity servis2--><g id="elem_servis2"><rect fill="#F1F1F1" height="49.0679" rx="2.5" ry="2.5" style="stroke:#181818;stroke-width:0.5;" width="174" x="41" y="133"/><rect fill="#F1F1F1" height="10" style="stroke:#181818;stroke-width:0.5;" width="15" x="195" y="138"/><rect fill="#F1F1F1" height="2" style="stroke:#181818;stroke-width:0.5;" width="4" x="193" y="140"/><rect fill="#F1F1F1" height="2" style="stroke:#181818;stroke-width:0.5;" width="4" x="193" y="144"/><text fill="#000000" font-family="sans-serif" font-size="14" lengthAdjust="spacing" textLength="134" x="56" y="167.9659">сервис за испоруку</text></g><!--MD5=[fa510252950080ac9d5ffaf57fc08842]
entity servis3--><g id="elem_servis3"><rect fill="#F1F1F1" height="49.0679" rx="2.5" ry="2.5" style="stroke:#181818;stroke-width:0.5;" width="203" x="23.5" y="263"/><rect fill="#F1F1F1" height="10" style="stroke:#181818;stroke-width:0.5;" width="15" x="206.5" y="268"/><rect fill="#F1F1F1" height="2" style="stroke:#181818;stroke-width:0.5;" width="4" x="204.5" y="270"/><rect fill="#F1F1F1" height="2" style="stroke:#181818;stroke-width:0.5;" width="4" x="204.5" y="274"/><text fill="#000000" font-family="sans-serif" font-size="14" lengthAdjust="spacing" textLength="163" x="38.5" y="297.9659">сервис за фактурисање</text></g><!--MD5=[225525745ebc2c83a35e659f932720e9]
entity prijemnik--><g id="elem_prijemnik"><ellipse cx="425" cy="287.5" fill="#F1F1F1" rx="8" ry="8" style="stroke:#181818;stroke-width:0.5;"/><text fill="#000000" font-family="sans-serif" font-size="14" lengthAdjust="spacing" textLength="138" x="356" y="319.4659">Пријемник догађаја</text></g><!--MD5=[3f42375ccde7daef486ace9449acaa96]
entity klijenti--><g id="elem_klijenti"><path d="M539.6543,31.2655 C543.0538,25.4216 549.4972,24.7504 552.5571,31.6104 C556.2479,24.9787 561.2233,24.899 565.7064,30.7776 C569.6849,24.6068 574.1668,25.0912 578.5587,30.3111 C582.0477,24.3631 585.6606,24.9355 589.5495,29.9087 C594.4566,23.3358 598.8726,24.2896 602.6318,31.0362 C606.1769,25.7455 612.337,24.8527 615.3488,31.5996 C624.045,34.3323 627.0414,42.5397 620.562,49.6543 C625.8975,55.459 624.1142,62.241 616.5327,64.552 C614.0146,73.0078 608.5421,73.6877 602.2862,68.4371 C599.6763,73.9684 595.5957,74.7176 590.9946,70.8222 C588.1796,77.3705 582.93,79.3491 578.0305,72.9016 C572.6409,78.3863 568.2675,77.0618 565.8236,70.029 C561.4733,75.2509 555.8235,75.6128 552.9531,68.4865 C548.088,72.4889 543.7246,73.1967 541.2184,66.0121 C530.4543,62.8938 530.3123,57.0263 536.1876,48.9903 C529.4074,41.7321 529.6947,35.2496 539.6543,31.2655 " fill="#F1F1F1" style="stroke:#181818;stroke-width:0.5;"/><text fill="#000000" font-family="sans-serif" font-size="14" lengthAdjust="spacing" textLength="61" x="546.5" y="52.9659">клијенти</text></g><!--MD5=[1e302aafdfd3e2834c311fbd55829827]
entity s4int--><g id="elem_s4int"><ellipse cx="577" cy="157.5" fill="#F1F1F1" rx="8" ry="8" style="stroke:#181818;stroke-width:0.5;"/><text fill="#000000" font-family="sans-serif" font-size="14" lengthAdjust="spacing" textLength="61" x="546.5" y="189.4659">историја</text></g><g id="elem_GMN23"><path d="M621.5,143.5 L621.5,153.5 L586.32,157.5 L621.5,161.5 L621.5,171.206 A0,0 0 0 0 621.5,171.206 L840.5,171.206 A0,0 0 0 0 840.5,171.206 L840.5,153.5 L830.5,143.5 L621.5,143.5 A0,0 0 0 0 621.5,143.5 " fill="#FEFFDD" style="stroke:#181818;stroke-width:0.5;"/><path d="M830.5,143.5 L830.5,153.5 L840.5,153.5 L830.5,143.5 " fill="#FEFFDD" style="stroke:#181818;stroke-width:0.5;"/><text fill="#000000" font-family="sans-serif" font-size="13" lengthAdjust="spacing" textLength="198" x="627.5" y="162.397">"упити о историји наручивања"</text></g><g id="elem_GMN29"><path d="M717,386 L717,404.5 L673.36,408.5 L717,412.5 L717,431.412 A0,0 0 0 0 717,431.412 L865,431.412 A0,0 0 0 0 865,431.412 L865,396 L855,386 L717,386 A0,0 0 0 0 717,386 " fill="#FEFFDD" style="stroke:#181818;stroke-width:0.5;"/><path d="M855,386 L855,396 L865,396 L855,386 " fill="#FEFFDD" style="stroke:#181818;stroke-width:0.5;"/><text fill="#000000" font-family="sans-serif" font-size="13" lengthAdjust="spacing" textLength="127" x="723" y="404.897">Агрегирани подаци.</text><text fill="#000000" font-family="sans-serif" font-size="13" lengthAdjust="spacing" textLength="103" x="723" y="422.603">Само за читање.</text></g><!--MD5=[dc828359b55b8c349600f53c819228a4]
link prijemnik to servis4--><g id="link_prijemnik_servis4"><path d="M434.5,287.5 C445.91,287.5 457.32,287.5 468.73,287.5 " fill="none" id="prijemnik-servis4" style="stroke:#181818;stroke-width:1.0;"/></g><!--MD5=[c5c71aad7f267a82341d8b50793695e6]
link servis4 to database--><g id="link_servis4_database"><path d="M581.8,312.3 C585.04,328.38 589.4,350 593.15,368.56 " fill="none" id="servis4-to-database" style="stroke:#181818;stroke-width:1.0;stroke-dasharray:7.0,7.0;"/><polygon fill="#181818" points="594.09,373.25,596.2365,363.6379,593.1039,368.3482,588.3936,365.2156,594.09,373.25" style="stroke:#181818;stroke-width:1.0;"/></g><!--MD5=[61eeeb8e9172f22ba4fecd61b52686d2]
link servis1 to servis2--><!--MD5=[e3543a9ccfc141a6b8eaca475d35886a]
link servis2 to servis3--><!--MD5=[b5705b4697c0e3809f430da0c4f308b5]
link klijenti to s4int--><g id="link_klijenti_s4int"><path d="M577,72.47 C577,91.87 577,118.86 577,136.96 " fill="none" id="klijenti-to-s4int" style="stroke:#181818;stroke-width:1.0;stroke-dasharray:7.0,7.0;"/><path d="M585.4572,143.7518 A9,9 0 0 0 568.5428 143.7518" fill="none" style="stroke:#181818;stroke-width:1.5;"/></g><!--MD5=[107ea7e387ed04c450997c7b618cd2da]
link s4int to servis4--><g id="link_s4int_servis4"><path d="M577,166.9 C577,186.09 577,233.72 577,262.75 " fill="none" id="s4int-servis4" style="stroke:#181818;stroke-width:1.0;"/></g><!--MD5=[1036aefc0f2d1793d938f8f1953ec620]
link servis1 to prijemnik--><g id="link_servis1_prijemnik"><path d="M162.14,72.29 C205.85,103.15 283.39,159.29 346,212 C370.57,232.69 397.43,258.84 412.64,274.01 " fill="none" id="servis1-to-prijemnik" style="stroke:#181818;stroke-width:1.0;"/><polygon fill="#181818" points="415.91,277.28,412.3745,268.0876,412.3745,273.7445,406.7176,273.7445,415.91,277.28" style="stroke:#181818;stroke-width:1.0;"/><text fill="#000000" font-family="sans-serif" font-size="13" lengthAdjust="spacing" textLength="148" x="310" y="162.897">догађаји о наручивању</text></g><!--MD5=[cc9a242899a044800113aa7414d920a3]
link servis2 to prijemnik--><g id="link_servis2_prijemnik"><path d="M149.05,182.43 C164.42,198.46 186.58,218.78 210,231 C223.38,237.98 228.36,235.32 243,239 C304.79,254.55 378.12,273.99 409.5,282.36 " fill="none" id="servis2-to-prijemnik" style="stroke:#181818;stroke-width:1.0;"/><polygon fill="#181818" points="414.08,283.58,406.4123,277.3989,409.2484,282.2935,404.3538,285.1296,414.08,283.58" style="stroke:#181818;stroke-width:1.0;"/><text fill="#000000" font-family="sans-serif" font-size="13" lengthAdjust="spacing" textLength="130" x="211" y="226.897">догађаји о испоруци</text></g><!--MD5=[9d1dd0b46c196854855e99bc32a51d07]
link servis3 to prijemnik--><g id="link_servis3_prijemnik"><path d="M226.98,287.5 C294.22,287.5 375.85,287.5 409.43,287.5 " fill="none" id="servis3-to-prijemnik" style="stroke:#181818;stroke-width:1.0;"/><polygon fill="#181818" points="414.33,287.5,405.33,283.5,409.33,287.5,405.33,291.5,414.33,287.5" style="stroke:#181818;stroke-width:1.0;"/><text fill="#000000" font-family="sans-serif" font-size="13" lengthAdjust="spacing" textLength="153" x="244.75" y="280.397">догађаји о фактурисању</text></g><!--MD5=[121af2b964b8c9131648d5fb8946f6af]
@startuml
left to right direction
rectangle {
    component "сервис историје наруџби" as servis4
    database database [
    <i>view</i> база
    историје наруџби
    ]
}
rectangle {
    top to bottom direction
    component "сервис за наручивање" as servis1
    component "сервис за испоруку" as servis2
    component "сервис за фактурисање" as servis3
}

interface "Пријемник догађаја" as prijemnik

cloud "клијенти" as klijenti

servis4 -left- prijemnik

servis4 .down.> database

servis1 -[hidden]- servis2
servis2 -[hidden]- servis3

interface "историја" as s4int
klijenti ..( s4int
s4int -down- servis4

note right of s4int: "упити о историји наручивања"

servis1 -> prijemnik: догађаји о наручивању
servis2 -> prijemnik: догађаји о испоруци
servis3 -> prijemnik: догађаји о фактурисању

note left of database: Агрегирани подаци.\nСамо за читање.
@enduml

PlantUML version 1.2022.7(Mon Aug 22 19:01:30 CEST 2022)
(GPL source distribution)
Java Runtime: OpenJDK Runtime Environment
JVM: OpenJDK 64-Bit Server VM
Default Encoding: UTF-8
Language: en
Country: US
--></g></svg>