<?xml version="1.0" encoding="UTF-8" standalone="no"?><svg xmlns="http://www.w3.org/2000/svg" xmlns:xlink="http://www.w3.org/1999/xlink" contentStyleType="text/css" height="416px" preserveAspectRatio="none" style="width:604px;height:416px;background:#FFFFFF;" version="1.1" viewBox="0 0 604 416" width="604px" zoomAndPan="magnify"><defs/><g><!--MD5=[03a1da00f185f7680dc710ed455747f0]
cluster Јединствена база--><g id="cluster_Јединствена база"><path d="M6,189.6642 C6,179.6642 296.5,179.6642 296.5,179.6642 C296.5,179.6642 587,179.6642 587,189.6642 L587,389.6642 C587,399.6642 296.5,399.6642 296.5,399.6642 C296.5,399.6642 6,399.6642 6,389.6642 L6,189.6642 " fill="none" style="stroke:#181818;stroke-width:1.0;"/><path d="M6,189.6642 C6,199.6642 296.5,199.6642 296.5,199.6642 C296.5,199.6642 587,199.6642 587,189.6642 " fill="none" style="stroke:#181818;stroke-width:1.0;"/><text fill="#000000" font-family="sans-serif" font-size="14" font-weight="bold" lengthAdjust="spacing" textLength="127" x="233" y="216.6301">Јединствена база</text></g><!--MD5=[4391f7593e7ffb80085282c513a38d83]
entity narudzbenica--><g id="elem_narudzbenica"><rect fill="#F1F1F1" height="132.4075" rx="2.5" ry="2.5" style="stroke:#181818;stroke-width:0.5;" width="292" x="22" y="242.1642"/><text fill="#000000" font-family="sans-serif" font-size="14" lengthAdjust="spacing" textLength="4" x="32" y="260.1301"> </text><text fill="#000000" font-family="sans-serif" font-size="14" lengthAdjust="spacing" textLength="94" x="120" y="279.198">Наруџбенице</text><line style="stroke:#181818;stroke-width:1.0;" x1="23" x2="313" y1="283.3" y2="283.3"/><rect fill="#FBFB77" height="19.0679" style="stroke:none;stroke-width:0.5;" width="272" x="32" y="289.3"/><text fill="#000000" font-family="sans-serif" font-size="14" lengthAdjust="spacing" textLength="15" x="44" y="304.2659">ID</text><text fill="#000000" font-family="sans-serif" font-size="14" lengthAdjust="spacing" textLength="40" x="76" y="304.2659">купац</text><text fill="#000000" font-family="sans-serif" font-size="14" lengthAdjust="spacing" textLength="43" x="124" y="304.2659">статус</text><text fill="#000000" font-family="sans-serif" font-size="14" lengthAdjust="spacing" textLength="47" x="216" y="304.2659">укупно</text><text fill="#000000" font-family="sans-serif" font-size="14" lengthAdjust="spacing" textLength="12" x="288" y="304.2659">...</text><text fill="#000000" font-family="sans-serif" font-size="14" lengthAdjust="spacing" textLength="32" x="36" y="323.3338">1234</text><text fill="#000000" font-family="sans-serif" font-size="14" lengthAdjust="spacing" textLength="16" x="88" y="323.3338">15</text><text fill="#000000" font-family="sans-serif" font-size="14" lengthAdjust="spacing" textLength="84" x="124" y="323.3338">прихваћено</text><text fill="#000000" font-family="sans-serif" font-size="14" lengthAdjust="spacing" textLength="64" x="216" y="323.3338">23,458.00</text><text fill="#000000" font-family="sans-serif" font-size="14" lengthAdjust="spacing" textLength="20" x="284" y="323.3338">     </text><text fill="#000000" font-family="sans-serif" font-size="14" lengthAdjust="spacing" textLength="32" x="36" y="342.4018">1235</text><text fill="#000000" font-family="sans-serif" font-size="14" lengthAdjust="spacing" textLength="8" x="92" y="342.4018">3</text><text fill="#000000" font-family="sans-serif" font-size="14" lengthAdjust="spacing" textLength="61" x="124" y="342.4018">у обради</text><text fill="#000000" font-family="sans-serif" font-size="14" lengthAdjust="spacing" textLength="64" x="216" y="342.4018">12,223.00</text><text fill="#000000" font-family="sans-serif" font-size="14" lengthAdjust="spacing" textLength="20" x="284" y="342.4018">     </text><line style="stroke:#000000;stroke-width:0.5;" x1="32" x2="304" y1="289.3" y2="289.3"/><line style="stroke:#000000;stroke-width:0.5;" x1="32" x2="304" y1="308.3679" y2="308.3679"/><line style="stroke:#000000;stroke-width:0.5;" x1="32" x2="304" y1="327.4358" y2="327.4358"/><line style="stroke:#000000;stroke-width:0.5;" x1="32" x2="304" y1="346.5037" y2="346.5037"/><line style="stroke:#000000;stroke-width:0.5;" x1="32" x2="32" y1="289.3" y2="346.5037"/><line style="stroke:#000000;stroke-width:0.5;" x1="72" x2="72" y1="289.3" y2="346.5037"/><line style="stroke:#000000;stroke-width:0.5;" x1="120" x2="120" y1="289.3" y2="346.5037"/><line style="stroke:#000000;stroke-width:0.5;" x1="212" x2="212" y1="289.3" y2="346.5037"/><line style="stroke:#000000;stroke-width:0.5;" x1="284" x2="284" y1="289.3" y2="346.5037"/><line style="stroke:#000000;stroke-width:0.5;" x1="304" x2="304" y1="289.3" y2="346.5037"/><text fill="#000000" font-family="sans-serif" font-size="14" lengthAdjust="spacing" textLength="4" x="32" y="363.4697"> </text></g><!--MD5=[e9368c993c5e92d88bf8fdfec7a5f18f]
entity kupci--><g id="elem_kupci"><rect fill="#F1F1F1" height="151.4754" rx="2.5" ry="2.5" style="stroke:#181818;stroke-width:0.5;" width="221" x="349.5" y="232.6642"/><text fill="#000000" font-family="sans-serif" font-size="14" lengthAdjust="spacing" textLength="4" x="359.5" y="250.6301"> </text><text fill="#000000" font-family="sans-serif" font-size="14" lengthAdjust="spacing" textLength="43" x="475.5" y="269.698">Купци</text><line style="stroke:#181818;stroke-width:1.0;" x1="350.5" x2="569.5" y1="273.8" y2="273.8"/><text fill="#000000" font-family="sans-serif" font-size="14" lengthAdjust="spacing" textLength="4" x="359.5" y="292.7659"> </text><rect fill="#FBFB77" height="19.0679" style="stroke:none;stroke-width:0.5;" width="201" x="359.5" y="298.8679"/><text fill="#000000" font-family="sans-serif" font-size="14" lengthAdjust="spacing" textLength="15" x="363.5" y="313.8338">ID</text><text fill="#000000" font-family="sans-serif" font-size="14" lengthAdjust="spacing" textLength="42" x="387.5" y="313.8338">Назив</text><text fill="#000000" font-family="sans-serif" font-size="14" lengthAdjust="spacing" textLength="103" x="437.5" y="313.8338">лимит кредита</text><text fill="#000000" font-family="sans-serif" font-size="14" lengthAdjust="spacing" textLength="12" x="544.5" y="313.8338">...</text><text fill="#000000" font-family="sans-serif" font-size="14" lengthAdjust="spacing" textLength="16" x="363.5" y="332.9018">15</text><text fill="#000000" font-family="sans-serif" font-size="14" lengthAdjust="spacing" textLength="8" x="399.5" y="332.9018">..</text><text fill="#000000" font-family="sans-serif" font-size="14" lengthAdjust="spacing" textLength="8" x="437.5" y="332.9018">..</text><text fill="#000000" font-family="sans-serif" font-size="14" lengthAdjust="spacing" textLength="8" x="544.5" y="332.9018">..</text><text fill="#000000" font-family="sans-serif" font-size="14" lengthAdjust="spacing" textLength="8" x="363.5" y="351.9697">3</text><text fill="#000000" font-family="sans-serif" font-size="14" lengthAdjust="spacing" textLength="8" x="399.5" y="351.9697">..</text><text fill="#000000" font-family="sans-serif" font-size="14" lengthAdjust="spacing" textLength="8" x="437.5" y="351.9697">..</text><text fill="#000000" font-family="sans-serif" font-size="14" lengthAdjust="spacing" textLength="8" x="544.5" y="351.9697">..</text><line style="stroke:#000000;stroke-width:0.5;" x1="359.5" x2="560.5" y1="298.8679" y2="298.8679"/><line style="stroke:#000000;stroke-width:0.5;" x1="359.5" x2="560.5" y1="317.9358" y2="317.9358"/><line style="stroke:#000000;stroke-width:0.5;" x1="359.5" x2="560.5" y1="337.0037" y2="337.0037"/><line style="stroke:#000000;stroke-width:0.5;" x1="359.5" x2="560.5" y1="356.0717" y2="356.0717"/><line style="stroke:#000000;stroke-width:0.5;" x1="359.5" x2="359.5" y1="298.8679" y2="356.0717"/><line style="stroke:#000000;stroke-width:0.5;" x1="383.5" x2="383.5" y1="298.8679" y2="356.0717"/><line style="stroke:#000000;stroke-width:0.5;" x1="433.5" x2="433.5" y1="298.8679" y2="356.0717"/><line style="stroke:#000000;stroke-width:0.5;" x1="540.5" x2="540.5" y1="298.8679" y2="356.0717"/><line style="stroke:#000000;stroke-width:0.5;" x1="560.5" x2="560.5" y1="298.8679" y2="356.0717"/><text fill="#000000" font-family="sans-serif" font-size="14" lengthAdjust="spacing" textLength="4" x="359.5" y="373.0376"> </text></g><!--MD5=[3f42375ccde7daef486ace9449acaa96]
entity klijenti--><g id="elem_klijenti"><path d="M276.6543,13.9296 C280.0538,8.0857 286.4972,7.4146 289.5571,14.2746 C293.2479,7.6429 298.2233,7.5632 302.7064,13.4418 C306.6849,7.271 311.1668,7.7553 315.5587,12.9753 C319.0477,7.0273 322.6606,7.5997 326.5495,12.5728 C331.4566,6 335.8726,6.9538 339.6318,13.7003 C343.1769,8.4096 349.337,7.5169 352.3488,14.2638 C361.045,16.9965 364.0414,25.2039 357.562,32.3185 C362.8975,38.1232 361.1142,44.9051 353.5327,47.2162 C351.0146,55.672 345.5421,56.3518 339.2862,51.1012 C336.6763,56.6325 332.5957,57.3817 327.9946,53.4864 C325.1796,60.0346 319.93,62.0132 315.0305,55.5658 C309.6409,61.0505 305.2675,59.7259 302.8236,52.6932 C298.4733,57.9151 292.8235,58.277 289.9531,51.1507 C285.088,55.153 280.7246,55.8609 278.2184,48.6762 C267.4543,45.558 267.3123,39.6905 273.1876,31.6545 C266.4074,24.3963 266.6947,17.9138 276.6543,13.9296 " fill="#F1F1F1" style="stroke:#181818;stroke-width:0.5;"/><text fill="#000000" font-family="sans-serif" font-size="14" lengthAdjust="spacing" textLength="61" x="283.5" y="35.6301">клијенти</text></g><!--MD5=[5d2253f181164870ec265a65bfc89374]
entity servis1--><g id="elem_servis1"><rect fill="#F1F1F1" height="49.0679" rx="2.5" ry="2.5" style="stroke:#181818;stroke-width:0.5;" width="200" x="108" y="114.6642"/><rect fill="#F1F1F1" height="10" style="stroke:#181818;stroke-width:0.5;" width="15" x="288" y="119.6642"/><rect fill="#F1F1F1" height="2" style="stroke:#181818;stroke-width:0.5;" width="4" x="286" y="121.6642"/><rect fill="#F1F1F1" height="2" style="stroke:#181818;stroke-width:0.5;" width="4" x="286" y="125.6642"/><text fill="#000000" font-family="sans-serif" font-size="14" lengthAdjust="spacing" textLength="160" x="123" y="149.6301">Сервис за наручивање</text></g><!--MD5=[9a891da9d24efc7546d71a2e243505e8]
entity servis2--><g id="elem_servis2"><rect fill="#F1F1F1" height="49.0679" rx="2.5" ry="2.5" style="stroke:#181818;stroke-width:0.5;" width="153" x="363.5" y="114.6642"/><rect fill="#F1F1F1" height="10" style="stroke:#181818;stroke-width:0.5;" width="15" x="496.5" y="119.6642"/><rect fill="#F1F1F1" height="2" style="stroke:#181818;stroke-width:0.5;" width="4" x="494.5" y="121.6642"/><rect fill="#F1F1F1" height="2" style="stroke:#181818;stroke-width:0.5;" width="4" x="494.5" y="125.6642"/><text fill="#000000" font-family="sans-serif" font-size="14" lengthAdjust="spacing" textLength="113" x="378.5" y="149.6301">Сервис за купце</text></g><!--MD5=[693a6344dbc31652be6894cc1f473f20]
link servis1 to narudzbenica--><g id="link_servis1_narudzbenica"><path d="M202.27,164.0942 C197.77,182.8742 191.26,210.0542 185.12,235.6942 " fill="none" id="servis1-to-narudzbenica" style="stroke:#181818;stroke-width:1.0;"/><polygon fill="#181818" points="184,240.3542,189.9768,232.5262,185.1587,235.4903,182.1946,230.6722,184,240.3542" style="stroke:#181818;stroke-width:1.0;"/></g><!--MD5=[41e249bf1182f89f77cca6f6866bac48]
link klijenti to servis1--><g id="link_klijenti_servis1"><path d="M290.48,54.9142 C272.91,72.6442 249.01,96.7642 231.46,114.4842 " fill="none" id="klijenti-servis1" style="stroke:#181818;stroke-width:1.0;"/><path d="M270.9624,84.6567 A10,10 0 0 0 260.9163 74.703" fill="none" style="stroke:#181818;stroke-width:1.5;"/><ellipse cx="260.9625" cy="84.7029" fill="#FFFFFF" rx="6" ry="6" style="stroke:#181818;stroke-width:1.5;"/></g><!--MD5=[c6e15091a9f7ad8c61f1b359368e720f]
link servis2 to kupci--><g id="link_servis2_kupci"><path d="M442.87,164.0942 C444.83,180.4942 447.56,203.3042 450.27,225.8942 " fill="none" id="servis2-to-kupci" style="stroke:#181818;stroke-width:1.0;"/><polygon fill="#181818" points="450.85,230.7542,453.7396,221.3387,450.2492,225.7904,445.7975,222.3,450.85,230.7542" style="stroke:#181818;stroke-width:1.0;"/></g><!--MD5=[d83169cf58fbb838db9aedf92d3252b1]
link klijenti to servis2--><g id="link_klijenti_servis2"><path d="M341.96,54.9142 C362.84,72.6442 391.25,96.7642 412.11,114.4842 " fill="none" id="klijenti-servis2" style="stroke:#181818;stroke-width:1.0;"/><path d="M376.2293,74.736 A10,10 0 0 0 367.0756 85.5161" fill="none" style="stroke:#181818;stroke-width:1.5;"/><ellipse cx="377.0425" cy="84.7029" fill="#FFFFFF" rx="6" ry="6" style="stroke:#181818;stroke-width:1.5;"/></g><!--MD5=[bfa7cd946ce846c0fb525c2e3a5f17b3]
@startuml
cloud "клијенти" as klijenti
component "Сервис за наручивање" as servis1
database "Јединствена база" {

card narudzbenica [

                      Наруџбенице
- - - -
<#FBFB77>|   ID | купац | статус     | укупно    | ... |
| 1234 |    15 | прихваћено | 23,458.00 |     |
| 1235 |     3 | у обради   | 12,223.00 |     |

]

card kupci [

                             Купци
- - - -

<#FBFB77>| ID | Назив | лимит кредита| ... |
| 15 |    .. | .. | .. | ..    |
| 3  |    .. | .. | .. | ..    |

]

}
servis1 - -> narudzbenica
servis1 -up0)- klijenti
component "Сервис за купце" as servis2
servis2 - -> kupci
servis2 -up0)- klijenti
@enduml

PlantUML version 1.2022.7(Mon Aug 22 19:01:30 CEST 2022)
(GPL source distribution)
Java Runtime: OpenJDK Runtime Environment
JVM: OpenJDK 64-Bit Server VM
Default Encoding: UTF-8
Language: en
Country: US
--></g></svg>