<?xml version="1.0" encoding="UTF-8" standalone="no"?><svg xmlns="http://www.w3.org/2000/svg" xmlns:xlink="http://www.w3.org/1999/xlink" contentStyleType="text/css" height="415px" preserveAspectRatio="none" style="width:571px;height:415px;background:#FFFFFF;" version="1.1" viewBox="0 0 571 415" width="571px" zoomAndPan="magnify"><defs/><g><!--MD5=[3f42375ccde7daef486ace9449acaa96]
entity klijenti--><g id="elem_klijenti"><path d="M260.6543,13.9296 C264.0538,8.0857 270.4972,7.4146 273.5571,14.2746 C277.2479,7.6429 282.2233,7.5632 286.7064,13.4418 C290.6849,7.271 295.1668,7.7553 299.5587,12.9753 C303.0477,7.0273 306.6606,7.5997 310.5495,12.5728 C315.4566,6 319.8726,6.9538 323.6318,13.7003 C327.1769,8.4096 333.337,7.5169 336.3488,14.2638 C345.045,16.9965 348.0414,25.2039 341.562,32.3185 C346.8975,38.1232 345.1142,44.9051 337.5327,47.2162 C335.0146,55.672 329.5421,56.3518 323.2862,51.1012 C320.6763,56.6325 316.5957,57.3817 311.9946,53.4864 C309.1796,60.0346 303.93,62.0132 299.0305,55.5658 C293.6409,61.0505 289.2675,59.7259 286.8236,52.6932 C282.4733,57.9151 276.8235,58.277 273.9531,51.1507 C269.088,55.153 264.7246,55.8609 262.2184,48.6762 C251.4543,45.558 251.3123,39.6905 257.1876,31.6545 C250.4074,24.3963 250.6947,17.9138 260.6543,13.9296 " fill="#F1F1F1" style="stroke:#181818;stroke-width:0.5;"/><text fill="#000000" font-family="sans-serif" font-size="14" lengthAdjust="spacing" textLength="61" x="267.5" y="35.6301">клијенти</text></g><!--MD5=[5d2253f181164870ec265a65bfc89374]
entity servis1--><g id="elem_servis1"><rect fill="#F1F1F1" height="49.0679" rx="2.5" ry="2.5" style="stroke:#181818;stroke-width:0.5;" width="200" x="92" y="114.6642"/><rect fill="#F1F1F1" height="10" style="stroke:#181818;stroke-width:0.5;" width="15" x="272" y="119.6642"/><rect fill="#F1F1F1" height="2" style="stroke:#181818;stroke-width:0.5;" width="4" x="270" y="121.6642"/><rect fill="#F1F1F1" height="2" style="stroke:#181818;stroke-width:0.5;" width="4" x="270" y="125.6642"/><text fill="#000000" font-family="sans-serif" font-size="14" lengthAdjust="spacing" textLength="160" x="107" y="149.6301">Сервис за наручивање</text></g><!--MD5=[8eebffdfcdca8cd20f1fe8823ceb5f3e]
entity baza1--><g id="elem_baza1"><path d="M6,233.6642 C6,223.6642 152,223.6642 152,223.6642 C152,223.6642 298,223.6642 298,233.6642 L298,388.1396 C298,398.1396 152,398.1396 152,398.1396 C152,398.1396 6,398.1396 6,388.1396 L6,233.6642 " fill="#F1F1F1" style="stroke:#181818;stroke-width:0.5;"/><path d="M6,233.6642 C6,243.6642 152,243.6642 152,243.6642 C152,243.6642 298,243.6642 298,233.6642 " fill="none" style="stroke:#181818;stroke-width:0.5;"/><text fill="#000000" font-family="sans-serif" font-size="14" lengthAdjust="spacing" textLength="4" x="16" y="262.6301"> </text><text fill="#000000" font-family="sans-serif" font-size="14" lengthAdjust="spacing" textLength="94" x="104" y="281.698">Наруџбенице</text><path d="M6,280.8 C6,290.8 152,290.8 152,290.8 C152,290.8 298,290.8 298,280.8 " fill="none" style="stroke:#181818;stroke-width:1.0;"/><rect fill="#FBFB77" height="19.0679" style="stroke:none;stroke-width:0.5;" width="272" x="16" y="291.8"/><text fill="#000000" font-family="sans-serif" font-size="14" lengthAdjust="spacing" textLength="15" x="28" y="306.7659">ID</text><text fill="#000000" font-family="sans-serif" font-size="14" lengthAdjust="spacing" textLength="40" x="60" y="306.7659">купац</text><text fill="#000000" font-family="sans-serif" font-size="14" lengthAdjust="spacing" textLength="43" x="108" y="306.7659">статус</text><text fill="#000000" font-family="sans-serif" font-size="14" lengthAdjust="spacing" textLength="47" x="200" y="306.7659">укупно</text><text fill="#000000" font-family="sans-serif" font-size="14" lengthAdjust="spacing" textLength="12" x="272" y="306.7659">...</text><text fill="#000000" font-family="sans-serif" font-size="14" lengthAdjust="spacing" textLength="32" x="20" y="325.8338">1234</text><text fill="#000000" font-family="sans-serif" font-size="14" lengthAdjust="spacing" textLength="16" x="72" y="325.8338">15</text><text fill="#000000" font-family="sans-serif" font-size="14" lengthAdjust="spacing" textLength="84" x="108" y="325.8338">прихваћено</text><text fill="#000000" font-family="sans-serif" font-size="14" lengthAdjust="spacing" textLength="64" x="200" y="325.8338">23,458.00</text><text fill="#000000" font-family="sans-serif" font-size="14" lengthAdjust="spacing" textLength="20" x="268" y="325.8338">     </text><text fill="#000000" font-family="sans-serif" font-size="14" lengthAdjust="spacing" textLength="32" x="20" y="344.9018">1235</text><text fill="#000000" font-family="sans-serif" font-size="14" lengthAdjust="spacing" textLength="8" x="76" y="344.9018">3</text><text fill="#000000" font-family="sans-serif" font-size="14" lengthAdjust="spacing" textLength="61" x="108" y="344.9018">у обради</text><text fill="#000000" font-family="sans-serif" font-size="14" lengthAdjust="spacing" textLength="64" x="200" y="344.9018">12,223.00</text><text fill="#000000" font-family="sans-serif" font-size="14" lengthAdjust="spacing" textLength="20" x="268" y="344.9018">     </text><line style="stroke:#000000;stroke-width:0.5;" x1="16" x2="288" y1="291.8" y2="291.8"/><line style="stroke:#000000;stroke-width:0.5;" x1="16" x2="288" y1="310.8679" y2="310.8679"/><line style="stroke:#000000;stroke-width:0.5;" x1="16" x2="288" y1="329.9358" y2="329.9358"/><line style="stroke:#000000;stroke-width:0.5;" x1="16" x2="288" y1="349.0037" y2="349.0037"/><line style="stroke:#000000;stroke-width:0.5;" x1="16" x2="16" y1="291.8" y2="349.0037"/><line style="stroke:#000000;stroke-width:0.5;" x1="56" x2="56" y1="291.8" y2="349.0037"/><line style="stroke:#000000;stroke-width:0.5;" x1="104" x2="104" y1="291.8" y2="349.0037"/><line style="stroke:#000000;stroke-width:0.5;" x1="196" x2="196" y1="291.8" y2="349.0037"/><line style="stroke:#000000;stroke-width:0.5;" x1="268" x2="268" y1="291.8" y2="349.0037"/><line style="stroke:#000000;stroke-width:0.5;" x1="288" x2="288" y1="291.8" y2="349.0037"/><text fill="#000000" font-family="sans-serif" font-size="14" lengthAdjust="spacing" textLength="4" x="16" y="365.9697"> </text><text fill="#000000" font-family="sans-serif" font-size="14" lengthAdjust="spacing" textLength="4" x="16" y="385.0376"> </text></g><!--MD5=[9a891da9d24efc7546d71a2e243505e8]
entity servis2--><g id="elem_servis2"><rect fill="#F1F1F1" height="49.0679" rx="2.5" ry="2.5" style="stroke:#181818;stroke-width:0.5;" width="153" x="347.5" y="114.6642"/><rect fill="#F1F1F1" height="10" style="stroke:#181818;stroke-width:0.5;" width="15" x="480.5" y="119.6642"/><rect fill="#F1F1F1" height="2" style="stroke:#181818;stroke-width:0.5;" width="4" x="478.5" y="121.6642"/><rect fill="#F1F1F1" height="2" style="stroke:#181818;stroke-width:0.5;" width="4" x="478.5" y="125.6642"/><text fill="#000000" font-family="sans-serif" font-size="14" lengthAdjust="spacing" textLength="113" x="362.5" y="149.6301">Сервис за купце</text></g><!--MD5=[ff313db42a30c98732189aba71aef841]
entity baza2--><g id="elem_baza2"><path d="M333.5,243.1642 C333.5,233.1642 444,233.1642 444,233.1642 C444,233.1642 554.5,233.1642 554.5,243.1642 L554.5,378.5717 C554.5,388.5717 444,388.5717 444,388.5717 C444,388.5717 333.5,388.5717 333.5,378.5717 L333.5,243.1642 " fill="#F1F1F1" style="stroke:#181818;stroke-width:0.5;"/><path d="M333.5,243.1642 C333.5,253.1642 444,253.1642 444,253.1642 C444,253.1642 554.5,253.1642 554.5,243.1642 " fill="none" style="stroke:#181818;stroke-width:0.5;"/><text fill="#000000" font-family="sans-serif" font-size="14" lengthAdjust="spacing" textLength="4" x="343.5" y="272.1301"> </text><text fill="#000000" font-family="sans-serif" font-size="14" lengthAdjust="spacing" textLength="43" x="459.5" y="291.198">Купци</text><path d="M333.5,290.3 C333.5,300.3 444,300.3 444,300.3 C444,300.3 554.5,300.3 554.5,290.3 " fill="none" style="stroke:#181818;stroke-width:1.0;"/><rect fill="#FBFB77" height="19.0679" style="stroke:none;stroke-width:0.5;" width="201" x="343.5" y="301.3"/><text fill="#000000" font-family="sans-serif" font-size="14" lengthAdjust="spacing" textLength="15" x="347.5" y="316.2659">ID</text><text fill="#000000" font-family="sans-serif" font-size="14" lengthAdjust="spacing" textLength="42" x="371.5" y="316.2659">Назив</text><text fill="#000000" font-family="sans-serif" font-size="14" lengthAdjust="spacing" textLength="103" x="421.5" y="316.2659">лимит кредита</text><text fill="#000000" font-family="sans-serif" font-size="14" lengthAdjust="spacing" textLength="12" x="528.5" y="316.2659">...</text><text fill="#000000" font-family="sans-serif" font-size="14" lengthAdjust="spacing" textLength="16" x="347.5" y="335.3338">15</text><text fill="#000000" font-family="sans-serif" font-size="14" lengthAdjust="spacing" textLength="8" x="383.5" y="335.3338">..</text><text fill="#000000" font-family="sans-serif" font-size="14" lengthAdjust="spacing" textLength="8" x="421.5" y="335.3338">..</text><text fill="#000000" font-family="sans-serif" font-size="14" lengthAdjust="spacing" textLength="8" x="528.5" y="335.3338">..</text><text fill="#000000" font-family="sans-serif" font-size="14" lengthAdjust="spacing" textLength="8" x="347.5" y="354.4018">3</text><text fill="#000000" font-family="sans-serif" font-size="14" lengthAdjust="spacing" textLength="8" x="383.5" y="354.4018">..</text><text fill="#000000" font-family="sans-serif" font-size="14" lengthAdjust="spacing" textLength="8" x="421.5" y="354.4018">..</text><text fill="#000000" font-family="sans-serif" font-size="14" lengthAdjust="spacing" textLength="8" x="528.5" y="354.4018">..</text><line style="stroke:#000000;stroke-width:0.5;" x1="343.5" x2="544.5" y1="301.3" y2="301.3"/><line style="stroke:#000000;stroke-width:0.5;" x1="343.5" x2="544.5" y1="320.3679" y2="320.3679"/><line style="stroke:#000000;stroke-width:0.5;" x1="343.5" x2="544.5" y1="339.4358" y2="339.4358"/><line style="stroke:#000000;stroke-width:0.5;" x1="343.5" x2="544.5" y1="358.5037" y2="358.5037"/><line style="stroke:#000000;stroke-width:0.5;" x1="343.5" x2="343.5" y1="301.3" y2="358.5037"/><line style="stroke:#000000;stroke-width:0.5;" x1="367.5" x2="367.5" y1="301.3" y2="358.5037"/><line style="stroke:#000000;stroke-width:0.5;" x1="417.5" x2="417.5" y1="301.3" y2="358.5037"/><line style="stroke:#000000;stroke-width:0.5;" x1="524.5" x2="524.5" y1="301.3" y2="358.5037"/><line style="stroke:#000000;stroke-width:0.5;" x1="544.5" x2="544.5" y1="301.3" y2="358.5037"/><text fill="#000000" font-family="sans-serif" font-size="14" lengthAdjust="spacing" textLength="4" x="343.5" y="375.4697"> </text></g><!--MD5=[c6ceedbf380ab8c3782999a8c52a43b0]
link servis1 to baza1--><g id="link_servis1_baza1"><path d="M186.35,164.0942 C182.98,178.3942 178.45,197.5942 173.79,217.3442 " fill="none" id="servis1-to-baza1" style="stroke:#181818;stroke-width:1.0;"/><polygon fill="#181818" points="172.69,222.0042,178.6399,214.1557,173.832,217.1363,170.8514,212.3284,172.69,222.0042" style="stroke:#181818;stroke-width:1.0;"/></g><!--MD5=[41e249bf1182f89f77cca6f6866bac48]
link klijenti to servis1--><g id="link_klijenti_servis1"><path d="M274.48,54.9142 C256.91,72.6442 233.01,96.7642 215.46,114.4842 " fill="none" id="klijenti-servis1" style="stroke:#181818;stroke-width:1.0;"/><path d="M254.9624,84.6567 A10,10 0 0 0 244.9163 74.703" fill="none" style="stroke:#181818;stroke-width:1.5;"/><ellipse cx="244.9625" cy="84.7029" fill="#FFFFFF" rx="6" ry="6" style="stroke:#181818;stroke-width:1.5;"/></g><!--MD5=[adae94da202fb02fbddcde493edcf846]
link servis2 to baza2--><g id="link_servis2_baza2"><path d="M426.82,164.0942 C428.77,180.6042 431.49,203.6342 434.19,226.5142 " fill="none" id="servis2-to-baza2" style="stroke:#181818;stroke-width:1.0;"/><polygon fill="#181818" points="434.77,231.4442,437.6863,222.037,434.1833,226.4787,429.7416,222.9757,434.77,231.4442" style="stroke:#181818;stroke-width:1.0;"/></g><!--MD5=[d83169cf58fbb838db9aedf92d3252b1]
link klijenti to servis2--><g id="link_klijenti_servis2"><path d="M325.96,54.9142 C346.84,72.6442 375.25,96.7642 396.11,114.4842 " fill="none" id="klijenti-servis2" style="stroke:#181818;stroke-width:1.0;"/><path d="M360.2293,74.736 A10,10 0 0 0 351.0756 85.5161" fill="none" style="stroke:#181818;stroke-width:1.5;"/><ellipse cx="361.0425" cy="84.7029" fill="#FFFFFF" rx="6" ry="6" style="stroke:#181818;stroke-width:1.5;"/></g><!--MD5=[eaf7cf873bba18d30f87b54ba1645169]
@startuml
cloud "клијенти" as klijenti
component "Сервис за наручивање" as servis1
database baza1 [

                      Наруџбенице
- - - -
<#FBFB77>|   ID | купац | статус     | укупно    | ... |
| 1234 |    15 | прихваћено | 23,458.00 |     |
| 1235 |     3 | у обради   | 12,223.00 |     |


]
servis1 - -> baza1
servis1 -up0)- klijenti
component "Сервис за купце" as servis2
database baza2 [

                             Купци
- - - -
<#FBFB77>| ID | Назив | лимит кредита| ... |
| 15 |    .. | .. | .. | ..    |
| 3  |    .. | .. | .. | ..    |

]
servis2 - -> baza2
servis2 -up0)- klijenti
@enduml

PlantUML version 1.2022.7(Mon Aug 22 19:01:30 CEST 2022)
(GPL source distribution)
Java Runtime: OpenJDK Runtime Environment
JVM: OpenJDK 64-Bit Server VM
Default Encoding: UTF-8
Language: en
Country: US
--></g></svg>