<?xml version="1.0" encoding="UTF-8" standalone="no"?>
<!-- Generated by graphviz version 2.28.0 (20110626.0926)
 -->

<!-- Title: arpeggio_graph Pages: 1 -->

<svg
   xmlns:dc="http://purl.org/dc/elements/1.1/"
   xmlns:cc="http://creativecommons.org/ns#"
   xmlns:rdf="http://www.w3.org/1999/02/22-rdf-syntax-ns#"
   xmlns:svg="http://www.w3.org/2000/svg"
   xmlns="http://www.w3.org/2000/svg"
   xmlns:sodipodi="http://sodipodi.sourceforge.net/DTD/sodipodi-0.dtd"
   xmlns:inkscape="http://www.inkscape.org/namespaces/inkscape"
   width="1218.8046"
   height="507.42188"
   viewBox="0 0 975.04363 405.9375"
   id="svg2"
   version="1.1"
   inkscape:version="0.48.5 r10040"
   sodipodi:docname="calc_parse_tree.svg">
  <metadata
     id="metadata314">
    <rdf:RDF>
      <cc:Work
         rdf:about="">
        <dc:format>image/svg+xml</dc:format>
        <dc:type
           rdf:resource="http://purl.org/dc/dcmitype/StillImage" />
        <dc:title />
      </cc:Work>
    </rdf:RDF>
  </metadata>
  <defs
     id="defs312">
    <clipPath
       clipPathUnits="userSpaceOnUse"
       id="clipPath16">
      <path
         inkscape:connector-curvature="0"
         d="M 0,0 612,0 612,792 0,792 0,0 z"
         id="path18" />
    </clipPath>
    <clipPath
       clipPathUnits="userSpaceOnUse"
       id="clipPath20">
      <path
         inkscape:connector-curvature="0"
         d="M 0,0 612,0 612,792 0,792 0,0 z"
         clip-rule="evenodd"
         id="path22" />
    </clipPath>
  </defs>
  <sodipodi:namedview
     pagecolor="#ffffff"
     bordercolor="#666666"
     borderopacity="1"
     objecttolerance="10"
     gridtolerance="10"
     guidetolerance="10"
     inkscape:pageopacity="0"
     inkscape:pageshadow="2"
     inkscape:window-width="1280"
     inkscape:window-height="753"
     id="namedview310"
     showgrid="false"
     fit-margin-top="0"
     fit-margin-left="0"
     fit-margin-right="0"
     fit-margin-bottom="0"
     inkscape:zoom="0.69728395"
     inkscape:cx="781.19881"
     inkscape:cy="217.84716"
     inkscape:window-x="-4"
     inkscape:window-y="-3"
     inkscape:window-maximized="1"
     inkscape:current-layer="svg2" />
  <g
     id="g3695"
     transform="translate(0.06291699,-0.34845)">
    <g
       transform="translate(4.4999907,400.8172)"
       id="node1"
       class="node">
      <title
         id="title10">3073038412</title>
      <ellipse
         cx="405"
         cy="-378"
         rx="38.021198"
         ry="18"
         id="ellipse12"
         d="m 443.0212,-378 c 0,9.94113 -17.02267,18 -38.0212,18 -20.99853,0 -38.0212,-8.05887 -38.0212,-18 0,-9.94113 17.02267,-18 38.0212,-18 20.99853,0 38.0212,8.05887 38.0212,18 z"
         sodipodi:cx="405"
         sodipodi:cy="-378"
         sodipodi:rx="38.021198"
         sodipodi:ry="18"
         style="fill:none;stroke:#000000;stroke-width:1" />
      <text
         x="405"
         y="-374.29999"
         font-size="14.00"
         id="text14"
         style="font-size:14px;text-anchor:middle;font-family:'Times,serif'">calc [0]</text>
    </g>
    <g
       transform="translate(4.4999907,400.8172)"
       id="node3"
       class="node">
      <title
         id="title17">3073038668</title>
      <ellipse
         cx="339"
         cy="-306"
         rx="62.092201"
         ry="18"
         id="ellipse19"
         d="m 401.0922,-306 c 0,9.94113 -27.79962,18 -62.0922,18 -34.29258,0 -62.0922,-8.05887 -62.0922,-18 0,-9.94113 27.79962,-18 62.0922,-18 34.29258,0 62.0922,8.05887 62.0922,18 z"
         sodipodi:cx="339"
         sodipodi:cy="-306"
         sodipodi:rx="62.092201"
         sodipodi:ry="18"
         style="fill:none;stroke:#000000;stroke-width:1" />
      <text
         x="339"
         y="-302.29999"
         font-size="14.00"
         id="text21"
         style="font-size:14px;text-anchor:middle;font-family:'Times,serif'">expression [0]</text>
    </g>
    <g
       transform="translate(4.4999907,400.8172)"
       id="edge2"
       class="edge">
      <title
         id="title24">3073038412-&gt;3073038668</title>
      <path
         d="m 390.024,-361.116 c -8.365,8.872 -18.959,20.107 -28.323,30.039"
         id="path26"
         inkscape:connector-curvature="0"
         style="fill:none;stroke:#000000;stroke-width:1" />
      <polygon
         points="364.244,-328.672 354.838,-323.797 359.151,-333.474 364.244,-328.672 "
         id="polygon28"
         style="fill:#000000;stroke:#000000;stroke-width:1" />
    </g>
    <g
       transform="translate(4.4999907,400.8172)"
       id="node43"
       class="node">
      <title
         id="title31">3073038892</title>
      <ellipse
         cx="471"
         cy="-306"
         rx="51.493099"
         ry="18"
         id="ellipse33"
         d="m 522.4931,-306 c 0,9.94113 -23.05425,18 -51.4931,18 -28.43885,0 -51.4931,-8.05887 -51.4931,-18 0,-9.94113 23.05425,-18 51.4931,-18 28.43885,0 51.4931,8.05887 51.4931,18 z"
         sodipodi:cx="471"
         sodipodi:cy="-306"
         sodipodi:rx="51.493099"
         sodipodi:ry="18"
         style="fill:none;stroke:#000000;stroke-width:1" />
      <text
         x="471"
         y="-302.29999"
         font-size="14.00"
         id="text35"
         style="font-size:14px;text-anchor:middle;font-family:'Times,serif'">'EOF' [17]</text>
    </g>
    <g
       transform="translate(4.4999907,400.8172)"
       id="edge42"
       class="edge">
      <title
         id="title38">3073038412-&gt;3073038892</title>
      <path
         d="m 419.976,-361.116 c 8.486,9 19.266,20.434 28.729,30.47"
         id="path40"
         inkscape:connector-curvature="0"
         style="fill:none;stroke:#000000;stroke-width:1" />
      <polygon
         points="451.311,-332.984 455.625,-323.307 446.218,-328.182 451.311,-332.984 "
         id="polygon42"
         style="fill:#000000;stroke:#000000;stroke-width:1" />
    </g>
    <g
       transform="translate(4.4999907,400.8172)"
       id="node5"
       class="node">
      <title
         id="title45">3073038796</title>
      <ellipse
         cx="294"
         cy="-234"
         rx="32.245701"
         ry="18"
         id="ellipse47"
         d="m 326.2457,-234 c 0,9.94113 -14.43689,18 -32.2457,18 -17.80881,0 -32.2457,-8.05887 -32.2457,-18 0,-9.94113 14.43689,-18 32.2457,-18 17.80881,0 32.2457,8.05887 32.2457,18 z"
         sodipodi:cx="294"
         sodipodi:cy="-234"
         sodipodi:rx="32.245701"
         sodipodi:ry="18"
         style="fill:none;stroke:#000000;stroke-width:1" />
      <text
         x="294"
         y="-230.3"
         font-size="14.00"
         id="text49"
         style="font-size:14px;text-anchor:middle;font-family:'Times,serif'">'-' [0]</text>
    </g>
    <g
       transform="translate(4.4999907,400.8172)"
       id="edge4"
       class="edge">
      <title
         id="title52">3073038668-&gt;3073038796</title>
      <path
         d="m 328.107,-288.055 c -5.441,8.463 -12.128,18.865 -18.135,28.21"
         id="path54"
         inkscape:connector-curvature="0"
         style="fill:none;stroke:#000000;stroke-width:1" />
      <polygon
         points="312.835,-257.826 304.483,-251.307 306.947,-261.611 312.835,-257.826 "
         id="polygon56"
         style="fill:#000000;stroke:#000000;stroke-width:1" />
    </g>
    <g
       transform="translate(4.4999907,400.8172)"
       id="node7"
       class="node">
      <title
         id="title59">3073038732</title>
      <ellipse
         cx="384"
         cy="-234"
         rx="39.469101"
         ry="18"
         id="ellipse61"
         d="m 423.4691,-234 c 0,9.94113 -17.67092,18 -39.4691,18 -21.79818,0 -39.4691,-8.05887 -39.4691,-18 0,-9.94113 17.67092,-18 39.4691,-18 21.79818,0 39.4691,8.05887 39.4691,18 z"
         sodipodi:cx="384"
         sodipodi:cy="-234"
         sodipodi:rx="39.469101"
         sodipodi:ry="18"
         style="fill:none;stroke:#000000;stroke-width:1" />
      <text
         x="384"
         y="-230.3"
         font-size="14.00"
         id="text63"
         style="font-size:14px;text-anchor:middle;font-family:'Times,serif'">term [1]</text>
    </g>
    <g
       transform="translate(4.4999907,400.8172)"
       id="edge6"
       class="edge">
      <title
         id="title66">3073038668-&gt;3073038732</title>
      <path
         d="m 349.893,-288.055 c 5.362,8.34 11.934,18.564 17.874,27.803"
         id="path68"
         inkscape:connector-curvature="0"
         style="fill:none;stroke:#000000;stroke-width:1" />
      <polygon
         points="370.744,-262.093 373.207,-251.789 364.855,-258.308 370.744,-262.093 "
         id="polygon70"
         style="fill:#000000;stroke:#000000;stroke-width:1" />
    </g>
    <g
       transform="translate(4.4999907,400.8172)"
       id="node9"
       class="node">
      <title
         id="title73">3073038828</title>
      <ellipse
         cx="173"
         cy="-162"
         rx="44.271"
         ry="18"
         id="ellipse75"
         d="m 217.271,-162 c 0,9.94113 -19.8208,18 -44.271,18 -24.4502,0 -44.271,-8.05887 -44.271,-18 0,-9.94113 19.8208,-18 44.271,-18 24.4502,0 44.271,8.05887 44.271,18 z"
         sodipodi:cx="173"
         sodipodi:cy="-162"
         sodipodi:rx="44.271"
         sodipodi:ry="18"
         style="fill:none;stroke:#000000;stroke-width:1" />
      <text
         x="173"
         y="-158.3"
         font-size="14.00"
         id="text77"
         style="font-size:14px;text-anchor:middle;font-family:'Times,serif'">factor [1]</text>
    </g>
    <g
       transform="translate(4.4999907,400.8172)"
       id="edge8"
       class="edge">
      <title
         id="title80">3073038732-&gt;3073038828</title>
      <path
         d="m 353.708,-222.396 c -6.183,2.137 -12.65,4.354 -18.708,6.396 -40.026,13.49 -85.779,28.413 -118.43,38.977"
         id="path82"
         inkscape:connector-curvature="0"
         style="fill:none;stroke:#000000;stroke-width:1" />
      <polygon
         points="217.47,-173.635 206.878,-173.89 215.317,-180.296 217.47,-173.635 "
         id="polygon84"
         style="fill:#000000;stroke:#000000;stroke-width:1" />
    </g>
    <g
       transform="translate(4.4999907,400.8172)"
       id="node23"
       class="node">
      <title
         id="title87">3073039372</title>
      <ellipse
         cx="270"
         cy="-162"
         rx="34.170799"
         ry="18"
         id="ellipse89"
         d="m 304.1708,-162 c 0,9.94113 -15.29879,18 -34.1708,18 -18.87201,0 -34.1708,-8.05887 -34.1708,-18 0,-9.94113 15.29879,-18 34.1708,-18 18.87201,0 34.1708,8.05887 34.1708,18 z"
         sodipodi:cx="270"
         sodipodi:cy="-162"
         sodipodi:rx="34.170799"
         sodipodi:ry="18"
         style="fill:none;stroke:#000000;stroke-width:1" />
      <text
         x="270"
         y="-158.3"
         font-size="14.00"
         id="text91"
         style="font-size:14px;text-anchor:middle;font-family:'Times,serif'">'*' [6]</text>
    </g>
    <g
       transform="translate(4.4999907,400.8172)"
       id="edge22"
       class="edge">
      <title
         id="title94">3073038732-&gt;3073039372</title>
      <path
         d="m 361.477,-219.17 c -17.589,10.8 -42.195,25.909 -61.457,37.737"
         id="path96"
         inkscape:connector-curvature="0"
         style="fill:none;stroke:#000000;stroke-width:1" />
      <polygon
         points="301.672,-178.341 291.319,-176.091 298.01,-184.306 301.672,-178.341 "
         id="polygon98"
         style="fill:#000000;stroke:#000000;stroke-width:1" />
    </g>
    <g
       transform="translate(4.4999907,400.8172)"
       id="node25"
       class="node">
      <title
         id="title101">3073039500</title>
      <ellipse
         cx="384"
         cy="-162"
         rx="61.616299"
         ry="18"
         id="ellipse103"
         d="m 445.6163,-162 c 0,9.94113 -27.58656,18 -61.6163,18 -34.02974,0 -61.6163,-8.05887 -61.6163,-18 0,-9.94113 27.58656,-18 61.6163,-18 34.02974,0 61.6163,8.05887 61.6163,18 z"
         sodipodi:cx="384"
         sodipodi:cy="-162"
         sodipodi:rx="61.616299"
         sodipodi:ry="18"
         style="fill:none;stroke:#000000;stroke-width:1" />
      <text
         x="384"
         y="-158.3"
         font-size="14.00"
         id="text105"
         style="font-size:14px;text-anchor:middle;font-family:'Times,serif'">number '5' [7]</text>
    </g>
    <g
       transform="translate(4.4999907,400.8172)"
       id="edge24"
       class="edge">
      <title
         id="title108">3073038732-&gt;3073039500</title>
      <path
         d="m 384,-215.697 c 0,7.714 0,16.985 0,25.585"
         id="path110"
         inkscape:connector-curvature="0"
         style="fill:none;stroke:#000000;stroke-width:1" />
      <polygon
         points="387.5,-190.104 384,-180.104 380.5,-190.104 387.5,-190.104 "
         id="polygon112"
         style="fill:#000000;stroke:#000000;stroke-width:1" />
    </g>
    <g
       transform="translate(4.4999907,400.8172)"
       id="node27"
       class="node">
      <title
         id="title115">3073039532</title>
      <ellipse
         cx="496"
         cy="-162"
         rx="32.245701"
         ry="18"
         id="ellipse117"
         d="m 528.2457,-162 c 0,9.94113 -14.43689,18 -32.2457,18 -17.80881,0 -32.2457,-8.05887 -32.2457,-18 0,-9.94113 14.43689,-18 32.2457,-18 17.80881,0 32.2457,8.05887 32.2457,18 z"
         sodipodi:cx="496"
         sodipodi:cy="-162"
         sodipodi:rx="32.245701"
         sodipodi:ry="18"
         style="fill:none;stroke:#000000;stroke-width:1" />
      <text
         x="496"
         y="-158.3"
         font-size="14.00"
         id="text119"
         style="font-size:14px;text-anchor:middle;font-family:'Times,serif'">'/' [8]</text>
    </g>
    <g
       transform="translate(4.4999907,400.8172)"
       id="edge26"
       class="edge">
      <title
         id="title122">3073038732-&gt;3073039532</title>
      <path
         d="m 406.396,-219.003 c 17.304,10.815 41.401,25.876 60.249,37.656"
         id="path124"
         inkscape:connector-curvature="0"
         style="fill:none;stroke:#000000;stroke-width:1" />
      <polygon
         points="468.531,-184.295 475.156,-176.027 464.821,-178.359 468.531,-184.295 "
         id="polygon126"
         style="fill:#000000;stroke:#000000;stroke-width:1" />
    </g>
    <g
       transform="translate(4.4999907,400.8172)"
       id="node29"
       class="node">
      <title
         id="title129">3073039180</title>
      <ellipse
         cx="591"
         cy="-162"
         rx="44.271"
         ry="18"
         id="ellipse131"
         d="m 635.271,-162 c 0,9.94113 -19.8208,18 -44.271,18 -24.4502,0 -44.271,-8.05887 -44.271,-18 0,-9.94113 19.8208,-18 44.271,-18 24.4502,0 44.271,8.05887 44.271,18 z"
         sodipodi:cx="591"
         sodipodi:cy="-162"
         sodipodi:rx="44.271"
         sodipodi:ry="18"
         style="fill:none;stroke:#000000;stroke-width:1" />
      <text
         x="591"
         y="-158.3"
         font-size="14.00"
         id="text133"
         style="font-size:14px;text-anchor:middle;font-family:'Times,serif'">factor [9]</text>
    </g>
    <g
       transform="translate(4.4999907,400.8172)"
       id="edge28"
       class="edge">
      <title
         id="title136">3073038732-&gt;3073039180</title>
      <path
         d="m 414.99,-222.52 c 35.455,11.989 93.724,31.694 133.426,45.12"
         id="path138"
         inkscape:connector-curvature="0"
         style="fill:none;stroke:#000000;stroke-width:1" />
      <polygon
         points="549.733,-180.65 558.085,-174.131 547.491,-174.019 549.733,-180.65 "
         id="polygon140"
         style="fill:#000000;stroke:#000000;stroke-width:1" />
    </g>
    <g
       transform="translate(4.4999907,400.8172)"
       id="node11"
       class="node">
      <title
         id="title143">3073038956</title>
      <ellipse
         cx="60"
         cy="-90"
         rx="32.245701"
         ry="18"
         id="ellipse145"
         d="m 92.245701,-90 c 0,9.941125 -14.436892,18 -32.245701,18 -17.808809,0 -32.245701,-8.058875 -32.245701,-18 0,-9.941125 14.436892,-18 32.245701,-18 17.808809,0 32.245701,8.058875 32.245701,18 z"
         sodipodi:cx="60"
         sodipodi:cy="-90"
         sodipodi:rx="32.245701"
         sodipodi:ry="18"
         style="fill:none;stroke:#000000;stroke-width:1" />
      <text
         x="60"
         y="-86.300003"
         font-size="14.00"
         id="text147"
         style="font-size:14px;text-anchor:middle;font-family:'Times,serif'">'(' [1]</text>
    </g>
    <g
       transform="translate(4.4999907,400.8172)"
       id="edge10"
       class="edge">
      <title
         id="title150">3073038828-&gt;3073038956</title>
      <path
         d="m 149.586,-146.496 c -17.444,10.806 -41.385,25.637 -60.1291,37.248"
         id="path152"
         inkscape:connector-curvature="0"
         style="fill:none;stroke:#000000;stroke-width:1" />
      <polygon
         points="91.0681,-106.129 80.7239,-103.838 87.3818,-112.079 91.0681,-106.129 "
         id="polygon154"
         style="fill:#000000;stroke:#000000;stroke-width:1" />
    </g>
    <g
       transform="translate(4.4999907,400.8172)"
       id="node13"
       class="node">
      <title
         id="title157">3073038988</title>
      <ellipse
         cx="173"
         cy="-90"
         rx="62.092201"
         ry="18"
         id="ellipse159"
         d="m 235.0922,-90 c 0,9.941125 -27.79962,18 -62.0922,18 -34.29258,0 -62.0922,-8.058875 -62.0922,-18 0,-9.941125 27.79962,-18 62.0922,-18 34.29258,0 62.0922,8.058875 62.0922,18 z"
         sodipodi:cx="173"
         sodipodi:cy="-90"
         sodipodi:rx="62.092201"
         sodipodi:ry="18"
         style="fill:none;stroke:#000000;stroke-width:1" />
      <text
         x="173"
         y="-86.300003"
         font-size="14.00"
         id="text161"
         style="font-size:14px;text-anchor:middle;font-family:'Times,serif'">expression [2]</text>
    </g>
    <g
       transform="translate(4.4999907,400.8172)"
       id="edge12"
       class="edge">
      <title
         id="title164">3073038828-&gt;3073038988</title>
      <path
         d="m 173,-143.697 c 0,7.714 0,16.985 0,25.585"
         id="path166"
         inkscape:connector-curvature="0"
         style="fill:none;stroke:#000000;stroke-width:1" />
      <polygon
         points="176.5,-118.104 173,-108.104 169.5,-118.104 176.5,-118.104 "
         id="polygon168"
         style="fill:#000000;stroke:#000000;stroke-width:1" />
    </g>
    <g
       transform="translate(4.4999907,400.8172)"
       id="node21"
       class="node">
      <title
         id="title171">3073039052</title>
      <ellipse
         cx="286"
         cy="-90"
         rx="32.245701"
         ry="18"
         id="ellipse173"
         d="m 318.2457,-90 c 0,9.941125 -14.43689,18 -32.2457,18 -17.80881,0 -32.2457,-8.058875 -32.2457,-18 0,-9.941125 14.43689,-18 32.2457,-18 17.80881,0 32.2457,8.058875 32.2457,18 z"
         sodipodi:cx="286"
         sodipodi:cy="-90"
         sodipodi:rx="32.245701"
         sodipodi:ry="18"
         style="fill:none;stroke:#000000;stroke-width:1" />
      <text
         x="286"
         y="-86.300003"
         font-size="14.00"
         id="text175"
         style="font-size:14px;text-anchor:middle;font-family:'Times,serif'">')' [5]</text>
    </g>
    <g
       transform="translate(4.4999907,400.8172)"
       id="edge20"
       class="edge">
      <title
         id="title178">3073038828-&gt;3073039052</title>
      <path
         d="m 196.414,-146.496 c 17.444,10.806 41.385,25.637 60.129,37.248"
         id="path180"
         inkscape:connector-curvature="0"
         style="fill:none;stroke:#000000;stroke-width:1" />
      <polygon
         points="258.618,-112.079 265.276,-103.838 254.932,-106.129 258.618,-112.079 "
         id="polygon182"
         style="fill:#000000;stroke:#000000;stroke-width:1" />
    </g>
    <g
       transform="translate(4.4999907,400.8172)"
       id="node15"
       class="node">
      <title
         id="title185">3073039148</title>
      <ellipse
         cx="61"
         cy="-18"
         rx="61.616299"
         ry="18"
         id="ellipse187"
         d="M 122.6163,-18 C 122.6163,-8.0588745 95.029742,0 61,0 26.970258,0 -0.61629868,-8.0588745 -0.61629868,-18 c 0,-9.941125 27.58655668,-18 61.61629868,-18 34.029742,0 61.6163,8.058875 61.6163,18 z"
         sodipodi:cx="61"
         sodipodi:cy="-18"
         sodipodi:rx="61.616299"
         sodipodi:ry="18"
         style="fill:none;stroke:#000000;stroke-width:1" />
      <text
         x="61"
         y="-14.3"
         font-size="14.00"
         id="text189"
         style="font-size:14px;text-anchor:middle;font-family:'Times,serif'">number '4' [2]</text>
    </g>
    <g
       transform="translate(4.4999907,400.8172)"
       id="edge14"
       class="edge">
      <title
         id="title192">3073038988-&gt;3073039148</title>
      <path
         d="m 148.144,-73.4647 c -15.806,9.8783 -36.464,22.7897 -53.6997,33.562"
         id="path194"
         inkscape:connector-curvature="0"
         style="fill:none;stroke:#000000;stroke-width:1" />
      <polygon
         points="96.122,-36.8239 85.7869,-34.4918 92.4119,-42.7599 96.122,-36.8239 "
         id="polygon196"
         style="fill:#000000;stroke:#000000;stroke-width:1" />
    </g>
    <g
       transform="translate(4.4999907,400.8172)"
       id="node17"
       class="node">
      <title
         id="title199">3073039244</title>
      <ellipse
         cx="173"
         cy="-18"
         rx="32.245701"
         ry="18"
         id="ellipse201"
         d="m 205.2457,-18 c 0,9.9411255 -14.43689,18 -32.2457,18 -17.80881,0 -32.2457,-8.0588745 -32.2457,-18 0,-9.941125 14.43689,-18 32.2457,-18 17.80881,0 32.2457,8.058875 32.2457,18 z"
         sodipodi:cx="173"
         sodipodi:cy="-18"
         sodipodi:rx="32.245701"
         sodipodi:ry="18"
         style="fill:none;stroke:#000000;stroke-width:1" />
      <text
         x="173"
         y="-14.3"
         font-size="14.00"
         id="text203"
         style="font-size:14px;text-anchor:middle;font-family:'Times,serif'">'-' [3]</text>
    </g>
    <g
       transform="translate(4.4999907,400.8172)"
       id="edge16"
       class="edge">
      <title
         id="title206">3073038988-&gt;3073039244</title>
      <path
         d="m 173,-71.6966 c 0,7.7139 0,16.9841 0,25.5842"
         id="path208"
         inkscape:connector-curvature="0"
         style="fill:none;stroke:#000000;stroke-width:1" />
      <polygon
         points="176.5,-46.1043 173,-36.1043 169.5,-46.1044 176.5,-46.1043 "
         id="polygon210"
         style="fill:#000000;stroke:#000000;stroke-width:1" />
    </g>
    <g
       transform="translate(4.4999907,400.8172)"
       id="node19"
       class="node">
      <title
         id="title213">3073039340</title>
      <ellipse
         cx="285"
         cy="-18"
         rx="61.616299"
         ry="18"
         id="ellipse215"
         d="m 346.6163,-18 c 0,9.9411255 -27.58656,18 -61.6163,18 -34.02974,0 -61.6163,-8.0588745 -61.6163,-18 0,-9.941125 27.58656,-18 61.6163,-18 34.02974,0 61.6163,8.058875 61.6163,18 z"
         sodipodi:cx="285"
         sodipodi:cy="-18"
         sodipodi:rx="61.616299"
         sodipodi:ry="18"
         style="fill:none;stroke:#000000;stroke-width:1" />
      <text
         x="285"
         y="-14.3"
         font-size="14.00"
         id="text217"
         style="font-size:14px;text-anchor:middle;font-family:'Times,serif'">number '1' [4]</text>
    </g>
    <g
       transform="translate(4.4999907,400.8172)"
       id="edge18"
       class="edge">
      <title
         id="title220">3073038988-&gt;3073039340</title>
      <path
         d="m 197.856,-73.4647 c 15.806,9.8783 36.464,22.7897 53.7,33.562"
         id="path222"
         inkscape:connector-curvature="0"
         style="fill:none;stroke:#000000;stroke-width:1" />
      <polygon
         points="253.588,-42.7599 260.213,-34.4918 249.878,-36.8239 253.588,-42.7599 "
         id="polygon224"
         style="fill:#000000;stroke:#000000;stroke-width:1" />
    </g>
    <g
       transform="translate(4.4999907,400.8172)"
       id="node31"
       class="node">
      <title
         id="title227">3073039628</title>
      <ellipse
         cx="474"
         cy="-90"
         rx="32.245701"
         ry="18"
         id="ellipse229"
         d="m 506.2457,-90 c 0,9.941125 -14.43689,18 -32.2457,18 -17.80881,0 -32.2457,-8.058875 -32.2457,-18 0,-9.941125 14.43689,-18 32.2457,-18 17.80881,0 32.2457,8.058875 32.2457,18 z"
         sodipodi:cx="474"
         sodipodi:cy="-90"
         sodipodi:rx="32.245701"
         sodipodi:ry="18"
         style="fill:none;stroke:#000000;stroke-width:1" />
      <text
         x="474"
         y="-86.300003"
         font-size="14.00"
         id="text231"
         style="font-size:14px;text-anchor:middle;font-family:'Times,serif'">'(' [9]</text>
    </g>
    <g
       transform="translate(4.4999907,400.8172)"
       id="edge30"
       class="edge">
      <title
         id="title234">3073039180-&gt;3073039628</title>
      <path
         d="m 567.041,-146.666 c -18.238,10.912 -43.454,25.999 -63.035,37.714"
         id="path236"
         inkscape:connector-curvature="0"
         style="fill:none;stroke:#000000;stroke-width:1" />
      <polygon
         points="505.556,-105.801 495.177,-103.67 501.962,-111.808 505.556,-105.801 "
         id="polygon238"
         style="fill:#000000;stroke:#000000;stroke-width:1" />
    </g>
    <g
       transform="translate(4.4999907,400.8172)"
       id="node33"
       class="node">
      <title
         id="title241">3073039660</title>
      <ellipse
         cx="591"
         cy="-90"
         rx="66.416496"
         ry="18"
         id="ellipse243"
         d="m 657.4165,-90 c 0,9.941125 -29.73568,18 -66.4165,18 -36.68082,0 -66.4165,-8.058875 -66.4165,-18 0,-9.941125 29.73568,-18 66.4165,-18 36.68082,0 66.4165,8.058875 66.4165,18 z"
         sodipodi:cx="591"
         sodipodi:cy="-90"
         sodipodi:rx="66.416496"
         sodipodi:ry="18"
         style="fill:none;stroke:#000000;stroke-width:1" />
      <text
         x="591"
         y="-86.300003"
         font-size="14.00"
         id="text245"
         style="font-size:14px;text-anchor:middle;font-family:'Times,serif'">expression [10]</text>
    </g>
    <g
       transform="translate(4.4999907,400.8172)"
       id="edge32"
       class="edge">
      <title
         id="title248">3073039180-&gt;3073039660</title>
      <path
         d="m 591,-143.697 c 0,7.714 0,16.985 0,25.585"
         id="path250"
         inkscape:connector-curvature="0"
         style="fill:none;stroke:#000000;stroke-width:1" />
      <polygon
         points="594.5,-118.104 591,-108.104 587.5,-118.104 594.5,-118.104 "
         id="polygon252"
         style="fill:#000000;stroke:#000000;stroke-width:1" />
    </g>
    <g
       transform="translate(4.4999907,400.8172)"
       id="node41"
       class="node">
      <title
         id="title255">3073039724</title>
      <ellipse
         cx="713"
         cy="-90"
         rx="37.070099"
         ry="18"
         id="ellipse257"
         d="m 750.0701,-90 c 0,9.941125 -16.59685,18 -37.0701,18 -20.47325,0 -37.0701,-8.058875 -37.0701,-18 0,-9.941125 16.59685,-18 37.0701,-18 20.47325,0 37.0701,8.058875 37.0701,18 z"
         sodipodi:cx="713"
         sodipodi:cy="-90"
         sodipodi:rx="37.070099"
         sodipodi:ry="18"
         style="fill:none;stroke:#000000;stroke-width:1" />
      <text
         x="713"
         y="-86.300003"
         font-size="14.00"
         id="text259"
         style="font-size:14px;text-anchor:middle;font-family:'Times,serif'">')' [16]</text>
    </g>
    <g
       transform="translate(4.4999907,400.8172)"
       id="edge40"
       class="edge">
      <title
         id="title262">3073039180-&gt;3073039724</title>
      <path
         d="m 615.689,-146.834 c 18.838,10.808 44.941,25.785 65.369,37.507"
         id="path264"
         inkscape:connector-curvature="0"
         style="fill:none;stroke:#000000;stroke-width:1" />
      <polygon
         points="683.067,-112.21 689.999,-104.197 679.583,-106.138 683.067,-112.21 "
         id="polygon266"
         style="fill:#000000;stroke:#000000;stroke-width:1" />
    </g>
    <g
       transform="translate(4.4999907,400.8172)"
       id="node35"
       class="node">
      <title
         id="title269">3073039852</title>
      <ellipse
         cx="468"
         cy="-18"
         rx="65.465897"
         ry="18"
         id="ellipse271"
         d="m 533.4659,-18 c 0,9.9411255 -29.31008,18 -65.4659,18 -36.15582,0 -65.4659,-8.0588745 -65.4659,-18 0,-9.941125 29.31008,-18 65.4659,-18 36.15582,0 65.4659,8.058875 65.4659,18 z"
         sodipodi:cx="468"
         sodipodi:cy="-18"
         sodipodi:rx="65.465897"
         sodipodi:ry="18"
         style="fill:none;stroke:#000000;stroke-width:1" />
      <text
         x="468"
         y="-14.3"
         font-size="14.00"
         id="text273"
         style="font-size:14px;text-anchor:middle;font-family:'Times,serif'">number '2' [10]</text>
    </g>
    <g
       transform="translate(4.4999907,400.8172)"
       id="edge34"
       class="edge">
      <title
         id="title276">3073039660-&gt;3073039852</title>
      <path
         d="m 563.702,-73.4647 c -17.596,10.0142 -40.67,23.1457 -59.752,34.0055"
         id="path278"
         inkscape:connector-curvature="0"
         style="fill:none;stroke:#000000;stroke-width:1" />
      <polygon
         points="505.644,-36.3962 495.221,-34.4918 502.181,-42.4799 505.644,-36.3962 "
         id="polygon280"
         style="fill:#000000;stroke:#000000;stroke-width:1" />
    </g>
    <g
       transform="translate(4.4999907,400.8172)"
       id="node37"
       class="node">
      <title
         id="title283">3073039916</title>
      <ellipse
         cx="591"
         cy="-18"
         rx="38.4949"
         ry="18"
         id="ellipse285"
         d="m 629.4949,-18 c 0,9.9411255 -17.23475,18 -38.4949,18 -21.26015,0 -38.4949,-8.0588745 -38.4949,-18 0,-9.941125 17.23475,-18 38.4949,-18 21.26015,0 38.4949,8.058875 38.4949,18 z"
         sodipodi:cx="591"
         sodipodi:cy="-18"
         sodipodi:rx="38.4949"
         sodipodi:ry="18"
         style="fill:none;stroke:#000000;stroke-width:1" />
      <text
         x="591"
         y="-14.3"
         font-size="14.00"
         id="text287"
         style="font-size:14px;text-anchor:middle;font-family:'Times,serif'">'+' [11]</text>
    </g>
    <g
       transform="translate(4.4999907,400.8172)"
       id="edge36"
       class="edge">
      <title
         id="title290">3073039660-&gt;3073039916</title>
      <path
         d="m 591,-71.6966 c 0,7.7139 0,16.9841 0,25.5842"
         id="path292"
         inkscape:connector-curvature="0"
         style="fill:none;stroke:#000000;stroke-width:1" />
      <polygon
         points="594.5,-46.1043 591,-36.1043 587.5,-46.1044 594.5,-46.1043 "
         id="polygon294"
         style="fill:#000000;stroke:#000000;stroke-width:1" />
    </g>
    <g
       transform="translate(4.4999907,400.8172)"
       id="node39"
       class="node">
      <title
         id="title297">3073040076</title>
      <ellipse
         cx="725"
         cy="-18"
         rx="77.015404"
         ry="18"
         id="ellipse299"
         d="m 802.0154,-18 c 0,9.9411255 -34.48097,18 -77.0154,18 -42.53443,0 -77.0154,-8.0588745 -77.0154,-18 0,-9.941125 34.48097,-18 77.0154,-18 42.53443,0 77.0154,8.058875 77.0154,18 z"
         sodipodi:cx="725"
         sodipodi:cy="-18"
         sodipodi:rx="77.015404"
         sodipodi:ry="18"
         style="fill:none;stroke:#000000;stroke-width:1" />
      <text
         x="725"
         y="-14.3"
         font-size="14.00"
         id="text301"
         style="font-size:14px;text-anchor:middle;font-family:'Times,serif'">number '4.67' [12]</text>
    </g>
    <g
       transform="translate(4.4999907,400.8172)"
       id="edge38"
       class="edge">
      <title
         id="title304">3073039660-&gt;3073040076</title>
      <path
         d="m 620.076,-73.811 c 19.311,10.0877 44.889,23.4492 65.956,34.4544"
         id="path306"
         inkscape:connector-curvature="0"
         style="fill:none;stroke:#000000;stroke-width:1" />
      <polygon
         points="687.81,-42.3765 695.053,-34.644 684.569,-36.172 687.81,-42.3765 "
         id="polygon308"
         style="fill:#000000;stroke:#000000;stroke-width:1" />
    </g>
  </g>
  <text
     xml:space="preserve"
     style="font-size:25.69146538px;font-style:normal;font-weight:normal;line-height:125%;letter-spacing:0px;word-spacing:0px;fill:#000000;fill-opacity:1;stroke:none;font-family:Bitstream Vera Sans"
     x="571.59161"
     y="34.086056"
     id="text3346"
     sodipodi:linespacing="125%"><tspan
       sodipodi:role="line"
       id="tspan3348"
       x="571.59161"
       y="34.086056">Gramatika (Arpeggio PEG)</tspan></text>
  <text
     xml:space="preserve"
     style="font-size:16.97332001px;font-style:normal;font-weight:normal;line-height:125%;letter-spacing:0px;word-spacing:0px;fill:#000000;fill-opacity:1;stroke:none;font-family:Bitstream Vera Sans"
     x="559.5282"
     y="65.727226"
     id="text3506"
     sodipodi:linespacing="125%"><tspan
       sodipodi:role="line"
       id="tspan3508"
       x="559.5282"
       y="65.727226"
       style="font-style:normal;font-variant:normal;font-weight:normal;font-stretch:normal;font-family:Monospace;-inkscape-font-specification:Monospace">number = r'\d*\.\d*|\d+'</tspan><tspan
       sodipodi:role="line"
       x="559.5282"
       y="86.943878"
       id="tspan3510"
       style="font-style:normal;font-variant:normal;font-weight:normal;font-stretch:normal;font-family:Monospace;-inkscape-font-specification:Monospace">factor = (&quot;+&quot; / &quot;-&quot;)?</tspan><tspan
       sodipodi:role="line"
       x="559.5282"
       y="108.16052"
       id="tspan3512"
       style="font-style:normal;font-variant:normal;font-weight:normal;font-stretch:normal;font-family:Monospace;-inkscape-font-specification:Monospace">         (number / &quot;(&quot; expression &quot;)&quot;)</tspan><tspan
       sodipodi:role="line"
       x="559.5282"
       y="129.37718"
       id="tspan3514"
       style="font-style:normal;font-variant:normal;font-weight:normal;font-stretch:normal;font-family:Monospace;-inkscape-font-specification:Monospace">term = factor (( &quot;*&quot; / &quot;/&quot;) factor)*</tspan><tspan
       sodipodi:role="line"
       x="559.5282"
       y="150.59383"
       id="tspan3516"
       style="font-style:normal;font-variant:normal;font-weight:normal;font-stretch:normal;font-family:Monospace;-inkscape-font-specification:Monospace">expression = term ((&quot;+&quot; / &quot;-&quot;) term)*</tspan><tspan
       sodipodi:role="line"
       x="559.5282"
       y="171.81047"
       id="tspan3518"
       style="font-style:normal;font-variant:normal;font-weight:normal;font-stretch:normal;font-family:Monospace;-inkscape-font-specification:Monospace">calc = expression+ EOF</tspan><tspan
       sodipodi:role="line"
       x="559.5282"
       y="193.02713"
       id="tspan3520"
       style="font-style:normal;font-variant:normal;font-weight:normal;font-stretch:normal;font-family:Monospace;-inkscape-font-specification:Monospace" /></text>
</svg>
