<?xml version="1.0" encoding="UTF-8" standalone="no"?>
<!-- Created with Inkscape (http://www.inkscape.org/) -->

<svg
   xmlns:dc="http://purl.org/dc/elements/1.1/"
   xmlns:cc="http://creativecommons.org/ns#"
   xmlns:rdf="http://www.w3.org/1999/02/22-rdf-syntax-ns#"
   xmlns:svg="http://www.w3.org/2000/svg"
   xmlns="http://www.w3.org/2000/svg"
   xmlns:xlink="http://www.w3.org/1999/xlink"
   xmlns:sodipodi="http://sodipodi.sourceforge.net/DTD/sodipodi-0.dtd"
   xmlns:inkscape="http://www.inkscape.org/namespaces/inkscape"
   width="586.74469"
   height="591.67517"
   id="svg4893"
   sodipodi:version="0.32"
   inkscape:version="0.48.4 r9939"
   sodipodi:docname="uns-logo.svg"
   inkscape:output_extension="org.inkscape.output.svg.inkscape"
   version="1.1">
  <defs
     id="defs4895">
    <inkscape:perspective
       sodipodi:type="inkscape:persp3d"
       inkscape:vp_x="0 : 526.18109 : 1"
       inkscape:vp_y="0 : 1000 : 0"
       inkscape:vp_z="744.09448 : 526.18109 : 1"
       inkscape:persp3d-origin="372.04724 : 350.78739 : 1"
       id="perspective4901" />
  </defs>
  <sodipodi:namedview
     id="base"
     pagecolor="#ffffff"
     bordercolor="#666666"
     borderopacity="1.0"
     gridtolerance="10000"
     guidetolerance="10"
     objecttolerance="10"
     inkscape:pageopacity="0.0"
     inkscape:pageshadow="2"
     inkscape:zoom="0.35"
     inkscape:cx="916.58494"
     inkscape:cy="253.16138"
     inkscape:document-units="px"
     inkscape:current-layer="layer1"
     showgrid="false"
     inkscape:window-width="1280"
     inkscape:window-height="753"
     inkscape:window-x="-4"
     inkscape:window-y="-3"
     inkscape:window-maximized="1"
     fit-margin-top="0"
     fit-margin-left="0"
     fit-margin-right="0"
     fit-margin-bottom="0" />
  <metadata
     id="metadata4898">
    <rdf:RDF>
      <cc:Work
         rdf:about="">
        <dc:format>image/svg+xml</dc:format>
        <dc:type
           rdf:resource="http://purl.org/dc/dcmitype/StillImage" />
      </cc:Work>
    </rdf:RDF>
  </metadata>
  <g
     inkscape:label="Layer 1"
     inkscape:groupmode="layer"
     id="layer1"
     transform="translate(-84.033057,-111.94449)">
    <g
       id="g3033"
       transform="matrix(5.5399277,0,0,5.5399277,-1411.1998,-911.14432)">
      <path
         style="fill:#000000;stroke:none"
         d="m 329.01315,190.89345 0,0 0.072,0 0,0 0,0 0,0.072 -0.072,0.072 0,0 -0.072,0.072 0,-0.072 0,-0.072 0,0 0.072,-0.072 0,0 0,0 0,0 0,0 0,0 z"
         id="path4300"
         inkscape:connector-curvature="0" />
      <g
         transform="translate(-100.74866,205.80034)"
         style="fill:#000000;fill-opacity:1"
         id="g4866">
        <path
           id="path4302"
           d="m 422.05781,-7.1308896 0.936,0 0.288,0.936 0,0.864 0.072,0.864 0.216,0.792 0.072,0 0,0 0,0 0.072,0 0.288,-3.168 0.072,0 0,-0.072 0,0 0.072,-0.216 1.296,0.216 0,1.368 0,1.512 0,1.44 0,1.44 0,0.72000002 0,0.864 0,0.79199998 -0.144,0.72 -0.144,0.072 -0.288,0 -0.216,0 -0.144,-0.072 -0.216,-4.248 -0.504,4.176 -0.072,0.072 -0.072,0 -0.072,0 -0.144,0 -0.216,-1.07999998 -0.144,-1.08 -0.072,-1.15200002 -0.144,-1.008 0,0 0,0 -0.144,0 0,0 -0.144,4.248 -0.072,0.072 -0.288,0 -0.144,0 -0.216,0 -0.144,-0.36 0,-0.432 0.072,-0.50399998 -0.072,-0.504 0,-0.144 0,-0.216 0,-0.072 0,-0.216 0,-0.72000002 0,-0.792 0,-0.648 0,-0.792 0,-0.216 0,-0.36 0,-0.144 0,-0.288 0,-0.576 0,-0.576 0,-0.72 0,-0.504 0.072,-0.072 0.072,-0.216 0.072,0 0.144,0 0,0 z"
           style="fill:#000000;fill-opacity:1;stroke:none"
           inkscape:connector-curvature="0" />
        <path
           id="path4304"
           d="m 419.10581,-6.8428896 0.864,0.072 0.216,0.072 0.072,0.288 0.072,0.288 0.072,0.144 0,0.648 0.144,0.432 0,0.432 0,0.432 -0.936,0.144 -0.216,-0.36 0,-0.576 0,-0.576 -0.216,-0.576 0,0 -0.072,-0.072 0,0 -0.072,0 0,0 0,0 -0.144,0 0,0.072 0,1.8 0.144,1.656 0.144,1.80000002 0.072,1.79999998 0,0.072 0.144,0.144 0.072,0 0.072,0 0.072,0 0.216,0 0,0 0,0 0.072,-0.79199998 -0.072,-0.576 0,-0.72 0,-0.64800002 0.144,-0.072 0.216,-0.072 0.36,0 0.144,0.072 0.072,0.72000002 0.144,0.864 0,0.72 0,0.86399998 -0.36,0.288 -0.36,0.072 -0.648,0.144 -0.504,0 -0.288,-0.144 -0.216,-0.144 -0.216,-0.216 -0.072,-0.216 -0.144,-2.08799998 -0.216,-1.94400002 -0.144,-2.016 0.144,-1.872 1.224,-0.36 0,0 z"
           style="fill:#000000;fill-opacity:1;stroke:none"
           inkscape:connector-curvature="0" />
        <path
           id="path4306"
           d="m 427.31381,-6.6988896 0.864,0.216 -0.864,7.992 0.504,0.144 0.072,0.144 0,0.144 0,0.072 -0.072,0.216 -1.656,-0.072 0.216,-2.15999998 0.216,-2.30400002 0.36,-2.232 0.36,-2.16 0,0 0,0 0,0 0,0 0,0 z"
           style="fill:#000000;fill-opacity:1;stroke:none"
           inkscape:connector-curvature="0" />
        <path
           id="path4308"
           d="m 415.57781,-6.4108896 0.288,0 0.36,0.864 0.216,1.08 0.288,1.08 0.144,1.08 0.288,1.152 0.216,1.15200002 0.216,1.15199998 0.288,1.008 -0.216,0.216 -0.144,0.072 -0.216,0 -0.144,0 -0.36,-0.576 -0.072,-0.648 -0.216,-0.71999998 -0.144,-0.576 0,-0.576 -0.144,-0.43200002 -0.144,-0.432 -0.072,-0.432 0.216,4.392 0,0 -0.072,0 0,0.144 -0.072,0 -0.072,0.072 0,0 -0.144,0 -0.072,-0.072 -1.512,-4.392 -0.072,0 0,0 0,0 -0.072,0.216 0.864,4.32 -0.144,0.072 -0.144,0 -0.216,0.144 -0.288,-0.144 -0.288,-1.008 -0.216,-1.07999998 -0.216,-0.936 -0.144,-1.15200002 -0.36,-1.152 -0.216,-1.008 -0.216,-1.08 -0.144,-1.008 1.152,-0.432 1.296,3.456 0,0 0.072,0 0,0 0,0 -0.216,-3.6 0.864,-0.216 0,0 z"
           style="fill:#000000;fill-opacity:1;stroke:none"
           inkscape:connector-curvature="0" />
        <path
           id="path4310"
           d="m 430.76981,-6.3388896 0.72,0.288 -0.216,2.736 0.072,0 0,0 0.144,0 0,0 0.864,-2.232 0.288,-0.216 0.648,0.216 -0.648,2.016 -0.648,2.16 -0.504,2.08800002 -0.216,2.08799998 -0.072,0.144 0,0.072 -0.072,0 0,0 -0.72,-0.216 0.36,-3.31199998 0,0 0,-0.144 0,0 -0.144,0 0,0 -0.072,0 0,0 -0.072,0 -1.08,3.09599998 -0.864,-0.072 0,-0.36 0.072,-0.144 0.072,-0.216 0.144,-0.36 0.792,-1.79999998 0.36,-1.80000002 0.432,-1.8 0.144,-1.944 0.216,-0.288 0,0 0,0 0,0 0,0 0,0 z"
           style="fill:#000000;fill-opacity:1;stroke:none"
           inkscape:connector-curvature="0" />
      </g>
      <path
         style="fill:#000000;fill-opacity:1;stroke:none"
         d="m 320.30115,214.58145 1.008,0 1.008,0 0.936,0 1.08,0.072 0.936,0.216 1.008,0.144 1.08,0.288 1.008,0.288 1.44,0.504 1.368,0.504 1.152,0.576 1.224,0.72 1.08,0.576 1.08,0.936 1.152,0.936 1.008,0.936 0.144,0.144 0,0 0,0 0,0 0,0.072 0.072,0 0,0.072 0.072,0 0.792,0.936 -0.072,0.36 -1.224,0 -0.792,-0.792 -0.72,-0.792 -0.792,-0.648 -0.936,-0.576 -0.792,-0.648 -0.936,-0.504 -0.936,-0.576 -1.008,-0.432 -0.936,-0.576 -0.936,-0.36 -1.152,-0.216 -1.008,-0.288 -1.08,-0.216 -1.08,-0.144 -1.152,-0.288 -1.08,0 -0.216,0 -0.36,0 -0.432,0 -0.36,0 -0.288,0 -0.36,0 -0.36,0.144 -0.288,0 -0.144,0 -0.072,0 -0.144,0 -0.144,0 -0.504,0.144 -0.576,0.144 -0.576,0 -0.36,0.216 -0.576,0.144 -0.576,0.144 -0.504,0.144 -0.576,0.072 -1.512,0.576 -1.368,0.576 -1.296,0.936 -1.224,0.864 -1.08,1.008 -1.152,0.864 -1.296,0.72 -1.368,0.576 0,0 -0.144,0 0,0 0,0 -0.072,-0.072 0,0 0,0 0,-0.072 0.216,-0.504 0.36,-0.288 0.36,-0.36 0.216,-0.36 0.576,-0.648 0.504,-0.36 0.648,-0.504 0.504,-0.504 0.432,-0.36 0.576,-0.288 0.36,-0.432 0.432,-0.288 0.432,-0.288 0.36,-0.072 0.36,-0.36 0.432,-0.072 0.648,-0.288 0.648,-0.36 0.648,-0.216 0.72,-0.288 0.648,-0.288 0.792,-0.216 0.576,-0.216 0.72,-0.288 0.576,0 0.36,-0.072 0.504,0 0.36,-0.072 0.288,-0.072 0.144,-0.216 0.288,0 0.216,0 0.216,0 0.288,0 0.216,0 0.288,-0.072 0,0 z"
         id="path4330"
         inkscape:connector-curvature="0" />
      <path
         style="fill:#000000;fill-opacity:1;stroke:none"
         d="m 326.56515,223.00545 0.432,0 0.36,0 0.36,0 0.216,0 0.432,0.072 0.288,0 0.36,0 0.288,0 0.72,0 0.504,0.144 0.72,0.072 0.648,0.072 0.576,0.072 0.576,0.216 0.576,0.144 0.576,0.36 0.792,0.216 0.72,0.144 0.792,0.072 0.792,0.216 0.792,0.072 0.792,0.072 0.792,0 0.792,-0.072 0.36,0.072 0.432,0 0.576,-0.072 0.36,-0.072 0.432,-0.072 0.504,0.144 0.36,0.216 0.432,0.432 0.36,0.36 0.36,0.36 0.36,0.432 0.288,0.216 0.36,0.288 0.216,0.36 0.288,0.288 0.36,0.36 0.36,0.216 0.288,0.36 0.36,0.288 0.144,0.36 0.648,0.504 0.432,0.576 0.504,0.576 0.576,0.36 -0.36,0.288 -0.576,0.072 -0.504,0.216 -0.504,0 -0.648,0.072 -0.432,0 -0.648,0.072 -0.504,0.072 -0.36,-0.072 -0.288,0 -0.144,0.072 -0.36,-0.072 -0.792,0 -0.72,0 -0.936,-0.072 -0.864,-0.072 -0.72,-0.216 -0.864,-0.216 -0.72,-0.144 -0.864,-0.216 -0.792,-0.144 -0.72,-0.216 -0.792,-0.144 -0.864,-0.288 -0.792,-0.144 -0.792,-0.072 -0.792,-0.072 -0.792,-0.072 -0.288,0 -0.216,0 -0.432,0 -0.288,0 -0.288,0 -0.288,0 -0.216,0 -0.432,0 -0.72,0.072 -0.792,0.072 -0.864,0.072 -0.792,0.288 -0.864,0.144 -0.72,0.288 -0.864,0.072 -0.72,0.216 -0.072,-1.8 -0.144,-1.944 0,-1.872 0,-1.872 0.504,-0.216 0.36,-0.144 0.504,-0.072 0.648,-0.072 0.36,-0.072 0.576,-0.144 0.576,0 0.36,-0.072 0,0 z"
         id="path4350"
         inkscape:connector-curvature="0" />
      <path
         style="fill:#000000;fill-opacity:1;stroke:none"
         d="m 314.54115,223.07745 0.576,0 0.504,0 0.504,0 0.648,0 0.432,0 0.576,0 0.504,0.144 0.504,0.072 0.432,0 0.36,0.144 0.36,0 0.432,0.144 0.072,0 0,0.072 0,0 0,0 0.144,0 0,-0.216 0.072,0 -0.072,0.144 0,0.072 0,-0.072 0,0 0,0.072 0.144,0 0.36,0.144 -0.288,7.56 -1.008,-0.288 -1.152,-0.36 -1.152,-0.216 -1.08,-0.216 -1.152,-0.144 -1.152,-0.216 -1.08,0 -1.152,0 -0.576,0.144 -0.576,0 -0.576,0.072 -0.576,0.072 -0.576,0.072 -0.504,0 -0.648,0.216 -0.504,0.216 -0.432,0.144 -0.432,0.072 -0.36,0.144 -0.36,0 -1.08,0.288 -1.008,0.216 -1.008,0.216 -1.08,0.216 -0.936,0.072 -1.008,0.072 -1.08,0 -1.008,0 -0.36,0 -0.36,-0.072 -0.504,0 -0.36,0 -0.36,-0.072 -0.36,-0.216 -0.432,0 -0.36,-0.072 -0.072,0 0,-0.072 0,0 0,-0.072 0.72,-0.864 0.72,-0.792 0.792,-0.864 0.72,-0.864 0.864,-0.936 0.792,-0.792 0.792,-0.792 0.792,-0.936 0.072,0 0,-0.144 0.144,0 0,0 0.72,0.216 0.864,0.072 0.864,0.072 0.792,0 0.936,0 0.792,-0.072 0.792,-0.144 0.864,-0.216 1.008,-0.144 0.72,-0.216 0.936,-0.36 1.008,-0.144 0.72,-0.216 0.936,-0.144 1.008,-0.216 0.792,0 0,0 z"
         id="path4352"
         inkscape:connector-curvature="0" />
      <path
         style="fill:#000000;fill-opacity:1;stroke:none"
         d="m 340.17315,237.90945 5.976,0 0.216,0.288 0,0.432 0.072,0.36 0.144,0.36 0.216,1.08 0,1.08 0,1.08 -0.288,0.936 -0.144,0.792 -0.288,0.72 -0.288,0.648 -0.288,0.504 -0.288,0.432 -0.216,0.36 -0.288,0.288 -0.216,0.36 -0.36,0.36 -0.36,0.288 -0.288,0.216 -0.36,0.288 -0.72,-0.288 -0.576,-0.36 -0.72,-0.432 -0.576,-0.36 -0.648,-0.216 -0.576,-0.36 -0.72,-0.36 -0.576,-0.36 0,0 0,0 0,0 0,-0.072 0,-0.288 0.072,-0.288 0.288,-0.36 0.072,-0.36 0.576,0.216 0.576,0.36 0.576,0.216 0.504,0.288 0.576,0.216 0.576,0.144 0.576,0.072 0.648,-0.144 0.36,-0.216 0.36,-0.144 0.432,-0.216 0.288,-0.216 0.36,-0.288 0.216,-0.288 0.216,-0.36 0.216,-0.216 0.216,-1.08 -0.072,-1.008 -0.36,-0.792 -0.432,-0.792 -0.576,-0.36 -0.576,-0.36 -0.576,-0.144 -0.72,-0.072 -0.576,-0.144 -0.72,0 -0.576,-0.072 -0.648,-0.144 0,-1.08 0,-0.072 0.072,-0.072 0.072,0 0.144,0 0,0 z"
         id="path4362"
         inkscape:connector-curvature="0" />
      <path
         style="fill:#000000;fill-opacity:1;stroke:none"
         d="m 300.86115,237.98145 2.592,0 0.072,0.216 0.072,0.432 0,0.36 -0.072,0.36 -0.648,0 -0.576,0.144 -0.72,0.072 -0.648,0.072 -0.504,0.072 -0.72,0.36 -0.432,0.288 -0.576,0.504 -0.216,0.576 -0.288,0.576 -0.072,0.72 0,0.576 0.36,0.864 0.432,0.72 0.72,0.576 0.792,0.36 0.216,0.144 0.288,0.072 0.288,0 0.288,0 0.288,-0.072 0.288,-0.144 0.288,0 0.288,-0.072 0.432,-0.144 0.216,-0.144 0.288,-0.072 0.288,-0.144 0.288,-0.216 0.288,-0.144 0.288,-0.072 0.288,-0.144 0.72,1.152 0,0 0,0.144 0,0.072 -0.216,0 -5.328,2.736 -0.72,-0.648 -0.648,-0.792 -0.648,-0.792 -0.432,-0.936 -0.432,-1.008 -0.288,-1.08 -0.216,-1.152 -0.072,-1.08 0.072,-0.792 0.144,-0.864 0.072,-0.72 0.36,-0.792 3.456,-0.144 0,0 z"
         id="path4364"
         inkscape:connector-curvature="0" />
      <path
         style="fill:#000000;fill-opacity:1;stroke:none"
         d="m 350.61315,238.05345 9.72,0.288 0.144,0 0,0.216 0.072,0.072 0,0.144 -0.072,0.72 0,0.864 -0.144,0.72 -0.144,0.792 -0.72,0 -0.648,0 -0.648,-0.072 -0.72,-0.144 -0.72,0 -0.648,-0.144 -0.72,0 -0.576,-0.072 -0.576,0 -0.36,0.072 -0.432,0.072 -0.432,0.072 -0.36,0.216 -0.36,0.144 -0.36,0.288 -0.216,0.288 -0.72,0.864 -0.648,1.008 -0.144,1.008 -0.144,1.152 0.288,1.08 0.504,0.792 0.648,0.792 0.792,0.648 0.576,0.288 0.648,0.36 0.576,0.216 0.72,0.36 0.72,0.288 0.576,0.36 0.648,0.288 0.72,0.216 -1.584,3.168 -0.504,-0.144 -0.36,0 -0.504,-0.216 -0.36,-0.216 -0.36,-0.288 -0.504,-0.144 -0.36,-0.288 -0.36,-0.144 -0.72,-0.36 -0.72,-0.36 -0.72,-0.432 -0.576,-0.36 -0.792,-0.36 -0.72,-0.36 -0.72,-0.432 -0.648,-0.36 0,-1.152 0.072,-1.152 0.216,-1.152 0.144,-1.224 0.144,-0.648 0.144,-0.72 0.072,-0.648 0.144,-0.648 0.288,-0.576 0.216,-0.72 0.288,-0.432 0.144,-0.648 0.36,-0.792 0.432,-0.936 0.432,-0.72 0.504,-0.792 0,0 0.072,0 0,0 0,0 0,0 z"
         id="path4366"
         inkscape:connector-curvature="0" />
      <path
         style="fill:#000000;fill-opacity:1;stroke:none"
         d="m 291.42915,238.12545 0.432,0 0.504,0 0.504,0 0.504,0.072 0.216,0.432 0.216,0.36 0.144,0.36 0.216,0.36 0.504,1.152 0.576,1.368 0.432,1.296 0.36,1.368 0.288,1.512 0.288,1.584 0.144,1.44 0.072,1.512 -8.64,4.68 -0.576,-0.648 -0.36,-0.792 -0.432,-0.792 -0.36,-0.864 0,0 0.072,-0.072 0,-0.144 0,0 0.216,-0.072 0.288,-0.144 0.288,-0.144 0.288,-0.072 0.576,-0.36 0.792,-0.216 0.576,-0.216 0.72,-0.288 0.576,-0.432 0.648,-0.216 0.576,-0.36 0.504,-0.504 0.576,-0.792 0.36,-1.008 0.144,-1.08 -0.072,-1.008 -0.216,-1.08 -0.432,-0.792 -0.576,-0.72 -0.72,-0.576 -0.36,-0.216 -0.432,-0.144 -0.504,-0.216 -0.432,-0.072 -0.504,0 -0.432,-0.072 -0.504,0 -0.504,0.072 -0.504,0.072 -0.576,0 -0.504,0.144 -0.432,0.072 -0.576,0.072 -0.504,0 -0.504,0.072 -0.576,0 -0.144,-0.72 -0.144,-0.936 -0.072,-1.008 -0.072,-0.792 0.144,-0.216 0.216,0 0.288,0.072 0.144,-0.072 1.008,0 0.864,0 0.864,0 0.936,-0.144 0.864,0 0.864,0 0.936,0 0.936,-0.072 0,0 z"
         id="path4368"
         inkscape:connector-curvature="0" />
      <path
         style="fill:#000000;fill-opacity:1;stroke:none"
         d="m 337.29315,246.76545 5.256,2.808 -0.144,1.008 -0.216,0.936 -0.504,1.008 -0.504,0.792 -0.504,0.72 -0.504,0.72 -0.648,0.576 -0.72,0.648 -0.72,0.504 -0.792,0.36 -0.792,0.432 -0.792,0.36 -0.36,0 -0.216,0 -0.144,0.144 -0.432,0.072 -0.36,-0.576 -0.504,-0.576 -0.504,-0.576 -0.36,-0.792 -0.36,-0.504 -0.288,-0.72 -0.504,-0.648 -0.36,-0.648 0.216,-0.216 0.144,-0.288 0.288,0 0.36,-0.144 0,-0.072 0,0 0.072,0 0,0 0.36,0.432 0.36,0.504 0.432,0.432 0.432,0.576 0.36,0.504 0.648,0.36 0.504,0.288 0.72,0.144 0.432,0 0.576,0 0.432,-0.072 0.36,-0.144 0.432,-0.216 0.36,-0.288 0.36,-0.288 0.216,-0.36 0.504,-0.936 0.072,-0.864 -0.072,-1.008 -0.36,-0.864 -0.288,-0.36 -0.288,-0.36 -0.432,-0.288 -0.36,-0.432 -0.432,-0.144 -0.432,-0.288 -0.36,-0.288 -0.36,-0.432 0,0 0,0 0,-0.072 0,-0.072 0.648,-0.792 0,0 0.072,0 0,0 0,0 0,0 z"
         id="path4376"
         inkscape:connector-curvature="0" />
      <path
         style="fill:#000000;fill-opacity:1;stroke:none"
         d="m 306.18915,246.98145 0.648,1.008 0,0 0,0.072 0,0 0,0.072 -0.576,0.36 -0.504,0.36 -0.72,0.576 -0.432,0.504 -0.576,0.648 -0.36,0.576 -0.144,0.792 0,0.864 0.288,0.936 0.576,0.72 0.576,0.504 0.792,0.36 0.504,0.144 0.576,0 0.504,0 0.504,-0.144 0.576,-0.36 0.432,-0.216 0.36,-0.576 0.36,-0.36 0.36,-0.432 0.36,-0.504 0.36,-0.36 0.504,-0.36 1.008,0.504 -0.36,0.936 -0.504,0.72 -0.576,0.792 -0.432,0.864 -0.36,0.504 -0.36,0.36 -0.288,0.648 -0.288,0.432 -0.216,0.072 -0.216,-0.072 -0.36,-0.072 -0.216,0 -0.576,-0.216 -0.576,-0.216 -0.36,-0.216 -0.576,-0.36 -0.864,-0.432 -0.864,-0.72 -0.648,-0.72 -0.72,-0.792 -0.504,-0.72 -0.36,-0.864 -0.576,-1.08 -0.216,-0.864 0,-0.288 -0.144,-0.144 0,-0.216 0.144,-0.072 4.968,-2.952 0,0 0.072,0 0,0 0,0 0,0 z"
         id="path4378"
         inkscape:connector-curvature="0" />
      <path
         style="fill:#000000;fill-opacity:1;stroke:none"
         d="m 346.14915,252.09345 8.64,4.68 0,0.072 0,0 0.072,0 0,0.144 -0.504,0.864 -0.504,0.864 -0.648,0.72 -0.576,0.72 -0.936,-0.648 -0.72,-0.576 -0.936,-0.72 -0.936,-0.648 -0.792,-0.72 -1.08,-0.36 -1.08,-0.144 -1.224,0.072 -0.432,0.072 -0.648,0.288 -0.432,0.36 -0.432,0.288 -0.432,0.216 -0.288,0.36 -0.288,0.36 -0.288,0.576 -0.216,0.936 -0.288,0.936 0.072,0.936 0.288,0.864 0.072,0.144 0,0.144 0.072,0.072 0,0.144 3.24,4.32 0.072,0.072 0,0.144 0,0.216 -0.072,0.072 -2.88,2.016 -0.072,0 0,0 0,0 -0.072,-0.144 -0.288,-0.36 -0.36,-0.36 -0.216,-0.576 -0.36,-0.432 -0.504,-0.936 -0.576,-0.864 -0.432,-0.792 -0.648,-0.864 -0.504,-0.864 -0.504,-0.792 -0.432,-0.864 -0.36,-0.864 0.36,-0.648 0.576,-0.648 0.36,-0.576 0.36,-0.576 0.504,-0.576 0.432,-0.576 0.576,-0.504 0.432,-0.648 0.36,-0.432 0.36,-0.432 0.504,-0.288 0.288,-0.36 0.36,-0.216 0.216,-0.216 0.288,-0.36 0.36,-0.144 0.288,-0.216 0.36,-0.216 0.216,-0.216 0.36,-0.36 0.432,-0.216 0.504,-0.216 0.504,-0.288 0.432,-0.216 0,0 z"
         id="path4386"
         inkscape:connector-curvature="0" />
      <path
         style="fill:#000000;fill-opacity:1;stroke:none"
         d="m 297.33315,252.23745 0.576,0.072 0.432,0.36 0.504,0.36 0.504,0.36 0.432,0.36 0.36,0.288 0.504,0.432 0.504,0.288 0.36,0.36 0.432,0.36 0.432,0.432 0.36,0.36 0.144,0.144 0.216,0.072 0.144,0.216 0.216,0.144 0.36,0.648 0.432,0.504 0.504,0.648 0.432,0.504 0.576,0.72 0.36,0.576 0.216,0.648 0.288,0.648 -0.504,1.08 -0.792,1.08 -0.576,0.936 -0.576,1.08 -0.648,1.08 -0.72,0.936 -0.504,1.152 -0.792,0.936 -0.36,-0.216 -0.36,-0.072 -0.36,-0.288 -0.432,-0.144 -0.36,-0.36 -0.36,-0.288 -0.432,-0.36 -0.36,-0.216 0,0 0,-0.144 0,0 0,0 0.432,-0.576 0.504,-0.576 0.36,-0.576 0.432,-0.576 0.432,-0.504 0.36,-0.648 0.504,-0.504 0.432,-0.648 0.36,-1.152 0,-1.224 -0.144,-1.08 -0.432,-1.08 -0.216,-0.432 -0.36,-0.36 -0.288,-0.216 -0.36,-0.288 -0.432,-0.288 -0.36,-0.36 -0.432,-0.072 -0.432,-0.144 -1.296,-0.144 -0.936,0.216 -1.152,0.504 -0.936,0.432 -0.936,0.72 -0.792,0.792 -0.792,0.72 -1.008,0.576 -0.36,-0.288 -0.288,-0.504 -0.216,-0.504 -0.432,-0.36 -0.216,-0.432 -0.144,-0.36 -0.288,-0.36 -0.072,-0.36 8.352,-5.04 0,0 z"
         id="path4388"
         inkscape:connector-curvature="0" />
      <path
         style="fill:#000000;fill-opacity:1;stroke:none"
         d="m 313.10115,253.31745 0.072,0 0,0 0,0 0.144,0 0.864,0.504 -0.432,1.296 -0.576,1.296 -0.216,1.368 0.36,1.368 0,0.144 0.072,0.144 0,0.072 0.072,0.144 0.432,0.432 0.432,0.216 0.504,0.36 0.576,0.144 0.576,0.144 0.576,0 0.576,-0.072 0.648,-0.216 0.36,-0.36 0.36,-0.216 0.288,-0.216 0.36,-0.36 0.36,-0.864 0.288,-1.08 0,-1.08 0.072,-1.008 1.08,-0.144 0.072,1.512 0,1.512 -0.072,1.584 0,1.512 -0.144,0.144 0,0 -0.072,0.072 0,0 -1.08,0.144 -1.008,0.216 -1.152,0.072 -1.008,-0.072 -1.08,-0.216 -1.08,-0.36 -1.008,-0.36 -0.864,-0.504 -0.288,-0.288 -0.36,-0.072 -0.36,-0.288 -0.288,-0.288 -0.36,-0.216 -0.144,-0.288 -0.36,-0.216 -0.216,-0.288 2.952,-5.328 0,0 0.072,0 0,0 0,0 0,0 z"
         id="path4390"
         inkscape:connector-curvature="0" />
      <path
         style="fill:#000000;fill-opacity:1;stroke:none"
         d="m 330.16515,253.38945 0,0 0.072,0 0.144,0 0,0 0.36,0.576 0.432,0.648 0.36,0.648 0.36,0.648 0.432,0.576 0.36,0.792 0.36,0.648 0.216,0.72 -0.504,0.504 -0.432,0.648 -0.72,0.432 -0.576,0.432 -0.648,0.288 -0.72,0.432 -0.792,0.216 -0.936,0.216 -0.576,0.144 -0.792,0 -0.648,0.072 -0.72,-0.072 -0.72,-0.144 -0.72,0 -0.576,-0.144 -0.72,-0.216 -0.144,-6.12 1.224,-0.072 0,0 0,0 0,0 0,0.072 0.144,1.368 0.216,1.296 0.504,1.368 1.008,1.08 0.432,0.216 0.432,0 0.432,0.144 0.504,0.072 0.504,-0.072 0.36,-0.144 0.504,0 0.432,-0.144 0.792,-0.648 0.576,-0.864 0.216,-1.008 0.144,-0.864 -0.36,-1.008 -0.36,-0.792 -0.36,-0.72 -0.36,-0.864 0.864,-0.36 0,0 z"
         id="path4392"
         inkscape:connector-curvature="0" />
      <path
         style="fill:#000000;fill-opacity:1;stroke:none"
         d="m 334.41315,262.10145 1.08,0.072 4.824,8.712 -0.432,0.216 -0.36,0.216 -0.36,0.216 -0.576,0.216 -0.432,0.288 -0.432,0.216 -0.504,0.144 -0.504,0.072 -0.36,-0.72 -0.216,-0.864 -0.432,-0.864 -0.36,-0.72 -0.216,-0.648 -0.144,-0.36 -0.288,-0.432 -0.144,-0.504 -0.36,-0.432 -0.504,-0.36 -0.504,-0.432 -0.432,-0.288 -0.432,-0.216 -0.648,-0.216 -0.504,-0.144 -0.648,0 -0.504,0 -0.504,0.216 -0.504,0.144 -0.432,0.144 -0.36,0.216 -0.504,0.432 -0.288,0.288 -0.36,0.36 -0.504,0.576 -0.288,0.792 -0.216,0.792 -0.144,0.792 0.072,0.792 0.072,0.648 0,0.648 0.144,0.648 0,0.72 0.144,0.504 0.072,0.792 0.144,0.576 -0.36,0.144 -0.504,0 -0.504,0.216 -0.432,0 -0.432,0.072 -0.576,0 -0.432,0 -0.432,0 -0.072,0 0,-0.072 -0.144,0 0,0 -0.36,-9.864 0.576,-0.432 0.648,-0.432 0.792,-0.36 0.576,-0.288 0.792,-0.288 0.72,-0.288 0.792,-0.288 0.72,-0.216 0.936,-0.288 0.792,-0.072 0.72,-0.144 0.864,-0.144 0.72,-0.144 0.864,-0.144 0.864,-0.144 0.72,-0.072 0,0 z"
         id="path4402"
         inkscape:connector-curvature="0" />
      <path
         style="fill:#000000;fill-opacity:1;stroke:none"
         d="m 308.20515,262.17345 0.72,0 0.648,0 0.72,0 0.792,0.144 0.576,0.144 0.72,0.072 0.648,0.072 0.72,0.216 0.936,0.144 0.936,0.288 1.008,0.288 0.864,0.432 0.864,0.36 0.936,0.36 0.864,0.432 0.792,0.36 -0.216,10.008 -0.36,0.216 -0.504,0.072 -0.432,0 -0.36,0 -0.576,-0.072 -0.504,-0.216 -0.504,0 -0.36,-0.072 -0.144,0 0,-0.072 -0.072,0 0,0 0.072,-1.08 0.216,-1.08 0.144,-1.224 0.144,-1.152 0,-1.152 -0.216,-1.08 -0.432,-1.08 -0.72,-0.72 -0.36,-0.36 -0.36,-0.288 -0.504,-0.288 -0.432,-0.216 -0.36,-0.072 -0.576,-0.144 -0.504,-0.144 -0.432,0 -0.648,0.144 -0.504,0.144 -0.576,0.216 -0.504,0.216 -0.432,0.432 -0.432,0.36 -0.36,0.36 -0.36,0.504 -0.576,1.224 -0.504,1.224 -0.432,1.224 -0.648,1.152 0,0 -0.072,0 0,0 -0.072,0.144 -2.952,-1.368 -0.072,-0.072 0,-0.072 0,-0.144 -0.144,0 0.36,-0.792 0.288,-0.504 0.432,-0.576 0.288,-0.648 0.288,-0.36 0.144,-0.432 0.216,-0.288 0.144,-0.36 0.36,-0.576 0.288,-0.792 0.36,-0.504 0.216,-0.648 0.36,-0.576 0.36,-0.648 0.36,-0.504 0.36,-0.576 0,0 0.072,0 0,0 0,0 0,0 z"
         id="path4404"
         inkscape:connector-curvature="0" />
      <path
         style="fill:#000000;fill-opacity:1;stroke:#6f90bc;stroke-width:0.03898968;stroke-opacity:1"
         d="m 317.92515,236.90145 0.072,0.576 0,0.432 0.072,0.648 0.216,0.576 0.216,0.36 0.216,0.216 0.36,0.432 0.36,0.288 0.216,0.288 0.36,0.144 0.432,0.216 0.504,0.144 0.36,0.072 0.504,0 0.432,0 0.432,-0.072 0.36,-0.216 0.504,-0.144 0.36,-0.216 0.216,-0.288 0.648,-0.648 0.432,-0.864 0.36,-0.936 0,-0.936 0,-0.072 0.072,-0.144 0.216,0 0,-0.072 35.568,-0.144 -0.072,-0.36 0.072,-0.576 0,-0.216 -0.216,-0.216 -9.072,0 -20.808,0.072 -6.984,0 -0.216,0.72 0.216,0.576 0,0.576 0,0.72 -0.216,0.36 -0.072,0.432 -0.144,0.36 -0.288,0.36 -0.36,0.36 -0.432,0.36 -0.648,0.072 -0.72,0 -0.504,0 -0.504,-0.216 -0.504,-0.288 -0.36,-0.36 -0.432,-0.936 -0.072,-0.936 0,-1.08 -0.216,-1.08 -36.576,0 0.216,1.512 0,0 35.424,0.144 0,0 z"
         id="path4408"
         inkscape:connector-curvature="0" />
      <path
         transform="translate(9.5089286,-1.875)"
         d="m 270.17858,260.37558 c 0,0.28354 -0.22985,0.51339 -0.51339,0.51339 -0.28354,0 -0.51339,-0.22985 -0.51339,-0.51339 0,-0.28354 0.22985,-0.51339 0.51339,-0.51339 0.28354,0 0.51339,0.22985 0.51339,0.51339 z"
         sodipodi:ry="0.51339287"
         sodipodi:rx="0.51339287"
         sodipodi:cy="260.37558"
         sodipodi:cx="269.66519"
         id="path4981"
         style="fill:#000000;fill-opacity:1;stroke:#6f90bc;stroke-width:0.18050776;stroke-opacity:1"
         sodipodi:type="arc" />
      <path
         transform="translate(96.941952,-2.7455426)"
         d="m 270.17858,260.37558 c 0,0.28354 -0.22985,0.51339 -0.51339,0.51339 -0.28354,0 -0.51339,-0.22985 -0.51339,-0.51339 0,-0.28354 0.22985,-0.51339 0.51339,-0.51339 0.28354,0 0.51339,0.22985 0.51339,0.51339 z"
         sodipodi:ry="0.51339287"
         sodipodi:rx="0.51339287"
         sodipodi:cy="260.37558"
         sodipodi:cx="269.66519"
         id="path4983"
         style="fill:#000000;fill-opacity:1;stroke:#6f90bc;stroke-width:0.18050776;stroke-opacity:1"
         sodipodi:type="arc" />
      <path
         id="path4418"
         d="m 372.35713,254.10945 0,-1.368 0.936,0.216 0,-0.072 -0.936,-0.504 0,-0.432 1.44,0.792 -0.576,2.736 -0.36,-0.072 0.288,-1.08 -0.792,-0.216 0,0 z m 0,-5.256 0,-1.296 2.232,-0.144 0,-0.072 -2.232,-0.504 0,-0.504 2.448,0.576 0.216,-1.008 0.36,0.072 -0.648,2.808 -2.376,0.072 0,0 z m 0,-7.2 0,-0.432 3.024,0.072 0,-1.08 0.36,0 -0.072,2.592 -0.36,0 0.072,-1.08 -3.024,-0.072 0,0 z m 0,-4.68 0,-1.368 3.096,0.072 0,-1.08 0.36,0 -0.072,3.456 -0.36,0 0.072,-1.008 -3.096,-0.072 0,0 z m 0,-6.12 0,-1.44 c 0.144,0 0.216,0 0.36,0 0.072,0 0.144,0 0.216,-0.072 0.504,-0.072 0.864,-0.216 1.08,-0.432 0.216,-0.216 0.36,-0.504 0.36,-0.792 0.072,-0.288 0,-0.648 -0.072,-1.08 0,-0.144 -0.072,-0.288 -0.072,-0.576 -0.072,-0.216 -0.144,-0.432 -0.144,-0.648 l -1.728,0.36 0,-1.44 1.44,-0.288 -0.216,-1.008 0.36,-0.072 0.72,3.888 c 0.144,0.576 0.144,1.08 0.144,1.584 -0.072,0.504 -0.144,0.936 -0.432,1.368 -0.216,0.36 -0.576,0.576 -1.08,0.648 -0.072,0.072 -0.216,0.072 -0.288,0.072 -0.216,0 -0.432,0 -0.648,-0.072 z m 0,-6.12 0,1.44 -2.016,0.36 c 0.072,0.216 0.072,0.432 0.072,0.504 0.072,0.144 0.072,0.288 0.144,0.432 0.072,0.504 0.144,0.864 0.288,1.152 0.144,0.288 0.36,0.504 0.648,0.648 0.288,0.144 0.576,0.216 0.864,0.144 l 0,1.44 c -0.144,0 -0.36,-0.072 -0.504,-0.216 -0.36,-0.216 -0.648,-0.576 -0.792,-0.936 -0.216,-0.36 -0.432,-0.792 -0.504,-1.224 l -0.144,0 c 0,0.792 -0.144,1.368 -0.36,1.872 -0.288,0.432 -0.576,0.648 -0.864,0.792 -0.36,0.144 -0.86398,0.288 -1.65598,0.504 -0.864,0.216 -1.224,0.576 -1.152,1.08 0.072,0.216 0.144,0.432 0.36,0.648 l -0.36,0.072 c -0.288,-0.36 -0.504,-0.792 -0.576,-1.152 -0.072,-0.504 0,-0.936 0.288,-1.368 0.36,-0.36 0.792,-0.648 1.44,-0.864 0.072,0 0.288,-0.072 0.648,-0.144 0.288,-0.072 0.57598,-0.144 0.79198,-0.216 0.216,-0.072 0.432,-0.216 0.648,-0.36 0.144,-0.072 0.288,-0.288 0.432,-0.504 0.072,-0.288 0.144,-0.504 0.144,-0.792 0,-0.288 -0.072,-0.648 -0.144,-1.008 l -0.072,-0.432 -4.46398,0.864 0.216,1.08 -0.288,0.072 0,-2.52 6.91198,-1.368 0,0 z m 0,10.872 0,1.368 -3.528,-0.072 c -0.43198,0 -0.86398,0.072 -1.15198,0.216 -0.36,0.144 -0.648,0.36 -0.864,0.648 -0.144,0.216 -0.288,0.576 -0.288,1.008 0,0.864 0.288,1.44 0.792,1.8 0.504,0.36 1.152,0.576 1.94398,0.576 l 3.096,0.072 0,0.432 -3.168,-0.072 c -0.64798,0 -1.22398,-0.144 -1.72798,-0.36 -0.432,-0.216 -0.792,-0.576 -1.008,-1.08 -0.288,-0.432 -0.36,-1.08 -0.36,-1.728 0,-0.504 0.144,-1.008 0.36,-1.44 0.216,-0.504 0.504,-0.792 0.864,-1.08 0.432,-0.216 0.864,-0.36 1.43998,-0.36 l 3.6,0.072 0,0 z m 0,10.728 0,0.504 -6.11998,-1.44 -0.216,1.008 -0.36,-0.072 0.576,-2.448 0.36,0.072 -0.288,1.008 6.04798,1.368 0,0 z m 0,1.224 0,1.296 -4.82398,0.288 4.82398,2.808 0,0.432 -6.91198,-4.032 0,-0.432 6.91198,-0.36 0,0 z m 0,5.184 -6.91198,-1.584 0,1.368 6.91198,1.584 0,-1.368 0,0 z m -6.91198,-30.312 0,-1.08 c 0.504,-0.072 1.152,-0.216 1.8,-0.504 0.288,-0.144 0.576,-0.288 0.72,-0.36 1.00798,-0.432 1.87198,-0.936 2.44798,-1.368 0.36,-0.36 0.648,-0.72 0.792,-1.08 0.144,-0.432 0.216,-0.864 0.072,-1.296 -0.072,-0.144 -0.072,-0.288 -0.144,-0.432 -0.144,-0.288 -0.36,-0.576 -0.648,-0.792 -0.216,-0.216 -0.576,-0.36 -0.864,-0.432 -0.504,-0.144 -1.008,-0.072 -1.65598,0.144 -0.576,0.144 -1.224,0.432 -2.016,0.792 -0.144,0 -0.288,0.072 -0.504,0.216 l 0,0 0,-1.728 c 0.648,-0.36 1.44,-0.504 2.16,-0.504 0.792,0 1.58398,0.144 2.30398,0.504 0.648,0.36 1.152,0.864 1.512,1.584 0.072,0.216 0.144,0.36 0.144,0.576 0.216,0.504 0.216,1.08 0.144,1.584 -0.072,0.576 -0.288,1.08 -0.576,1.512 -0.288,0.504 -0.648,0.936 -1.08,1.296 -0.432,0.36 -0.864,0.648 -1.368,0.864 -0.57598,0.288 -1.15198,0.432 -1.72798,0.504 -0.504,0.072 -1.008,0.072 -1.512,0 l 0,0 z m 0,-11.52 0,-1.728 1.08,-0.72 -0.648,-1.008 0.288,-0.144 2.088,3.24 -0.288,0.144 -0.648,-1.008 -1.872,1.224 z m 0,-1.728 0,1.728 -4.968,3.168 0,-1.656 4.968,-3.24 0,0 z m 0,5.328 0,1.728 c -0.432,0.216 -0.792,0.432 -1.224,0.648 -0.36,0.216 -0.72,0.504 -1.008,0.864 -0.288,0.288 -0.504,0.648 -0.576,1.008 -0.072,0.432 -0.072,0.792 0.144,1.224 0.432,0.936 1.008,1.368 1.8,1.44 0.288,0 0.576,0 0.864,-0.072 l 0,1.08 c -0.072,0 -0.216,0 -0.288,0 -0.576,-0.144 -1.08,-0.36 -1.512,-0.72 -0.504,-0.36 -0.864,-0.792 -1.152,-1.368 -0.36,-0.792 -0.432,-1.512 -0.288,-2.304 0.216,-0.72 0.504,-1.44 1.08,-2.016 0.576,-0.648 1.224,-1.08 1.944,-1.44 0.072,-0.072 0.144,-0.072 0.216,-0.072 l 0,0 z m 0,11.592 0,2.52 -0.072,0 -0.72,-3.528 0.36,-0.072 0.216,1.08 0.216,0 0,0 z m 0,21.816 0,0.432 -0.216,-0.072 0.072,-0.36 0.144,0 0,0 z m 0,3.24 0,1.368 -0.792,-0.144 -0.288,1.08 -0.36,-0.072 0.792,-3.456 0.36,0.072 -0.216,1.008 0.504,0.144 0,0 z m -4.968,-35.568 0,-0.432 0.216,0.288 -0.216,0.144 0,0 z m 0,-6.984 0,-2.088 c 0.504,-0.504 0.864,-0.936 1.152,-1.296 0.288,-0.432 0.432,-0.936 0.432,-1.368 0,-0.432 -0.144,-0.864 -0.36,-1.224 -0.288,-0.432 -0.576,-0.792 -1.008,-1.224 l -0.216,-0.216 0,-0.504 0.792,0.792 c 0.504,0.504 0.864,1.08 1.08,1.656 0.288,0.504 0.36,1.08 0.36,1.656 0,0.576 -0.144,1.152 -0.432,1.656 -0.216,0.576 -0.648,1.08 -1.152,1.584 -0.216,0.216 -0.432,0.36 -0.648,0.576 z m 0,-7.92 0,0.504 -0.144,-0.216 -5.976,5.76 0,-2.016 4.896,-4.824 -0.72,-0.72 0.288,-0.216 1.656,1.728 0,0 z m 0,5.832 -0.072,0.072 -0.432,0.36 -0.432,0.504 c -0.36,0.288 -0.72,0.576 -1.008,0.792 -0.288,0.216 -0.576,0.432 -0.936,0.504 -0.36,0.144 -0.72,0.144 -1.08,0.072 -0.288,0 -0.504,-0.072 -0.72,-0.216 -0.216,-0.144 -0.432,-0.288 -0.576,-0.432 -0.216,-0.144 -0.432,-0.36 -0.648,-0.576 -0.072,-0.072 -0.144,-0.144 -0.216,-0.216 l 0,0.504 0.144,0.216 c 0.72,0.648 1.368,1.152 2.016,1.296 0.792,0.288 1.584,0.216 2.448,0 0.576,-0.216 1.08,-0.504 1.512,-0.792 l 0,-2.088 0,0 z m 0,5.904 0,1.656 -0.504,0.36 0.504,0.72 0,0.432 -0.144,0.072 -2.088,-3.24 0.288,-0.216 0.648,1.008 1.296,-0.792 0,0 z m -6.12,-14.04 0,-0.72 0.936,-1.296 -0.936,-0.648 0.216,-0.288 2.088,1.512 -0.216,0.288 -0.864,-0.648 -1.224,1.8 z m 0,-0.72 0,0.72 -2.304,3.24 c -0.36,0.576 -0.792,0.936 -1.224,1.224 -0.504,0.288 -1.008,0.36 -1.512,0.288 -0.504,-0.072 -1.08,-0.36 -1.656,-0.72 -0.288,-0.216 -0.576,-0.504 -0.792,-0.792 l 0,-3.24 3.744,-5.328 -0.936,-0.576 0.216,-0.288 2.952,2.016 -0.216,0.288 -0.936,-0.648 -3.744,5.472 c -0.288,0.36 -0.432,0.72 -0.504,1.08 -0.072,0.36 -0.072,0.648 0.072,1.008 0.144,0.288 0.432,0.576 0.792,0.864 0.648,0.432 1.296,0.576 1.872,0.36 0.576,-0.216 1.152,-0.648 1.584,-1.296 l 2.592,-3.672 0,0 z m 0,7.056 0,2.016 -0.36,0.288 c 0.144,0.144 0.288,0.216 0.36,0.288 l 0,0.072 0,0.504 -2.304,-2.376 0.216,-0.288 0.72,0.792 1.368,-1.296 0,0 z m -7.488,-12.312 0.576,-1.512 -0.576,-0.288 0,1.8 z m 0,-1.8 0,1.8 -0.432,1.008 -0.288,-0.144 c 0.216,-0.72 0.288,-1.296 0.144,-1.872 -0.072,-0.36 -0.216,-0.576 -0.504,-0.792 -0.216,-0.144 -0.576,-0.36 -0.936,-0.504 l -0.216,-0.072 -3.528,7.92 1.08,0.504 -0.144,0.288 -3.456,-1.512 0.144,-0.36 1.08,0.504 3.528,-7.92 -0.288,-0.144 c -0.36,-0.216 -0.72,-0.288 -1.008,-0.36 -0.288,0 -0.504,0 -0.792,0.144 -0.288,0.216 -0.432,0.36 -0.648,0.576 -0.144,0.144 -0.432,0.432 -0.72,0.864 l -0.288,-0.144 1.224,-2.448 6.048,2.664 0,0 z m 0,7.776 -0.072,0.216 c -0.36,0.432 -0.504,0.864 -0.504,1.368 -0.072,0.432 0.072,0.864 0.288,1.296 0.072,0.144 0.216,0.288 0.288,0.36 l 0,-3.24 0,0 z m -35.424,-6.048 0,-0.432 1.224,-0.216 -1.224,-2.088 0,-2.592 4.464,7.416 0.936,-0.216 0.072,0.36 -3.456,0.792 -0.072,-0.36 1.08,-0.216 -1.584,-2.736 -1.44,0.288 0,0 z m 6.552,2.16 -0.288,0.072 -0.144,-2.52 0.288,0 c 0.072,0.288 0.216,0.576 0.36,0.72 0.144,0.216 0.288,0.432 0.504,0.576 0.144,0.216 0.36,0.36 0.648,0.504 0.36,0.216 0.792,0.288 1.296,0.288 0.36,0 0.648,-0.144 0.936,-0.288 0.36,-0.144 0.576,-0.288 0.792,-0.576 0.216,-0.216 0.288,-0.432 0.432,-0.72 0,-0.216 0.072,-0.504 0.072,-0.792 -0.072,-0.144 -0.072,-0.36 -0.072,-0.504 -0.144,-0.216 -0.288,-0.432 -0.504,-0.576 -0.288,-0.144 -0.504,-0.216 -0.72,-0.288 -0.288,-0.072 -0.576,-0.144 -1.008,-0.216 -0.432,-0.144 -0.648,-0.144 -0.792,-0.216 -0.432,-0.072 -0.792,-0.216 -1.152,-0.432 -0.36,-0.144 -0.648,-0.36 -0.864,-0.648 -0.288,-0.288 -0.432,-0.648 -0.504,-1.08 0,-0.144 0,-0.216 -0.072,-0.288 0,-0.504 0.072,-0.936 0.288,-1.368 0.216,-0.432 0.504,-0.792 0.936,-1.008 0.36,-0.288 0.864,-0.432 1.368,-0.432 0.576,-0.072 1.08,0 1.584,0.288 0.216,0.072 0.36,0.144 0.36,0.144 0,0 0.072,0 0.072,-0.072 0,0 0.072,-0.072 0.072,-0.072 0.072,-0.072 0.144,-0.144 0.216,-0.216 l 0.288,-0.072 0.144,2.16 -0.216,0 c -0.216,-0.432 -0.432,-0.792 -0.72,-1.08 -0.216,-0.288 -0.576,-0.504 -0.936,-0.648 -0.288,-0.072 -0.648,-0.144 -0.936,-0.072 -0.576,0 -1.08,0.216 -1.44,0.648 -0.288,0.288 -0.432,0.72 -0.432,1.152 0,0.216 0.072,0.36 0.144,0.576 0.144,0.144 0.36,0.288 0.576,0.432 0.216,0.144 0.432,0.216 0.72,0.288 0.216,0.072 0.504,0.144 0.792,0.216 0.36,0.072 0.576,0.072 0.792,0.144 0.792,0.144 1.368,0.36 1.8,0.792 0.432,0.36 0.72,0.864 0.792,1.584 0,0.072 0,0.072 0,0.144 0,0 0,0 0,0.072 0,0.36 0,0.792 -0.144,1.152 -0.072,0.432 -0.288,0.792 -0.504,1.08 -0.144,0.36 -0.504,0.576 -0.864,0.792 -0.36,0.216 -0.864,0.288 -1.368,0.36 -0.288,0 -0.648,0 -1.008,-0.072 -0.288,-0.072 -0.576,-0.144 -0.864,-0.288 -0.144,-0.072 -0.216,-0.144 -0.288,-0.144 -0.072,0 -0.072,0.072 -0.144,0.072 0,0.072 -0.072,0.072 -0.144,0.216 -0.072,0.072 -0.144,0.144 -0.144,0.216 l 0,0 z m 12.672,0.576 -0.288,-0.072 0.576,-2.376 0.288,0 c 0,0.36 0.072,0.648 0.144,0.864 0.072,0.216 0.144,0.432 0.288,0.648 0.144,0.288 0.288,0.504 0.504,0.72 0.288,0.288 0.648,0.504 1.152,0.576 0.288,0.072 0.648,0.144 1.008,0.072 0.288,-0.072 0.648,-0.144 0.864,-0.36 0.288,-0.144 0.432,-0.288 0.648,-0.504 0.144,-0.288 0.288,-0.504 0.36,-0.792 0,-0.144 0,-0.36 0,-0.504 -0.072,-0.288 -0.144,-0.504 -0.36,-0.648 -0.144,-0.216 -0.36,-0.432 -0.576,-0.576 -0.216,-0.072 -0.504,-0.288 -0.864,-0.504 -0.36,-0.216 -0.576,-0.288 -0.72,-0.36 -0.36,-0.216 -0.648,-0.504 -0.936,-0.72 -0.288,-0.288 -0.504,-0.648 -0.648,-0.936 -0.144,-0.36 -0.216,-0.792 -0.144,-1.152 0,-0.144 0,-0.288 0,-0.288 0.144,-0.504 0.36,-0.936 0.648,-1.224 0.36,-0.36 0.72,-0.648 1.224,-0.72 0.432,-0.144 0.936,-0.144 1.44,-0.072 0.504,0.144 1.008,0.432 1.44,0.72 0.144,0.216 0.216,0.288 0.288,0.288 0,0 0.072,0 0.072,0 0,0 0.072,-0.072 0.144,-0.072 0.072,-0.072 0.144,-0.144 0.216,-0.144 l 0.288,0 -0.504,2.088 -0.216,0 c -0.072,-0.504 -0.144,-0.936 -0.36,-1.296 -0.144,-0.36 -0.36,-0.648 -0.72,-0.864 -0.216,-0.216 -0.504,-0.288 -0.864,-0.36 -0.504,-0.144 -1.008,-0.072 -1.512,0.216 -0.432,0.216 -0.648,0.576 -0.792,1.008 0,0.144 0,0.36 0,0.576 0.072,0.144 0.216,0.36 0.36,0.576 0.216,0.144 0.432,0.36 0.648,0.432 0.216,0.144 0.432,0.288 0.72,0.432 0.288,0.216 0.504,0.288 0.648,0.432 0.72,0.36 1.224,0.792 1.584,1.224 0.288,0.504 0.432,1.152 0.288,1.872 0,0 0,0 0,0.072 0,0 0,0 0,0.072 -0.144,0.36 -0.288,0.72 -0.504,1.08 -0.216,0.36 -0.504,0.648 -0.792,0.864 -0.36,0.288 -0.72,0.432 -1.152,0.504 -0.432,0.072 -0.864,0 -1.368,-0.072 -0.36,-0.072 -0.648,-0.216 -0.936,-0.36 -0.288,-0.144 -0.576,-0.36 -0.792,-0.576 -0.072,-0.072 -0.144,-0.144 -0.216,-0.144 -0.072,0 -0.072,0 -0.144,0 -0.072,0 -0.072,0.072 -0.216,0.144 -0.072,0.072 -0.144,0.144 -0.216,0.216 z m -19.224,-8.064 0,2.592 -0.792,-1.368 -0.36,3.96 1.152,-0.288 0,0.432 -1.224,0.288 -0.288,3.168 1.152,-0.216 0.072,0.36 -2.664,0.576 -0.072,-0.36 1.08,-0.216 1.008,-9.792 0.36,-0.072 0.576,0.936 0,0 z m -11.664,13.896 0,-1.296 0.36,0.648 1.08,-0.648 0.144,0.288 -1.584,1.008 0,0 z m 0,-10.296 0,-0.432 5.04,-2.304 1.152,2.448 -0.288,0.144 c -0.36,-0.648 -0.792,-1.08 -1.296,-1.368 -0.288,-0.144 -0.576,-0.216 -0.864,-0.144 -0.288,0.072 -0.648,0.216 -1.08,0.36 l -0.144,0.072 3.528,7.992 1.008,-0.504 0.144,0.36 -3.384,1.512 -0.144,-0.36 1.08,-0.432 -3.6,-7.992 -0.288,0.144 c -0.36,0.144 -0.648,0.36 -0.864,0.504 z m 0,-0.432 0,0.432 0,0 c -0.216,0.216 -0.36,0.432 -0.432,0.72 -0.072,0.288 -0.072,0.576 -0.072,0.864 0.072,0.216 0.072,0.576 0.216,1.08 l -0.288,0.144 -1.008,-2.592 1.584,-0.648 0,0 z m 0,9.432 -4.248,-6.768 1.008,-0.648 -0.144,-0.288 -1.728,1.08 0,1.224 4.248,6.768 -1.008,0.648 0.216,0.288 1.656,-1.008 0,-1.296 0,0 z m -5.112,5.328 0,-0.432 c 0.072,-0.072 0.144,-0.144 0.216,-0.144 0.216,-0.216 0.432,-0.504 0.648,-0.792 0.144,-0.288 0.216,-0.576 0.288,-0.936 0,-0.288 0,-0.504 -0.072,-0.792 -0.144,-0.288 -0.216,-0.504 -0.432,-0.72 -0.072,-0.144 -0.216,-0.288 -0.432,-0.36 -0.072,-0.072 -0.144,-0.072 -0.216,-0.072 l 0,-1.152 c 0.216,0.144 0.432,0.288 0.648,0.504 0,0.072 0.072,0.072 0.072,0.072 0,0 0,0.072 0.072,0.072 0.216,0.288 0.432,0.648 0.576,1.08 0.144,0.36 0.216,0.792 0.216,1.152 0,0.432 -0.144,0.792 -0.288,1.152 -0.216,0.432 -0.504,0.792 -0.936,1.08 -0.072,0.072 -0.216,0.216 -0.36,0.288 z m 0,-11.952 0,1.224 -0.36,-0.576 -1.008,0.576 -0.216,-0.288 1.584,-0.936 0,0 z m 0,6.552 0,1.152 c -0.144,-0.072 -0.288,-0.072 -0.504,-0.072 -0.288,0 -0.504,0.072 -0.72,0.144 -0.288,0.072 -0.576,0.216 -0.936,0.432 -0.432,0.144 -0.648,0.288 -0.72,0.288 -0.432,0.144 -0.864,0.288 -1.224,0.36 -0.288,0.072 -0.504,0.072 -0.792,0 l 0,-1.368 c 0.144,0 0.288,-0.072 0.432,-0.144 0.288,-0.072 0.504,-0.216 0.864,-0.36 0.288,-0.144 0.504,-0.216 0.648,-0.288 0.72,-0.36 1.368,-0.504 1.944,-0.432 0.36,0 0.72,0.072 1.008,0.288 l 0,0 z m 0,4.968 0,0.432 c -0.144,0.072 -0.288,0.216 -0.432,0.288 -0.36,0.144 -0.648,0.216 -0.936,0.216 -0.144,0.072 -0.216,0.072 -0.288,0.144 -0.072,0 -0.072,0.072 -0.072,0.072 0,0.072 0,0.144 0,0.288 0,0.072 0,0.216 0,0.288 l -0.216,0.144 -1.584,-1.872 0.216,-0.144 c 0.288,0.144 0.504,0.288 0.792,0.36 0.216,0.072 0.432,0.144 0.72,0.144 0.216,0.072 0.504,0.072 0.792,0 0.36,0 0.72,-0.144 1.008,-0.36 l 0,0 z m -4.896,4.104 0,-1.584 0.072,0.072 c 0.72,0.504 1.224,0.576 1.584,0.144 0.072,-0.144 0.216,-0.36 0.288,-0.648 l 0.288,0.216 c -0.144,0.432 -0.36,0.864 -0.576,1.152 -0.288,0.432 -0.72,0.576 -1.224,0.648 -0.144,0 -0.288,0 -0.432,0 l 0,0 z m 0,-11.592 0,-0.432 c 0.072,0 0.216,-0.072 0.288,-0.072 0.216,-0.072 0.36,-0.072 0.36,-0.072 0.072,-0.072 0.072,-0.072 0.072,-0.072 0,-0.072 0,-0.072 0,-0.216 0,-0.072 0,-0.144 0,-0.216 l 0.288,-0.216 1.368,1.656 -0.216,0.144 c -0.432,-0.216 -0.864,-0.432 -1.224,-0.504 -0.288,-0.072 -0.576,-0.072 -0.936,0 z m 0,-0.432 0,0.432 c -0.072,0 -0.144,0.072 -0.144,0.072 -0.36,0.072 -0.648,0.216 -0.864,0.432 -0.432,0.36 -0.72,0.864 -0.792,1.368 0,0.504 0.072,0.864 0.36,1.224 0.144,0.144 0.288,0.288 0.504,0.36 0.144,0.072 0.432,0.072 0.648,0.072 0.144,0 0.216,-0.072 0.288,-0.072 l 0,1.368 c -0.072,0 -0.216,0 -0.36,-0.072 -0.36,-0.072 -0.72,-0.288 -1.008,-0.576 -0.072,-0.072 -0.144,-0.144 -0.216,-0.216 -0.288,-0.36 -0.504,-0.792 -0.576,-1.224 -0.072,-0.504 0,-0.936 0.144,-1.368 0.216,-0.432 0.432,-0.864 0.864,-1.152 0.36,-0.288 0.72,-0.504 1.152,-0.648 l 0,0 z m 0,10.44 0,1.584 c -0.36,-0.072 -0.72,-0.288 -1.152,-0.504 -0.072,-0.072 -0.216,-0.216 -0.504,-0.432 -0.288,-0.144 -0.504,-0.36 -0.72,-0.432 -0.216,-0.144 -0.432,-0.216 -0.648,-0.288 -0.216,0 -0.432,0 -0.72,0.072 -0.216,0.072 -0.504,0.144 -0.648,0.36 -0.216,0.144 -0.432,0.36 -0.72,0.72 l -0.288,0.288 3.6,2.88 0.648,-0.792 0.288,0.216 -2.232,2.808 -0.288,-0.216 0.648,-0.936 -4.392,-3.528 0,-1.8 1.44,1.152 c 0.144,-0.144 0.288,-0.288 0.36,-0.36 0.072,-0.144 0.216,-0.216 0.288,-0.36 0.288,-0.36 0.504,-0.72 0.648,-1.008 0.144,-0.288 0.144,-0.576 0.072,-0.936 -0.072,-0.288 -0.288,-0.648 -0.648,-0.936 -0.072,-0.072 -0.144,-0.144 -0.216,-0.144 -0.36,-0.36 -0.72,-0.504 -1.008,-0.576 -0.36,0 -0.648,0.072 -0.864,0.216 0,0 -0.072,0.072 -0.072,0.072 l 0,-0.504 c 0.144,-0.144 0.216,-0.216 0.36,-0.36 0.432,-0.288 0.864,-0.432 1.296,-0.504 0.432,-0.072 0.864,0.072 1.224,0.36 0.072,0.072 0.144,0.144 0.216,0.216 0.36,0.36 0.504,0.72 0.576,1.08 0,0.432 -0.072,0.792 -0.216,1.224 -0.144,0.36 -0.36,0.792 -0.648,1.152 l 0.144,0.072 c 0.504,-0.504 1.08,-0.792 1.584,-0.864 0.576,-0.072 0.936,0 1.224,0.144 0.288,0.144 0.72,0.432 1.368,0.864 l 0,0 z m -7.128,13.896 3.24,-6.12 -2.304,-1.44 -0.144,0.288 c 0.432,0.432 0.792,0.72 1.008,1.08 0.144,0.288 0.288,0.648 0.288,1.008 -0.072,0.36 -0.144,0.792 -0.432,1.224 l -0.936,1.8 -0.72,-0.432 0,1.656 0,0.072 0,0.072 0,0.792 z m -3.456,31.536 -1.44,0.36 0,-1.368 1.008,-0.288 c 0.432,-0.144 0.792,-0.288 1.08,-0.504 0.288,-0.216 0.504,-0.504 0.576,-0.864 0.144,-0.288 0.144,-0.72 0,-1.152 -0.216,-0.72 -0.648,-1.224 -1.224,-1.512 -0.432,-0.144 -0.864,-0.216 -1.44,-0.144 l 0,-0.432 c 0.432,0 0.792,0 1.08,0.072 0.576,0.072 1.008,0.288 1.368,0.72 0.288,0.36 0.576,0.936 0.792,1.584 0.144,0.576 0.144,1.08 0.072,1.584 -0.072,0.432 -0.288,0.864 -0.576,1.224 -0.288,0.36 -0.72,0.576 -1.296,0.72 l 0,0 z m 3.456,-48.816 0,0.504 c -0.216,0.144 -0.432,0.36 -0.72,0.72 -0.072,0.072 -0.216,0.216 -0.36,0.432 -0.144,0.144 -0.288,0.36 -0.36,0.504 l 1.44,1.224 0,1.8 -2.376,-1.944 -0.648,0.864 -0.288,-0.216 2.52,-3.096 c 0.288,-0.288 0.504,-0.576 0.792,-0.792 l 0,0 z m 0,14.688 0,1.656 -4.896,-2.592 0,-1.656 1.44,0.792 0.144,-0.216 c 0.144,-0.288 0.288,-0.648 0.36,-0.864 0,-0.288 0,-0.504 -0.144,-0.72 -0.144,-0.216 -0.36,-0.432 -0.72,-0.648 l 0.144,-0.288 3.168,1.656 -0.144,0.288 c -0.504,-0.216 -0.864,-0.288 -1.08,-0.288 -0.288,0 -0.504,0.144 -0.72,0.36 -0.216,0.144 -0.432,0.504 -0.648,0.936 l 3.096,1.584 0,0 z m 0,1.8 0,0.792 -0.144,0.216 -0.288,-0.216 0.432,-0.792 0,0 z m -4.896,22.536 0,-0.432 1.296,0 0,-1.08 0.36,0 0,2.52 -0.36,0.072 0,-1.08 -1.296,0 0,0 z m 0,-4.752 0,-1.368 1.8,0 0,0.36 -1.8,1.008 0,0 z m 0,-4.896 0,-1.44 1.728,0.216 0.144,-1.224 0.432,0.072 -0.576,3.816 -0.36,-0.072 0.144,-1.152 -1.512,-0.216 0,0 z m 0,-6.84 0,-1.368 1.44,-0.072 -1.44,-1.008 0,-0.432 3.6,2.448 -0.144,0.288 -3.456,0.144 0,0 z m 0,-14.472 0,-1.008 1.728,0.936 -0.144,0.216 c -0.648,-0.216 -1.152,-0.288 -1.584,-0.144 z m 0,41.112 -5.04,1.368 0.288,1.08 -0.288,0.072 -0.936,-3.456 0.36,-0.072 0.288,1.08 5.328,-1.44 0,1.368 0,0 z m 0,-5.832 c -0.216,0.072 -0.36,0.072 -0.576,0.144 l -5.904,1.584 0.288,1.08 -0.36,0.072 -0.648,-2.52 0.36,-0.072 0.288,1.008 5.904,-1.584 c 0.216,-0.072 0.432,-0.072 0.648,-0.144 l 0,0.432 0,0 z m 0,-36.288 0,1.008 c 0,0.072 -0.072,0.072 -0.072,0.072 -0.432,0.216 -0.792,0.648 -1.152,1.296 l -0.864,1.584 2.088,1.08 0,1.656 -2.736,-1.44 -0.504,0.936 -0.288,-0.216 3.24,-6.12 0.288,0.144 0,0 z m 0,12.6 0,0.432 -4.608,-3.168 -0.36,1.224 -0.36,-0.072 0.792,-2.592 0.288,0.072 -0.288,1.008 4.536,3.096 0,0 z m 0,1.512 0,1.368 -6.336,0.288 -0.288,1.008 -0.288,-0.072 1.008,-3.528 0.288,0.144 -0.288,1.08 5.904,-0.288 0,0 z m 0,6.768 0,1.44 -7.056,-1.008 -0.216,1.152 -0.288,0 0.504,-3.816 0.36,0 -0.216,1.224 6.912,1.008 0,0 z m 0,4.968 0,1.368 -7.2,4.464 7.2,-0.144 0,0.432 -7.416,0.144 0,1.008 -0.288,0 -0.072,-2.736 6.624,-4.032 -6.336,0.072 0,1.008 -0.36,0 0,-2.52 0.288,0 0.072,1.08 7.488,-0.144 z"
         style="fill:#000000;fill-opacity:1;stroke:none"
         inkscape:connector-curvature="0" />
      <path
         id="path4420"
         d="m 358.31715,277.36545 0,-0.504 c 0.072,-0.072 0.072,-0.144 0.144,-0.216 0.144,-0.288 0.216,-0.648 0.288,-0.936 0,-0.288 0,-0.504 -0.072,-0.792 -0.072,-0.288 -0.216,-0.504 -0.36,-0.648 l 0,-1.08 0.072,0.072 c 0.216,0.288 0.432,0.648 0.576,1.008 0.144,0.432 0.216,0.792 0.216,1.224 0,0.432 -0.072,0.792 -0.288,1.152 -0.144,0.288 -0.36,0.504 -0.576,0.72 l 0,0 z m 0,-6.336 3.024,2.736 -0.792,0.936 0.288,0.216 2.592,-2.88 -0.288,-0.216 -0.792,0.864 -4.032,-3.528 0,1.872 0,0 z m 0,-4.32 0,-0.864 c 0.072,0.072 0.072,0.072 0.144,0.144 0.144,0.072 0.288,0.144 0.504,0.216 0.216,0 0.432,0 0.648,-0.072 0.288,-0.072 0.504,-0.216 0.72,-0.36 0.216,-0.144 0.432,-0.288 0.72,-0.504 0.288,-0.216 0.432,-0.36 0.576,-0.432 0.648,-0.504 1.296,-0.792 1.872,-0.864 0.576,-0.072 1.152,0.072 1.728,0.504 0.072,0 0.072,0 0.072,0.072 0,0 0.072,0 0.072,0 0.36,0.288 0.576,0.576 0.792,0.936 0.216,0.36 0.432,0.72 0.504,1.08 0.072,0.432 0,0.792 -0.072,1.224 -0.144,0.432 -0.36,0.864 -0.648,1.224 -0.216,0.288 -0.432,0.504 -0.72,0.72 -0.288,0.216 -0.576,0.36 -0.864,0.432 -0.072,0.072 -0.216,0.072 -0.216,0.144 -0.072,0.072 -0.072,0.072 -0.072,0.144 0,0.072 0,0.144 0.072,0.216 0,0.144 0,0.216 0.072,0.36 l -0.144,0.216 -2.016,-1.584 0.216,-0.216 c 0.288,0.144 0.576,0.216 0.792,0.216 0.216,0.072 0.504,0.072 0.792,0.072 0.216,-0.072 0.504,-0.072 0.792,-0.216 0.36,-0.144 0.72,-0.36 1.08,-0.792 0.144,-0.216 0.36,-0.504 0.432,-0.864 0.072,-0.288 0.144,-0.648 0.072,-1.008 0,-0.216 -0.072,-0.504 -0.216,-0.72 -0.144,-0.288 -0.36,-0.504 -0.504,-0.648 -0.216,-0.144 -0.36,-0.216 -0.504,-0.288 -0.288,0 -0.504,0 -0.792,0.072 -0.216,0.072 -0.504,0.144 -0.648,0.288 -0.216,0.144 -0.504,0.36 -0.864,0.576 -0.36,0.288 -0.576,0.432 -0.648,0.504 -0.36,0.216 -0.72,0.432 -1.08,0.576 -0.36,0.144 -0.792,0.216 -1.152,0.144 -0.36,0 -0.72,-0.072 -1.08,-0.36 -0.144,-0.072 -0.216,-0.072 -0.288,-0.144 0,0 -0.072,-0.072 -0.144,-0.144 l 0,0 z m 0,-3.384 0,-0.504 c 0.288,-0.36 0.648,-0.576 1.08,-0.72 0.216,-0.072 0.288,-0.144 0.36,-0.216 0,0 0,0 0,-0.072 0,0 0,-0.072 0,-0.144 -0.072,-0.072 -0.072,-0.144 -0.072,-0.288 l 0.216,-0.216 1.656,1.296 -0.144,0.216 c -0.504,-0.144 -0.936,-0.216 -1.296,-0.216 -0.36,0 -0.72,0.072 -1.08,0.288 -0.288,0.144 -0.504,0.36 -0.72,0.576 z m 0,-0.504 0,0.504 0,0 c -0.36,0.504 -0.504,1.008 -0.432,1.512 0,0.432 0.144,0.792 0.432,1.008 l 0,0.864 c -0.288,-0.288 -0.504,-0.576 -0.648,-0.936 -0.216,-0.432 -0.216,-0.936 -0.144,-1.368 0.072,-0.504 0.288,-0.936 0.576,-1.296 0.072,-0.144 0.144,-0.216 0.216,-0.288 l 0,0 z m 0,6.336 -2.448,-2.304 0.792,-0.864 -0.216,-0.288 -2.376,2.664 0,0.432 0,0.072 0.792,-0.936 3.456,3.096 0,-1.872 0,0 z m 0,4.032 0,1.08 -0.072,-0.072 c -0.072,-0.144 -0.216,-0.288 -0.432,-0.36 -0.144,-0.144 -0.432,-0.144 -0.72,-0.144 -0.216,0 -0.504,0.072 -0.72,0.144 -0.216,0.072 -0.576,0.216 -0.936,0.36 -0.36,0.216 -0.648,0.288 -0.72,0.36 -0.216,0.072 -0.432,0.144 -0.648,0.216 l 0,-1.728 c 0.216,-0.144 0.432,-0.216 0.576,-0.288 0.72,-0.36 1.368,-0.504 2.016,-0.504 0.576,0.072 1.08,0.36 1.584,0.864 0,0.072 0.072,0.072 0.072,0.072 l 0,0 0,0 z m 0,3.672 0,0.504 c -0.072,0.144 -0.216,0.288 -0.36,0.36 -0.216,0.216 -0.504,0.36 -0.792,0.504 -0.36,0.144 -0.648,0.288 -0.936,0.288 -0.144,0 -0.216,0.072 -0.288,0.072 0,0.072 -0.072,0.072 -0.072,0.144 0,0.072 0,0.144 0,0.288 0,0.072 0,0.216 0,0.288 l -0.216,0.144 -1.584,-1.872 0.216,-0.144 c 0.288,0.144 0.576,0.216 0.792,0.36 0.216,0.072 0.432,0.144 0.72,0.144 0.288,0.072 0.504,0.072 0.792,0 0.432,-0.072 0.864,-0.216 1.224,-0.504 0.216,-0.216 0.36,-0.36 0.504,-0.576 l 0,0 z m -4.248,4.464 0,-0.504 0.216,0.36 -0.216,0.144 0,0 z m 0,-11.088 0,-1.008 1.008,1.152 -0.216,0.216 c -0.288,-0.144 -0.576,-0.288 -0.792,-0.36 z m 0,-1.872 0,0.432 -0.216,-0.216 0.216,-0.216 0,0 z m 0,0.864 -0.36,-0.432 -0.216,0.216 c -0.072,0.072 -0.072,0.144 -0.072,0.216 0,0.072 0,0.144 0,0.216 0,0 0,0 0,0.072 -0.072,0 -0.216,0 -0.432,0.072 -0.216,0 -0.36,0.072 -0.576,0.144 l 0,0.432 c 0,0 0.072,0 0.144,0 0.36,-0.144 0.72,-0.144 1.08,-0.072 0.144,0 0.288,0.072 0.432,0.144 l 0,-1.008 0,0 z m 0,3.816 0,1.728 c -0.216,0.072 -0.36,0.072 -0.576,0.144 -0.36,0.072 -0.72,0 -1.08,-0.072 l 0,-1.224 0,0 c 0.288,-0.072 0.504,-0.144 0.792,-0.216 0.216,-0.072 0.504,-0.216 0.792,-0.36 l 0.072,0 0,0 z m 0,7.776 0,0.504 -0.144,0.072 -1.512,-0.792 0,-2.376 1.656,2.592 z m -1.656,-11.088 0,0.432 c -0.288,0.144 -0.504,0.288 -0.72,0.432 -0.432,0.36 -0.648,0.792 -0.72,1.368 -0.072,0.432 0,0.864 0.288,1.224 0.144,0.144 0.288,0.216 0.504,0.36 0.144,0.072 0.36,0.072 0.648,0.072 l 0,1.224 -0.072,0 c -0.36,-0.072 -0.648,-0.288 -1.008,-0.576 -0.072,-0.072 -0.144,-0.144 -0.144,-0.216 -0.36,-0.36 -0.504,-0.792 -0.576,-1.224 -0.144,-0.504 -0.072,-0.936 0.072,-1.44 0.216,-0.36 0.504,-0.792 0.864,-1.08 0.288,-0.216 0.576,-0.432 0.864,-0.576 l 0,0 z m 0,8.496 -3.096,-4.968 0.936,-0.576 -0.216,-0.288 -2.16,1.44 0.144,0.288 0.936,-0.576 3.384,5.4 -6.984,-3.6 -0.504,0.288 0,1.008 7.56,3.96 0,-2.376 0,0 z m -7.56,8.136 0,-0.504 c 0.144,-0.144 0.216,-0.216 0.36,-0.288 0.216,-0.288 0.36,-0.648 0.36,-1.008 0,-0.36 0,-0.864 -0.144,-1.44 l 0.288,-0.144 1.008,2.52 -1.872,0.864 0,0 z m 0,-8.568 0,-0.792 4.248,6.696 0.864,-0.576 0.216,0.36 -2.16,1.368 -0.216,-0.36 0.864,-0.576 -3.816,-6.12 z m 0,-2.16 0,1.008 -0.288,-0.144 0.288,0.504 0,0.792 -0.792,-1.224 -0.864,0.504 -0.144,-0.216 1.8,-1.224 0,0 z m 0,10.224 c -0.216,0.144 -0.432,0.288 -0.792,0.432 l -1.8,0.792 -1.728,-3.96 c 0.432,-0.144 0.792,-0.288 1.08,-0.288 0.288,-0.072 0.504,0 0.72,0.144 0.216,0.144 0.432,0.432 0.72,0.864 l 0.288,-0.144 -1.44,-3.168 -0.288,0.072 c 0.072,0.432 0.144,0.72 0.144,1.008 -0.072,0.216 -0.216,0.432 -0.36,0.648 -0.216,0.144 -0.504,0.288 -0.864,0.432 l -0.216,0.144 -1.584,-3.672 1.584,-0.72 c 0.72,-0.36 1.296,-0.432 1.728,-0.36 0.504,0.144 0.864,0.504 1.296,1.152 l 0.288,-0.144 -0.936,-2.088 -5.76,2.592 0,0.36 0.432,-0.216 3.6,7.992 -1.008,0.36 0.144,0.36 4.752,-2.088 0,-0.504 0,0 z m -7.92,3.456 0,-0.36 0.504,-0.216 0.072,0.36 -0.576,0.216 0,0 z m 0,-7.632 0,-1.296 0.576,1.728 -0.36,0.144 c -0.072,-0.216 -0.144,-0.36 -0.216,-0.576 z m 0,-2.088 0,0.36 -0.504,0.216 -0.144,-0.288 0.648,-0.288 0,0 z m 0,0.792 -0.288,-0.792 -6.408,1.8 0,0.072 0.504,-0.072 0,0.36 -0.504,0.072 0,2.016 0.072,0.432 0.288,-0.072 c 0,-0.504 0,-0.936 0,-1.152 0,-0.288 0.072,-0.504 0.144,-0.792 0.144,-0.288 0.288,-0.504 0.504,-0.648 0.288,-0.144 0.576,-0.288 1.008,-0.432 l 0.288,-0.072 2.448,8.352 -1.152,0.36 0.072,0.36 3.024,-0.864 0,-0.36 -0.576,0.144 -2.448,-8.352 0.216,-0.072 c 0.432,-0.144 0.792,-0.216 1.08,-0.216 0.36,0 0.648,0.072 0.864,0.216 0.36,0.288 0.648,0.648 0.864,1.008 l 0,-1.296 0,0 z m -6.696,10.728 0,-2.016 0.144,2.016 -0.144,0 z m 0,-9.72 0,0.072 -2.088,0.144 0,0.36 1.08,-0.144 0.504,6.408 -4.536,-6.408 -2.664,0.144 0.072,0.36 0.936,-0.072 0.576,8.712 -1.008,0.072 0,0.36 2.592,-0.216 -0.072,-0.36 -1.008,0.072 -0.648,-8.496 5.976,8.712 0.288,0 0,-2.016 -0.504,-7.272 0.504,0 0,2.016 -0.576,-2.232 0.576,-0.216 0,0 z m -12.24,6.336 0,-0.36 1.224,0.072 -0.936,-3.888 -0.288,0.792 0,-0.936 0.792,-1.872 0.36,0 2.376,9.504 0.936,0.072 0,0.36 -3.6,-0.288 0.072,-0.36 1.152,0.144 -0.72,-3.096 -1.368,-0.144 z m 0,-4.32 0,0.936 -1.224,2.88 1.224,0.144 0,0.36 -1.368,-0.072 -1.224,2.952 1.152,0.072 0,0.36 -2.52,-0.144 0,-0.36 0.936,0.072 3.024,-7.2 0,0 z m -3.96,5.4 0.144,-0.576 -0.144,0 0,0.576 z m 0,-0.576 0,0.576 -0.72,1.944 -5.616,-1.584 0,-0.36 0.072,0 2.376,-8.352 -1.08,-0.36 0.072,-0.288 3.744,1.008 -0.144,0.36 -1.224,-0.36 -2.376,8.352 1.872,0.576 c 0.72,0.216 1.296,0.216 1.728,-0.072 0.216,-0.216 0.504,-0.432 0.648,-0.648 0.216,-0.288 0.432,-0.504 0.576,-0.864 l 0.072,0.072 0,0 z m 0,2.304 -0.216,-0.072 0,0.432 0.216,0 0,-0.36 0,0 z m -6.336,-7.128 c 0.36,-0.216 0.648,-0.576 0.936,-1.08 0.144,-0.504 0.216,-0.936 0.144,-1.296 -0.072,-0.36 -0.216,-0.72 -0.504,-1.008 -0.144,-0.288 -0.36,-0.432 -0.576,-0.648 l 0,4.032 z m 0,-4.032 0,4.032 -0.072,0.072 c -0.216,0.072 -0.36,0.144 -0.576,0.216 l 0,-1.512 c 0.072,-0.144 0.072,-0.288 0.144,-0.432 0.288,-0.576 0.36,-1.08 0.288,-1.44 -0.072,-0.36 -0.216,-0.648 -0.432,-0.864 l 0,-0.432 c 0.072,0.072 0.216,0.144 0.36,0.216 0.072,0 0.144,0.072 0.288,0.144 l 0,0 z m 0,9.432 0,0.36 -0.648,-0.216 0,-0.36 0.648,0.216 z m -0.648,-9.792 0,0.432 -0.072,0 c -0.216,-0.216 -0.648,-0.432 -1.152,-0.648 -0.144,-0.072 -0.288,-0.144 -0.36,-0.144 l 0,-0.36 0.576,0.216 0.144,0.072 c 0.288,0.144 0.576,0.288 0.864,0.432 l 0,0 z m 0,3.168 0,1.512 c -0.288,0.072 -0.504,0.072 -0.792,0.072 -0.288,0 -0.504,-0.072 -0.792,-0.072 l 0,-0.504 c 0.072,0 0.144,0 0.144,0 0.36,0 0.648,-0.144 0.864,-0.36 0.216,-0.144 0.36,-0.36 0.576,-0.648 l 0,0 z m 0,6.408 0,0.36 -0.504,-0.144 0.072,-0.36 0.432,0.144 z m -1.584,-10.296 0,0.36 0,0 c -0.144,-0.072 -0.216,-0.072 -0.36,-0.144 l -1.728,4.104 c 0.504,0.216 0.936,0.36 1.296,0.432 0.288,0.144 0.504,0.144 0.792,0.144 l 0,0.504 c -0.216,-0.072 -0.432,-0.144 -0.72,-0.216 -0.432,-0.144 -1.008,-0.288 -1.512,-0.504 l -1.512,3.528 1.008,0.432 -0.144,0.36 -2.52,-1.08 0,-0.432 0.36,0.216 3.456,-8.064 -1.008,-0.36 0.144,-0.36 2.448,1.08 0,0 z m -5.4,3.888 c 0.216,-0.288 0.504,-0.648 0.72,-1.008 0.288,-0.432 0.504,-0.936 0.648,-1.512 0.144,-0.504 0.216,-1.08 0.144,-1.656 0,-0.504 -0.144,-1.08 -0.36,-1.584 -0.216,-0.432 -0.576,-0.864 -1.008,-1.224 -0.072,-0.072 -0.144,-0.144 -0.144,-0.144 l 0,0.432 c 0.288,0.288 0.504,0.648 0.648,1.08 0.072,0.432 0,0.864 -0.144,1.296 -0.072,0.432 -0.288,0.864 -0.504,1.368 l 0,2.952 z m 0,-7.128 0,0.432 -0.072,0 c -0.072,-0.144 -0.216,-0.216 -0.36,-0.288 -0.288,-0.216 -0.648,-0.288 -0.936,-0.36 -0.36,0 -0.72,0 -1.008,0.144 -0.432,0.216 -0.864,0.504 -1.224,1.008 -0.432,0.504 -0.864,1.08 -1.296,1.8 l 0,0.072 0,-2.448 c 0.072,-0.072 0.144,-0.144 0.288,-0.216 0.648,-0.432 1.368,-0.72 2.16,-0.792 0.792,-0.144 1.512,0.072 2.16,0.432 0.072,0.072 0.144,0.144 0.288,0.216 l 0,0 z m 0,4.176 0,2.952 c -0.144,0.144 -0.288,0.288 -0.432,0.432 -0.504,0.432 -0.936,0.72 -1.512,0.936 -0.504,0.216 -1.08,0.288 -1.656,0.288 -0.432,0 -0.864,-0.144 -1.296,-0.36 l 0,-0.36 c 0.72,0.288 1.296,0.288 1.944,-0.072 0.648,-0.36 1.296,-1.008 1.8,-1.944 0.216,-0.288 0.36,-0.576 0.504,-0.72 0.216,-0.432 0.432,-0.792 0.648,-1.152 l 0,0 z m 0,6.552 0,0.432 -0.72,-0.288 0.144,-0.36 0.576,0.216 0,0 z m -4.896,-11.304 1.296,-1.368 -1.296,-1.224 0,0.864 c 0,0.072 0,0.144 0.072,0.216 0,0.216 0,0.432 -0.072,0.72 l 0,0.792 z m -6.984,-5.328 2.088,-1.584 -0.648,-0.864 0.216,-0.216 1.656,2.016 -0.288,0.216 -0.648,-0.792 -2.376,1.8 0,-0.576 0,0 z m 6.984,2.736 -3.744,-3.6 -0.216,0.288 0.72,0.72 -3.744,3.888 0,2.088 1.8,-1.872 c 0.288,0.36 0.576,0.648 0.648,0.936 0.144,0.216 0.216,0.504 0.144,0.72 -0.072,0.288 -0.216,0.576 -0.576,1.008 l 0.288,0.144 2.448,-2.52 -0.216,-0.216 c -0.36,0.288 -0.648,0.432 -0.864,0.504 -0.288,0.072 -0.504,0 -0.72,-0.072 -0.216,-0.144 -0.504,-0.288 -0.792,-0.576 l -0.144,-0.144 2.808,-2.88 1.224,1.224 c 0.504,0.432 0.792,0.864 0.936,1.224 l 0,-0.864 0,0 z m 0,1.8 0,0.792 -0.288,0.288 -0.216,-0.216 c 0.216,-0.288 0.432,-0.576 0.504,-0.864 l 0,0 z m 0,1.728 0,2.448 c -0.072,0.072 -0.144,0.216 -0.288,0.432 -0.216,0.36 -0.432,0.792 -0.648,1.224 -0.144,0.36 -0.288,0.792 -0.36,1.224 -0.072,0.432 0,0.864 0.144,1.224 0.144,0.36 0.36,0.648 0.792,0.936 0.144,0.072 0.216,0.144 0.36,0.216 l 0,0.36 c -0.144,0 -0.288,-0.072 -0.432,-0.144 -0.72,-0.432 -1.224,-1.008 -1.512,-1.728 -0.288,-0.72 -0.36,-1.512 -0.216,-2.304 0.072,-0.792 0.36,-1.584 0.792,-2.304 0.36,-0.576 0.792,-1.152 1.368,-1.584 l 0,0 z m -6.984,2.808 0,-0.504 0.216,0.216 c 0.36,0.36 0.72,0.648 1.08,0.72 0.36,0.144 0.72,0.144 1.08,0 0.288,-0.072 0.72,-0.288 1.224,-0.648 l 0.288,0.216 -2.016,1.872 -1.872,-1.872 z m -9.216,-10.44 0.288,-0.216 0.648,0.792 6.84,-5.328 -0.648,-0.864 0.288,-0.144 1.656,2.16 -2.808,7.272 2.952,-2.304 0,0.576 -4.968,3.888 -0.216,-0.288 3.888,-9.864 -6.768,5.256 0.72,0.864 -0.288,0.216 -1.584,-2.016 0,0 z m 9.216,5.4 -2.304,2.376 -0.72,-0.72 -0.288,0.216 3.312,3.168 0,-0.504 -1.224,-1.152 1.224,-1.296 0,-2.088 z"
         style="fill:#000000;fill-opacity:1;stroke:none"
         inkscape:connector-curvature="0" />
      <path
         id="path4800"
         d="m 335.88807,221.14405 c -5.067,-4.61399 -12.31456,-6.42482 -19.04768,-4.75915 -3.66849,0.90753 -4.89063,1.4728 -7.15767,3.31064 -2.61776,2.12214 -3.62948,2.804 -4.16058,2.804 -1.65173,0 3.3762,-4.12453 6.90569,-5.66491 6.94114,-3.02935 13.27362,-2.8188 20.11508,0.6688 1.97099,1.00476 6.0832,4.40141 6.0832,5.02468 0,0.71319 -0.97752,0.21906 -2.73805,-1.38407 l 1e-5,1e-5 z"
         style="fill:#000000;fill-opacity:1;stroke:none"
         inkscape:connector-curvature="0" />
      <path
         id="path4802"
         d="m 300.67992,244.39626 c -0.72934,-0.19062 -1.14861,-1.52463 -0.81226,-2.5844 0.55567,-1.75077 3.4013,-0.99667 3.4013,0.90135 0,0.70596 -1.22561,2.00877 -1.77589,1.88776 -0.10361,-0.0228 -0.46953,-0.11491 -0.81315,-0.20471 l 0,0 z"
         style="fill:#000000;fill-opacity:1;stroke:none"
         inkscape:connector-curvature="0" />
      <path
         id="path4804"
         d="m 305.61705,253.24328 c -0.84261,-0.93107 -0.58535,-2.21425 0.57394,-2.86281 0.8744,-0.48918 1.02201,-0.47764 1.69642,0.1327 0.91344,0.82664 0.95024,2.04137 0.0856,2.82387 -0.85791,0.7764 -1.59501,0.74706 -2.35594,-0.0938 l 0,0 z"
         style="fill:#000000;fill-opacity:1;stroke:none"
         inkscape:connector-curvature="0" />
      <path
         id="path4806"
         d="m 314.83369,258.37777 c -0.77273,-1.17932 -0.23889,-2.47109 1.16701,-2.82395 1.7896,-0.44916 2.99396,1.89255 1.61514,3.14037 -0.94852,0.8584 -2.09805,0.72766 -2.78216,-0.31642 l 10e-6,0 z"
         style="fill:#000000;fill-opacity:1;stroke:none"
         inkscape:connector-curvature="0" />
      <path
         id="path4808"
         d="m 325.9742,258.60042 c -0.85988,-0.95014 -0.58686,-2.24718 0.59151,-2.81018 1.85296,-0.88532 3.38983,0.89584 2.26035,2.61964 -0.69278,1.05733 -1.98906,1.14393 -2.85187,0.19054 l 10e-6,0 z"
         style="fill:#000000;fill-opacity:1;stroke:none"
         inkscape:connector-curvature="0" />
      <path
         id="path4810"
         d="m 335.84844,253.37215 c -1.46608,-1.02688 -0.68389,-3.37261 1.12461,-3.37261 1.06665,0 1.65306,0.64975 1.65306,1.83163 0,1.0111 -0.80428,2.09694 -1.55319,2.09694 -0.2369,0 -0.78793,-0.25018 -1.22449,-0.55596 l 10e-6,0 z"
         style="fill:#000000;fill-opacity:1;stroke:none"
         inkscape:connector-curvature="0" />
      <path
         id="path4812"
         d="m 341.20558,244.08643 c -0.96272,-0.6743 -1.02862,-1.97792 -0.14064,-2.78154 0.85684,-0.77543 1.94933,-0.75017 2.68438,0.0621 0.78548,0.86795 0.74584,1.69211 -0.12321,2.56116 -0.85962,0.85962 -1.3715,0.8931 -2.42054,0.15832 l 10e-6,0 z"
         style="fill:#000000;fill-opacity:1;stroke:none"
         inkscape:connector-curvature="0" />
      <g
         style="fill:#000000"
         transform="translate(-100.74866,205.80034)"
         id="g4848">
        <path
           id="path4312"
           d="m 409.88981,-5.1868896 0,0 0,0 0.072,0 0.072,0 0.216,0.936 -0.36,0.144 -0.504,0.072 -0.504,0.216 -0.36,0.144 -0.432,0.144 -0.504,0.216 -0.36,0.144 -0.36,0.288 -1.008,0.36 -0.936,0.504 -0.936,0.576 -0.936,0.432 -0.792,0.57600002 -0.936,0.576 -0.864,0.648 -0.864,0.71999998 -0.504,0.36 -0.504,0.504 -0.504,0.432 -0.648,0.36 -0.072,0.216 0,0.072 -0.144,0.072 0,0.288 0.144,0.144 0.072,0.144 0.144,0.072 0.144,0.072 0.432,-0.288 0.432,-0.216 0.36,-0.432 0.432,-0.36 0,0 0.072,-0.144 0,0 0,0 2.088,-1.584 1.152,-0.71999998 0.864,-0.576 1.08,-0.648 1.152,-0.64800002 1.152,-0.504 1.152,-0.504 1.224,-0.504 1.368,-0.432 0,0 0,0 0,0 0,0.144 0.216,0.792 -1.296,0.432 -1.224,0.576 -1.296,0.50400002 -1.152,0.648 -1.152,0.576 -0.936,0.504 -1.152,0.79199998 -1.08,0.792 -0.072,0 -0.144,0.144 -0.144,0.144 -0.072,0.072 -0.216,0 0,0.144 -0.072,0.072 0,0.072 0.072,0.072 0.216,0 0,0.144 0.072,0 1.224,-0.504 1.152,-0.432 1.152,-0.72 1.152,-0.79199998 1.296,-0.72 1.152,-0.576 1.296,-0.57600002 1.44,-0.36 0,0 0.072,0 0,0 0.072,0 0.216,0.86400002 -0.648,0.288 -0.72,0.288 -0.576,0.288 -0.792,0.288 -0.576,0.216 -0.72,0.43199998 -0.576,0.288 -0.648,0.36 -0.36,0.216 -0.36,0.216 -0.36,0.216 -0.432,0.216 -0.288,0.216 -0.36,0.144 -0.216,0.288 -0.432,0.288 -0.144,0.072 -0.144,0.144 -0.072,0 0,0.144 0,0.936 0,0.072 0,0 0,0 0,0 0.432,-0.288 0.504,-0.288 0.36,-0.288 0.432,-0.288 0.432,-0.216 0.36,-0.288 0.36,-0.288 0.288,-0.144 0.72,-0.36 0.648,-0.288 0.648,-0.432 0.72,-0.288 0.72,-0.36 0.648,-0.216 0.792,-0.28799998 0.792,-0.288 0.288,1.00799998 -2.52,0.936 -0.144,0.216 -0.288,0.072 -0.36,0.072 -0.144,0.216 -0.36,0.144 -0.504,0.216 -0.432,0.144 -0.36,0.36 -0.36,0.216 -0.216,0.216 -0.432,0.216 -0.36,0.144 -0.576,0.432 -0.576,0.36 -0.504,0.36 -0.576,0.36 -0.432,0.432 -0.504,0.36 -0.576,0.504 -0.432,0.576 0,0.216 0,0.144 0.072,0.072 0.144,0.216 0.144,0.072 0,0 0,0.072 0,0 0.576,-0.432 0.576,-0.432 0.504,-0.504 0.648,-0.504 0.432,-0.36 0.72,-0.432 0.432,-0.36 0.72,-0.36 0,-0.072 0.072,0 0,-0.072 0.072,0 0.288,-0.216 0.288,-0.072 0.216,-0.36 0.216,-0.072 0.36,-0.144 0.36,-0.144 0.216,-0.144 0.36,-0.072 0.432,-0.216 0.504,-0.36 0.36,-0.072 0.432,-0.288 0.432,-0.072 0.432,-0.288 0.432,-0.072 0.432,-0.072 0.216,0.864 -1.152,0.432 -1.008,0.504 -1.08,0.576 -1.008,0.576 -1.08,0.576 -1.008,0.648 -0.936,0.648 -0.936,0.792 -0.936,0.792 -0.792,0.72 -0.936,0.8639996 -0.792,0.864 -0.72,0.936 -0.792,0.936 -0.576,0.864 -0.792,1.008 -0.288,0.504 -0.288,0.504 -0.288,0.432 -0.288,0.576 0,0 0,0 0,0 -0.144,0.144 -0.216,0.576 -0.288,0.576 -0.288,0.576 -0.144,0.648 -0.432,0.648 -0.288,0.792 -0.216,0.72 -0.216,0.864 -0.288,0.792 -0.288,0.504 -0.432,0.648 -0.576,0.504 -0.36,0.144 -0.288,0.072 -0.288,0.144 -0.288,0.144 -0.504,0.072 -0.36,0.072 -0.36,0.072 -0.504,0 -0.216,0.288 -0.144,0.288 0,0.36 -0.072,0.216 -0.216,0.216 -0.144,0.072 -0.36,0 -0.216,0 -0.144,-0.072 -0.072,-0.072 0,0 -0.144,-0.144 0.144,-1.152 0,-0.144 -0.216,-0.216 -0.072,0 -0.072,-0.072 -0.576,-0.288 -0.36,-0.36 -0.36,-0.288 -0.216,-0.36 -0.432,-0.36 -0.288,-0.36 -0.216,-0.576 -0.144,-0.36 0.288,-1.656 0.36,-1.656 0.576,-1.656 0.576,-1.512 0.792,-1.512 0.72,-1.368 0.792,-1.368 0.72,-1.296 0.432,-0.6479996 0.36,-0.504 0.36,-0.648 0.432,-0.504 0.144,-0.288 0.216,-0.288 0.216,-0.36 0.216,-0.216 0.72,-0.936 0.72,-0.792 0.864,-0.936 0.864,-0.936 0.792,-0.72 0.936,-0.864 0.864,-0.648 0.792,-0.79199998 0.792,-0.504 0.72,-0.648 0.864,-0.43200002 0.792,-0.504 0.864,-0.576 0.792,-0.36 0.792,-0.432 0.864,-0.432 0.216,-0.072 0,-0.072 0.144,-0.144 0.288,0 3.384,-1.512 0,0 z"
           style="fill:#000000;stroke:none"
           inkscape:connector-curvature="0" />
        <path
           style="fill:#000000;fill-opacity:1;stroke:none"
           d="m 388.66048,26.509422 c 0,-0.497242 -0.22336,-0.989785 -0.49637,-1.094546 -0.37936,-0.145571 -0.29516,-0.391675 0.35715,-1.043986 0.95883,-0.958835 1.00143,-1.231893 0.48326,-3.097582 -0.35817,-1.289568 -1.35916,-2.014646 -2.12656,-1.540371 -0.54358,0.335946 -0.38539,-0.892604 0.32115,-2.494068 l 0.6285,-1.424614 0.24029,1.502628 c 0.30123,1.883847 1.3626,2.622939 2.40801,1.676857 1.38659,-1.254846 0.44849,-5.096296 -1.14292,-4.680135 -0.88965,0.232642 -0.85019,0.0271 0.39892,-2.078693 l 1.05924,-1.785715 0.006,1.6527 c 0.007,1.86415 0.5266,2.513433 1.66596,2.081197 1.02949,-0.390547 1.23855,-0.802789 1.2618,-2.487993 0.0227,-1.643446 -0.61832,-2.6211816 -1.55745,-2.3755956 -0.35748,0.093482 -0.64995,0.097757 -0.64995,0.0095 0,-0.298736 2.95627,-4.0783034 3.08739,-3.9471927 0.0716,0.071568 -0.0514,0.6508572 -0.27328,1.2873067 -0.54671,1.568286 0.0405,2.887218 1.28538,2.887218 0.7206,0 0.90051,0.177015 0.90051,0.8860536 0,1.327332 1.83503,1.639814 4.09841,0.697896 0.62244,-0.259032 -0.2811,1.094093 -2.39689,3.589543 -0.16737,0.197404 -0.25367,-0.194828 -0.19644,-0.892857 0.0986,-1.202882 0.0566,-1.248675 -1.2428,-1.3561 -1.10295,-0.09117 -1.53979,0.08374 -2.42848,0.972432 -0.90846,0.908475 -1.02098,1.200629 -0.69614,1.807607 0.42903,0.801647 1.76145,0.956032 2.91641,0.337918 0.39678,-0.212343 0.79537,-0.312107 0.88577,-0.2217 0.0904,0.09041 -0.40764,1.339757 -1.10678,2.776336 -0.69913,1.436575 -1.46291,3.264018 -1.69726,4.060986 -0.3968,1.349432 -0.43494,1.381514 -0.55468,0.46675 -0.33416,-2.552718 -3.7725,-1.423747 -4.0722,1.337096 -0.10599,0.976404 -0.008,1.085954 1.13394,1.263439 l 1.25,0.194336 -1.29994,0.263214 c -0.85904,0.17395 -1.3625,0.502497 -1.48441,0.968707 -0.2652,1.014122 -0.96565,0.870075 -0.96565,-0.198578 l 0,3e-6 z m 5.22622,-6.463917 c 1.40056,-0.664604 2.05255,-1.641161 1.74426,-2.612518 -0.27913,-0.879454 -1.05838,-1.148465 -2.13789,-0.738032 -2.42652,0.922557 -3.23766,3.70921 -1.13656,3.904617 0.16674,0.01551 0.85533,-0.233825 1.5302,-0.554071 l -10e-6,4e-6 z"
           id="path4816"
           inkscape:connector-curvature="0" />
        <path
           style="fill:#000000;fill-opacity:1;stroke:none"
           d="m 401.51762,10.059269 c 0,-0.3944676 -0.19285,-0.9100716 -0.42857,-1.1457856 -0.6116,-0.611607 -2.65684,-0.529475 -3.69113,0.148218 -0.99182,0.649857 -1.09307,0.375418 -0.34458,-0.933932 1.01621,-1.7776787 0.49549,-3.5714287 -1.03677,-3.5714287 -0.60242,0 -0.49514,-0.2255071 0.67963,-1.4285714 1.45501,-1.4900679 2.67032,-2.047575 1.31225,-0.6019822 -1.77564,1.890075 -0.39217,2.2883572 1.63315,0.4701608 1.82405,-1.6375215 5.01197,-3.63123928 7.82292,-4.8924215 2.52519,-1.1329857 2.98168,-1.238625 2.98168,-0.6900428 0,0.1964285 -0.18302,0.3571428 -0.40672,0.3571428 -0.73313,0 -6.8858,3.22144652 -8.16243,4.2737322 -2.63433,2.1713893 -0.14258,1.6792607 3.74772,-0.7401929 2.44099,-1.51810708 5.10127,-2.6584536 5.43148,-2.3282464 0.29066,0.29065002 0.45532,0.19058212 -3.51143,2.1337536 -3.61504,1.7708821 -4.74001,2.6642785 -4.54064,3.6059607 0.10196,0.4816178 0.32072,0.4331321 1.41641,-0.3139107 2.66689,-1.8182929 7.45418,-4.01393218 7.45418,-3.41878578 0,0.18561428 -1.16518,0.89216428 -2.58929,1.57010358 -3.62635,1.7263072 -7.56233,4.5399857 -7.70341,5.5068717 -0.13626,0.933882 0.69083,1.057696 1.39529,0.208875 1.39506,-1.680943 9.25455,-6.085811 9.25455,-5.1867288 0,0.1615643 -1.16518,0.8988821 -2.58929,1.6384893 -3.02437,1.5707 -4.51831,2.6123175 -6.60714,4.6067105 -1.27692,1.2191816 -1.51786,1.3353816 -1.51786,0.7320136 l 0,-3e-6 z m -0.39491,-2.9676466 c 1.20487,-1.1255138 1.4166,-2.1927031 0.57381,-2.8921567 -1.11289,-0.9236107 -3.75032,1.0348179 -3.75032,2.7847857 0,1.507707 1.61886,1.562432 3.17651,0.107371 l 0,0 z"
           id="path4818"
           inkscape:connector-curvature="0" />
        <path
           style="fill:#000000;fill-opacity:1;stroke:none"
           d="m 397.93902,2.6991069 c 0,-0.040547 0.10427,-0.1711277 0.2317,-0.2901795 0.12743,-0.1190518 0.28918,-0.3269473 0.35944,-0.4619919 0.11669,-0.2243054 0.11381,-0.2455358 -0.0333,-0.2455358 -0.0885,0 -0.2529,0.064366 -0.36521,0.1430358 -0.40486,0.2835759 -0.2802,0.049418 0.13796,-0.2591304 0.23557,-0.1738205 0.56893,-0.4637143 0.7408,-0.64420888 0.17188,-0.1804947 0.49331,-0.45135 0.71429,-0.6018991 0.22098,-0.1505483 0.60268,-0.442409 0.84821,-0.6485768 0.24554,-0.2061688 0.65574,-0.4807902 0.91155,-0.6102723 0.25582,-0.12948312 0.79823,-0.44918312 1.20536,-0.71044832 0.40713,-0.2612634 1.32282,-0.7681026 2.03488,-1.126308 0.71205,-0.3582035 1.35807,-0.7070928 1.4356,-0.775308 0.0775,-0.068214 0.19998,-0.1240268 0.27212,-0.1240268 0.0721,0 0.89216,-0.3395188 1.82226,-0.7544866 1.18849,-0.5302465 1.7089,-0.7226366 1.75098,-0.6473215 0.0329,0.058942 0.0874,0.254375 0.12116,0.4342991 0.0513,0.2737536 0.0317,0.3429572 -0.1199,0.4241072 -0.0997,0.053334 -0.26372,0.096973 -0.36458,0.096973 -0.23306,0 -2.41118,0.8595974 -2.59346,1.0235107 -0.0752,0.067604 -0.41793,0.2284875 -0.76168,0.3575188 -0.34375,0.1290321 -1.06697,0.4894919 -1.60714,0.8010223 -0.54018,0.3115321 -1.14405,0.6474357 -1.34193,0.7464562 -1.03213,0.51649022 -3.24723,2.13429472 -4.6367,3.386434 -0.5987,0.539525 -0.76245,0.6439723 -0.76245,0.4863357 l 0,9e-7 z"
           id="path4822"
           inkscape:connector-curvature="0" />
        <path
           style="fill:#000000;fill-opacity:1;stroke:none"
           d="m 394.6026,5.830864 c 0.0557,-0.46735 -0.007,-0.5717517 -0.21715,-0.3616071 -0.0589,0.058928 -0.10714,0.073745 -0.10714,0.032925 0,-0.1116688 2.23676,-2.4614964 2.34306,-2.4614964 0.0506,0 -0.0874,0.1918401 -0.30667,0.4263107 -0.72984,0.7802482 -0.8399,1.0815598 -0.40166,1.0995991 0.14544,0.00599 0.12149,0.029466 -0.0934,0.091528 -0.30796,0.088958 -0.88306,0.7636151 -1.13555,1.3321303 l -0.13739,0.3093607 0.0559,-0.46875 z"
           id="path4824"
           inkscape:connector-curvature="0" />
        <path
           style="fill:#000000;fill-opacity:1;stroke:none"
           d="m 390.78809,11.314769 -0.0366,-0.877702 -0.34563,0.591586 c -0.19011,0.325371 -0.36574,0.571496 -0.39029,0.546944 -0.0598,-0.05975 0.44405,-0.95139 0.91267,-1.6152686 0.20798,-0.294643 0.44711,-0.670029 0.53139,-0.83419 0.0843,-0.164162 0.17363,-0.278094 0.19854,-0.253183 0.0249,0.024912 -0.003,0.134984 -0.0614,0.244604 -0.089,0.166307 -0.0816,0.213355 0.0449,0.284121 0.13894,0.077752 0.13531,0.102094 -0.0436,0.292497 -0.34781,0.3702206 -0.63914,1.1225836 -0.70809,1.8286506 l -0.0654,0.669643 -0.0366,-0.877702 z"
           id="path4826"
           inkscape:connector-curvature="0" />
        <path
           style="fill:#000000;fill-opacity:1;stroke:none"
           d="m 387.18214,16.924614 c 0.0267,-0.147322 0.37327,-0.910715 0.77015,-1.696429 0.71061,-1.406808 0.97039,-1.839124 0.8316,-1.383928 -0.12229,0.401101 -0.0945,0.483221 0.18192,0.538203 l 0.26786,0.05327 -0.28671,0.06774 c -0.23065,0.05449 -0.33079,0.158158 -0.51215,0.530155 -0.12399,0.254331 -0.26646,0.680336 -0.3166,0.94668 -0.1021,0.542372 -0.17919,0.689277 -0.17919,0.341493 0,-0.599328 -0.1198,-0.55813 -0.46423,0.159634 -0.19216,0.400459 -0.31999,0.594042 -0.29265,0.443183 l 0,0 z"
           id="path4830"
           inkscape:connector-curvature="0" />
        <path
           style="fill:#000000;fill-opacity:1;stroke:none"
           d="m 387.40144,24.967009 c -0.26764,-0.228452 -0.52737,-0.487979 -0.57719,-0.576728 -0.0498,-0.08875 -0.23927,-0.290514 -0.421,-0.448366 -0.21025,-0.182616 -0.4005,-0.471766 -0.5231,-0.795009 -0.17802,-0.469409 -0.18474,-0.562281 -0.0884,-1.222292 0.14584,-0.998882 0.58338,-2.887566 0.75524,-3.260062 l 0.14365,-0.311367 -0.0524,0.3125 c -0.18546,1.106544 -0.1426,1.242182 0.33765,1.068522 0.32987,-0.119284 0.91445,-0.05873 1.01578,0.105217 0.0399,0.06454 -0.01,0.07197 -0.15312,0.02298 -0.44456,-0.1518 -0.81999,-0.04994 -1.19422,0.324016 l -0.35714,0.356877 -0.0312,1.052186 -0.0312,1.052186 0.34908,0.709468 c 0.39676,0.806364 0.91571,1.290692 1.38297,1.290692 0.22614,0 0.25395,0.02156 0.16543,0.128221 -0.0585,0.07052 -0.13518,0.235793 -0.17034,0.367272 l -0.0639,0.239054 -0.48661,-0.415366 z"
           id="path4832"
           inkscape:connector-curvature="0" />
        <path
           style="fill:#000000;fill-opacity:1;stroke:none"
           d="m 391.91224,25.371765 -0.35714,-0.05429 0.43925,-0.21619 c 0.62726,-0.308723 1.52595,-1.263735 1.74821,-1.857776 0.0982,-0.262559 0.18376,-0.606448 0.19005,-0.764205 0.008,-0.210201 0.0386,-0.145578 0.113,0.241909 0.0559,0.290806 0.14935,0.544668 0.20776,0.564139 0.066,0.022 0.18205,-0.225632 0.30653,-0.654065 0.11018,-0.379202 0.2165,-0.640962 0.23626,-0.581682 0.0198,0.05928 -0.0673,0.438997 -0.19355,0.843813 -0.24684,0.791691 -0.74223,1.629851 -1.22775,2.077261 -0.28428,0.261955 -0.78845,0.496253 -1.0072,0.468054 -0.0541,-0.007 -0.25899,-0.0371 -0.45542,-0.06696 z"
           id="path4834"
           inkscape:connector-curvature="0" />
        <path
           style="fill:#000000;fill-opacity:1;stroke:none"
           d="m 396.89901,17.103185 c 0.024,-0.09821 0.16742,-0.474029 0.31864,-0.835144 0.40377,-0.964199 0.36717,-1.082835 -0.26519,-0.859725 -0.20932,0.07385 -0.3975,0.117356 -0.41818,0.09668 -0.0207,-0.02068 0.19653,-0.17433 0.48268,-0.341445 0.28615,-0.167116 0.61054,-0.437606 0.72086,-0.60109 l 0.20057,-0.297243 0.0561,0.280593 c 0.0309,0.154325 0.0886,0.280592 0.12827,0.280592 0.0397,0 0.22114,-0.181824 0.40324,-0.404053 0.50228,-0.612978 0.48027,-0.398832 -0.0251,0.243798 -0.24308,0.309122 -0.66495,0.943738 -0.9375,1.410255 -0.78332,1.340834 -0.71574,1.236406 -0.66445,1.026786 l 10e-6,0 z"
           id="path4836"
           inkscape:connector-curvature="0" />
        <path
           style="fill:#000000;fill-opacity:1;stroke:none"
           d="m 396.51437,10.205864 c -0.004,-0.3158826 -0.26371,-0.6435566 -0.51731,-0.6533646 -0.12724,-0.00492 -0.12013,-0.023504 0.0383,-0.100093 0.10699,-0.05173 0.2419,-0.208391 0.29978,-0.348141 0.12318,-0.297378 0.43044,-0.598118 0.32559,-0.318678 -0.24083,0.641828 -0.14216,0.774263 0.37883,0.508475 0.50696,-0.258632 0.52746,-0.228087 0.10262,0.152873 -0.20842,0.186881 -0.42874,0.492625 -0.49864,0.6919636 l -0.12524,0.357143 -0.004,-0.290178 z"
           id="path4838"
           inkscape:connector-curvature="0" />
        <path
           style="fill:#000000;fill-opacity:1;stroke:none"
           d="m 400.66104,11.656757 c 0.15981,-0.41478 0.15959,-0.580358 -7.9e-4,-0.580358 -0.10972,0 -0.0325,-0.115686 0.25745,-0.385704 0.3661,-0.340931 0.41541,-0.43162 0.42479,-0.7812496 l 0.0106,-0.395546 0.10813,0.446429 c 0.0947,0.3907436 0.13428,0.4434256 0.31773,0.4223536 0.17584,-0.0202 0.11816,0.07325 -0.35823,0.580357 -0.88583,0.942934 -0.83935,0.900487 -0.75969,0.693718 l 0,0 z"
           id="path4840"
           inkscape:connector-curvature="0" />
        <path
           style="fill:#000000;fill-opacity:1;stroke:none"
           d="m 407.31539,5.0272926 c 0.004,-0.1749795 0.1974,-0.3264732 0.6791,-0.5307696 0.91872,-0.3896447 0.99703,-0.3258009 0.17578,0.1433089 -0.85195,0.48665 -0.85695,0.4889179 -0.85488,0.3874607 l 0,0 z"
           id="path4842"
           inkscape:connector-curvature="0" />
        <path
           style="fill:#000000;fill-opacity:1;stroke:none"
           d="m 407.8051,2.2710426 c 0.30773,-0.2394777 1.64841,-0.835242 2.87953,-1.27959638 l 1.1831,-0.4270224 0.13355,0.44974468 c 0.0735,0.247358 0.12349,0.4598152 0.11118,0.4721268 -0.0497,0.049741 -1.53578,0.5721402 -1.62356,0.5707428 -0.052,-8.267e-4 0.0461,-0.08673 0.21798,-0.1908955 1.09753,-0.6651607 1.33899,-0.89326698 1.04911,-0.99109998 -0.26046,-0.0879027 -1.98426,0.53623038 -3.30159,1.19539108 -0.72731,0.3639277 -0.946,0.4314955 -0.6493,0.2006098 l 0,-9e-7 z"
           id="path4844"
           inkscape:connector-curvature="0" />
      </g>
      <use
         style="fill:#000000"
         height="184.25197"
         width="325.98425"
         transform="matrix(-1,0,0,1,643.71853,-0.1785671)"
         id="use4864"
         xlink:href="#g4848"
         y="0"
         x="0" />
    </g>
  </g>
</svg>
