<?xml version="1.0" encoding="UTF-8" standalone="no"?>
<!-- Created with Inkscape (http://www.inkscape.org/) -->

<svg
   xmlns:dc="http://purl.org/dc/elements/1.1/"
   xmlns:cc="http://creativecommons.org/ns#"
   xmlns:rdf="http://www.w3.org/1999/02/22-rdf-syntax-ns#"
   xmlns:svg="http://www.w3.org/2000/svg"
   xmlns="http://www.w3.org/2000/svg"
   xmlns:xlink="http://www.w3.org/1999/xlink"
   xmlns:sodipodi="http://sodipodi.sourceforge.net/DTD/sodipodi-0.dtd"
   xmlns:inkscape="http://www.inkscape.org/namespaces/inkscape"
   id="svg2"
   version="1.1"
   inkscape:version="0.92.4 5da689c313, 2019-01-14"
   xml:space="preserve"
   width="667.57104"
   height="323.59735"
   viewBox="0 0 667.57106 323.59735"
   sodipodi:docname="projekcija.svg"><metadata
     id="metadata8"><rdf:RDF><cc:Work
         rdf:about=""><dc:format>image/svg+xml</dc:format><dc:type
           rdf:resource="http://purl.org/dc/dcmitype/StillImage" /><dc:title></dc:title></cc:Work></rdf:RDF></metadata><defs
     id="defs6"><marker
       inkscape:stockid="Arrow1Lend"
       orient="auto"
       refY="0"
       refX="0"
       id="Arrow1Lend"
       style="overflow:visible"
       inkscape:isstock="true"><path
         id="path4600"
         d="M 0,0 5,-5 -12.5,0 5,5 Z"
         style="fill:#000000;fill-opacity:1;fill-rule:evenodd;stroke:#000000;stroke-width:1.00000003pt;stroke-opacity:1"
         transform="matrix(-0.8,0,0,-0.8,-10,0)"
         inkscape:connector-curvature="0" /></marker><linearGradient
       x1="0"
       y1="0"
       x2="1"
       y2="0"
       gradientUnits="userSpaceOnUse"
       gradientTransform="matrix(7e-8,1500,1500,-7e-8,750,1.5961172e-6)"
       spreadMethod="pad"
       id="linearGradient14"><stop
         style="stop-opacity:1;stop-color:#dfdddb"
         offset="0"
         id="stop16" /><stop
         style="stop-opacity:1;stop-color:#ffffff"
         offset="1"
         id="stop18" /></linearGradient><clipPath
       clipPathUnits="userSpaceOnUse"
       id="clipPath28"><path
         d="m 4762.93,9015.06 c 0,-661.46 -536.21,-1197.67 -1197.67,-1197.67 -661.45,0 -1197.67,536.21 -1197.67,1197.67 0,661.45 536.22,1197.64 1197.67,1197.64 661.46,0 1197.67,-536.19 1197.67,-1197.64 z"
         id="path30"
         inkscape:connector-curvature="0" /></clipPath><linearGradient
       x1="0"
       y1="0"
       x2="1"
       y2="0"
       gradientUnits="userSpaceOnUse"
       gradientTransform="matrix(2395.34,0,0,-2395.34,2367.59,9015.06)"
       spreadMethod="pad"
       id="linearGradient32"><stop
         style="stop-opacity:1;stop-color:#65cccf"
         offset="0"
         id="stop34" /><stop
         style="stop-opacity:1;stop-color:#131112"
         offset="1"
         id="stop36" /></linearGradient><clipPath
       clipPathUnits="userSpaceOnUse"
       id="clipPath50"><path
         d="m 1691.62,9610.42 c 303.38,138.19 625.41,242.58 974.23,297.11 445.68,69.68 885.76,51.97 1320.82,-49.76 310.66,-72.64 598.88,-178.54 868.29,-313.26 363.99,-182.02 683.74,-399.98 968.42,-646.42 11.54,13.63 23.13,27.23 34.89,40.74 21.45,24.63 19,42.08 -7.47,66.05 -294.55,266.82 -628.94,501.27 -1014.56,694.1 -260.47,130.25 -539.11,232.63 -839.45,302.82 -420.61,98.4 -846.07,115.5 -1276.95,48.1 -337.24,-52.67 -648.57,-153.59 -941.87,-287.2 -417.36,-190.11 -855.669,-508.27 -1182.052,-777.13 -41.715,-34.37 -82.063,-70.55 -129.77,-99.83 -16.261,-9.97 -21.468,-8 -17.492,3.59 -31.332,-38.01 -58.246,-72.04 -79.551,-100.57 2.79,-18.39 6.2,-36.69 10.258,-54.89 31.117,23.21 60.051,48.37 89.598,72.71 337.594,278.11 790.959,607.19 1222.659,803.84 z"
         id="path52"
         inkscape:connector-curvature="0" /></clipPath><linearGradient
       x1="0"
       y1="0"
       x2="1"
       y2="0"
       gradientUnits="userSpaceOnUse"
       gradientTransform="matrix(5503.59,0,0,-5503.59,369.106,9412.16)"
       spreadMethod="pad"
       id="linearGradient54"><stop
         style="stop-opacity:1;stop-color:#edeaea"
         offset="0"
         id="stop56" /><stop
         style="stop-opacity:1;stop-color:#1f3236"
         offset="0.519608"
         id="stop58" /><stop
         style="stop-opacity:1;stop-color:#edeaea"
         offset="1"
         id="stop60" /></linearGradient><clipPath
       clipPathUnits="userSpaceOnUse"
       id="clipPath70"><path
         d="m 12461.8,8876.43 c 0,-661.45 -536.2,-1197.66 -1197.7,-1197.66 -661.4,0 -1197.7,536.21 -1197.7,1197.66 0,661.46 536.3,1197.67 1197.7,1197.67 661.5,0 1197.7,-536.21 1197.7,-1197.67 z"
         id="path72"
         inkscape:connector-curvature="0" /></clipPath><linearGradient
       x1="0"
       y1="0"
       x2="1"
       y2="0"
       gradientUnits="userSpaceOnUse"
       gradientTransform="matrix(2395.34,0,0,-2395.34,10066.4,8876.43)"
       spreadMethod="pad"
       id="linearGradient74"><stop
         style="stop-opacity:1;stop-color:#65cccf"
         offset="0"
         id="stop76" /><stop
         style="stop-opacity:1;stop-color:#131112"
         offset="1"
         id="stop78" /></linearGradient><clipPath
       clipPathUnits="userSpaceOnUse"
       id="clipPath90"><path
         d="m 9525.21,9437.06 c 303.38,138.2 625.39,242.58 974.19,297.11 445.7,69.68 885.8,51.98 1320.9,-49.76 310.6,-72.64 598.8,-178.53 868.3,-313.26 363.9,-182.02 683.7,-399.97 968.4,-646.42 11.5,13.63 23.1,27.23 34.9,40.74 21.4,24.64 19,42.08 -7.5,66.05 -294.6,266.83 -628.9,501.27 -1014.6,694.11 -260.4,130.25 -539.1,232.62 -839.4,302.85 -420.6,98.36 -846.1,115.48 -1277,48.11 -337.2,-52.72 -648.54,-153.64 -941.84,-287.24 -417.36,-190.12 -855.67,-508.27 -1182.05,-777.14 -41.72,-34.36 -82.06,-70.55 -129.77,-99.82 -16.26,-9.98 -21.47,-8.01 -17.5,3.58 -31.33,-38.01 -58.24,-72.03 -79.55,-100.57 2.79,-18.39 6.2,-36.69 10.26,-54.89 31.12,23.21 60.05,48.38 89.6,72.72 337.59,278.1 790.96,607.18 1222.66,803.83 z"
         id="path92"
         inkscape:connector-curvature="0" /></clipPath><linearGradient
       x1="0"
       y1="0"
       x2="1"
       y2="0"
       gradientUnits="userSpaceOnUse"
       gradientTransform="matrix(5503.59,0,0,-5503.59,8202.69,9238.8)"
       spreadMethod="pad"
       id="linearGradient94"><stop
         style="stop-opacity:1;stop-color:#edeaea"
         offset="0"
         id="stop96" /><stop
         style="stop-opacity:1;stop-color:#1f3236"
         offset="0.519608"
         id="stop98" /><stop
         style="stop-opacity:1;stop-color:#edeaea"
         offset="1"
         id="stop100" /></linearGradient><clipPath
       clipPathUnits="userSpaceOnUse"
       id="clipPath114"><path
         d="m 8531.39,12805 c 0,-661.5 -536.22,-1197.7 -1197.67,-1197.7 -661.45,0 -1197.67,536.2 -1197.67,1197.7 0,661.4 536.22,1197.7 1197.67,1197.7 661.45,0 1197.67,-536.3 1197.67,-1197.7 z"
         id="path116"
         inkscape:connector-curvature="0" /></clipPath><linearGradient
       x1="0"
       y1="0"
       x2="1"
       y2="0"
       gradientUnits="userSpaceOnUse"
       gradientTransform="matrix(2395.34,0,0,-2395.34,6136.05,12805)"
       spreadMethod="pad"
       id="linearGradient118"><stop
         style="stop-opacity:1;stop-color:#65cccf"
         offset="0"
         id="stop120" /><stop
         style="stop-opacity:1;stop-color:#131112"
         offset="1"
         id="stop122" /></linearGradient><clipPath
       clipPathUnits="userSpaceOnUse"
       id="clipPath134"><path
         d="m 5594.82,13365.6 c 303.38,138.2 625.4,242.6 974.23,297.1 445.68,69.7 885.76,52 1320.82,-49.7 310.66,-72.7 598.87,-178.6 868.29,-313.3 363.99,-182 683.73,-400 968.42,-646.4 11.53,13.6 23.12,27.2 34.89,40.7 21.45,24.7 18.99,42.1 -7.47,66.1 -294.55,266.8 -628.94,501.3 -1014.57,694.1 -260.46,130.2 -539.1,232.6 -839.44,302.8 -420.61,98.4 -846.08,115.5 -1276.95,48.2 -337.24,-52.8 -648.57,-153.7 -941.87,-287.3 -417.36,-190.1 -855.67,-508.3 -1182.06,-777.1 -41.71,-34.4 -82.06,-70.6 -129.77,-99.9 -16.26,-9.9 -21.47,-8 -17.49,3.6 -31.33,-38 -58.24,-72 -79.55,-100.5 2.79,-18.4 6.2,-36.7 10.26,-54.9 31.11,23.2 60.05,48.3 89.59,72.7 337.6,278.1 790.97,607.2 1222.67,803.8 z"
         id="path136"
         inkscape:connector-curvature="0" /></clipPath><linearGradient
       x1="0"
       y1="0"
       x2="1"
       y2="0"
       gradientUnits="userSpaceOnUse"
       gradientTransform="matrix(5503.59,0,0,-5503.59,4272.3,13167.4)"
       spreadMethod="pad"
       id="linearGradient138"><stop
         style="stop-opacity:1;stop-color:#edeaea"
         offset="0"
         id="stop140" /><stop
         style="stop-opacity:1;stop-color:#1f3236"
         offset="0.519608"
         id="stop142" /><stop
         style="stop-opacity:1;stop-color:#edeaea"
         offset="1"
         id="stop144" /></linearGradient><clipPath
       clipPathUnits="userSpaceOnUse"
       id="clipPath156"><path
         d="m 6336.66,2918.8 c -313.39,383.6 -511.61,769.1 -589.14,1146 -62.73,304.8 -47.11,604.1 46.41,889.4 158.94,484.98 485.24,757.84 499.05,769.22 l 15.19,12.51 721.47,128.25 465.08,-271.47 470.08,-369.15 690.79,-661.86 457.36,-553.7 -278.21,-274.2 -447.24,-339.3 -752.78,-291.9 -426.91,-61 -843.02,-157.2 z"
         id="path158"
         inkscape:connector-curvature="0" /></clipPath><linearGradient
       x1="0"
       y1="0"
       x2="1"
       y2="0"
       gradientUnits="userSpaceOnUse"
       gradientTransform="matrix(1e-7,2979.8,2979.8,-1e-7,15817.11,-12131.49)"
       spreadMethod="pad"
       id="linearGradient160"><stop
         style="stop-opacity:1;stop-color:#747b7e"
         offset="0"
         id="stop162" /><stop
         style="stop-opacity:1;stop-color:#747b7e"
         offset="0.0686275"
         id="stop164" /><stop
         style="stop-opacity:1;stop-color:#ffffff"
         offset="0.490426"
         id="stop166" /><stop
         style="stop-opacity:1;stop-color:#747b7e"
         offset="0.906863"
         id="stop168" /><stop
         style="stop-opacity:1;stop-color:#747b7e"
         offset="1"
         id="stop170" /></linearGradient><clipPath
       clipPathUnits="userSpaceOnUse"
       id="clipPath180"><path
         d="m 6435.42,4399 c 0,410.6 168.76,753.43 393.87,836.39 -88.22,180.9 -204.44,290.87 -331.83,290.87 -275.77,0 -549.33,-515.04 -549.33,-1150.36 0,-635.3 273.56,-1150.4 549.33,-1150.4 136.56,0 260.29,126.4 350.44,331 -234.35,70.5 -412.48,420.8 -412.48,842.5 z"
         id="path182"
         inkscape:connector-curvature="0" /></clipPath><linearGradient
       x1="0"
       y1="0"
       x2="1"
       y2="0"
       gradientUnits="userSpaceOnUse"
       gradientTransform="matrix(1057.4,0,0,-1057.4,14353.85,-10639.99)"
       spreadMethod="pad"
       id="linearGradient184"><stop
         style="stop-opacity:1;stop-color:#65cccf"
         offset="0"
         id="stop186" /><stop
         style="stop-opacity:1;stop-color:#254448"
         offset="1"
         id="stop188" /></linearGradient><marker
       inkscape:stockid="Arrow1Lend"
       orient="auto"
       refY="0"
       refX="0"
       id="Arrow1Lend-0"
       style="overflow:visible"
       inkscape:isstock="true"><path
         inkscape:connector-curvature="0"
         id="path4600-0"
         d="M 0,0 5,-5 -12.5,0 5,5 Z"
         style="fill:#000000;fill-opacity:1;fill-rule:evenodd;stroke:#000000;stroke-width:1.00000003pt;stroke-opacity:1"
         transform="matrix(-0.8,0,0,-0.8,-10,0)" /></marker><marker
       inkscape:stockid="Arrow1Lend"
       orient="auto"
       refY="0"
       refX="0"
       id="Arrow1Lend-03"
       style="overflow:visible"
       inkscape:isstock="true"><path
         inkscape:connector-curvature="0"
         id="path4600-1"
         d="M 0,0 5,-5 -12.5,0 5,5 Z"
         style="fill:#000000;fill-opacity:1;fill-rule:evenodd;stroke:#000000;stroke-width:1.00000003pt;stroke-opacity:1"
         transform="matrix(-0.8,0,0,-0.8,-10,0)" /></marker><symbol
       id="LeftArrow"><title
         id="title7057">Left Arrow</title><path
         d="M 9,36 31,14 H 46 L 30,30 H 62 V 42 H 30 L 46,58 H 31 Z"
         style="stroke:none"
         id="path7059"
         inkscape:connector-curvature="0" /></symbol><marker
       inkscape:stockid="Arrow1Lend"
       orient="auto"
       refY="0"
       refX="0"
       id="Arrow1Lend-03-9"
       style="overflow:visible"
       inkscape:isstock="true"><path
         inkscape:connector-curvature="0"
         id="path4600-1-9"
         d="M 0,0 5,-5 -12.5,0 5,5 Z"
         style="fill:#000000;fill-opacity:1;fill-rule:evenodd;stroke:#000000;stroke-width:1.00000003pt;stroke-opacity:1"
         transform="matrix(-0.8,0,0,-0.8,-10,0)" /></marker></defs><sodipodi:namedview
     pagecolor="#ffffff"
     bordercolor="#666666"
     borderopacity="1"
     objecttolerance="10"
     gridtolerance="10"
     guidetolerance="10"
     inkscape:pageopacity="0"
     inkscape:pageshadow="2"
     inkscape:window-width="1916"
     inkscape:window-height="1158"
     id="namedview4"
     showgrid="false"
     inkscape:zoom="1.0069333"
     inkscape:cx="470.24653"
     inkscape:cy="247.08512"
     inkscape:window-x="0"
     inkscape:window-y="18"
     inkscape:window-maximized="0"
     inkscape:current-layer="g10"
     fit-margin-top="0"
     fit-margin-left="0"
     fit-margin-right="0"
     fit-margin-bottom="0" /><g
     id="g10"
     inkscape:groupmode="layer"
     inkscape:label="ink_ext_XXXXXX"
     transform="matrix(1.25,0,0,-1.25,36.618755,1154.712)"><g
   id="g4497"
   transform="matrix(-0.1978822,0,0,0.1978822,29.705978,426.45802)"><path
     d="m -240.28504,2126.033 c 0.023,-0.168 -0.132,0.987 -0.227,2.258 -0.107,1.36 -0.227,3.278 -0.245,5.76 -0.015,2.484 0.058,5.533 0.418,9.172 0.372,3.638 1,7.873 2.42,12.733 1.457,4.826 3.561,10.396 7.749,16.024 4.016,5.627 10.581,10.973 18.165,13.775 7.569,2.774 15.541,3.321 22.899,2.578 7.393,-0.756 14.467,-2.58 21.346,-4.994 13.728,-4.893 26.945,-11.965 40.164,-20.162 13.222,-8.2 26.336,-17.669 39.498,-27.839 26.291,-20.379 52.569,-43.786 78.034,-67.917 12.765,-12.034 25.212,-24.363 37.431,-36.517 12.138,-12.233 23.999,-24.34 35.32,-36.195 11.344,-11.84 22.192,-23.38 32.408,-34.39 10.232,-10.99 19.79,-21.49 28.617,-31.17 8.756,-9.74 16.783,-18.67 23.898,-26.58 7.059,-7.96 13.218,-14.9 18.278,-20.62 10.08,-11.48 15.84,-18.03 15.84,-18.03 0,0 -6.11,6.22 -16.81,17.12 -5.38,5.42 -11.91,12 -19.399,19.56 -7.538,7.49 -16.042,15.95 -25.319,25.18 -9.341,9.17 -19.453,19.1 -30.259,29.48 -10.79,10.4 -22.235,21.29 -34.179,32.44 -11.921,11.17 -24.384,22.542 -37.111,34.013 -12.802,11.385 -25.824,22.921 -39.109,34.113 -26.499,22.451 -53.686,44.048 -80.208,62.329 -13.258,9.114 -26.327,17.465 -39.016,24.38 -6.338,3.468 -12.57,6.58 -18.627,9.282 -6.063,2.637 -11.948,4.882 -17.523,6.515 -5.564,1.62 -10.812,2.563 -15.317,2.753 -4.522,0.2 -8.059,-0.562 -10.429,-1.606 -2.307,-1.148 -3.686,-2.455 -4.895,-4.389 -1.229,-1.85 -2.081,-4.372 -2.661,-6.867 -1.147,-5.086 -1.034,-10.064 -0.843,-13.221 0.104,-1.607 0.256,-2.814 0.359,-3.556 0.119,-0.832 0.129,-0.756 0.152,-0.923 l -30.819,-4.489"
     style="fill:#231f20;fill-opacity:1;fill-rule:nonzero;stroke:none"
     id="path150"
     inkscape:connector-curvature="0" /><path
     d="m -136.20704,2095.875 -5.427,-0.965 -67.497,-12 -3.874,-0.689 -3.037,-2.502 c -1.45,-1.194 -35.7,-29.831 -52.263,-80.37 -9.765,-29.79 -11.4,-61.01 -4.861,-92.79 8,-38.89 28.339,-78.53 60.453,-117.83 l 5.625,-6.89 8.741,1.63 79.774,14.88 41.683,5.96 1.7,0.24 1.601,0.62 73.497,28.5 1.964,0.76 1.679,1.27 43.497,33 0.773,0.59 0.69,0.68 22.583,22.25 9.785,9.65 -8.748,10.59 -41.082,49.74 -0.557,0.67 -0.631,0.61 -68.497,65.627 -0.533,0.511 -0.58,0.455 -46.313,36.368 -0.812,0.637 -0.89,0.52 -43.683,25.499 z m -2.802,-15.734 43.683,-25.499 46.313,-36.367 68.496,-65.626 41.083,-49.74 -22.583,-22.26 -43.498,-33 -73.497,-28.49 -41.997,-6 -80.089,-14.94 c -134,164 -5.407,269.923 -5.407,269.923 l 67.496,11.999"
     style="fill:#131112;fill-opacity:1;fill-rule:nonzero;stroke:none"
     id="path174"
     inkscape:connector-curvature="0" /><g
     style="fill:#cccccc"
     transform="matrix(0.1,0,0,0.1,-840.57204,1501.589)"
     id="g176"><g
       style="fill:#cccccc"
       id="g178"
       clip-path="url(#clipPath180)"><path
         d="m 6435.42,4399 c 0,410.6 168.76,753.43 393.87,836.39 -88.22,180.9 -204.44,290.87 -331.83,290.87 -275.77,0 -549.33,-515.04 -549.33,-1150.36 0,-635.3 273.56,-1150.4 549.33,-1150.4 136.56,0 260.29,126.4 350.44,331 -234.35,70.5 -412.48,420.8 -412.48,842.5"
         style="fill:#cccccc;fill-opacity:1;fill-rule:nonzero;stroke:none"
         id="path190"
         inkscape:connector-curvature="0" /></g></g><path
     d="m -157.64304,2025.128 c -22.511,-8.296 -39.387,-42.579 -39.387,-83.639 0,-42.17 17.813,-77.2 41.248,-84.25 9.189,20.87 14.888,49.87 14.888,81.94 0,34.18 -6.474,64.879 -16.749,85.949"
     style="fill:#131112;fill-opacity:1;fill-rule:nonzero;stroke:none"
     id="path192"
     inkscape:connector-curvature="0" /><path
     d="m -308.79204,1707.099 c 0,0 0.304,2.14 1.274,6.07 0.974,3.92 2.613,9.65 5.343,16.67 2.699,7.05 6.513,15.39 11.761,24.37 11.859,20.32 25.956,39.24 45.969,52.06 19.319,12.37 41.524,19.63 63.885,24.17 1.795,0.36 3.594,0.71 5.395,1.04 32.673,5.98 66.095,7 98.791,12.85 47.786,8.55 94.42,27.09 133.198,56.34 2.309,1.74 4.68,3.41 7.227,4.79 10.998,5.95 12.431,-0.31 12.451,-0.34 4.587,-7.64 -0.97,-14.59 -6.286,-20.63 -7.875,-8.96 -17.184,-15.9 -26.667,-23.06 -19.203,-14.5 -38.945,-28.4 -59.939,-40.21 -23.801,-13.39 -49.333,-24.03 -76.269,-29.05 -27.223,-5.07 -55.154,-4.33 -82.75,-6.63 -29.659,-2.48 -57.061,-9.6 -81.822,-26.52 -8.393,-5.68 -15.853,-11.83 -22.294,-17.82 -6.455,-5.98 -11.842,-11.84 -16.176,-16.92 -8.65,-10.19 -13.091,-17.18 -13.091,-17.18"
     style="fill:#231f20;fill-opacity:1;fill-rule:nonzero;stroke:none"
     id="path194"
     inkscape:connector-curvature="0" /><path
     d="m -217.62604,2146.618 h 0.028 l 0.054,0.017 c 0.065,0.022 0.225,0.076 -0.082,-0.018"
     style="fill:#231f20;fill-opacity:1;fill-rule:nonzero;stroke:none"
     id="path196"
     inkscape:connector-curvature="0" /><path
     d="m 92.56996,1887.839 c -5.281,6.79 -10.656,13.5 -16.091,20.16 -5.428,6.67 -10.898,13.31 -16.414,19.92 -5.505,6.61 -11.141,13.12 -16.773,19.63 -11.32,12.98 -22.717,25.94 -34.502,38.56 -11.769,12.63 -23.753,25.106 -36.015,37.374 -6.109,6.16 -12.352,12.195 -18.713,18.125 -6.342,5.951 -12.754,11.85 -19.283,17.656 -13.015,11.663 -26.515,22.887 -40.431,33.918 -6.931,5.565 -14.026,11.005 -21.291,16.378 -7.256,5.384 -14.812,10.529 -22.701,15.44 -7.913,4.87 -16.224,9.417 -25.184,13.292 -8.971,3.83 -18.556,7.132 -29.101,9.102 -10.947,-0.621 -21.386,-3.373 -32.303,-4.666 -11.931,-1.413 -23.995,-1.69 -35.981,-0.867 -23.975,1.647 -47.661,7.693 -69.428,17.892 -4.17,1.954 -8.269,4.06 -12.284,6.315 -3.603,2.025 -7.231,5.142 -11.336,5.973 -3.224,0.65 6.989,-18.86 7.738,-20.149 8.652,-14.887 18.357,-29.217 28.428,-43.175 10.293,-14.265 20.513,-28.837 35.094,-38.956 19.552,-13.57 42.62,-22.075 66.32,-24.329 15.417,-1.466 30.926,-0.724 46.206,1.737 8.029,1.293 15.979,3.054 23.828,5.178 3.356,0.909 20.837,8.782 23.179,7.404 1.267,-0.745 2.535,-1.49 3.8,-2.246 7.058,-4.268 13.957,-8.886 20.836,-13.574 6.879,-4.689 13.686,-9.549 20.456,-14.491 6.773,-4.937 13.482,-10.004 20.153,-15.144 l 19.955,-15.577 c 13.284,-10.47 26.401,-21.22 39.368,-32.2 12.966,-10.98 25.926,-22.03 38.686,-33.33 l 19.083,-17.05 c 6.361,-5.69 12.689,-11.43 18.983,-17.2 12.558,-11.58 25.14,-23.2 37.489,-35.02 l 3.904,3.42 c -5.123,6.93 -10.383,13.72 -15.675,20.5"
     style="fill:#231f20;fill-opacity:1;fill-rule:nonzero;stroke:none"
     id="path198"
     inkscape:connector-curvature="0" /><path
     d="m -170.77004,1994.029 c 0,-8.28 -6.716,-15 -15,-15 -8.285,0 -15,6.72 -15,15 0,8.288 6.715,15.003 15,15.003 8.284,0 15,-6.715 15,-15.003"
     style="fill:#ffffff;fill-opacity:1;fill-rule:nonzero;stroke:none"
     id="path200"
     inkscape:connector-curvature="0" /></g><path
   style="fill:#ffff00;fill-rule:evenodd;stroke:#000000;stroke-width:1.73579943;stroke-linecap:butt;stroke-linejoin:miter;stroke-miterlimit:4;stroke-dasharray:none;stroke-opacity:1"
   id="path4511"
   transform="scale(1,-1)"
   sodipodi:type="arc"
   sodipodi:cx="328.40286"
   sodipodi:cy="-838.79547"
   sodipodi:rx="10.656512"
   sodipodi:ry="10.656512"
   sodipodi:start="0"
   sodipodi:end="6.2702699"
   sodipodi:open="true"
   d="m 339.05937,-838.79547 a 10.656512,10.656512 0 0 1 -10.6221,10.65646 10.656512,10.656512 0 0 1 -10.6907,-10.58765 10.656512,10.656512 0 0 1 10.55307,-10.72482 10.656512,10.656512 0 0 1 10.75885,10.51838" /><path
   style="fill:#ffff00;fill-rule:evenodd;stroke:#000000;stroke-width:1.73579943;stroke-linecap:butt;stroke-linejoin:miter;stroke-miterlimit:4;stroke-dasharray:none;stroke-opacity:1"
   id="path4511-0"
   sodipodi:type="arc"
   sodipodi:cx="378.00079"
   sodipodi:cy="-740.76086"
   sodipodi:rx="10.656512"
   sodipodi:ry="10.656512"
   sodipodi:start="0"
   sodipodi:end="6.2702699"
   sodipodi:open="true"
   d="m 388.65731,-740.76086 a 10.656512,10.656512 0 0 1 -10.62211,10.65645 10.656512,10.656512 0 0 1 -10.6907,-10.58764 10.656512,10.656512 0 0 1 10.55307,-10.72483 10.656512,10.656512 0 0 1 10.75885,10.51839"
   transform="scale(1,-1)" /><path
   style="fill:#ffff00;fill-rule:evenodd;stroke:#000000;stroke-width:1.73579943;stroke-linecap:butt;stroke-linejoin:miter;stroke-miterlimit:4;stroke-dasharray:none;stroke-opacity:1"
   id="path4511-06"
   sodipodi:type="arc"
   sodipodi:cx="343.42706"
   sodipodi:cy="-787.74579"
   sodipodi:rx="10.656512"
   sodipodi:ry="10.656512"
   sodipodi:start="0"
   sodipodi:end="6.2702699"
   sodipodi:open="true"
   d="m 354.08358,-787.74579 a 10.656512,10.656512 0 0 1 -10.62211,10.65646 10.656512,10.656512 0 0 1 -10.6907,-10.58764 10.656512,10.656512 0 0 1 10.55307,-10.72483 10.656512,10.656512 0 0 1 10.75885,10.51838"
   transform="scale(1,-1)" /><path
   style="fill:#ffff00;fill-rule:evenodd;stroke:#000000;stroke-width:1.73579943;stroke-linecap:butt;stroke-linejoin:miter;stroke-miterlimit:4;stroke-dasharray:none;stroke-opacity:1"
   id="path4511-3"
   sodipodi:type="arc"
   sodipodi:cx="338.108"
   sodipodi:cy="-751.39886"
   sodipodi:rx="10.656512"
   sodipodi:ry="10.656512"
   sodipodi:start="0"
   sodipodi:end="6.2702699"
   sodipodi:open="true"
   d="m 348.76451,-751.39886 a 10.656512,10.656512 0 0 1 -10.6221,10.65645 10.656512,10.656512 0 0 1 -10.6907,-10.58764 10.656512,10.656512 0 0 1 10.55307,-10.72483 10.656512,10.656512 0 0 1 10.75885,10.51839"
   transform="scale(1,-1)" /><path
   style="fill:#ffff00;fill-rule:evenodd;stroke:#000000;stroke-width:1.73579943;stroke-linecap:butt;stroke-linejoin:miter;stroke-miterlimit:4;stroke-dasharray:none;stroke-opacity:1"
   id="path4511-9"
   sodipodi:type="arc"
   sodipodi:cx="470.19717"
   sodipodi:cy="-854.23364"
   sodipodi:rx="10.656512"
   sodipodi:ry="10.656512"
   sodipodi:start="0"
   sodipodi:end="6.2702699"
   sodipodi:open="true"
   d="m 480.85369,-854.23364 a 10.656512,10.656512 0 0 1 -10.62211,10.65645 10.656512,10.656512 0 0 1 -10.6907,-10.58764 10.656512,10.656512 0 0 1 10.55307,-10.72482 10.656512,10.656512 0 0 1 10.75885,10.51838"
   transform="scale(1,-1)" /><path
   style="fill:#ffff00;fill-rule:evenodd;stroke:#000000;stroke-width:1.73579943;stroke-linecap:butt;stroke-linejoin:miter;stroke-miterlimit:4;stroke-dasharray:none;stroke-opacity:1"
   id="path4511-08"
   sodipodi:type="arc"
   sodipodi:cx="444.48865"
   sodipodi:cy="-768.24249"
   sodipodi:rx="10.656512"
   sodipodi:ry="10.656512"
   sodipodi:start="0"
   sodipodi:end="6.2702699"
   sodipodi:open="true"
   d="m 455.14516,-768.24249 a 10.656512,10.656512 0 0 1 -10.6221,10.65645 10.656512,10.656512 0 0 1 -10.6907,-10.58764 10.656512,10.656512 0 0 1 10.55306,-10.72482 10.656512,10.656512 0 0 1 10.75885,10.51838"
   transform="scale(1,-1)" /><path
   style="fill:#ffff00;fill-rule:evenodd;stroke:#000000;stroke-width:1.73579943;stroke-linecap:butt;stroke-linejoin:miter;stroke-miterlimit:4;stroke-dasharray:none;stroke-opacity:1"
   id="path4511-38"
   sodipodi:type="arc"
   sodipodi:cx="428.53152"
   sodipodi:cy="-830.29803"
   sodipodi:rx="10.656512"
   sodipodi:ry="10.656512"
   sodipodi:start="0"
   sodipodi:end="6.2702699"
   sodipodi:open="true"
   d="m 439.18804,-830.29803 a 10.656512,10.656512 0 0 1 -10.62211,10.65645 10.656512,10.656512 0 0 1 -10.6907,-10.58764 10.656512,10.656512 0 0 1 10.55307,-10.72483 10.656512,10.656512 0 0 1 10.75885,10.51839"
   transform="scale(1,-1)" /><path
   style="fill:#ffff00;fill-rule:evenodd;stroke:#000000;stroke-width:1.73579943;stroke-linecap:butt;stroke-linejoin:miter;stroke-miterlimit:4;stroke-dasharray:none;stroke-opacity:1"
   id="path4511-7"
   sodipodi:type="arc"
   sodipodi:cx="376.22775"
   sodipodi:cy="-873.73669"
   sodipodi:rx="10.656512"
   sodipodi:ry="10.656512"
   sodipodi:start="0"
   sodipodi:end="6.2702699"
   sodipodi:open="true"
   d="m 386.88426,-873.73669 a 10.656512,10.656512 0 0 1 -10.6221,10.65645 10.656512,10.656512 0 0 1 -10.6907,-10.58764 10.656512,10.656512 0 0 1 10.55307,-10.72483 10.656512,10.656512 0 0 1 10.75885,10.51839"
   transform="scale(1,-1)" /><path
   style="color:#000000;clip-rule:nonzero;display:inline;overflow:visible;visibility:visible;opacity:1;isolation:auto;mix-blend-mode:normal;color-interpolation:sRGB;color-interpolation-filters:linearRGB;solid-color:#000000;solid-opacity:1;fill:#ffff00;fill-opacity:1;fill-rule:evenodd;stroke:#000000;stroke-width:1.73579943;stroke-linecap:butt;stroke-linejoin:miter;stroke-miterlimit:4;stroke-dasharray:none;stroke-dashoffset:0;stroke-opacity:1;color-rendering:auto;image-rendering:auto;shape-rendering:auto;text-rendering:auto;enable-background:accumulate"
   d="m 339.65102,761.94289 2.23299,15.25879"
   id="path4568"
   inkscape:connector-type="polyline"
   inkscape:connector-curvature="0"
   inkscape:connection-start="#path4511-3"
   inkscape:connection-end="#path4511-06" /><path
   style="color:#000000;clip-rule:nonzero;display:inline;overflow:visible;visibility:visible;opacity:1;isolation:auto;mix-blend-mode:normal;color-interpolation:sRGB;color-interpolation-filters:linearRGB;solid-color:#000000;solid-opacity:1;fill:#ffff00;fill-opacity:1;fill-rule:evenodd;stroke:#000000;stroke-width:1.73579943;stroke-linecap:butt;stroke-linejoin:miter;stroke-miterlimit:4;stroke-dasharray:none;stroke-dashoffset:0;stroke-opacity:1;color-rendering:auto;image-rendering:auto;shape-rendering:auto;text-rendering:auto;enable-background:accumulate"
   d="m 340.41843,797.96857 -9.00692,30.604"
   id="path4570"
   inkscape:connector-type="polyline"
   inkscape:connector-curvature="0"
   inkscape:connection-start="#path4511-06"
   inkscape:connection-end="#path4511" /><path
   style="fill:none;fill-rule:evenodd;stroke:#000000;stroke-width:0.94679964;stroke-linecap:butt;stroke-linejoin:miter;stroke-miterlimit:4;stroke-dasharray:none;stroke-opacity:1"
   d="m 352.95842,792.51147 66.04178,33.02092"
   id="path4572"
   inkscape:connector-type="polyline"
   inkscape:connector-curvature="0"
   inkscape:connection-start="#path4511-06"
   inkscape:connection-end="#path4511-38" /><path
   style="color:#000000;clip-rule:nonzero;display:inline;overflow:visible;visibility:visible;opacity:1;isolation:auto;mix-blend-mode:normal;color-interpolation:sRGB;color-interpolation-filters:linearRGB;solid-color:#000000;solid-opacity:1;fill:#ffff00;fill-opacity:1;fill-rule:evenodd;stroke:#000000;stroke-width:1.73579943;stroke-linecap:butt;stroke-linejoin:miter;stroke-miterlimit:4;stroke-dasharray:none;stroke-dashoffset:0;stroke-opacity:1;color-rendering:auto;image-rendering:auto;shape-rendering:auto;text-rendering:auto;enable-background:accumulate"
   d="m 338.99664,839.94891 120.6068,13.13131"
   id="path4574"
   inkscape:connector-type="polyline"
   inkscape:connector-curvature="0"
   inkscape:connection-end="#path4511-9"
   inkscape:connection-start="#path4511" /><path
   style="fill:none;fill-rule:evenodd;stroke:#000000;stroke-width:1.26239979;stroke-linecap:butt;stroke-linejoin:miter;stroke-miterlimit:4;stroke-dasharray:none;stroke-opacity:1"
   d="m 383.23826,750.04132 40.05578,70.97624"
   id="path4583"
   inkscape:connector-type="polyline"
   inkscape:connector-curvature="0"
   inkscape:connection-start="#path4511-0"
   inkscape:connection-end="#path4511-38" /><path
   style="fill:none;fill-rule:evenodd;stroke:#000000;stroke-width:1.26239979;stroke-linecap:butt;stroke-linejoin:miter;stroke-miterlimit:4;stroke-dasharray:none;stroke-opacity:1"
   d="M 441.83479,778.56311 431.1854,819.97744"
   id="path4585"
   inkscape:connector-type="polyline"
   inkscape:connector-curvature="0"
   inkscape:connection-start="#path4511-08"
   inkscape:connection-end="#path4511-38" /><path
   style="fill:none;fill-rule:evenodd;stroke:#000000;stroke-width:1.26239979;stroke-linecap:butt;stroke-linejoin:miter;stroke-miterlimit:4;stroke-dasharray:none;stroke-opacity:1"
   d="m 459.76316,856.39918 -73.10141,15.17199"
   id="path4587"
   inkscape:connector-type="polyline"
   inkscape:connector-curvature="0"
   inkscape:connection-start="#path4511-9"
   inkscape:connection-end="#path4511-7" /><path
   style="fill:none;fill-rule:evenodd;stroke:#000000;stroke-width:1.26239979;stroke-linecap:butt;stroke-linejoin:miter;stroke-miterlimit:4;stroke-dasharray:none;stroke-opacity:1"
   d="M 367.62311,867.4501 337.00733,845.08198"
   id="path4589"
   inkscape:connector-type="polyline"
   inkscape:connector-curvature="0"
   inkscape:connection-start="#path4511-7"
   inkscape:connection-end="#path4511" /><use
   id="use12209-4-1"
   style="fill:#ffaaaa;stroke:#000000;stroke-width:0.23431411"
   xlink:href="#LeftArrow"
   transform="matrix(1.8943541,0,0,-0.95766968,211.4626,842.6115)"
   x="0"
   y="0"
   width="100%"
   height="100%" /><path
   style="color:#000000;clip-rule:nonzero;display:inline;overflow:visible;visibility:visible;opacity:1;isolation:auto;mix-blend-mode:normal;color-interpolation:sRGB;color-interpolation-filters:linearRGB;solid-color:#000000;solid-opacity:1;fill:none;fill-opacity:1;fill-rule:evenodd;stroke:#000000;stroke-width:2.33543968;stroke-linecap:butt;stroke-linejoin:miter;stroke-miterlimit:4;stroke-dasharray:9.34175745, 2.33543935;stroke-dashoffset:0;stroke-opacity:1;marker:none;marker-end:url(#Arrow1Lend-03-9);color-rendering:auto;image-rendering:auto;shape-rendering:auto;text-rendering:auto;enable-background:accumulate"
   d="m 232.87857,747.06896 100.17506,22.1626"
   id="path4591-8-5"
   inkscape:connector-curvature="0"
   sodipodi:nodetypes="cc" /><path
   style="color:#000000;clip-rule:nonzero;display:inline;overflow:visible;visibility:visible;opacity:1;isolation:auto;mix-blend-mode:normal;color-interpolation:sRGB;color-interpolation-filters:linearRGB;solid-color:#000000;solid-opacity:1;fill:#ffffff;fill-opacity:0.6004963;fill-rule:evenodd;stroke:#000000;stroke-width:1.32551956;stroke-linecap:butt;stroke-linejoin:miter;stroke-miterlimit:4;stroke-dasharray:none;stroke-dashoffset:0;stroke-opacity:1;marker:none;color-rendering:auto;image-rendering:auto;shape-rendering:auto;text-rendering:auto;enable-background:accumulate"
   d="m 262.41511,861.83327 -62.35359,40.93238 0.70875,-136.01119 61.72274,-78.1984 z"
   id="path5330"
   inkscape:connector-curvature="0"
   sodipodi:nodetypes="ccccc" /><path
   style="fill:#ff0000;fill-rule:evenodd;stroke:#000000;stroke-width:0.35759711px;stroke-linecap:butt;stroke-linejoin:miter;stroke-opacity:1"
   id="path5318"
   transform="matrix(0.77890723,-0.62713916,0,-1,0,0)"
   sodipodi:type="arc"
   sodipodi:cx="287.25998"
   sodipodi:cy="-1017.5422"
   sodipodi:rx="12.519535"
   sodipodi:ry="14.184079"
   sodipodi:start="0"
   sodipodi:end="6.2702699"
   sodipodi:open="true"
   d="m 299.77951,-1017.5422 a 12.519535,14.184079 0 0 1 -12.47911,14.184 12.519535,14.184079 0 0 1 -12.55969,-14.0924 12.519535,14.184079 0 0 1 12.398,-14.275 12.519535,14.184079 0 0 1 12.63976,14.0002" /><rect
   style="color:#000000;display:inline;overflow:visible;visibility:visible;fill:#008000;fill-rule:evenodd;stroke:#000000;stroke-width:0.38765669px;stroke-linecap:butt;stroke-linejoin:miter;stroke-miterlimit:4;stroke-dasharray:none;stroke-dashoffset:0;stroke-opacity:1;marker:none;enable-background:accumulate"
   id="rect5320"
   width="28.088022"
   height="24.822142"
   x="324.20847"
   y="-1060.5326"
   transform="matrix(0.66279511,-0.74880081,0,-1,0,0)" /><rect
   style="color:#000000;display:inline;overflow:visible;visibility:visible;fill:#ff5555;fill-rule:evenodd;stroke:#000000;stroke-width:0.40029317px;stroke-linecap:butt;stroke-linejoin:miter;stroke-miterlimit:4;stroke-dasharray:none;stroke-dashoffset:0;stroke-opacity:1;marker:none;enable-background:accumulate"
   id="rect5322"
   width="35.653645"
   height="18.616604"
   x="354.24658"
   y="-1049.0601"
   transform="matrix(0.62160894,-0.78332772,0,-1,0,0)" /><path
   style="color:#000000;clip-rule:nonzero;display:inline;overflow:visible;visibility:visible;opacity:1;isolation:auto;mix-blend-mode:normal;color-interpolation:sRGB;color-interpolation-filters:linearRGB;solid-color:#000000;solid-opacity:1;fill:none;fill-opacity:1;fill-rule:evenodd;stroke:#000000;stroke-width:0.31559995px;stroke-linecap:butt;stroke-linejoin:miter;stroke-miterlimit:4;stroke-dasharray:none;stroke-dashoffset:0;stroke-opacity:1;marker:none;color-rendering:auto;image-rendering:auto;shape-rendering:auto;text-rendering:auto;enable-background:accumulate"
   d="m 233.43482,780.39462 5.64166,-4.70143 -0.31343,-28.20835"
   id="path5326"
   inkscape:connector-curvature="0"
   sodipodi:nodetypes="ccc" /><path
   style="color:#000000;clip-rule:nonzero;display:inline;overflow:visible;visibility:visible;opacity:1;isolation:auto;mix-blend-mode:normal;color-interpolation:sRGB;color-interpolation-filters:linearRGB;solid-color:#000000;solid-opacity:1;fill:none;fill-opacity:1;fill-rule:evenodd;stroke:#000000;stroke-width:0.31559995px;stroke-linecap:butt;stroke-linejoin:miter;stroke-miterlimit:4;stroke-dasharray:none;stroke-dashoffset:0;stroke-opacity:1;marker:none;color-rendering:auto;image-rendering:auto;shape-rendering:auto;text-rendering:auto;enable-background:accumulate"
   d="M 223.40516,824.90121 V 807.66272"
   id="path5328"
   inkscape:connector-curvature="0" /><g
   transform="matrix(2.7851493,0,0,-2.7851493,4.9374796,759.61467)"
   style="fill:none;fill-rule:evenodd;stroke:none;stroke-width:1"
   id="Page-1"><g
     style="fill:#000000"
     id="icon-3-high-five"><path
       inkscape:connector-curvature="0"
       d="m 28.12442,21.5 c 0,4.694421 -3.805579,8.5 -8.5,8.5 -3.112915,0 -6.398193,-1.452514 -8.659179,-5.571777 C 7.7017521,18.482516 3.5282732,14.583208 5.5155336,12.595947 6.9371827,11.174298 9.169262,12.538167 11.12442,14.366787 v 0 -7.8583784 C 11.12442,5.1154175 12.243709,4 13.62442,4 14.189281,4 14.707813,4.1853711 15.124425,4.4983914 15.127148,3.1148807 16.245391,2 17.62442,2 c 1.389845,0 2.499213,1.1200403 2.5,2.5019846 C 20.54225,4.1870845 21.061617,4 21.62442,4 c 1.390338,0 2.5,1.120552 2.5,2.5028229 V 7.4976725 C 24.542251,7.1850463 25.061617,7 25.62442,7 c 1.390338,0 2.5,1.1159924 2.5,2.4926389 z m -8.5,7.5 C 15.864705,28.999542 13.634416,26.948888 11.871796,23.983094 7.9597823,17.400722 5.1582833,14.388756 6.245453,13.295715 c 1.1105971,-1.116594 3.820568,1.302209 5.878967,3.50263 V 6.4930963 C 12.12442,5.6638858 12.795993,5 13.62442,5 c 0.834203,0 1.5,0.668482 1.5,1.4930963 V 16 h 1 V 4.4908981 C 16.12442,3.6762201 16.795993,3 17.62442,3 c 0.834203,0 1.5,0.6674978 1.5,1.4908981 V 15 h 1 V 6.5037099 C 20.12442,5.661977 20.795993,5 21.62442,5 c 0.834203,0 1.5,0.6732339 1.5,1.5037099 V 16 h 1 V 9.4912653 C 24.12442,8.6625444 24.795993,8 25.62442,8 c 0.834203,0 1.5,0.6676622 1.5,1.4912653 V 17.754367 21.5 c 0,4.142136 -3.357864,7.5 -7.5,7.5 z"
       id="high-five" /></g></g><path
   style="color:#000000;clip-rule:nonzero;display:inline;overflow:visible;visibility:visible;opacity:1;isolation:auto;mix-blend-mode:normal;color-interpolation:sRGB;color-interpolation-filters:linearRGB;solid-color:#000000;solid-opacity:1;fill:none;fill-opacity:1;fill-rule:evenodd;stroke:#000000;stroke-width:2.33543968;stroke-linecap:butt;stroke-linejoin:miter;stroke-miterlimit:4;stroke-dasharray:none;stroke-dashoffset:0;stroke-opacity:1;marker:none;marker-end:url(#Arrow1Lend-03);color-rendering:auto;image-rendering:auto;shape-rendering:auto;text-rendering:auto;enable-background:accumulate"
   d="M 88.647843,717.71188 222.5101,746.96656"
   id="path4591-8"
   inkscape:connector-curvature="0"
   sodipodi:nodetypes="cc" /><use
   id="use12209-4"
   style="fill:#ffaaaa;stroke:#000000;stroke-width:0.25285485"
   xlink:href="#LeftArrow"
   transform="matrix(1.6267301,0,0,-0.95766968,84.884747,841.72502)"
   x="0"
   y="0"
   width="100%"
   height="100%" /><text
   xml:space="preserve"
   style="color:#000000;font-style:normal;font-variant:normal;font-weight:normal;font-stretch:normal;font-size:4.73399878px;line-height:0%;font-family:Arial;-inkscape-font-specification:'Arial, Normal';text-indent:0;text-align:start;text-decoration:none;text-decoration-line:none;text-decoration-style:solid;text-decoration-color:#000000;letter-spacing:0px;word-spacing:0px;text-transform:none;writing-mode:lr-tb;direction:ltr;baseline-shift:baseline;text-anchor:start;white-space:normal;clip-rule:nonzero;display:inline;overflow:visible;visibility:visible;opacity:1;isolation:auto;mix-blend-mode:normal;color-interpolation:sRGB;color-interpolation-filters:linearRGB;solid-color:#000000;solid-opacity:1;fill:#000000;fill-opacity:1;fill-rule:nonzero;stroke:none;stroke-width:0.39449984px;stroke-linecap:butt;stroke-linejoin:miter;stroke-miterlimit:4;stroke-dasharray:none;stroke-dashoffset:0;stroke-opacity:1;color-rendering:auto;image-rendering:auto;shape-rendering:auto;text-rendering:auto;enable-background:accumulate"
   x="349.6568"
   y="-701.22968"
   id="text14028"
   transform="scale(1,-1)"><tspan
     sodipodi:role="line"
     id="tspan14030"
     x="349.6568"
     y="-701.22968"
     style="font-size:35.57324219px;line-height:1.25;stroke-width:0.39449984px">AST</tspan></text>

<text
   xml:space="preserve"
   style="color:#000000;font-style:normal;font-variant:normal;font-weight:normal;font-stretch:normal;font-size:4.73399878px;line-height:0%;font-family:Arial;-inkscape-font-specification:'Arial, Normal';text-indent:0;text-align:start;text-decoration:none;text-decoration-line:none;text-decoration-style:solid;text-decoration-color:#000000;letter-spacing:0px;word-spacing:0px;text-transform:none;writing-mode:lr-tb;direction:ltr;baseline-shift:baseline;text-anchor:start;white-space:normal;clip-rule:nonzero;display:inline;overflow:visible;visibility:visible;opacity:1;isolation:auto;mix-blend-mode:normal;color-interpolation:sRGB;color-interpolation-filters:linearRGB;solid-color:#000000;solid-opacity:1;fill:#ff0000;fill-opacity:1;fill-rule:nonzero;stroke:none;stroke-width:0.39449984px;stroke-linecap:butt;stroke-linejoin:miter;stroke-miterlimit:4;stroke-dasharray:none;stroke-dashoffset:0;stroke-opacity:1;color-rendering:auto;image-rendering:auto;shape-rendering:auto;text-rendering:auto;enable-background:accumulate"
   x="830.14081"
   y="289.66028"
   id="text14032"
   transform="matrix(0,1,1,0,0,0)"><tspan
     sodipodi:role="line"
     id="tspan14034"
     x="830.14081"
     y="289.66028"
     style="font-size:19.02215385px;line-height:1.25;stroke-width:0.39449984px">Projekcija</tspan></text>

</g></svg>