<?xml version="1.0" encoding="UTF-8" standalone="no"?>
<!-- Created with Inkscape (http://www.inkscape.org/) -->

<svg
   xmlns:dc="http://purl.org/dc/elements/1.1/"
   xmlns:cc="http://creativecommons.org/ns#"
   xmlns:rdf="http://www.w3.org/1999/02/22-rdf-syntax-ns#"
   xmlns:svg="http://www.w3.org/2000/svg"
   xmlns="http://www.w3.org/2000/svg"
   xmlns:sodipodi="http://sodipodi.sourceforge.net/DTD/sodipodi-0.dtd"
   xmlns:inkscape="http://www.inkscape.org/namespaces/inkscape"
   width="625.91791"
   height="410.61844"
   id="svg5312"
   version="1.1"
   inkscape:version="0.91 r13725"
   sodipodi:docname="Oddball.svg"
   inkscape:export-filename="/home/igor/Dropbox/Deljeno-Mirjana/doktorat/statistika/grafikoni/Odball.png"
   inkscape:export-xdpi="149.92021"
   inkscape:export-ydpi="149.92021">
  <sodipodi:namedview
     id="base"
     pagecolor="#ffffff"
     bordercolor="#666666"
     borderopacity="1.0"
     inkscape:pageopacity="0.0"
     inkscape:pageshadow="2"
     inkscape:zoom="1.4"
     inkscape:cx="265.83143"
     inkscape:cy="234.12239"
     inkscape:document-units="px"
     inkscape:current-layer="layer1"
     showgrid="false"
     inkscape:window-width="1881"
     inkscape:window-height="1163"
     inkscape:window-x="47"
     inkscape:window-y="12"
     inkscape:window-maximized="1"
     fit-margin-top="0"
     fit-margin-left="0"
     fit-margin-right="0"
     fit-margin-bottom="0" />
  <defs
     id="defs5314">
    <marker
       style="overflow:visible"
       id="Arrow1Mend"
       refX="0"
       refY="0"
       orient="auto"
       inkscape:stockid="Arrow1Mend">
      <path
         inkscape:connector-curvature="0"
         transform="matrix(-0.4,0,0,-0.4,-4,0)"
         style="fill-rule:evenodd;stroke:#000000;stroke-width:1pt"
         d="M 0,0 5,-5 -12.5,0 5,5 0,0 Z"
         id="path3883" />
    </marker>
    <marker
       style="overflow:visible"
       id="Arrow1Lend"
       refX="0"
       refY="0"
       orient="auto"
       inkscape:stockid="Arrow1Lend">
      <path
         inkscape:connector-curvature="0"
         transform="matrix(-0.8,0,0,-0.8,-10,0)"
         style="fill-rule:evenodd;stroke:#000000;stroke-width:1pt"
         d="M 0,0 5,-5 -12.5,0 5,5 0,0 Z"
         id="path3877" />
    </marker>
    <marker
       style="overflow:visible"
       id="Arrow1MendY"
       refX="0"
       refY="0"
       orient="auto"
       inkscape:stockid="Arrow1MendY">
      <path
         inkscape:connector-curvature="0"
         transform="matrix(-0.4,0,0,-0.4,-4,0)"
         style="fill:#ffff00;fill-rule:evenodd;stroke:#ffff00;stroke-width:1pt"
         d="M 0,0 5,-5 -12.5,0 5,5 0,0 Z"
         id="path6298" />
    </marker>
    <marker
       style="overflow:visible"
       id="Arrow1Mend4"
       refX="0"
       refY="0"
       orient="auto"
       inkscape:stockid="Arrow1Mend4">
      <path
         inkscape:connector-curvature="0"
         transform="matrix(-0.4,0,0,-0.4,-4,0)"
         style="fill:#ffff00;fill-rule:evenodd;stroke:#ffff00;stroke-width:1pt"
         d="M 0,0 5,-5 -12.5,0 5,5 0,0 Z"
         id="path6301" />
    </marker>
    <marker
       style="overflow:visible"
       id="Arrow1Mendm"
       refX="0"
       refY="0"
       orient="auto"
       inkscape:stockid="Arrow1Mendm">
      <path
         inkscape:connector-curvature="0"
         transform="matrix(-0.4,0,0,-0.4,-4,0)"
         style="fill:#ffff00;fill-rule:evenodd;stroke:#ffff00;stroke-width:1pt"
         d="M 0,0 5,-5 -12.5,0 5,5 0,0 Z"
         id="path6304" />
    </marker>
    <marker
       style="overflow:visible"
       id="Arrow1Menda"
       refX="0"
       refY="0"
       orient="auto"
       inkscape:stockid="Arrow1Menda">
      <path
         inkscape:connector-curvature="0"
         transform="matrix(-0.4,0,0,-0.4,-4,0)"
         style="fill:#ffff00;fill-rule:evenodd;stroke:#ffff00;stroke-width:1pt"
         d="M 0,0 5,-5 -12.5,0 5,5 0,0 Z"
         id="path6307" />
    </marker>
    <marker
       style="overflow:visible"
       id="Arrow1Mende"
       refX="0"
       refY="0"
       orient="auto"
       inkscape:stockid="Arrow1Mende">
      <path
         inkscape:connector-curvature="0"
         transform="matrix(-0.4,0,0,-0.4,-4,0)"
         style="fill:#ffff00;fill-rule:evenodd;stroke:#ffff00;stroke-width:1pt"
         d="M 0,0 5,-5 -12.5,0 5,5 0,0 Z"
         id="path6310" />
    </marker>
    <marker
       style="overflow:visible"
       id="Arrow1MendW"
       refX="0"
       refY="0"
       orient="auto"
       inkscape:stockid="Arrow1MendW">
      <path
         inkscape:connector-curvature="0"
         transform="matrix(-0.4,0,0,-0.4,-4,0)"
         style="fill:#ffff00;fill-rule:evenodd;stroke:#ffff00;stroke-width:1pt"
         d="M 0,0 5,-5 -12.5,0 5,5 0,0 Z"
         id="path6313" />
    </marker>
    <marker
       style="overflow:visible"
       id="Arrow1Mendq"
       refX="0"
       refY="0"
       orient="auto"
       inkscape:stockid="Arrow1Mendq">
      <path
         inkscape:connector-curvature="0"
         transform="matrix(-0.4,0,0,-0.4,-4,0)"
         style="fill:#ffff00;fill-rule:evenodd;stroke:#ffff00;stroke-width:1pt"
         d="M 0,0 5,-5 -12.5,0 5,5 0,0 Z"
         id="path6316" />
    </marker>
    <marker
       style="overflow:visible"
       id="Arrow1Mendr"
       refX="0"
       refY="0"
       orient="auto"
       inkscape:stockid="Arrow1Mendr">
      <path
         inkscape:connector-curvature="0"
         transform="matrix(-0.4,0,0,-0.4,-4,0)"
         style="fill:#ffff00;fill-rule:evenodd;stroke:#ffff00;stroke-width:1pt"
         d="M 0,0 5,-5 -12.5,0 5,5 0,0 Z"
         id="path6319" />
    </marker>
    <marker
       style="overflow:visible"
       id="Arrow1MendA"
       refX="0"
       refY="0"
       orient="auto"
       inkscape:stockid="Arrow1MendA">
      <path
         inkscape:connector-curvature="0"
         transform="matrix(-0.4,0,0,-0.4,-4,0)"
         style="fill:#ffff00;fill-rule:evenodd;stroke:#ffff00;stroke-width:1pt"
         d="M 0,0 5,-5 -12.5,0 5,5 0,0 Z"
         id="path6322" />
    </marker>
    <marker
       style="overflow:visible"
       id="Arrow1Mend8"
       refX="0"
       refY="0"
       orient="auto"
       inkscape:stockid="Arrow1Mend8">
      <path
         inkscape:connector-curvature="0"
         transform="matrix(-0.4,0,0,-0.4,-4,0)"
         style="fill:#ffff00;fill-rule:evenodd;stroke:#ffff00;stroke-width:1pt"
         d="M 0,0 5,-5 -12.5,0 5,5 0,0 Z"
         id="path6325" />
    </marker>
    <marker
       style="overflow:visible"
       id="Arrow1Mendi"
       refX="0"
       refY="0"
       orient="auto"
       inkscape:stockid="Arrow1Mendi">
      <path
         inkscape:connector-curvature="0"
         transform="matrix(-0.4,0,0,-0.4,-4,0)"
         style="fill:#ffff00;fill-rule:evenodd;stroke:#ffff00;stroke-width:1pt"
         d="M 0,0 5,-5 -12.5,0 5,5 0,0 Z"
         id="path6328" />
    </marker>
    <marker
       style="overflow:visible"
       id="Arrow1MendaV"
       refX="0"
       refY="0"
       orient="auto"
       inkscape:stockid="Arrow1MendaV">
      <path
         inkscape:connector-curvature="0"
         transform="matrix(-0.4,0,0,-0.4,-4,0)"
         style="fill:#ffff00;fill-rule:evenodd;stroke:#ffff00;stroke-width:1pt"
         d="M 0,0 5,-5 -12.5,0 5,5 0,0 Z"
         id="path6331" />
    </marker>
    <marker
       style="overflow:visible"
       id="Arrow1MendK"
       refX="0"
       refY="0"
       orient="auto"
       inkscape:stockid="Arrow1MendK">
      <path
         inkscape:connector-curvature="0"
         transform="matrix(-0.4,0,0,-0.4,-4,0)"
         style="fill:#ffff00;fill-rule:evenodd;stroke:#ffff00;stroke-width:1pt"
         d="M 0,0 5,-5 -12.5,0 5,5 0,0 Z"
         id="path6334" />
    </marker>
    <marker
       style="overflow:visible"
       id="Arrow1MendKV"
       refX="0"
       refY="0"
       orient="auto"
       inkscape:stockid="Arrow1MendKV">
      <path
         inkscape:connector-curvature="0"
         transform="matrix(-0.4,0,0,-0.4,-4,0)"
         style="fill:#ffff00;fill-rule:evenodd;stroke:#ffff00;stroke-width:1pt"
         d="M 0,0 5,-5 -12.5,0 5,5 0,0 Z"
         id="path6337" />
    </marker>
    <marker
       style="overflow:visible"
       id="Arrow1Mendr2"
       refX="0"
       refY="0"
       orient="auto"
       inkscape:stockid="Arrow1Mendr2">
      <path
         inkscape:connector-curvature="0"
         transform="matrix(-0.4,0,0,-0.4,-4,0)"
         style="fill:#ff0000;fill-rule:evenodd;stroke:#ff0000;stroke-width:1pt"
         d="M 0,0 5,-5 -12.5,0 5,5 0,0 Z"
         id="path6441" />
    </marker>
    <marker
       style="overflow:visible"
       id="Arrow1MendYG"
       refX="0"
       refY="0"
       orient="auto"
       inkscape:stockid="Arrow1MendYG">
      <path
         inkscape:connector-curvature="0"
         transform="matrix(-0.4,0,0,-0.4,-4,0)"
         style="fill:#ff0000;fill-rule:evenodd;stroke:#ff0000;stroke-width:1pt"
         d="M 0,0 5,-5 -12.5,0 5,5 0,0 Z"
         id="path6444" />
    </marker>
    <marker
       style="overflow:visible"
       id="Arrow1Mend4l"
       refX="0"
       refY="0"
       orient="auto"
       inkscape:stockid="Arrow1Mend4l">
      <path
         inkscape:connector-curvature="0"
         transform="matrix(-0.4,0,0,-0.4,-4,0)"
         style="fill:#ff0000;fill-rule:evenodd;stroke:#ff0000;stroke-width:1pt"
         d="M 0,0 5,-5 -12.5,0 5,5 0,0 Z"
         id="path6447" />
    </marker>
    <marker
       style="overflow:visible"
       id="Arrow1MendaVi"
       refX="0"
       refY="0"
       orient="auto"
       inkscape:stockid="Arrow1MendaVi">
      <path
         inkscape:connector-curvature="0"
         transform="matrix(-0.4,0,0,-0.4,-4,0)"
         style="fill:#ff0000;fill-rule:evenodd;stroke:#ff0000;stroke-width:1pt"
         d="M 0,0 5,-5 -12.5,0 5,5 0,0 Z"
         id="path6450" />
    </marker>
    <marker
       style="overflow:visible"
       id="Arrow1MendP"
       refX="0"
       refY="0"
       orient="auto"
       inkscape:stockid="Arrow1MendP">
      <path
         inkscape:connector-curvature="0"
         transform="matrix(-0.4,0,0,-0.4,-4,0)"
         style="fill:#ffff00;fill-rule:evenodd;stroke:#ffff00;stroke-width:1pt"
         d="M 0,0 5,-5 -12.5,0 5,5 0,0 Z"
         id="path6797" />
    </marker>
    <marker
       style="overflow:visible"
       id="Arrow1MendmY"
       refX="0"
       refY="0"
       orient="auto"
       inkscape:stockid="Arrow1MendmY">
      <path
         inkscape:connector-curvature="0"
         transform="matrix(-0.4,0,0,-0.4,-4,0)"
         style="fill:#000000;fill-rule:evenodd;stroke:#000000;stroke-width:1pt"
         d="M 0,0 5,-5 -12.5,0 5,5 0,0 Z"
         id="path6936" />
    </marker>
    <marker
       style="overflow:visible"
       id="Arrow1MendaU"
       refX="0"
       refY="0"
       orient="auto"
       inkscape:stockid="Arrow1MendaU">
      <path
         inkscape:connector-curvature="0"
         transform="matrix(-0.4,0,0,-0.4,-4,0)"
         style="fill:#000000;fill-rule:evenodd;stroke:#000000;stroke-width:1pt"
         d="M 0,0 5,-5 -12.5,0 5,5 0,0 Z"
         id="path6939" />
    </marker>
    <marker
       style="overflow:visible"
       id="Arrow1Mendet"
       refX="0"
       refY="0"
       orient="auto"
       inkscape:stockid="Arrow1Mendet">
      <path
         inkscape:connector-curvature="0"
         transform="matrix(-0.4,0,0,-0.4,-4,0)"
         style="fill:#000000;fill-rule:evenodd;stroke:#000000;stroke-width:1pt"
         d="M 0,0 5,-5 -12.5,0 5,5 0,0 Z"
         id="path6942" />
    </marker>
    <marker
       style="overflow:visible"
       id="Arrow1MendWs"
       refX="0"
       refY="0"
       orient="auto"
       inkscape:stockid="Arrow1MendWs">
      <path
         inkscape:connector-curvature="0"
         transform="matrix(-0.4,0,0,-0.4,-4,0)"
         style="fill:#000000;fill-rule:evenodd;stroke:#000000;stroke-width:1pt"
         d="M 0,0 5,-5 -12.5,0 5,5 0,0 Z"
         id="path6945" />
    </marker>
    <marker
       style="overflow:visible"
       id="Arrow1MendqJ"
       refX="0"
       refY="0"
       orient="auto"
       inkscape:stockid="Arrow1MendqJ">
      <path
         inkscape:connector-curvature="0"
         transform="matrix(-0.4,0,0,-0.4,-4,0)"
         style="fill:#000000;fill-rule:evenodd;stroke:#000000;stroke-width:1pt"
         d="M 0,0 5,-5 -12.5,0 5,5 0,0 Z"
         id="path6948" />
    </marker>
    <marker
       style="overflow:visible"
       id="Arrow1MendAD"
       refX="0"
       refY="0"
       orient="auto"
       inkscape:stockid="Arrow1MendAD">
      <path
         inkscape:connector-curvature="0"
         transform="matrix(-0.4,0,0,-0.4,-4,0)"
         style="fill:#000000;fill-rule:evenodd;stroke:#000000;stroke-width:1pt"
         d="M 0,0 5,-5 -12.5,0 5,5 0,0 Z"
         id="path6951" />
    </marker>
    <marker
       style="overflow:visible"
       id="Arrow1Mend8x"
       refX="0"
       refY="0"
       orient="auto"
       inkscape:stockid="Arrow1Mend8x">
      <path
         inkscape:connector-curvature="0"
         transform="matrix(-0.4,0,0,-0.4,-4,0)"
         style="fill:#000000;fill-rule:evenodd;stroke:#000000;stroke-width:1pt"
         d="M 0,0 5,-5 -12.5,0 5,5 0,0 Z"
         id="path6954" />
    </marker>
    <marker
       style="overflow:visible"
       id="Arrow1MendiV"
       refX="0"
       refY="0"
       orient="auto"
       inkscape:stockid="Arrow1MendiV">
      <path
         inkscape:connector-curvature="0"
         transform="matrix(-0.4,0,0,-0.4,-4,0)"
         style="fill:#000000;fill-rule:evenodd;stroke:#000000;stroke-width:1pt"
         d="M 0,0 5,-5 -12.5,0 5,5 0,0 Z"
         id="path6957" />
    </marker>
    <marker
       style="overflow:visible"
       id="Arrow1MendKi"
       refX="0"
       refY="0"
       orient="auto"
       inkscape:stockid="Arrow1MendKi">
      <path
         inkscape:connector-curvature="0"
         transform="matrix(-0.4,0,0,-0.4,-4,0)"
         style="fill:#000000;fill-rule:evenodd;stroke:#000000;stroke-width:1pt"
         d="M 0,0 5,-5 -12.5,0 5,5 0,0 Z"
         id="path6960" />
    </marker>
    <marker
       style="overflow:visible"
       id="Arrow1MendKV0"
       refX="0"
       refY="0"
       orient="auto"
       inkscape:stockid="Arrow1MendKV0">
      <path
         inkscape:connector-curvature="0"
         transform="matrix(-0.4,0,0,-0.4,-4,0)"
         style="fill:#000000;fill-rule:evenodd;stroke:#000000;stroke-width:1pt"
         d="M 0,0 5,-5 -12.5,0 5,5 0,0 Z"
         id="path6963" />
    </marker>
    <marker
       style="overflow:visible"
       id="Arrow1MendPe"
       refX="0"
       refY="0"
       orient="auto"
       inkscape:stockid="Arrow1MendPe">
      <path
         inkscape:connector-curvature="0"
         transform="matrix(-0.4,0,0,-0.4,-4,0)"
         style="fill:#000000;fill-rule:evenodd;stroke:#000000;stroke-width:1pt"
         d="M 0,0 5,-5 -12.5,0 5,5 0,0 Z"
         id="path7138" />
    </marker>
    <marker
       style="overflow:visible"
       id="Arrow1MendP2"
       refX="0"
       refY="0"
       orient="auto"
       inkscape:stockid="Arrow1MendP2">
      <path
         inkscape:connector-curvature="0"
         transform="matrix(-0.4,0,0,-0.4,-4,0)"
         style="fill:#000000;fill-rule:evenodd;stroke:#000000;stroke-width:1pt"
         d="M 0,0 5,-5 -12.5,0 5,5 0,0 Z"
         id="path7141" />
    </marker>
    <marker
       style="overflow:visible"
       id="Arrow1MendmY5"
       refX="0"
       refY="0"
       orient="auto"
       inkscape:stockid="Arrow1MendmY5">
      <path
         inkscape:connector-curvature="0"
         transform="matrix(-0.4,0,0,-0.4,-4,0)"
         style="fill:#ffff00;fill-rule:evenodd;stroke:#ffff00;stroke-width:1pt"
         d="M 0,0 5,-5 -12.5,0 5,5 0,0 Z"
         id="path4148" />
    </marker>
    <marker
       style="overflow:visible"
       id="Arrow1MendaUC"
       refX="0"
       refY="0"
       orient="auto"
       inkscape:stockid="Arrow1MendaUC">
      <path
         inkscape:connector-curvature="0"
         transform="matrix(-0.4,0,0,-0.4,-4,0)"
         style="fill:#ffff00;fill-rule:evenodd;stroke:#ffff00;stroke-width:1pt"
         d="M 0,0 5,-5 -12.5,0 5,5 0,0 Z"
         id="path4151" />
    </marker>
    <marker
       style="overflow:visible"
       id="Arrow1MendetG"
       refX="0"
       refY="0"
       orient="auto"
       inkscape:stockid="Arrow1MendetG">
      <path
         inkscape:connector-curvature="0"
         transform="matrix(-0.4,0,0,-0.4,-4,0)"
         style="fill:#ffff00;fill-rule:evenodd;stroke:#ffff00;stroke-width:1pt"
         d="M 0,0 5,-5 -12.5,0 5,5 0,0 Z"
         id="path4154" />
    </marker>
    <marker
       style="overflow:visible"
       id="Arrow1MendWs1"
       refX="0"
       refY="0"
       orient="auto"
       inkscape:stockid="Arrow1MendWs1">
      <path
         inkscape:connector-curvature="0"
         transform="matrix(-0.4,0,0,-0.4,-4,0)"
         style="fill:#ffff00;fill-rule:evenodd;stroke:#ffff00;stroke-width:1pt"
         d="M 0,0 5,-5 -12.5,0 5,5 0,0 Z"
         id="path4157" />
    </marker>
    <marker
       style="overflow:visible"
       id="Arrow1MendqJe"
       refX="0"
       refY="0"
       orient="auto"
       inkscape:stockid="Arrow1MendqJe">
      <path
         inkscape:connector-curvature="0"
         transform="matrix(-0.4,0,0,-0.4,-4,0)"
         style="fill:#ffff00;fill-rule:evenodd;stroke:#ffff00;stroke-width:1pt"
         d="M 0,0 5,-5 -12.5,0 5,5 0,0 Z"
         id="path4160" />
    </marker>
    <marker
       style="overflow:visible"
       id="Arrow1MendADE"
       refX="0"
       refY="0"
       orient="auto"
       inkscape:stockid="Arrow1MendADE">
      <path
         inkscape:connector-curvature="0"
         transform="matrix(-0.4,0,0,-0.4,-4,0)"
         style="fill:#ffff00;fill-rule:evenodd;stroke:#ffff00;stroke-width:1pt"
         d="M 0,0 5,-5 -12.5,0 5,5 0,0 Z"
         id="path4163" />
    </marker>
    <marker
       style="overflow:visible"
       id="Arrow1Mend8xJ"
       refX="0"
       refY="0"
       orient="auto"
       inkscape:stockid="Arrow1Mend8xJ">
      <path
         inkscape:connector-curvature="0"
         transform="matrix(-0.4,0,0,-0.4,-4,0)"
         style="fill:#ffff00;fill-rule:evenodd;stroke:#ffff00;stroke-width:1pt"
         d="M 0,0 5,-5 -12.5,0 5,5 0,0 Z"
         id="path4166" />
    </marker>
    <marker
       style="overflow:visible"
       id="Arrow1MendiVs"
       refX="0"
       refY="0"
       orient="auto"
       inkscape:stockid="Arrow1MendiVs">
      <path
         inkscape:connector-curvature="0"
         transform="matrix(-0.4,0,0,-0.4,-4,0)"
         style="fill:#ffff00;fill-rule:evenodd;stroke:#ffff00;stroke-width:1pt"
         d="M 0,0 5,-5 -12.5,0 5,5 0,0 Z"
         id="path4169" />
    </marker>
    <marker
       style="overflow:visible"
       id="Arrow1MendKi5"
       refX="0"
       refY="0"
       orient="auto"
       inkscape:stockid="Arrow1MendKi5">
      <path
         inkscape:connector-curvature="0"
         transform="matrix(-0.4,0,0,-0.4,-4,0)"
         style="fill:#ffff00;fill-rule:evenodd;stroke:#ffff00;stroke-width:1pt"
         d="M 0,0 5,-5 -12.5,0 5,5 0,0 Z"
         id="path4172" />
    </marker>
    <marker
       style="overflow:visible"
       id="Arrow1MendKV03"
       refX="0"
       refY="0"
       orient="auto"
       inkscape:stockid="Arrow1MendKV03">
      <path
         inkscape:connector-curvature="0"
         transform="matrix(-0.4,0,0,-0.4,-4,0)"
         style="fill:#ffff00;fill-rule:evenodd;stroke:#ffff00;stroke-width:1pt"
         d="M 0,0 5,-5 -12.5,0 5,5 0,0 Z"
         id="path4175" />
    </marker>
    <marker
       style="overflow:visible"
       id="Arrow1MendqJK"
       refX="0"
       refY="0"
       orient="auto"
       inkscape:stockid="Arrow1MendqJK">
      <path
         inkscape:connector-curvature="0"
         transform="matrix(-0.4,0,0,-0.4,-4,0)"
         style="stroke-opacity:1;fill-rule:evenodd;fill-opacity:1;stroke:#ffff00;stroke-width:1pt;fill:#ffff00"
         d="M 0,0 5,-5 -12.5,0 5,5 0,0 Z"
         id="path4591" />
    </marker>
    <marker
       style="overflow:visible"
       id="Arrow1MendqJX"
       refX="0"
       refY="0"
       orient="auto"
       inkscape:stockid="Arrow1MendqJX">
      <path
         inkscape:connector-curvature="0"
         transform="matrix(-0.4,0,0,-0.4,-4,0)"
         style="stroke-opacity:1;fill-rule:evenodd;fill-opacity:1;stroke:#ffff00;stroke-width:1pt;fill:#ffff00"
         d="M 0,0 5,-5 -12.5,0 5,5 0,0 Z"
         id="path4594" />
    </marker>
    <marker
       style="overflow:visible"
       id="Arrow1MendqJA"
       refX="0"
       refY="0"
       orient="auto"
       inkscape:stockid="Arrow1MendqJA">
      <path
         inkscape:connector-curvature="0"
         transform="matrix(-0.4,0,0,-0.4,-4,0)"
         style="stroke-opacity:1;fill-rule:evenodd;fill-opacity:1;stroke:#ffff00;stroke-width:1pt;fill:#ffff00"
         d="M 0,0 5,-5 -12.5,0 5,5 0,0 Z"
         id="path4597" />
    </marker>
    <marker
       style="overflow:visible"
       id="Arrow1MendqJ8"
       refX="0"
       refY="0"
       orient="auto"
       inkscape:stockid="Arrow1MendqJ8">
      <path
         inkscape:connector-curvature="0"
         transform="matrix(-0.4,0,0,-0.4,-4,0)"
         style="stroke-opacity:1;fill-rule:evenodd;fill-opacity:1;stroke:#ffff00;stroke-width:1pt;fill:#ffff00"
         d="M 0,0 5,-5 -12.5,0 5,5 0,0 Z"
         id="path4600" />
    </marker>
    <marker
       style="overflow:visible"
       id="Arrow1MendqJN"
       refX="0"
       refY="0"
       orient="auto"
       inkscape:stockid="Arrow1MendqJN">
      <path
         inkscape:connector-curvature="0"
         transform="matrix(-0.4,0,0,-0.4,-4,0)"
         style="stroke-opacity:1;fill-rule:evenodd;fill-opacity:1;stroke:#ffff00;stroke-width:1pt;fill:#ffff00"
         d="M 0,0 5,-5 -12.5,0 5,5 0,0 Z"
         id="path4603" />
    </marker>
    <marker
       style="overflow:visible"
       id="Arrow1MendqJf"
       refX="0"
       refY="0"
       orient="auto"
       inkscape:stockid="Arrow1MendqJf">
      <path
         inkscape:connector-curvature="0"
         transform="matrix(-0.4,0,0,-0.4,-4,0)"
         style="stroke-opacity:1;fill-rule:evenodd;fill-opacity:1;stroke:#ffff00;stroke-width:1pt;fill:#ffff00"
         d="M 0,0 5,-5 -12.5,0 5,5 0,0 Z"
         id="path4606" />
    </marker>
    <marker
       style="overflow:visible"
       id="Arrow1MendP2o"
       refX="0"
       refY="0"
       orient="auto"
       inkscape:stockid="Arrow1MendP2o">
      <path
         inkscape:connector-curvature="0"
         transform="matrix(-0.4,0,0,-0.4,-4,0)"
         style="stroke-opacity:1;fill-rule:evenodd;fill-opacity:1;stroke:#ffff00;stroke-width:1pt;fill:#ffff00"
         d="M 0,0 5,-5 -12.5,0 5,5 0,0 Z"
         id="path4609" />
    </marker>
    <marker
       style="overflow:visible"
       id="Arrow1MendqJAv"
       refX="0"
       refY="0"
       orient="auto"
       inkscape:stockid="Arrow1MendqJAv">
      <path
         inkscape:connector-curvature="0"
         transform="matrix(-0.4,0,0,-0.4,-4,0)"
         style="stroke-opacity:1;fill-rule:evenodd;fill-opacity:1;stroke:#ffff00;stroke-width:1pt;fill:#ffff00"
         d="M 0,0 5,-5 -12.5,0 5,5 0,0 Z"
         id="path4612" />
    </marker>
    <marker
       style="overflow:visible"
       id="Arrow1MendqJa"
       refX="0"
       refY="0"
       orient="auto"
       inkscape:stockid="Arrow1MendqJa">
      <path
         inkscape:connector-curvature="0"
         transform="matrix(-0.4,0,0,-0.4,-4,0)"
         style="stroke-opacity:1;fill-rule:evenodd;fill-opacity:1;stroke:#ffff00;stroke-width:1pt;fill:#ffff00"
         d="M 0,0 5,-5 -12.5,0 5,5 0,0 Z"
         id="path4615" />
    </marker>
    <marker
       style="overflow:visible"
       id="Arrow1MendqJXy"
       refX="0"
       refY="0"
       orient="auto"
       inkscape:stockid="Arrow1MendqJXy">
      <path
         inkscape:connector-curvature="0"
         transform="matrix(-0.4,0,0,-0.4,-4,0)"
         style="stroke-opacity:1;fill-rule:evenodd;fill-opacity:1;stroke:#ffff00;stroke-width:1pt;fill:#ffff00"
         d="M 0,0 5,-5 -12.5,0 5,5 0,0 Z"
         id="path4618" />
    </marker>
  </defs>
  <metadata
     id="metadata5317">
    <rdf:RDF>
      <cc:Work
         rdf:about="">
        <dc:format>image/svg+xml</dc:format>
        <dc:type
           rdf:resource="http://purl.org/dc/dcmitype/StillImage" />
        <dc:title />
      </cc:Work>
    </rdf:RDF>
  </metadata>
  <g
     transform="translate(-57.657994,-186.75078)"
     id="layer1"
     inkscape:groupmode="layer"
     inkscape:label="Layer 1">
    <g
       id="g4779"
       transform="matrix(0.96320578,0,0,0.96306585,13.636536,14.480251)">
      <path
         style="fill:#000000;stroke:#ffff00;stroke-width:4.52662659;stroke-linecap:butt;stroke-linejoin:miter;stroke-miterlimit:4;stroke-dasharray:none;stroke-opacity:1;marker-end:url(#Arrow1MendqJf)"
         d="m 533.25121,464.25322 0,-64.95927"
         id="path6214"
         inkscape:connector-curvature="0" />
      <path
         inkscape:connector-curvature="0"
         id="path6218"
         d="m 486.7842,464.25322 0,-64.95927"
         style="fill:#000000;stroke:#ffff00;stroke-width:4.52662659;stroke-linecap:butt;stroke-linejoin:miter;stroke-miterlimit:4;stroke-dasharray:none;stroke-opacity:1;marker-end:url(#Arrow1MendqJ8)" />
      <path
         style="fill:#000000;stroke:#ffff00;stroke-width:4.52687979;stroke-linecap:butt;stroke-linejoin:miter;stroke-miterlimit:4;stroke-dasharray:none;stroke-opacity:1;marker-end:url(#Arrow1MendP2o)"
         d="m 672.65227,464.25322 0,-64.95927"
         id="path6220"
         inkscape:connector-curvature="0" />
      <path
         inkscape:connector-curvature="0"
         id="path6222"
         d="m 626.18531,462.24836 0,-132.86519"
         style="fill:#ff0000;stroke:#ff0000;stroke-width:8.6898222;stroke-linecap:butt;stroke-linejoin:miter;stroke-miterlimit:4;stroke-dasharray:none;stroke-opacity:1;marker-end:url(#Arrow1Mendr2)" />
      <path
         inkscape:connector-curvature="0"
         id="path6224"
         d="m 579.71826,464.25322 0,-64.95927"
         style="fill:#000000;stroke:#ffff00;stroke-width:4.52662659;stroke-linecap:butt;stroke-linejoin:miter;stroke-miterlimit:4;stroke-dasharray:none;stroke-opacity:1;marker-end:url(#Arrow1MendqJXy)" />
      <path
         style="fill:#ff0000;stroke:#ff0000;stroke-width:8.6898222;stroke-linecap:butt;stroke-linejoin:miter;stroke-miterlimit:4;stroke-dasharray:none;stroke-opacity:1;marker-end:url(#Arrow1MendaVi)"
         d="m 440.31719,462.24836 0,-132.86519"
         id="path6226"
         inkscape:connector-curvature="0" />
      <path
         inkscape:connector-curvature="0"
         id="path6228"
         d="m 393.85018,464.25322 0,-64.95927"
         style="fill:#000000;stroke:#ffff00;stroke-width:4.52662659;stroke-linecap:butt;stroke-linejoin:miter;stroke-miterlimit:4;stroke-dasharray:none;stroke-opacity:1;marker-end:url(#Arrow1MendqJA)" />
      <path
         style="fill:#000000;stroke:#ffff00;stroke-width:4.52662659;stroke-linecap:butt;stroke-linejoin:miter;stroke-miterlimit:4;stroke-dasharray:none;stroke-opacity:1;marker-end:url(#Arrow1MendqJN)"
         d="m 347.38317,464.25322 0,-64.95927"
         id="path6230"
         inkscape:connector-curvature="0" />
      <path
         inkscape:connector-curvature="0"
         id="path6232"
         d="m 300.91613,462.24836 0,-132.86519"
         style="fill:#ff0000;stroke:#ff0000;stroke-width:8.6898222;stroke-linecap:butt;stroke-linejoin:miter;stroke-miterlimit:4;stroke-dasharray:none;stroke-opacity:1;marker-end:url(#Arrow1MendYG)" />
      <path
         style="fill:#000000;stroke:#ffff00;stroke-width:4.52662659;stroke-linecap:butt;stroke-linejoin:miter;stroke-miterlimit:4;stroke-dasharray:none;stroke-opacity:1;marker-end:url(#Arrow1MendqJAv)"
         d="m 254.44912,464.25322 0,-64.95927"
         id="path6234"
         inkscape:connector-curvature="0" />
      <path
         inkscape:connector-curvature="0"
         id="path6236"
         d="m 207.98211,464.25322 0,-64.95927"
         style="fill:#000000;stroke:#ffff00;stroke-width:4.52662659;stroke-linecap:butt;stroke-linejoin:miter;stroke-miterlimit:4;stroke-dasharray:none;stroke-opacity:1;marker-end:url(#Arrow1MendqJa)" />
      <path
         style="fill:#000000;stroke:#ffff00;stroke-width:4.52662659;stroke-linecap:butt;stroke-linejoin:miter;stroke-miterlimit:4;stroke-dasharray:none;stroke-opacity:1;marker-end:url(#Arrow1MendqJX)"
         d="m 161.51507,464.25322 0,-64.95927"
         id="path6238"
         inkscape:connector-curvature="0" />
      <path
         inkscape:connector-curvature="0"
         id="path6240"
         d="m 115.04806,462.50543 0,-134.7236"
         style="fill:#ff0000;stroke:#ff0000;stroke-width:8.15599728;stroke-linecap:butt;stroke-linejoin:miter;stroke-miterlimit:4;stroke-dasharray:none;stroke-opacity:1;marker-end:url(#Arrow1Mend4l)" />
      <path
         style="fill:#000000;stroke:#ffff00;stroke-width:4.52662659;stroke-linecap:butt;stroke-linejoin:miter;stroke-miterlimit:4;stroke-dasharray:none;stroke-opacity:1;marker-end:url(#Arrow1MendqJK)"
         d="m 68.581044,464.25322 0,-64.95927"
         id="path6242"
         inkscape:connector-curvature="0" />
      <text
         xml:space="preserve"
         style="font-style:normal;font-weight:normal;font-size:24.70964241px;line-height:125%;font-family:'Bitstream Vera Sans';letter-spacing:0px;word-spacing:0px;fill:#ffff00;fill-opacity:1;stroke:#ffff00;stroke-width:0.83409888"
         x="253.01645"
         y="554.73767"
         id="text6749"
         sodipodi:linespacing="125%"><tspan
           sodipodi:role="line"
           id="tspan6751"
           x="253.01645"
           y="554.73767"
           style="fill:#ffff00;stroke:#ffff00;stroke-width:0.83409888">Нециљни стимулуси</tspan></text>
      <text
         sodipodi:linespacing="125%"
         id="text6884"
         y="217.54996"
         x="173.08104"
         style="font-style:normal;font-weight:normal;font-size:26.33779716px;line-height:125%;font-family:'Bitstream Vera Sans';letter-spacing:0px;word-spacing:0px;fill:#ffff00;fill-opacity:1;stroke:#ffff00;stroke-width:0.88905895"
         xml:space="preserve"><tspan
           y="217.54996"
           x="173.08104"
           id="tspan6886"
           sodipodi:role="line"
           style="fill:#ffff00;stroke:#ffff00;stroke-width:0.88905895">Циљни стимулуси</tspan></text>
      <path
         sodipodi:nodetypes="ssssscssss"
         inkscape:connector-curvature="0"
         id="rect7254"
         d="m 147.24177,187.20809 287.36433,0 c 5.46301,0 9.86102,3.67903 9.86102,8.24894 l 0,57.86325 c 0,4.5699 -3.57577,59.73598 -5.82041,55.56963 l -25.49432,-47.3207 -265.91062,0 c -5.463,0 -9.86102,-3.67903 -9.86102,-8.24893 l 0,-57.86325 c 0,-4.56991 4.39802,-8.24894 9.86102,-8.24894 z"
         style="color:#000000;display:inline;overflow:visible;visibility:visible;fill:none;stroke:#ffff00;stroke-width:0.94962156px;stroke-linecap:butt;stroke-linejoin:miter;stroke-miterlimit:4;stroke-dashoffset:0;stroke-opacity:1;marker:none;enable-background:accumulate" />
      <path
         style="color:#000000;display:inline;overflow:visible;visibility:visible;fill:none;stroke:#ffff00;stroke-width:0.96678859px;stroke-linecap:butt;stroke-linejoin:miter;stroke-miterlimit:4;stroke-dashoffset:0;stroke-opacity:1;marker:none;enable-background:accumulate"
         d="m 241.18596,596.90364 287.36433,0 c 5.46301,0 9.86102,-3.81325 9.86102,-8.54988 l 0,-59.97422 c 0,-4.73664 -3.57577,-61.91528 -5.82041,-57.59694 l -25.49432,49.04707 -265.91062,0 c -5.463,0 -9.86102,3.81323 -9.86102,8.54987 l 0,59.97422 c 0,4.73663 4.39802,8.54988 9.86102,8.54988 z"
         id="path7261"
         inkscape:connector-curvature="0"
         sodipodi:nodetypes="ssssscssss" />
      <text
         xml:space="preserve"
         style="font-style:normal;font-weight:normal;font-size:15.4648838px;line-height:125%;font-family:'Bitstream Vera Sans';letter-spacing:0px;word-spacing:0px;fill:#ffff00;fill-opacity:1;stroke:#ffff00;stroke-width:1.03827512"
         x="228.30324"
         y="246.63895"
         id="text4316"
         sodipodi:linespacing="125%"><tspan
           sodipodi:role="line"
           id="tspan4318"
           x="228.30324"
           y="246.63895"
           style="stroke-width:1.03827512">p = 0,10 - 0,20</tspan></text>
      <text
         sodipodi:linespacing="125%"
         id="text4320"
         y="584.02991"
         x="327.29819"
         style="font-style:normal;font-weight:normal;font-size:15.4648838px;line-height:125%;font-family:'Bitstream Vera Sans';letter-spacing:0px;word-spacing:0px;fill:#ffff00;fill-opacity:1;stroke:#ffff00;stroke-width:1.03827512"
         xml:space="preserve"><tspan
           y="584.02991"
           x="327.29819"
           id="tspan4322"
           sodipodi:role="line"
           style="stroke-width:1.03827512">p = 0,80 - 0,90</tspan></text>
    </g>
  </g>
</svg>
